<?xml version="1.0" encoding="UTF-8" standalone="no"?>
<!DOCTYPE svg PUBLIC "-//W3C//DTD SVG 1.1//EN"
 "http://www.w3.org/Graphics/SVG/1.1/DTD/svg11.dtd">
<!-- Generated by graphviz version 7.1.0 (20230121.1956)
 -->
<!-- Title: structs Pages: 1 -->
<svg width="741pt" height="101pt"
 viewBox="0.00 0.00 741.00 101.00" xmlns="http://www.w3.org/2000/svg" xmlns:xlink="http://www.w3.org/1999/xlink">
<g id="graph0" class="graph" transform="scale(1 1) rotate(0) translate(4 97)">
<title>structs</title>
<polygon fill="white" stroke="none" points="-4,4 -4,-97 737,-97 737,4 -4,4"/>
<text text-anchor="middle" x="366.5" y="-7.8" font-family="Times New Roman,serif" font-size="14.00">Siguientes (cadena)</text>
<!-- struct1 -->
<g id="node1" class="node">
<title>struct1</title>
<path fill="none" stroke="gray" d="M12,-23.5C12,-23.5 721,-23.5 721,-23.5 727,-23.5 733,-29.5 733,-35.5 733,-35.5 733,-80.5 733,-80.5 733,-86.5 727,-92.5 721,-92.5 721,-92.5 12,-92.5 12,-92.5 6,-92.5 0,-86.5 0,-80.5 0,-80.5 0,-35.5 0,-35.5 0,-29.5 6,-23.5 12,-23.5"/>
<text text-anchor="middle" x="33" y="-77.3" font-family="Times New Roman,serif" font-size="14.00" fill="#d97e16">Valor</text>
<polyline fill="none" stroke="gray" points="0,-69.5 66,-69.5"/>
<text text-anchor="middle" x="33" y="-54.3" font-family="Times New Roman,serif" font-size="14.00" fill="#d97e16">Hoja</text>
<polyline fill="none" stroke="gray" points="0,-46.5 66,-46.5"/>
<text text-anchor="middle" x="33" y="-31.3" font-family="Times New Roman,serif" font-size="14.00" fill="#d97e16">Siguietes</text>
<polyline fill="none" stroke="gray" points="66,-23.5 66,-92.5"/>
<text text-anchor="middle" x="110.5" y="-77.3" font-family="Times New Roman,serif" font-size="14.00" fill="#d97e16">&#39;</text>
<polyline fill="none" stroke="gray" points="66,-69.5 155,-69.5"/>
<text text-anchor="middle" x="110.5" y="-54.3" font-family="Times New Roman,serif" font-size="14.00" fill="#d97e16">1</text>
<polyline fill="none" stroke="gray" points="66,-46.5 155,-46.5"/>
<text text-anchor="middle" x="110.5" y="-31.3" font-family="Times New Roman,serif" font-size="14.00" fill="#d97e16">[2, 3, 4, 5, 6]</text>
<polyline fill="none" stroke="gray" points="155,-23.5 155,-92.5"/>
<text text-anchor="middle" x="207" y="-77.3" font-family="Times New Roman,serif" font-size="14.00" fill="#d97e16">\n</text>
<polyline fill="none" stroke="gray" points="155,-69.5 259,-69.5"/>
<text text-anchor="middle" x="207" y="-54.3" font-family="Times New Roman,serif" font-size="14.00" fill="#d97e16">2</text>
<polyline fill="none" stroke="gray" points="155,-46.5 259,-46.5"/>
<text text-anchor="middle" x="207" y="-31.3" font-family="Times New Roman,serif" font-size="14.00" fill="#d97e16">[2, 3, 4, 5, 6, 7]</text>
<polyline fill="none" stroke="gray" points="259,-23.5 259,-92.5"/>
<text text-anchor="middle" x="311" y="-77.3" font-family="Times New Roman,serif" font-size="14.00" fill="#d97e16">minus</text>
<polyline fill="none" stroke="gray" points="259,-69.5 363,-69.5"/>
<text text-anchor="middle" x="311" y="-54.3" font-family="Times New Roman,serif" font-size="14.00" fill="#d97e16">3</text>
<polyline fill="none" stroke="gray" points="259,-46.5 363,-46.5"/>
<text text-anchor="middle" x="311" y="-31.3" font-family="Times New Roman,serif" font-size="14.00" fill="#d97e16">[2, 3, 4, 5, 6, 7]</text>
<polyline fill="none" stroke="gray" points="363,-23.5 363,-92.5"/>
<text text-anchor="middle" x="415" y="-77.3" font-family="Times New Roman,serif" font-size="14.00" fill="#d97e16">mayus</text>
<polyline fill="none" stroke="gray" points="363,-69.5 467,-69.5"/>
<text text-anchor="middle" x="415" y="-54.3" font-family="Times New Roman,serif" font-size="14.00" fill="#d97e16">4</text>
<polyline fill="none" stroke="gray" points="363,-46.5 467,-46.5"/>
<text text-anchor="middle" x="415" y="-31.3" font-family="Times New Roman,serif" font-size="14.00" fill="#d97e16">[2, 3, 4, 5, 6, 7]</text>
<polyline fill="none" stroke="gray" points="467,-23.5 467,-92.5"/>
<text text-anchor="middle" x="519" y="-77.3" font-family="Times New Roman,serif" font-size="14.00" fill="#d97e16">digito</text>
<polyline fill="none" stroke="gray" points="467,-69.5 571,-69.5"/>
<text text-anchor="middle" x="519" y="-54.3" font-family="Times New Roman,serif" font-size="14.00" fill="#d97e16">5</text>
<polyline fill="none" stroke="gray" points="467,-46.5 571,-46.5"/>
<text text-anchor="middle" x="519" y="-31.3" font-family="Times New Roman,serif" font-size="14.00" fill="#d97e16">[2, 3, 4, 5, 6, 7]</text>
<polyline fill="none" stroke="gray" points="571,-23.5 571,-92.5"/>
<text text-anchor="middle" x="623" y="-77.3" font-family="Times New Roman,serif" font-size="14.00" fill="#d97e16">&quot; &quot;</text>
<polyline fill="none" stroke="gray" points="571,-69.5 675,-69.5"/>
<text text-anchor="middle" x="623" y="-54.3" font-family="Times New Roman,serif" font-size="14.00" fill="#d97e16">6</text>
<polyline fill="none" stroke="gray" points="571,-46.5 675,-46.5"/>
<text text-anchor="middle" x="623" y="-31.3" font-family="Times New Roman,serif" font-size="14.00" fill="#d97e16">[2, 3, 4, 5, 6, 7]</text>
<polyline fill="none" stroke="gray" points="675,-23.5 675,-92.5"/>
<text text-anchor="middle" x="691" y="-77.3" font-family="Times New Roman,serif" font-size="14.00" fill="#d97e16">&#39;</text>
<polyline fill="none" stroke="gray" points="675,-69.5 707,-69.5"/>
<text text-anchor="middle" x="691" y="-54.3" font-family="Times New Roman,serif" font-size="14.00" fill="#d97e16">7</text>
<polyline fill="none" stroke="gray" points="675,-46.5 707,-46.5"/>
<text text-anchor="middle" x="691" y="-31.3" font-family="Times New Roman,serif" font-size="14.00" fill="#d97e16">[8]</text>
<polyline fill="none" stroke="gray" points="707,-23.5 707,-92.5"/>
<text text-anchor="middle" x="720" y="-77.3" font-family="Times New Roman,serif" font-size="14.00" fill="#d97e16">$</text>
<polyline fill="none" stroke="gray" points="707,-69.5 733,-69.5"/>
<text text-anchor="middle" x="720" y="-54.3" font-family="Times New Roman,serif" font-size="14.00" fill="#d97e16">8</text>
<polyline fill="none" stroke="gray" points="707,-46.5 733,-46.5"/>
<text text-anchor="middle" x="720" y="-31.3" font-family="Times New Roman,serif" font-size="14.00" fill="#d97e16">[]</text>
</g>
</g>
</svg>
