<?xml version="1.0" encoding="UTF-8" standalone="no"?>
<!DOCTYPE svg PUBLIC "-//W3C//DTD SVG 1.1//EN"
 "http://www.w3.org/Graphics/SVG/1.1/DTD/svg11.dtd">
<!-- Generated by graphviz version 7.1.0 (20230121.1956)
 -->
<!-- Title: structs Pages: 1 -->
<svg width="960pt" height="101pt"
 viewBox="0.00 0.00 960.00 101.00" xmlns="http://www.w3.org/2000/svg" xmlns:xlink="http://www.w3.org/1999/xlink">
<g id="graph0" class="graph" transform="scale(1 1) rotate(0) translate(4 97)">
<title>structs</title>
<polygon fill="white" stroke="none" points="-4,4 -4,-97 956,-97 956,4 -4,4"/>
<text text-anchor="middle" x="476" y="-7.8" font-family="Times New Roman,serif" font-size="14.00">Siguientes (correoElectronico)</text>
<!-- struct1 -->
<g id="node1" class="node">
<title>struct1</title>
<path fill="none" stroke="gray" d="M12,-23.5C12,-23.5 940,-23.5 940,-23.5 946,-23.5 952,-29.5 952,-35.5 952,-35.5 952,-80.5 952,-80.5 952,-86.5 946,-92.5 940,-92.5 940,-92.5 12,-92.5 12,-92.5 6,-92.5 0,-86.5 0,-80.5 0,-80.5 0,-35.5 0,-35.5 0,-29.5 6,-23.5 12,-23.5"/>
<text text-anchor="middle" x="33" y="-77.3" font-family="Times New Roman,serif" font-size="14.00" fill="#d97e16">Valor</text>
<polyline fill="none" stroke="gray" points="0,-69.5 66,-69.5"/>
<text text-anchor="middle" x="33" y="-54.3" font-family="Times New Roman,serif" font-size="14.00" fill="#d97e16">Hoja</text>
<polyline fill="none" stroke="gray" points="0,-46.5 66,-46.5"/>
<text text-anchor="middle" x="33" y="-31.3" font-family="Times New Roman,serif" font-size="14.00" fill="#d97e16">Siguietes</text>
<polyline fill="none" stroke="gray" points="66,-23.5 66,-92.5"/>
<text text-anchor="middle" x="103.5" y="-77.3" font-family="Times New Roman,serif" font-size="14.00" fill="#d97e16">minuscula</text>
<polyline fill="none" stroke="gray" points="66,-69.5 141,-69.5"/>
<text text-anchor="middle" x="103.5" y="-54.3" font-family="Times New Roman,serif" font-size="14.00" fill="#d97e16">1</text>
<polyline fill="none" stroke="gray" points="66,-46.5 141,-46.5"/>
<text text-anchor="middle" x="103.5" y="-31.3" font-family="Times New Roman,serif" font-size="14.00" fill="#d97e16">[3, 4, 5, 6]</text>
<polyline fill="none" stroke="gray" points="141,-23.5 141,-92.5"/>
<text text-anchor="middle" x="178.5" y="-77.3" font-family="Times New Roman,serif" font-size="14.00" fill="#d97e16">mayuscula</text>
<polyline fill="none" stroke="gray" points="141,-69.5 216,-69.5"/>
<text text-anchor="middle" x="178.5" y="-54.3" font-family="Times New Roman,serif" font-size="14.00" fill="#d97e16">2</text>
<polyline fill="none" stroke="gray" points="141,-46.5 216,-46.5"/>
<text text-anchor="middle" x="178.5" y="-31.3" font-family="Times New Roman,serif" font-size="14.00" fill="#d97e16">[3, 4, 5, 6]</text>
<polyline fill="none" stroke="gray" points="216,-23.5 216,-92.5"/>
<text text-anchor="middle" x="260.5" y="-77.3" font-family="Times New Roman,serif" font-size="14.00" fill="#d97e16">simbolos</text>
<polyline fill="none" stroke="gray" points="216,-69.5 305,-69.5"/>
<text text-anchor="middle" x="260.5" y="-54.3" font-family="Times New Roman,serif" font-size="14.00" fill="#d97e16">3</text>
<polyline fill="none" stroke="gray" points="216,-46.5 305,-46.5"/>
<text text-anchor="middle" x="260.5" y="-31.3" font-family="Times New Roman,serif" font-size="14.00" fill="#d97e16">[3, 4, 5, 6, 7]</text>
<polyline fill="none" stroke="gray" points="305,-23.5 305,-92.5"/>
<text text-anchor="middle" x="349.5" y="-77.3" font-family="Times New Roman,serif" font-size="14.00" fill="#d97e16">minuscula</text>
<polyline fill="none" stroke="gray" points="305,-69.5 394,-69.5"/>
<text text-anchor="middle" x="349.5" y="-54.3" font-family="Times New Roman,serif" font-size="14.00" fill="#d97e16">4</text>
<polyline fill="none" stroke="gray" points="305,-46.5 394,-46.5"/>
<text text-anchor="middle" x="349.5" y="-31.3" font-family="Times New Roman,serif" font-size="14.00" fill="#d97e16">[3, 4, 5, 6, 7]</text>
<polyline fill="none" stroke="gray" points="394,-23.5 394,-92.5"/>
<text text-anchor="middle" x="438.5" y="-77.3" font-family="Times New Roman,serif" font-size="14.00" fill="#d97e16">mayuscula</text>
<polyline fill="none" stroke="gray" points="394,-69.5 483,-69.5"/>
<text text-anchor="middle" x="438.5" y="-54.3" font-family="Times New Roman,serif" font-size="14.00" fill="#d97e16">5</text>
<polyline fill="none" stroke="gray" points="394,-46.5 483,-46.5"/>
<text text-anchor="middle" x="438.5" y="-31.3" font-family="Times New Roman,serif" font-size="14.00" fill="#d97e16">[3, 4, 5, 6, 7]</text>
<polyline fill="none" stroke="gray" points="483,-23.5 483,-92.5"/>
<text text-anchor="middle" x="527.5" y="-77.3" font-family="Times New Roman,serif" font-size="14.00" fill="#d97e16">numero</text>
<polyline fill="none" stroke="gray" points="483,-69.5 572,-69.5"/>
<text text-anchor="middle" x="527.5" y="-54.3" font-family="Times New Roman,serif" font-size="14.00" fill="#d97e16">6</text>
<polyline fill="none" stroke="gray" points="483,-46.5 572,-46.5"/>
<text text-anchor="middle" x="527.5" y="-31.3" font-family="Times New Roman,serif" font-size="14.00" fill="#d97e16">[3, 4, 5, 6, 7]</text>
<polyline fill="none" stroke="gray" points="572,-23.5 572,-92.5"/>
<text text-anchor="middle" x="595.5" y="-77.3" font-family="Times New Roman,serif" font-size="14.00" fill="#d97e16">&quot;@&quot;</text>
<polyline fill="none" stroke="gray" points="572,-69.5 619,-69.5"/>
<text text-anchor="middle" x="595.5" y="-54.3" font-family="Times New Roman,serif" font-size="14.00" fill="#d97e16">7</text>
<polyline fill="none" stroke="gray" points="572,-46.5 619,-46.5"/>
<text text-anchor="middle" x="595.5" y="-31.3" font-family="Times New Roman,serif" font-size="14.00" fill="#d97e16">[8, 9]</text>
<polyline fill="none" stroke="gray" points="619,-23.5 619,-92.5"/>
<text text-anchor="middle" x="655" y="-77.3" font-family="Times New Roman,serif" font-size="14.00" fill="#d97e16">minuscula</text>
<polyline fill="none" stroke="gray" points="619,-69.5 691,-69.5"/>
<text text-anchor="middle" x="655" y="-54.3" font-family="Times New Roman,serif" font-size="14.00" fill="#d97e16">8</text>
<polyline fill="none" stroke="gray" points="619,-46.5 691,-46.5"/>
<text text-anchor="middle" x="655" y="-31.3" font-family="Times New Roman,serif" font-size="14.00" fill="#d97e16">[8, 9, 10]</text>
<polyline fill="none" stroke="gray" points="691,-23.5 691,-92.5"/>
<text text-anchor="middle" x="728.5" y="-77.3" font-family="Times New Roman,serif" font-size="14.00" fill="#d97e16">mayuscula</text>
<polyline fill="none" stroke="gray" points="691,-69.5 766,-69.5"/>
<text text-anchor="middle" x="728.5" y="-54.3" font-family="Times New Roman,serif" font-size="14.00" fill="#d97e16">9</text>
<polyline fill="none" stroke="gray" points="691,-46.5 766,-46.5"/>
<text text-anchor="middle" x="728.5" y="-31.3" font-family="Times New Roman,serif" font-size="14.00" fill="#d97e16">[8, 9, 10]</text>
<polyline fill="none" stroke="gray" points="766,-23.5 766,-92.5"/>
<text text-anchor="middle" x="785.5" y="-77.3" font-family="Times New Roman,serif" font-size="14.00" fill="#d97e16">&quot;.&quot;</text>
<polyline fill="none" stroke="gray" points="766,-69.5 805,-69.5"/>
<text text-anchor="middle" x="785.5" y="-54.3" font-family="Times New Roman,serif" font-size="14.00" fill="#d97e16">10</text>
<polyline fill="none" stroke="gray" points="766,-46.5 805,-46.5"/>
<text text-anchor="middle" x="785.5" y="-31.3" font-family="Times New Roman,serif" font-size="14.00" fill="#d97e16">[11]</text>
<polyline fill="none" stroke="gray" points="805,-23.5 805,-92.5"/>
<text text-anchor="middle" x="824.5" y="-77.3" font-family="Times New Roman,serif" font-size="14.00" fill="#d97e16">&quot;c&quot;</text>
<polyline fill="none" stroke="gray" points="805,-69.5 844,-69.5"/>
<text text-anchor="middle" x="824.5" y="-54.3" font-family="Times New Roman,serif" font-size="14.00" fill="#d97e16">11</text>
<polyline fill="none" stroke="gray" points="805,-46.5 844,-46.5"/>
<text text-anchor="middle" x="824.5" y="-31.3" font-family="Times New Roman,serif" font-size="14.00" fill="#d97e16">[12]</text>
<polyline fill="none" stroke="gray" points="844,-23.5 844,-92.5"/>
<text text-anchor="middle" x="863.5" y="-77.3" font-family="Times New Roman,serif" font-size="14.00" fill="#d97e16">&quot;o&quot;</text>
<polyline fill="none" stroke="gray" points="844,-69.5 883,-69.5"/>
<text text-anchor="middle" x="863.5" y="-54.3" font-family="Times New Roman,serif" font-size="14.00" fill="#d97e16">12</text>
<polyline fill="none" stroke="gray" points="844,-46.5 883,-46.5"/>
<text text-anchor="middle" x="863.5" y="-31.3" font-family="Times New Roman,serif" font-size="14.00" fill="#d97e16">[13]</text>
<polyline fill="none" stroke="gray" points="883,-23.5 883,-92.5"/>
<text text-anchor="middle" x="902.5" y="-77.3" font-family="Times New Roman,serif" font-size="14.00" fill="#d97e16">&quot;m&quot;</text>
<polyline fill="none" stroke="gray" points="883,-69.5 922,-69.5"/>
<text text-anchor="middle" x="902.5" y="-54.3" font-family="Times New Roman,serif" font-size="14.00" fill="#d97e16">13</text>
<polyline fill="none" stroke="gray" points="883,-46.5 922,-46.5"/>
<text text-anchor="middle" x="902.5" y="-31.3" font-family="Times New Roman,serif" font-size="14.00" fill="#d97e16">[14]</text>
<polyline fill="none" stroke="gray" points="922,-23.5 922,-92.5"/>
<text text-anchor="middle" x="937" y="-77.3" font-family="Times New Roman,serif" font-size="14.00" fill="#d97e16">$</text>
<polyline fill="none" stroke="gray" points="922,-69.5 952,-69.5"/>
<text text-anchor="middle" x="937" y="-54.3" font-family="Times New Roman,serif" font-size="14.00" fill="#d97e16">14</text>
<polyline fill="none" stroke="gray" points="922,-46.5 952,-46.5"/>
<text text-anchor="middle" x="937" y="-31.3" font-family="Times New Roman,serif" font-size="14.00" fill="#d97e16">[]</text>
</g>
</g>
</svg>
