<?xml version="1.0" encoding="UTF-8" standalone="no"?>
<!DOCTYPE svg PUBLIC "-//W3C//DTD SVG 1.1//EN"
 "http://www.w3.org/Graphics/SVG/1.1/DTD/svg11.dtd">
<!-- Generated by graphviz version 7.1.0 (20230121.1956)
 -->
<!-- Title: structs Pages: 1 -->
<svg width="228pt" height="101pt"
 viewBox="0.00 0.00 228.00 101.00" xmlns="http://www.w3.org/2000/svg" xmlns:xlink="http://www.w3.org/1999/xlink">
<g id="graph0" class="graph" transform="scale(1 1) rotate(0) translate(4 97)">
<title>structs</title>
<polygon fill="white" stroke="none" points="-4,4 -4,-97 224,-97 224,4 -4,4"/>
<text text-anchor="middle" x="110" y="-7.8" font-family="Times New Roman,serif" font-size="14.00">Siguientes (decimales)</text>
<!-- struct1 -->
<g id="node1" class="node">
<title>struct1</title>
<path fill="none" stroke="gray" d="M12,-23.5C12,-23.5 208,-23.5 208,-23.5 214,-23.5 220,-29.5 220,-35.5 220,-35.5 220,-80.5 220,-80.5 220,-86.5 214,-92.5 208,-92.5 208,-92.5 12,-92.5 12,-92.5 6,-92.5 0,-86.5 0,-80.5 0,-80.5 0,-35.5 0,-35.5 0,-29.5 6,-23.5 12,-23.5"/>
<text text-anchor="middle" x="33" y="-77.3" font-family="Times New Roman,serif" font-size="14.00" fill="#d97e16">Valor</text>
<polyline fill="none" stroke="gray" points="0,-69.5 66,-69.5"/>
<text text-anchor="middle" x="33" y="-54.3" font-family="Times New Roman,serif" font-size="14.00" fill="#d97e16">Hoja</text>
<polyline fill="none" stroke="gray" points="0,-46.5 66,-46.5"/>
<text text-anchor="middle" x="33" y="-31.3" font-family="Times New Roman,serif" font-size="14.00" fill="#d97e16">Siguietes</text>
<polyline fill="none" stroke="gray" points="66,-23.5 66,-92.5"/>
<text text-anchor="middle" x="90" y="-77.3" font-family="Times New Roman,serif" font-size="14.00" fill="#d97e16">digito</text>
<polyline fill="none" stroke="gray" points="66,-69.5 114,-69.5"/>
<text text-anchor="middle" x="90" y="-54.3" font-family="Times New Roman,serif" font-size="14.00" fill="#d97e16">1</text>
<polyline fill="none" stroke="gray" points="66,-46.5 114,-46.5"/>
<text text-anchor="middle" x="90" y="-31.3" font-family="Times New Roman,serif" font-size="14.00" fill="#d97e16">[1, 2]</text>
<polyline fill="none" stroke="gray" points="114,-23.5 114,-92.5"/>
<text text-anchor="middle" x="130" y="-77.3" font-family="Times New Roman,serif" font-size="14.00" fill="#d97e16">&quot;.&quot;</text>
<polyline fill="none" stroke="gray" points="114,-69.5 146,-69.5"/>
<text text-anchor="middle" x="130" y="-54.3" font-family="Times New Roman,serif" font-size="14.00" fill="#d97e16">2</text>
<polyline fill="none" stroke="gray" points="114,-46.5 146,-46.5"/>
<text text-anchor="middle" x="130" y="-31.3" font-family="Times New Roman,serif" font-size="14.00" fill="#d97e16">[3]</text>
<polyline fill="none" stroke="gray" points="146,-23.5 146,-92.5"/>
<text text-anchor="middle" x="170" y="-77.3" font-family="Times New Roman,serif" font-size="14.00" fill="#d97e16">digito</text>
<polyline fill="none" stroke="gray" points="146,-69.5 194,-69.5"/>
<text text-anchor="middle" x="170" y="-54.3" font-family="Times New Roman,serif" font-size="14.00" fill="#d97e16">3</text>
<polyline fill="none" stroke="gray" points="146,-46.5 194,-46.5"/>
<text text-anchor="middle" x="170" y="-31.3" font-family="Times New Roman,serif" font-size="14.00" fill="#d97e16">[3, 4]</text>
<polyline fill="none" stroke="gray" points="194,-23.5 194,-92.5"/>
<text text-anchor="middle" x="207" y="-77.3" font-family="Times New Roman,serif" font-size="14.00" fill="#d97e16">$</text>
<polyline fill="none" stroke="gray" points="194,-69.5 220,-69.5"/>
<text text-anchor="middle" x="207" y="-54.3" font-family="Times New Roman,serif" font-size="14.00" fill="#d97e16">4</text>
<polyline fill="none" stroke="gray" points="194,-46.5 220,-46.5"/>
<text text-anchor="middle" x="207" y="-31.3" font-family="Times New Roman,serif" font-size="14.00" fill="#d97e16">[]</text>
</g>
</g>
</svg>
