<?xml version="1.0" encoding="UTF-8" standalone="no"?>
<!DOCTYPE svg PUBLIC "-//W3C//DTD SVG 1.1//EN"
 "http://www.w3.org/Graphics/SVG/1.1/DTD/svg11.dtd">
<!-- Generated by graphviz version 7.1.0 (20230121.1956)
 -->
<!-- Title: structs Pages: 1 -->
<svg width="620pt" height="101pt"
 viewBox="0.00 0.00 620.00 101.00" xmlns="http://www.w3.org/2000/svg" xmlns:xlink="http://www.w3.org/1999/xlink">
<g id="graph0" class="graph" transform="scale(1 1) rotate(0) translate(4 97)">
<title>structs</title>
<polygon fill="white" stroke="none" points="-4,4 -4,-97 616,-97 616,4 -4,4"/>
<text text-anchor="middle" x="306" y="-7.8" font-family="Times New Roman,serif" font-size="14.00">Siguientes (frase)</text>
<!-- struct1 -->
<g id="node1" class="node">
<title>struct1</title>
<path fill="none" stroke="gray" d="M12,-23.5C12,-23.5 600,-23.5 600,-23.5 606,-23.5 612,-29.5 612,-35.5 612,-35.5 612,-80.5 612,-80.5 612,-86.5 606,-92.5 600,-92.5 600,-92.5 12,-92.5 12,-92.5 6,-92.5 0,-86.5 0,-80.5 0,-80.5 0,-35.5 0,-35.5 0,-29.5 6,-23.5 12,-23.5"/>
<text text-anchor="middle" x="33" y="-77.3" font-family="Times New Roman,serif" font-size="14.00" fill="#d97e16">Valor</text>
<polyline fill="none" stroke="gray" points="0,-69.5 66,-69.5"/>
<text text-anchor="middle" x="33" y="-54.3" font-family="Times New Roman,serif" font-size="14.00" fill="#d97e16">Hoja</text>
<polyline fill="none" stroke="gray" points="0,-46.5 66,-46.5"/>
<text text-anchor="middle" x="33" y="-31.3" font-family="Times New Roman,serif" font-size="14.00" fill="#d97e16">Siguietes</text>
<polyline fill="none" stroke="gray" points="66,-23.5 66,-92.5"/>
<text text-anchor="middle" x="85" y="-77.3" font-family="Times New Roman,serif" font-size="14.00" fill="#d97e16">&quot;C&quot;</text>
<polyline fill="none" stroke="gray" points="66,-69.5 104,-69.5"/>
<text text-anchor="middle" x="85" y="-54.3" font-family="Times New Roman,serif" font-size="14.00" fill="#d97e16">1</text>
<polyline fill="none" stroke="gray" points="66,-46.5 104,-46.5"/>
<text text-anchor="middle" x="85" y="-31.3" font-family="Times New Roman,serif" font-size="14.00" fill="#d97e16">[2]</text>
<polyline fill="none" stroke="gray" points="104,-23.5 104,-92.5"/>
<text text-anchor="middle" x="123.5" y="-77.3" font-family="Times New Roman,serif" font-size="14.00" fill="#d97e16">&quot;O&quot;</text>
<polyline fill="none" stroke="gray" points="104,-69.5 143,-69.5"/>
<text text-anchor="middle" x="123.5" y="-54.3" font-family="Times New Roman,serif" font-size="14.00" fill="#d97e16">2</text>
<polyline fill="none" stroke="gray" points="104,-46.5 143,-46.5"/>
<text text-anchor="middle" x="123.5" y="-31.3" font-family="Times New Roman,serif" font-size="14.00" fill="#d97e16">[3]</text>
<polyline fill="none" stroke="gray" points="143,-23.5 143,-92.5"/>
<text text-anchor="middle" x="163.5" y="-77.3" font-family="Times New Roman,serif" font-size="14.00" fill="#d97e16">&quot;M&quot;</text>
<polyline fill="none" stroke="gray" points="143,-69.5 184,-69.5"/>
<text text-anchor="middle" x="163.5" y="-54.3" font-family="Times New Roman,serif" font-size="14.00" fill="#d97e16">3</text>
<polyline fill="none" stroke="gray" points="143,-46.5 184,-46.5"/>
<text text-anchor="middle" x="163.5" y="-31.3" font-family="Times New Roman,serif" font-size="14.00" fill="#d97e16">[4]</text>
<polyline fill="none" stroke="gray" points="184,-23.5 184,-92.5"/>
<text text-anchor="middle" x="202.5" y="-77.3" font-family="Times New Roman,serif" font-size="14.00" fill="#d97e16">&quot;P&quot;</text>
<polyline fill="none" stroke="gray" points="184,-69.5 221,-69.5"/>
<text text-anchor="middle" x="202.5" y="-54.3" font-family="Times New Roman,serif" font-size="14.00" fill="#d97e16">4</text>
<polyline fill="none" stroke="gray" points="184,-46.5 221,-46.5"/>
<text text-anchor="middle" x="202.5" y="-31.3" font-family="Times New Roman,serif" font-size="14.00" fill="#d97e16">[5]</text>
<polyline fill="none" stroke="gray" points="221,-23.5 221,-92.5"/>
<text text-anchor="middle" x="237.5" y="-77.3" font-family="Times New Roman,serif" font-size="14.00" fill="#d97e16">&quot;I&quot;</text>
<polyline fill="none" stroke="gray" points="221,-69.5 254,-69.5"/>
<text text-anchor="middle" x="237.5" y="-54.3" font-family="Times New Roman,serif" font-size="14.00" fill="#d97e16">5</text>
<polyline fill="none" stroke="gray" points="221,-46.5 254,-46.5"/>
<text text-anchor="middle" x="237.5" y="-31.3" font-family="Times New Roman,serif" font-size="14.00" fill="#d97e16">[6]</text>
<polyline fill="none" stroke="gray" points="254,-23.5 254,-92.5"/>
<text text-anchor="middle" x="295" y="-77.3" font-family="Times New Roman,serif" font-size="14.00" fill="#d97e16">&quot;1&quot;</text>
<polyline fill="none" stroke="gray" points="254,-69.5 336,-69.5"/>
<text text-anchor="middle" x="295" y="-54.3" font-family="Times New Roman,serif" font-size="14.00" fill="#d97e16">6</text>
<polyline fill="none" stroke="gray" points="254,-46.5 336,-46.5"/>
<text text-anchor="middle" x="295" y="-31.3" font-family="Times New Roman,serif" font-size="14.00" fill="#d97e16">[7, 8, 9, 10]</text>
<polyline fill="none" stroke="gray" points="336,-23.5 336,-92.5"/>
<text text-anchor="middle" x="377" y="-77.3" font-family="Times New Roman,serif" font-size="14.00" fill="#d97e16">letra</text>
<polyline fill="none" stroke="gray" points="336,-69.5 418,-69.5"/>
<text text-anchor="middle" x="377" y="-54.3" font-family="Times New Roman,serif" font-size="14.00" fill="#d97e16">7</text>
<polyline fill="none" stroke="gray" points="336,-46.5 418,-46.5"/>
<text text-anchor="middle" x="377" y="-31.3" font-family="Times New Roman,serif" font-size="14.00" fill="#d97e16">[7, 8, 9, 10]</text>
<polyline fill="none" stroke="gray" points="418,-23.5 418,-92.5"/>
<text text-anchor="middle" x="459" y="-77.3" font-family="Times New Roman,serif" font-size="14.00" fill="#d97e16">digito</text>
<polyline fill="none" stroke="gray" points="418,-69.5 500,-69.5"/>
<text text-anchor="middle" x="459" y="-54.3" font-family="Times New Roman,serif" font-size="14.00" fill="#d97e16">8</text>
<polyline fill="none" stroke="gray" points="418,-46.5 500,-46.5"/>
<text text-anchor="middle" x="459" y="-31.3" font-family="Times New Roman,serif" font-size="14.00" fill="#d97e16">[7, 8, 9, 10]</text>
<polyline fill="none" stroke="gray" points="500,-23.5 500,-92.5"/>
<text text-anchor="middle" x="541" y="-77.3" font-family="Times New Roman,serif" font-size="14.00" fill="#d97e16">&quot; &quot;</text>
<polyline fill="none" stroke="gray" points="500,-69.5 582,-69.5"/>
<text text-anchor="middle" x="541" y="-54.3" font-family="Times New Roman,serif" font-size="14.00" fill="#d97e16">9</text>
<polyline fill="none" stroke="gray" points="500,-46.5 582,-46.5"/>
<text text-anchor="middle" x="541" y="-31.3" font-family="Times New Roman,serif" font-size="14.00" fill="#d97e16">[7, 8, 9, 10]</text>
<polyline fill="none" stroke="gray" points="582,-23.5 582,-92.5"/>
<text text-anchor="middle" x="597" y="-77.3" font-family="Times New Roman,serif" font-size="14.00" fill="#d97e16">$</text>
<polyline fill="none" stroke="gray" points="582,-69.5 612,-69.5"/>
<text text-anchor="middle" x="597" y="-54.3" font-family="Times New Roman,serif" font-size="14.00" fill="#d97e16">10</text>
<polyline fill="none" stroke="gray" points="582,-46.5 612,-46.5"/>
<text text-anchor="middle" x="597" y="-31.3" font-family="Times New Roman,serif" font-size="14.00" fill="#d97e16">[]</text>
</g>
</g>
</svg>
