<?xml version="1.0" encoding="UTF-8" standalone="no"?>
<!DOCTYPE svg PUBLIC "-//W3C//DTD SVG 1.1//EN"
 "http://www.w3.org/Graphics/SVG/1.1/DTD/svg11.dtd">
<!-- Generated by graphviz version 7.1.0 (20230121.1956)
 -->
<!-- Title: structs Pages: 1 -->
<svg width="474pt" height="101pt"
 viewBox="0.00 0.00 474.00 101.00" xmlns="http://www.w3.org/2000/svg" xmlns:xlink="http://www.w3.org/1999/xlink">
<g id="graph0" class="graph" transform="scale(1 1) rotate(0) translate(4 97)">
<title>structs</title>
<polygon fill="white" stroke="none" points="-4,4 -4,-97 470,-97 470,4 -4,4"/>
<text text-anchor="middle" x="233" y="-7.8" font-family="Times New Roman,serif" font-size="14.00">Siguientes (identificador)</text>
<!-- struct1 -->
<g id="node1" class="node">
<title>struct1</title>
<path fill="none" stroke="gray" d="M12,-23.5C12,-23.5 454,-23.5 454,-23.5 460,-23.5 466,-29.5 466,-35.5 466,-35.5 466,-80.5 466,-80.5 466,-86.5 460,-92.5 454,-92.5 454,-92.5 12,-92.5 12,-92.5 6,-92.5 0,-86.5 0,-80.5 0,-80.5 0,-35.5 0,-35.5 0,-29.5 6,-23.5 12,-23.5"/>
<text text-anchor="middle" x="33" y="-77.3" font-family="Times New Roman,serif" font-size="14.00" fill="#d97e16">Valor</text>
<polyline fill="none" stroke="gray" points="0,-69.5 66,-69.5"/>
<text text-anchor="middle" x="33" y="-54.3" font-family="Times New Roman,serif" font-size="14.00" fill="#d97e16">Hoja</text>
<polyline fill="none" stroke="gray" points="0,-46.5 66,-46.5"/>
<text text-anchor="middle" x="33" y="-31.3" font-family="Times New Roman,serif" font-size="14.00" fill="#d97e16">Siguietes</text>
<polyline fill="none" stroke="gray" points="66,-23.5 66,-92.5"/>
<text text-anchor="middle" x="122" y="-77.3" font-family="Times New Roman,serif" font-size="14.00" fill="#d97e16">abecedarioMinus</text>
<polyline fill="none" stroke="gray" points="66,-69.5 178,-69.5"/>
<text text-anchor="middle" x="122" y="-54.3" font-family="Times New Roman,serif" font-size="14.00" fill="#d97e16">1</text>
<polyline fill="none" stroke="gray" points="66,-46.5 178,-46.5"/>
<text text-anchor="middle" x="122" y="-31.3" font-family="Times New Roman,serif" font-size="14.00" fill="#d97e16">[2, 3, 4, 5]</text>
<polyline fill="none" stroke="gray" points="178,-23.5 178,-92.5"/>
<text text-anchor="middle" x="215.5" y="-77.3" font-family="Times New Roman,serif" font-size="14.00" fill="#d97e16">&quot;_&quot;</text>
<polyline fill="none" stroke="gray" points="178,-69.5 253,-69.5"/>
<text text-anchor="middle" x="215.5" y="-54.3" font-family="Times New Roman,serif" font-size="14.00" fill="#d97e16">2</text>
<polyline fill="none" stroke="gray" points="178,-46.5 253,-46.5"/>
<text text-anchor="middle" x="215.5" y="-31.3" font-family="Times New Roman,serif" font-size="14.00" fill="#d97e16">[2, 3, 4, 5]</text>
<polyline fill="none" stroke="gray" points="253,-23.5 253,-92.5"/>
<text text-anchor="middle" x="309" y="-77.3" font-family="Times New Roman,serif" font-size="14.00" fill="#d97e16">abecedarioMinus</text>
<polyline fill="none" stroke="gray" points="253,-69.5 365,-69.5"/>
<text text-anchor="middle" x="309" y="-54.3" font-family="Times New Roman,serif" font-size="14.00" fill="#d97e16">3</text>
<polyline fill="none" stroke="gray" points="253,-46.5 365,-46.5"/>
<text text-anchor="middle" x="309" y="-31.3" font-family="Times New Roman,serif" font-size="14.00" fill="#d97e16">[2, 3, 4, 5]</text>
<polyline fill="none" stroke="gray" points="365,-23.5 365,-92.5"/>
<text text-anchor="middle" x="402.5" y="-77.3" font-family="Times New Roman,serif" font-size="14.00" fill="#d97e16">digito</text>
<polyline fill="none" stroke="gray" points="365,-69.5 440,-69.5"/>
<text text-anchor="middle" x="402.5" y="-54.3" font-family="Times New Roman,serif" font-size="14.00" fill="#d97e16">4</text>
<polyline fill="none" stroke="gray" points="365,-46.5 440,-46.5"/>
<text text-anchor="middle" x="402.5" y="-31.3" font-family="Times New Roman,serif" font-size="14.00" fill="#d97e16">[2, 3, 4, 5]</text>
<polyline fill="none" stroke="gray" points="440,-23.5 440,-92.5"/>
<text text-anchor="middle" x="453" y="-77.3" font-family="Times New Roman,serif" font-size="14.00" fill="#d97e16">$</text>
<polyline fill="none" stroke="gray" points="440,-69.5 466,-69.5"/>
<text text-anchor="middle" x="453" y="-54.3" font-family="Times New Roman,serif" font-size="14.00" fill="#d97e16">5</text>
<polyline fill="none" stroke="gray" points="440,-46.5 466,-46.5"/>
<text text-anchor="middle" x="453" y="-31.3" font-family="Times New Roman,serif" font-size="14.00" fill="#d97e16">[]</text>
</g>
</g>
</svg>
