<?xml version="1.0" encoding="UTF-8" standalone="no"?>
<!DOCTYPE svg PUBLIC "-//W3C//DTD SVG 1.1//EN"
 "http://www.w3.org/Graphics/SVG/1.1/DTD/svg11.dtd">
<!-- Generated by graphviz version 7.1.0 (20230121.1956)
 -->
<!-- Title: structs Pages: 1 -->
<svg width="564pt" height="101pt"
 viewBox="0.00 0.00 564.00 101.00" xmlns="http://www.w3.org/2000/svg" xmlns:xlink="http://www.w3.org/1999/xlink">
<g id="graph0" class="graph" transform="scale(1 1) rotate(0) translate(4 97)">
<title>structs</title>
<polygon fill="white" stroke="none" points="-4,4 -4,-97 560,-97 560,4 -4,4"/>
<text text-anchor="middle" x="278" y="-7.8" font-family="Times New Roman,serif" font-size="14.00">Siguientes (url)</text>
<!-- struct1 -->
<g id="node1" class="node">
<title>struct1</title>
<path fill="none" stroke="gray" d="M12,-23.5C12,-23.5 544,-23.5 544,-23.5 550,-23.5 556,-29.5 556,-35.5 556,-35.5 556,-80.5 556,-80.5 556,-86.5 550,-92.5 544,-92.5 544,-92.5 12,-92.5 12,-92.5 6,-92.5 0,-86.5 0,-80.5 0,-80.5 0,-35.5 0,-35.5 0,-29.5 6,-23.5 12,-23.5"/>
<text text-anchor="middle" x="33" y="-77.3" font-family="Times New Roman,serif" font-size="14.00" fill="#d97e16">Valor</text>
<polyline fill="none" stroke="gray" points="0,-69.5 66,-69.5"/>
<text text-anchor="middle" x="33" y="-54.3" font-family="Times New Roman,serif" font-size="14.00" fill="#d97e16">Hoja</text>
<polyline fill="none" stroke="gray" points="0,-46.5 66,-46.5"/>
<text text-anchor="middle" x="33" y="-31.3" font-family="Times New Roman,serif" font-size="14.00" fill="#d97e16">Siguietes</text>
<polyline fill="none" stroke="gray" points="66,-23.5 66,-92.5"/>
<text text-anchor="middle" x="83.5" y="-77.3" font-family="Times New Roman,serif" font-size="14.00" fill="#d97e16">&quot;h&quot;</text>
<polyline fill="none" stroke="gray" points="66,-69.5 101,-69.5"/>
<text text-anchor="middle" x="83.5" y="-54.3" font-family="Times New Roman,serif" font-size="14.00" fill="#d97e16">1</text>
<polyline fill="none" stroke="gray" points="66,-46.5 101,-46.5"/>
<text text-anchor="middle" x="83.5" y="-31.3" font-family="Times New Roman,serif" font-size="14.00" fill="#d97e16">[2]</text>
<polyline fill="none" stroke="gray" points="101,-23.5 101,-92.5"/>
<text text-anchor="middle" x="117" y="-77.3" font-family="Times New Roman,serif" font-size="14.00" fill="#d97e16">&quot;t&quot;</text>
<polyline fill="none" stroke="gray" points="101,-69.5 133,-69.5"/>
<text text-anchor="middle" x="117" y="-54.3" font-family="Times New Roman,serif" font-size="14.00" fill="#d97e16">2</text>
<polyline fill="none" stroke="gray" points="101,-46.5 133,-46.5"/>
<text text-anchor="middle" x="117" y="-31.3" font-family="Times New Roman,serif" font-size="14.00" fill="#d97e16">[3]</text>
<polyline fill="none" stroke="gray" points="133,-23.5 133,-92.5"/>
<text text-anchor="middle" x="149" y="-77.3" font-family="Times New Roman,serif" font-size="14.00" fill="#d97e16">&quot;t&quot;</text>
<polyline fill="none" stroke="gray" points="133,-69.5 165,-69.5"/>
<text text-anchor="middle" x="149" y="-54.3" font-family="Times New Roman,serif" font-size="14.00" fill="#d97e16">3</text>
<polyline fill="none" stroke="gray" points="133,-46.5 165,-46.5"/>
<text text-anchor="middle" x="149" y="-31.3" font-family="Times New Roman,serif" font-size="14.00" fill="#d97e16">[4]</text>
<polyline fill="none" stroke="gray" points="165,-23.5 165,-92.5"/>
<text text-anchor="middle" x="188.5" y="-77.3" font-family="Times New Roman,serif" font-size="14.00" fill="#d97e16">&quot;p&quot;</text>
<polyline fill="none" stroke="gray" points="165,-69.5 212,-69.5"/>
<text text-anchor="middle" x="188.5" y="-54.3" font-family="Times New Roman,serif" font-size="14.00" fill="#d97e16">4</text>
<polyline fill="none" stroke="gray" points="165,-46.5 212,-46.5"/>
<text text-anchor="middle" x="188.5" y="-31.3" font-family="Times New Roman,serif" font-size="14.00" fill="#d97e16">[5, 6]</text>
<polyline fill="none" stroke="gray" points="212,-23.5 212,-92.5"/>
<text text-anchor="middle" x="229.5" y="-77.3" font-family="Times New Roman,serif" font-size="14.00" fill="#d97e16">&quot;s&quot;</text>
<polyline fill="none" stroke="gray" points="212,-69.5 247,-69.5"/>
<text text-anchor="middle" x="229.5" y="-54.3" font-family="Times New Roman,serif" font-size="14.00" fill="#d97e16">5</text>
<polyline fill="none" stroke="gray" points="212,-46.5 247,-46.5"/>
<text text-anchor="middle" x="229.5" y="-31.3" font-family="Times New Roman,serif" font-size="14.00" fill="#d97e16">[6]</text>
<polyline fill="none" stroke="gray" points="247,-23.5 247,-92.5"/>
<text text-anchor="middle" x="263" y="-77.3" font-family="Times New Roman,serif" font-size="14.00" fill="#d97e16">&quot;:&quot;</text>
<polyline fill="none" stroke="gray" points="247,-69.5 279,-69.5"/>
<text text-anchor="middle" x="263" y="-54.3" font-family="Times New Roman,serif" font-size="14.00" fill="#d97e16">6</text>
<polyline fill="none" stroke="gray" points="247,-46.5 279,-46.5"/>
<text text-anchor="middle" x="263" y="-31.3" font-family="Times New Roman,serif" font-size="14.00" fill="#d97e16">[7]</text>
<polyline fill="none" stroke="gray" points="279,-23.5 279,-92.5"/>
<text text-anchor="middle" x="295" y="-77.3" font-family="Times New Roman,serif" font-size="14.00" fill="#d97e16">&quot;/&quot;</text>
<polyline fill="none" stroke="gray" points="279,-69.5 311,-69.5"/>
<text text-anchor="middle" x="295" y="-54.3" font-family="Times New Roman,serif" font-size="14.00" fill="#d97e16">7</text>
<polyline fill="none" stroke="gray" points="279,-46.5 311,-46.5"/>
<text text-anchor="middle" x="295" y="-31.3" font-family="Times New Roman,serif" font-size="14.00" fill="#d97e16">[8]</text>
<polyline fill="none" stroke="gray" points="311,-23.5 311,-92.5"/>
<text text-anchor="middle" x="327" y="-77.3" font-family="Times New Roman,serif" font-size="14.00" fill="#d97e16">&quot;/&quot;</text>
<polyline fill="none" stroke="gray" points="311,-69.5 343,-69.5"/>
<text text-anchor="middle" x="327" y="-54.3" font-family="Times New Roman,serif" font-size="14.00" fill="#d97e16">8</text>
<polyline fill="none" stroke="gray" points="311,-46.5 343,-46.5"/>
<text text-anchor="middle" x="327" y="-31.3" font-family="Times New Roman,serif" font-size="14.00" fill="#d97e16">[9]</text>
<polyline fill="none" stroke="gray" points="343,-23.5 343,-92.5"/>
<text text-anchor="middle" x="379" y="-77.3" font-family="Times New Roman,serif" font-size="14.00" fill="#d97e16">minuscula</text>
<polyline fill="none" stroke="gray" points="343,-69.5 415,-69.5"/>
<text text-anchor="middle" x="379" y="-54.3" font-family="Times New Roman,serif" font-size="14.00" fill="#d97e16">9</text>
<polyline fill="none" stroke="gray" points="343,-46.5 415,-46.5"/>
<text text-anchor="middle" x="379" y="-31.3" font-family="Times New Roman,serif" font-size="14.00" fill="#d97e16">[9, 10]</text>
<polyline fill="none" stroke="gray" points="415,-23.5 415,-92.5"/>
<text text-anchor="middle" x="434.5" y="-77.3" font-family="Times New Roman,serif" font-size="14.00" fill="#d97e16">&quot;.&quot;</text>
<polyline fill="none" stroke="gray" points="415,-69.5 454,-69.5"/>
<text text-anchor="middle" x="434.5" y="-54.3" font-family="Times New Roman,serif" font-size="14.00" fill="#d97e16">10</text>
<polyline fill="none" stroke="gray" points="415,-46.5 454,-46.5"/>
<text text-anchor="middle" x="434.5" y="-31.3" font-family="Times New Roman,serif" font-size="14.00" fill="#d97e16">[11]</text>
<polyline fill="none" stroke="gray" points="454,-23.5 454,-92.5"/>
<text text-anchor="middle" x="490" y="-77.3" font-family="Times New Roman,serif" font-size="14.00" fill="#d97e16">minuscula</text>
<polyline fill="none" stroke="gray" points="454,-69.5 526,-69.5"/>
<text text-anchor="middle" x="490" y="-54.3" font-family="Times New Roman,serif" font-size="14.00" fill="#d97e16">11</text>
<polyline fill="none" stroke="gray" points="454,-46.5 526,-46.5"/>
<text text-anchor="middle" x="490" y="-31.3" font-family="Times New Roman,serif" font-size="14.00" fill="#d97e16">[11, 12]</text>
<polyline fill="none" stroke="gray" points="526,-23.5 526,-92.5"/>
<text text-anchor="middle" x="541" y="-77.3" font-family="Times New Roman,serif" font-size="14.00" fill="#d97e16">$</text>
<polyline fill="none" stroke="gray" points="526,-69.5 556,-69.5"/>
<text text-anchor="middle" x="541" y="-54.3" font-family="Times New Roman,serif" font-size="14.00" fill="#d97e16">12</text>
<polyline fill="none" stroke="gray" points="526,-46.5 556,-46.5"/>
<text text-anchor="middle" x="541" y="-31.3" font-family="Times New Roman,serif" font-size="14.00" fill="#d97e16">[]</text>
</g>
</g>
</svg>
