<?xml version="1.0" encoding="UTF-8" standalone="no"?>
<!DOCTYPE svg PUBLIC "-//W3C//DTD SVG 1.1//EN"
 "http://www.w3.org/Graphics/SVG/1.1/DTD/svg11.dtd">
<!-- Generated by graphviz version 7.1.0 (20230121.1956)
 -->
<!-- Title: structs Pages: 1 -->
<svg width="533pt" height="742pt"
 viewBox="0.00 0.00 533.00 742.00" xmlns="http://www.w3.org/2000/svg" xmlns:xlink="http://www.w3.org/1999/xlink">
<g id="graph0" class="graph" transform="scale(1 1) rotate(0) translate(4 738)">
<title>structs</title>
<polygon fill="white" stroke="none" points="-4,4 -4,-738 529,-738 529,4 -4,4"/>
<text text-anchor="middle" x="262.5" y="-7.8" font-family="Times New Roman,serif" font-size="14.00">cadena</text>
<!-- struct1706407810 -->
<g id="node1" class="node">
<title>struct1706407810</title>
<path fill="none" stroke="gray" d="M355.5,-687.5C355.5,-687.5 415.5,-687.5 415.5,-687.5 421.5,-687.5 427.5,-693.5 427.5,-699.5 427.5,-699.5 427.5,-721.5 427.5,-721.5 427.5,-727.5 421.5,-733.5 415.5,-733.5 415.5,-733.5 355.5,-733.5 355.5,-733.5 349.5,-733.5 343.5,-727.5 343.5,-721.5 343.5,-721.5 343.5,-699.5 343.5,-699.5 343.5,-693.5 349.5,-687.5 355.5,-687.5"/>
<text text-anchor="middle" x="359.5" y="-718.3" font-family="Times New Roman,serif" font-size="14.00" fill="#f78a05">[1]</text>
<polyline fill="none" stroke="gray" points="375.5,-710.5 375.5,-733.5"/>
<text text-anchor="middle" x="385.5" y="-718.3" font-family="Times New Roman,serif" font-size="14.00" fill="#f78a05">.</text>
<polyline fill="none" stroke="gray" points="395.5,-710.5 395.5,-733.5"/>
<text text-anchor="middle" x="411.5" y="-718.3" font-family="Times New Roman,serif" font-size="14.00" fill="#f78a05">[8]</text>
<polyline fill="none" stroke="gray" points="343.5,-710.5 427.5,-710.5"/>
<text text-anchor="middle" x="385.5" y="-695.3" font-family="Times New Roman,serif" font-size="14.00" fill="#f78a05">N.A</text>
</g>
<!-- struct1770120964 -->
<g id="node2" class="node">
<title>struct1770120964</title>
<path fill="none" stroke="gray" d="M303.5,-604.5C303.5,-604.5 363.5,-604.5 363.5,-604.5 369.5,-604.5 375.5,-610.5 375.5,-616.5 375.5,-616.5 375.5,-638.5 375.5,-638.5 375.5,-644.5 369.5,-650.5 363.5,-650.5 363.5,-650.5 303.5,-650.5 303.5,-650.5 297.5,-650.5 291.5,-644.5 291.5,-638.5 291.5,-638.5 291.5,-616.5 291.5,-616.5 291.5,-610.5 297.5,-604.5 303.5,-604.5"/>
<text text-anchor="middle" x="307.5" y="-635.3" font-family="Times New Roman,serif" font-size="14.00" fill="#f78a05">[1]</text>
<polyline fill="none" stroke="gray" points="323.5,-627.5 323.5,-650.5"/>
<text text-anchor="middle" x="333.5" y="-635.3" font-family="Times New Roman,serif" font-size="14.00" fill="#f78a05">.</text>
<polyline fill="none" stroke="gray" points="343.5,-627.5 343.5,-650.5"/>
<text text-anchor="middle" x="359.5" y="-635.3" font-family="Times New Roman,serif" font-size="14.00" fill="#f78a05">[7]</text>
<polyline fill="none" stroke="gray" points="291.5,-627.5 375.5,-627.5"/>
<text text-anchor="middle" x="333.5" y="-612.3" font-family="Times New Roman,serif" font-size="14.00" fill="#f78a05">N.A</text>
</g>
<!-- struct1706407810&#45;&gt;struct1770120964 -->
<g id="edge1" class="edge">
<title>struct1706407810&#45;&gt;struct1770120964</title>
<path fill="none" stroke="#d19928" d="M371.56,-687.79C366.03,-679.17 359.55,-669.08 353.53,-659.7"/>
<polygon fill="#d19928" stroke="#d19928" points="356.64,-658.06 348.29,-651.54 350.75,-661.85 356.64,-658.06"/>
</g>
<!-- struct734196291 -->
<g id="node16" class="node">
<title>struct734196291</title>
<path fill="none" stroke="gray" d="M406,-604.5C406,-604.5 469,-604.5 469,-604.5 475,-604.5 481,-610.5 481,-616.5 481,-616.5 481,-638.5 481,-638.5 481,-644.5 475,-650.5 469,-650.5 469,-650.5 406,-650.5 406,-650.5 400,-650.5 394,-644.5 394,-638.5 394,-638.5 394,-616.5 394,-616.5 394,-610.5 400,-604.5 406,-604.5"/>
<text text-anchor="middle" x="410" y="-635.3" font-family="Times New Roman,serif" font-size="14.00" fill="#f78a05">[8]</text>
<polyline fill="none" stroke="gray" points="426,-627.5 426,-650.5"/>
<text text-anchor="middle" x="437.5" y="-635.3" font-family="Times New Roman,serif" font-size="14.00" fill="#f78a05">$</text>
<polyline fill="none" stroke="gray" points="449,-627.5 449,-650.5"/>
<text text-anchor="middle" x="465" y="-635.3" font-family="Times New Roman,serif" font-size="14.00" fill="#f78a05">[8]</text>
<polyline fill="none" stroke="gray" points="394,-627.5 481,-627.5"/>
<text text-anchor="middle" x="437.5" y="-612.3" font-family="Times New Roman,serif" font-size="14.00" fill="#f78a05">N.A</text>
</g>
<!-- struct1706407810&#45;&gt;struct734196291 -->
<g id="edge15" class="edge">
<title>struct1706407810&#45;&gt;struct734196291</title>
<path fill="none" stroke="#d19928" d="M399.44,-687.79C404.97,-679.17 411.45,-669.08 417.47,-659.7"/>
<polygon fill="#d19928" stroke="#d19928" points="420.25,-661.85 422.71,-651.54 414.36,-658.06 420.25,-661.85"/>
</g>
<!-- struct1529445959 -->
<g id="node3" class="node">
<title>struct1529445959</title>
<path fill="none" stroke="gray" d="M236,-521.5C236,-521.5 299,-521.5 299,-521.5 305,-521.5 311,-527.5 311,-533.5 311,-533.5 311,-555.5 311,-555.5 311,-561.5 305,-567.5 299,-567.5 299,-567.5 236,-567.5 236,-567.5 230,-567.5 224,-561.5 224,-555.5 224,-555.5 224,-533.5 224,-533.5 224,-527.5 230,-521.5 236,-521.5"/>
<text text-anchor="middle" x="240" y="-552.3" font-family="Times New Roman,serif" font-size="14.00" fill="#f78a05">[1]</text>
<polyline fill="none" stroke="gray" points="256,-544.5 256,-567.5"/>
<text text-anchor="middle" x="267.5" y="-552.3" font-family="Times New Roman,serif" font-size="14.00" fill="#f78a05">\&#39;</text>
<polyline fill="none" stroke="gray" points="279,-544.5 279,-567.5"/>
<text text-anchor="middle" x="295" y="-552.3" font-family="Times New Roman,serif" font-size="14.00" fill="#f78a05">[1]</text>
<polyline fill="none" stroke="gray" points="224,-544.5 311,-544.5"/>
<text text-anchor="middle" x="267.5" y="-529.3" font-family="Times New Roman,serif" font-size="14.00" fill="#f78a05">N.A</text>
</g>
<!-- struct1770120964&#45;&gt;struct1529445959 -->
<g id="edge2" class="edge">
<title>struct1770120964&#45;&gt;struct1529445959</title>
<path fill="none" stroke="#d19928" d="M315.81,-604.79C308.64,-595.99 300.22,-585.66 292.44,-576.11"/>
<polygon fill="#d19928" stroke="#d19928" points="295.22,-573.98 286.19,-568.44 289.8,-578.4 295.22,-573.98"/>
</g>
<!-- struct2078564424 -->
<g id="node4" class="node">
<title>struct2078564424</title>
<path fill="none" stroke="gray" d="M341,-521.5C341,-521.5 458,-521.5 458,-521.5 464,-521.5 470,-527.5 470,-533.5 470,-533.5 470,-555.5 470,-555.5 470,-561.5 464,-567.5 458,-567.5 458,-567.5 341,-567.5 341,-567.5 335,-567.5 329,-561.5 329,-555.5 329,-555.5 329,-533.5 329,-533.5 329,-527.5 335,-521.5 341,-521.5"/>
<text text-anchor="middle" x="373.5" y="-552.3" font-family="Times New Roman,serif" font-size="14.00" fill="#f78a05">[2, 3, 4, 5, 6]</text>
<polyline fill="none" stroke="gray" points="418,-544.5 418,-567.5"/>
<text text-anchor="middle" x="428" y="-552.3" font-family="Times New Roman,serif" font-size="14.00" fill="#f78a05">.</text>
<polyline fill="none" stroke="gray" points="438,-544.5 438,-567.5"/>
<text text-anchor="middle" x="454" y="-552.3" font-family="Times New Roman,serif" font-size="14.00" fill="#f78a05">[7]</text>
<polyline fill="none" stroke="gray" points="329,-544.5 470,-544.5"/>
<text text-anchor="middle" x="399.5" y="-529.3" font-family="Times New Roman,serif" font-size="14.00" fill="#f78a05">N.A</text>
</g>
<!-- struct1770120964&#45;&gt;struct2078564424 -->
<g id="edge3" class="edge">
<title>struct1770120964&#45;&gt;struct2078564424</title>
<path fill="none" stroke="#d19928" d="M351.19,-604.79C358.36,-595.99 366.78,-585.66 374.56,-576.11"/>
<polygon fill="#d19928" stroke="#d19928" points="377.2,-578.4 380.81,-568.44 371.78,-573.98 377.2,-578.4"/>
</g>
<!-- struct866500881 -->
<g id="node5" class="node">
<title>struct866500881</title>
<path fill="none" stroke="gray" d="M229,-438.5C229,-438.5 408,-438.5 408,-438.5 414,-438.5 420,-444.5 420,-450.5 420,-450.5 420,-472.5 420,-472.5 420,-478.5 414,-484.5 408,-484.5 408,-484.5 229,-484.5 229,-484.5 223,-484.5 217,-478.5 217,-472.5 217,-472.5 217,-450.5 217,-450.5 217,-444.5 223,-438.5 229,-438.5"/>
<text text-anchor="middle" x="261.5" y="-469.3" font-family="Times New Roman,serif" font-size="14.00" fill="#f78a05">[2, 3, 4, 5, 6]</text>
<polyline fill="none" stroke="gray" points="306,-461.5 306,-484.5"/>
<text text-anchor="middle" x="318.5" y="-469.3" font-family="Times New Roman,serif" font-size="14.00" fill="#f78a05">+</text>
<polyline fill="none" stroke="gray" points="331,-461.5 331,-484.5"/>
<text text-anchor="middle" x="375.5" y="-469.3" font-family="Times New Roman,serif" font-size="14.00" fill="#f78a05">[2, 3, 4, 5, 6]</text>
<polyline fill="none" stroke="gray" points="217,-461.5 420,-461.5"/>
<text text-anchor="middle" x="318.5" y="-446.3" font-family="Times New Roman,serif" font-size="14.00" fill="#f78a05">N.A</text>
</g>
<!-- struct2078564424&#45;&gt;struct866500881 -->
<g id="edge4" class="edge">
<title>struct2078564424&#45;&gt;struct866500881</title>
<path fill="none" stroke="#d19928" d="M377.79,-521.79C368.71,-512.71 358.02,-502.02 348.22,-492.22"/>
<polygon fill="#d19928" stroke="#d19928" points="350.88,-489.93 341.34,-485.34 345.93,-494.88 350.88,-489.93"/>
</g>
<!-- struct2009319227 -->
<g id="node15" class="node">
<title>struct2009319227</title>
<path fill="none" stroke="gray" d="M450,-438.5C450,-438.5 513,-438.5 513,-438.5 519,-438.5 525,-444.5 525,-450.5 525,-450.5 525,-472.5 525,-472.5 525,-478.5 519,-484.5 513,-484.5 513,-484.5 450,-484.5 450,-484.5 444,-484.5 438,-478.5 438,-472.5 438,-472.5 438,-450.5 438,-450.5 438,-444.5 444,-438.5 450,-438.5"/>
<text text-anchor="middle" x="454" y="-469.3" font-family="Times New Roman,serif" font-size="14.00" fill="#f78a05">[7]</text>
<polyline fill="none" stroke="gray" points="470,-461.5 470,-484.5"/>
<text text-anchor="middle" x="481.5" y="-469.3" font-family="Times New Roman,serif" font-size="14.00" fill="#f78a05">\&#39;</text>
<polyline fill="none" stroke="gray" points="493,-461.5 493,-484.5"/>
<text text-anchor="middle" x="509" y="-469.3" font-family="Times New Roman,serif" font-size="14.00" fill="#f78a05">[7]</text>
<polyline fill="none" stroke="gray" points="438,-461.5 525,-461.5"/>
<text text-anchor="middle" x="481.5" y="-446.3" font-family="Times New Roman,serif" font-size="14.00" fill="#f78a05">N.A</text>
</g>
<!-- struct2078564424&#45;&gt;struct2009319227 -->
<g id="edge14" class="edge">
<title>struct2078564424&#45;&gt;struct2009319227</title>
<path fill="none" stroke="#d19928" d="M421.47,-521.79C430.67,-512.71 441.5,-502.02 451.41,-492.22"/>
<polygon fill="#d19928" stroke="#d19928" points="453.73,-494.85 458.39,-485.33 448.81,-489.87 453.73,-494.85"/>
</g>
<!-- struct1442494886 -->
<g id="node6" class="node">
<title>struct1442494886</title>
<path fill="none" stroke="gray" d="M232,-355.5C232,-355.5 405,-355.5 405,-355.5 411,-355.5 417,-361.5 417,-367.5 417,-367.5 417,-389.5 417,-389.5 417,-395.5 411,-401.5 405,-401.5 405,-401.5 232,-401.5 232,-401.5 226,-401.5 220,-395.5 220,-389.5 220,-389.5 220,-367.5 220,-367.5 220,-361.5 226,-355.5 232,-355.5"/>
<text text-anchor="middle" x="264.5" y="-386.3" font-family="Times New Roman,serif" font-size="14.00" fill="#f78a05">[2, 3, 4, 5, 6]</text>
<polyline fill="none" stroke="gray" points="309,-378.5 309,-401.5"/>
<text text-anchor="middle" x="318.5" y="-386.3" font-family="Times New Roman,serif" font-size="14.00" fill="#f78a05">|</text>
<polyline fill="none" stroke="gray" points="328,-378.5 328,-401.5"/>
<text text-anchor="middle" x="372.5" y="-386.3" font-family="Times New Roman,serif" font-size="14.00" fill="#f78a05">[2, 3, 4, 5, 6]</text>
<polyline fill="none" stroke="gray" points="220,-378.5 417,-378.5"/>
<text text-anchor="middle" x="318.5" y="-363.3" font-family="Times New Roman,serif" font-size="14.00" fill="#f78a05">N.A</text>
</g>
<!-- struct866500881&#45;&gt;struct1442494886 -->
<g id="edge5" class="edge">
<title>struct866500881&#45;&gt;struct1442494886</title>
<path fill="none" stroke="#d19928" d="M318.5,-438.79C318.5,-430.71 318.5,-421.35 318.5,-412.48"/>
<polygon fill="#d19928" stroke="#d19928" points="322,-412.78 318.5,-402.78 315,-412.78 322,-412.78"/>
</g>
<!-- struct1169243672 -->
<g id="node7" class="node">
<title>struct1169243672</title>
<path fill="none" stroke="gray" d="M171,-272.5C171,-272.5 316,-272.5 316,-272.5 322,-272.5 328,-278.5 328,-284.5 328,-284.5 328,-306.5 328,-306.5 328,-312.5 322,-318.5 316,-318.5 316,-318.5 171,-318.5 171,-318.5 165,-318.5 159,-312.5 159,-306.5 159,-306.5 159,-284.5 159,-284.5 159,-278.5 165,-272.5 171,-272.5"/>
<text text-anchor="middle" x="196.5" y="-303.3" font-family="Times New Roman,serif" font-size="14.00" fill="#f78a05">[2, 3, 4, 5]</text>
<polyline fill="none" stroke="gray" points="234,-295.5 234,-318.5"/>
<text text-anchor="middle" x="243.5" y="-303.3" font-family="Times New Roman,serif" font-size="14.00" fill="#f78a05">|</text>
<polyline fill="none" stroke="gray" points="253,-295.5 253,-318.5"/>
<text text-anchor="middle" x="290.5" y="-303.3" font-family="Times New Roman,serif" font-size="14.00" fill="#f78a05">[2, 3, 4, 5]</text>
<polyline fill="none" stroke="gray" points="159,-295.5 328,-295.5"/>
<text text-anchor="middle" x="243.5" y="-280.3" font-family="Times New Roman,serif" font-size="14.00" fill="#f78a05">N.A</text>
</g>
<!-- struct1442494886&#45;&gt;struct1169243672 -->
<g id="edge6" class="edge">
<title>struct1442494886&#45;&gt;struct1169243672</title>
<path fill="none" stroke="#d19928" d="M298.4,-355.79C290.08,-346.8 280.29,-336.23 271.29,-326.52"/>
<polygon fill="#d19928" stroke="#d19928" points="274.04,-324.34 264.68,-319.38 268.91,-329.09 274.04,-324.34"/>
</g>
<!-- struct328589615 -->
<g id="node14" class="node">
<title>struct328589615</title>
<path fill="none" stroke="gray" d="M358.5,-272.5C358.5,-272.5 430.5,-272.5 430.5,-272.5 436.5,-272.5 442.5,-278.5 442.5,-284.5 442.5,-284.5 442.5,-306.5 442.5,-306.5 442.5,-312.5 436.5,-318.5 430.5,-318.5 430.5,-318.5 358.5,-318.5 358.5,-318.5 352.5,-318.5 346.5,-312.5 346.5,-306.5 346.5,-306.5 346.5,-284.5 346.5,-284.5 346.5,-278.5 352.5,-272.5 358.5,-272.5"/>
<text text-anchor="middle" x="362.5" y="-303.3" font-family="Times New Roman,serif" font-size="14.00" fill="#f78a05">[6]</text>
<polyline fill="none" stroke="gray" points="378.5,-295.5 378.5,-318.5"/>
<text text-anchor="middle" x="394.5" y="-303.3" font-family="Times New Roman,serif" font-size="14.00" fill="#f78a05">&quot; &quot;</text>
<polyline fill="none" stroke="gray" points="410.5,-295.5 410.5,-318.5"/>
<text text-anchor="middle" x="426.5" y="-303.3" font-family="Times New Roman,serif" font-size="14.00" fill="#f78a05">[6]</text>
<polyline fill="none" stroke="gray" points="346.5,-295.5 442.5,-295.5"/>
<text text-anchor="middle" x="394.5" y="-280.3" font-family="Times New Roman,serif" font-size="14.00" fill="#f78a05">N.A</text>
</g>
<!-- struct1442494886&#45;&gt;struct328589615 -->
<g id="edge13" class="edge">
<title>struct1442494886&#45;&gt;struct328589615</title>
<path fill="none" stroke="#d19928" d="M338.87,-355.79C347.3,-346.8 357.22,-336.23 366.34,-326.52"/>
<polygon fill="#d19928" stroke="#d19928" points="368.75,-329.06 373.04,-319.37 363.65,-324.27 368.75,-329.06"/>
</g>
<!-- struct487583942 -->
<g id="node8" class="node">
<title>struct487583942</title>
<path fill="none" stroke="gray" d="M113,-189.5C113,-189.5 230,-189.5 230,-189.5 236,-189.5 242,-195.5 242,-201.5 242,-201.5 242,-223.5 242,-223.5 242,-229.5 236,-235.5 230,-235.5 230,-235.5 113,-235.5 113,-235.5 107,-235.5 101,-229.5 101,-223.5 101,-223.5 101,-201.5 101,-201.5 101,-195.5 107,-189.5 113,-189.5"/>
<text text-anchor="middle" x="131.5" y="-220.3" font-family="Times New Roman,serif" font-size="14.00" fill="#f78a05">[2, 3, 4]</text>
<polyline fill="none" stroke="gray" points="162,-212.5 162,-235.5"/>
<text text-anchor="middle" x="171.5" y="-220.3" font-family="Times New Roman,serif" font-size="14.00" fill="#f78a05">|</text>
<polyline fill="none" stroke="gray" points="181,-212.5 181,-235.5"/>
<text text-anchor="middle" x="211.5" y="-220.3" font-family="Times New Roman,serif" font-size="14.00" fill="#f78a05">[2, 3, 4]</text>
<polyline fill="none" stroke="gray" points="101,-212.5 242,-212.5"/>
<text text-anchor="middle" x="171.5" y="-197.3" font-family="Times New Roman,serif" font-size="14.00" fill="#f78a05">N.A</text>
</g>
<!-- struct1169243672&#45;&gt;struct487583942 -->
<g id="edge7" class="edge">
<title>struct1169243672&#45;&gt;struct487583942</title>
<path fill="none" stroke="#d19928" d="M224.21,-272.79C216.3,-263.9 207,-253.44 198.44,-243.81"/>
<polygon fill="#d19928" stroke="#d19928" points="201.11,-241.55 191.85,-236.4 195.88,-246.2 201.11,-241.55"/>
</g>
<!-- struct1443936891 -->
<g id="node13" class="node">
<title>struct1443936891</title>
<path fill="none" stroke="gray" d="M272.5,-189.5C272.5,-189.5 360.5,-189.5 360.5,-189.5 366.5,-189.5 372.5,-195.5 372.5,-201.5 372.5,-201.5 372.5,-223.5 372.5,-223.5 372.5,-229.5 366.5,-235.5 360.5,-235.5 360.5,-235.5 272.5,-235.5 272.5,-235.5 266.5,-235.5 260.5,-229.5 260.5,-223.5 260.5,-223.5 260.5,-201.5 260.5,-201.5 260.5,-195.5 266.5,-189.5 272.5,-189.5"/>
<text text-anchor="middle" x="276.5" y="-220.3" font-family="Times New Roman,serif" font-size="14.00" fill="#f78a05">[5]</text>
<polyline fill="none" stroke="gray" points="292.5,-212.5 292.5,-235.5"/>
<text text-anchor="middle" x="316.5" y="-220.3" font-family="Times New Roman,serif" font-size="14.00" fill="#f78a05">digito</text>
<polyline fill="none" stroke="gray" points="340.5,-212.5 340.5,-235.5"/>
<text text-anchor="middle" x="356.5" y="-220.3" font-family="Times New Roman,serif" font-size="14.00" fill="#f78a05">[5]</text>
<polyline fill="none" stroke="gray" points="260.5,-212.5 372.5,-212.5"/>
<text text-anchor="middle" x="316.5" y="-197.3" font-family="Times New Roman,serif" font-size="14.00" fill="#f78a05">N.A</text>
</g>
<!-- struct1169243672&#45;&gt;struct1443936891 -->
<g id="edge12" class="edge">
<title>struct1169243672&#45;&gt;struct1443936891</title>
<path fill="none" stroke="#d19928" d="M263.06,-272.79C271.08,-263.9 280.5,-253.44 289.18,-243.81"/>
<polygon fill="#d19928" stroke="#d19928" points="291.78,-246.16 295.87,-236.39 286.58,-241.48 291.78,-246.16"/>
</g>
<!-- struct12523327 -->
<g id="node9" class="node">
<title>struct12523327</title>
<path fill="none" stroke="gray" d="M61,-106.5C61,-106.5 150,-106.5 150,-106.5 156,-106.5 162,-112.5 162,-118.5 162,-118.5 162,-140.5 162,-140.5 162,-146.5 156,-152.5 150,-152.5 150,-152.5 61,-152.5 61,-152.5 55,-152.5 49,-146.5 49,-140.5 49,-140.5 49,-118.5 49,-118.5 49,-112.5 55,-106.5 61,-106.5"/>
<text text-anchor="middle" x="72.5" y="-137.3" font-family="Times New Roman,serif" font-size="14.00" fill="#f78a05">[2, 3]</text>
<polyline fill="none" stroke="gray" points="96,-129.5 96,-152.5"/>
<text text-anchor="middle" x="105.5" y="-137.3" font-family="Times New Roman,serif" font-size="14.00" fill="#f78a05">|</text>
<polyline fill="none" stroke="gray" points="115,-129.5 115,-152.5"/>
<text text-anchor="middle" x="138.5" y="-137.3" font-family="Times New Roman,serif" font-size="14.00" fill="#f78a05">[2, 3]</text>
<polyline fill="none" stroke="gray" points="49,-129.5 162,-129.5"/>
<text text-anchor="middle" x="105.5" y="-114.3" font-family="Times New Roman,serif" font-size="14.00" fill="#f78a05">N.A</text>
</g>
<!-- struct487583942&#45;&gt;struct12523327 -->
<g id="edge8" class="edge">
<title>struct487583942&#45;&gt;struct12523327</title>
<path fill="none" stroke="#d19928" d="M153.81,-189.79C146.64,-180.99 138.22,-170.66 130.44,-161.11"/>
<polygon fill="#d19928" stroke="#d19928" points="133.22,-158.98 124.19,-153.44 127.8,-163.4 133.22,-158.98"/>
</g>
<!-- struct787367542 -->
<g id="node12" class="node">
<title>struct787367542</title>
<path fill="none" stroke="gray" d="M192,-106.5C192,-106.5 285,-106.5 285,-106.5 291,-106.5 297,-112.5 297,-118.5 297,-118.5 297,-140.5 297,-140.5 297,-146.5 291,-152.5 285,-152.5 285,-152.5 192,-152.5 192,-152.5 186,-152.5 180,-146.5 180,-140.5 180,-140.5 180,-118.5 180,-118.5 180,-112.5 186,-106.5 192,-106.5"/>
<text text-anchor="middle" x="196" y="-137.3" font-family="Times New Roman,serif" font-size="14.00" fill="#f78a05">[4]</text>
<polyline fill="none" stroke="gray" points="212,-129.5 212,-152.5"/>
<text text-anchor="middle" x="238.5" y="-137.3" font-family="Times New Roman,serif" font-size="14.00" fill="#f78a05">mayus</text>
<polyline fill="none" stroke="gray" points="265,-129.5 265,-152.5"/>
<text text-anchor="middle" x="281" y="-137.3" font-family="Times New Roman,serif" font-size="14.00" fill="#f78a05">[4]</text>
<polyline fill="none" stroke="gray" points="180,-129.5 297,-129.5"/>
<text text-anchor="middle" x="238.5" y="-114.3" font-family="Times New Roman,serif" font-size="14.00" fill="#f78a05">N.A</text>
</g>
<!-- struct487583942&#45;&gt;struct787367542 -->
<g id="edge11" class="edge">
<title>struct487583942&#45;&gt;struct787367542</title>
<path fill="none" stroke="#d19928" d="M189.45,-189.79C196.74,-180.99 205.28,-170.66 213.18,-161.11"/>
<polygon fill="#d19928" stroke="#d19928" points="215.85,-163.37 219.53,-153.43 210.46,-158.91 215.85,-163.37"/>
</g>
<!-- struct8956167 -->
<g id="node10" class="node">
<title>struct8956167</title>
<path fill="none" stroke="gray" d="M12,-23.5C12,-23.5 79,-23.5 79,-23.5 85,-23.5 91,-29.5 91,-35.5 91,-35.5 91,-57.5 91,-57.5 91,-63.5 85,-69.5 79,-69.5 79,-69.5 12,-69.5 12,-69.5 6,-69.5 0,-63.5 0,-57.5 0,-57.5 0,-35.5 0,-35.5 0,-29.5 6,-23.5 12,-23.5"/>
<text text-anchor="middle" x="16" y="-54.3" font-family="Times New Roman,serif" font-size="14.00" fill="#f78a05">[2]</text>
<polyline fill="none" stroke="gray" points="32,-46.5 32,-69.5"/>
<text text-anchor="middle" x="45.5" y="-54.3" font-family="Times New Roman,serif" font-size="14.00" fill="#f78a05">\n</text>
<polyline fill="none" stroke="gray" points="59,-46.5 59,-69.5"/>
<text text-anchor="middle" x="75" y="-54.3" font-family="Times New Roman,serif" font-size="14.00" fill="#f78a05">[2]</text>
<polyline fill="none" stroke="gray" points="0,-46.5 91,-46.5"/>
<text text-anchor="middle" x="45.5" y="-31.3" font-family="Times New Roman,serif" font-size="14.00" fill="#f78a05">N.A</text>
</g>
<!-- struct12523327&#45;&gt;struct8956167 -->
<g id="edge9" class="edge">
<title>struct12523327&#45;&gt;struct8956167</title>
<path fill="none" stroke="#d19928" d="M89.42,-106.79C82.96,-98.08 75.4,-87.87 68.39,-78.4"/>
<polygon fill="#d19928" stroke="#d19928" points="71.29,-76.43 62.52,-70.48 65.66,-80.6 71.29,-76.43"/>
</g>
<!-- struct1275401968 -->
<g id="node11" class="node">
<title>struct1275401968</title>
<path fill="none" stroke="gray" d="M121.5,-23.5C121.5,-23.5 211.5,-23.5 211.5,-23.5 217.5,-23.5 223.5,-29.5 223.5,-35.5 223.5,-35.5 223.5,-57.5 223.5,-57.5 223.5,-63.5 217.5,-69.5 211.5,-69.5 211.5,-69.5 121.5,-69.5 121.5,-69.5 115.5,-69.5 109.5,-63.5 109.5,-57.5 109.5,-57.5 109.5,-35.5 109.5,-35.5 109.5,-29.5 115.5,-23.5 121.5,-23.5"/>
<text text-anchor="middle" x="125.5" y="-54.3" font-family="Times New Roman,serif" font-size="14.00" fill="#f78a05">[3]</text>
<polyline fill="none" stroke="gray" points="141.5,-46.5 141.5,-69.5"/>
<text text-anchor="middle" x="166.5" y="-54.3" font-family="Times New Roman,serif" font-size="14.00" fill="#f78a05">minus</text>
<polyline fill="none" stroke="gray" points="191.5,-46.5 191.5,-69.5"/>
<text text-anchor="middle" x="207.5" y="-54.3" font-family="Times New Roman,serif" font-size="14.00" fill="#f78a05">[3]</text>
<polyline fill="none" stroke="gray" points="109.5,-46.5 223.5,-46.5"/>
<text text-anchor="middle" x="166.5" y="-31.3" font-family="Times New Roman,serif" font-size="14.00" fill="#f78a05">N.A</text>
</g>
<!-- struct12523327&#45;&gt;struct1275401968 -->
<g id="edge10" class="edge">
<title>struct12523327&#45;&gt;struct1275401968</title>
<path fill="none" stroke="#d19928" d="M121.85,-106.79C128.41,-98.08 136.1,-87.87 143.23,-78.4"/>
<polygon fill="#d19928" stroke="#d19928" points="145.98,-80.57 149.2,-70.48 140.39,-76.36 145.98,-80.57"/>
</g>
</g>
</svg>
