<?xml version="1.0" encoding="UTF-8" standalone="no"?>
<!DOCTYPE svg PUBLIC "-//W3C//DTD SVG 1.1//EN"
 "http://www.w3.org/Graphics/SVG/1.1/DTD/svg11.dtd">
<!-- Generated by graphviz version 7.1.0 (20230121.1956)
 -->
<!-- Title: structs Pages: 1 -->
<svg width="1077pt" height="742pt"
 viewBox="0.00 0.00 1076.50 742.00" xmlns="http://www.w3.org/2000/svg" xmlns:xlink="http://www.w3.org/1999/xlink">
<g id="graph0" class="graph" transform="scale(1 1) rotate(0) translate(4 738)">
<title>structs</title>
<polygon fill="white" stroke="none" points="-4,4 -4,-738 1072.5,-738 1072.5,4 -4,4"/>
<text text-anchor="middle" x="534.25" y="-7.8" font-family="Times New Roman,serif" font-size="14.00">correoElectronico</text>
<!-- struct17438731 -->
<g id="node1" class="node">
<title>struct17438731</title>
<path fill="none" stroke="gray" d="M331,-687.5C331,-687.5 413,-687.5 413,-687.5 419,-687.5 425,-693.5 425,-699.5 425,-699.5 425,-721.5 425,-721.5 425,-727.5 419,-733.5 413,-733.5 413,-733.5 331,-733.5 331,-733.5 325,-733.5 319,-727.5 319,-721.5 319,-721.5 319,-699.5 319,-699.5 319,-693.5 325,-687.5 331,-687.5"/>
<text text-anchor="middle" x="342.5" y="-718.3" font-family="Times New Roman,serif" font-size="14.00" fill="#f78a05">[1, 2]</text>
<polyline fill="none" stroke="gray" points="366,-710.5 366,-733.5"/>
<text text-anchor="middle" x="376" y="-718.3" font-family="Times New Roman,serif" font-size="14.00" fill="#f78a05">.</text>
<polyline fill="none" stroke="gray" points="386,-710.5 386,-733.5"/>
<text text-anchor="middle" x="405.5" y="-718.3" font-family="Times New Roman,serif" font-size="14.00" fill="#f78a05">[14]</text>
<polyline fill="none" stroke="gray" points="319,-710.5 425,-710.5"/>
<text text-anchor="middle" x="372" y="-695.3" font-family="Times New Roman,serif" font-size="14.00" fill="#f78a05">N.A</text>
</g>
<!-- struct1295522078 -->
<g id="node2" class="node">
<title>struct1295522078</title>
<path fill="none" stroke="gray" d="M270,-604.5C270,-604.5 352,-604.5 352,-604.5 358,-604.5 364,-610.5 364,-616.5 364,-616.5 364,-638.5 364,-638.5 364,-644.5 358,-650.5 352,-650.5 352,-650.5 270,-650.5 270,-650.5 264,-650.5 258,-644.5 258,-638.5 258,-638.5 258,-616.5 258,-616.5 258,-610.5 264,-604.5 270,-604.5"/>
<text text-anchor="middle" x="281.5" y="-635.3" font-family="Times New Roman,serif" font-size="14.00" fill="#f78a05">[1, 2]</text>
<polyline fill="none" stroke="gray" points="305,-627.5 305,-650.5"/>
<text text-anchor="middle" x="315" y="-635.3" font-family="Times New Roman,serif" font-size="14.00" fill="#f78a05">.</text>
<polyline fill="none" stroke="gray" points="325,-627.5 325,-650.5"/>
<text text-anchor="middle" x="344.5" y="-635.3" font-family="Times New Roman,serif" font-size="14.00" fill="#f78a05">[13]</text>
<polyline fill="none" stroke="gray" points="258,-627.5 364,-627.5"/>
<text text-anchor="middle" x="311" y="-612.3" font-family="Times New Roman,serif" font-size="14.00" fill="#f78a05">N.A</text>
</g>
<!-- struct17438731&#45;&gt;struct1295522078 -->
<g id="edge1" class="edge">
<title>struct17438731&#45;&gt;struct1295522078</title>
<path fill="none" stroke="#d19928" d="M355.65,-687.79C349.09,-679.08 341.4,-668.87 334.27,-659.4"/>
<polygon fill="#d19928" stroke="#d19928" points="337.11,-657.36 328.3,-651.48 331.52,-661.57 337.11,-657.36"/>
</g>
<!-- struct224386076 -->
<g id="node29" class="node">
<title>struct224386076</title>
<path fill="none" stroke="gray" d="M394.5,-604.5C394.5,-604.5 471.5,-604.5 471.5,-604.5 477.5,-604.5 483.5,-610.5 483.5,-616.5 483.5,-616.5 483.5,-638.5 483.5,-638.5 483.5,-644.5 477.5,-650.5 471.5,-650.5 471.5,-650.5 394.5,-650.5 394.5,-650.5 388.5,-650.5 382.5,-644.5 382.5,-638.5 382.5,-638.5 382.5,-616.5 382.5,-616.5 382.5,-610.5 388.5,-604.5 394.5,-604.5"/>
<text text-anchor="middle" x="402" y="-635.3" font-family="Times New Roman,serif" font-size="14.00" fill="#f78a05">[14]</text>
<polyline fill="none" stroke="gray" points="421.5,-627.5 421.5,-650.5"/>
<text text-anchor="middle" x="433" y="-635.3" font-family="Times New Roman,serif" font-size="14.00" fill="#f78a05">$</text>
<polyline fill="none" stroke="gray" points="444.5,-627.5 444.5,-650.5"/>
<text text-anchor="middle" x="464" y="-635.3" font-family="Times New Roman,serif" font-size="14.00" fill="#f78a05">[14]</text>
<polyline fill="none" stroke="gray" points="382.5,-627.5 483.5,-627.5"/>
<text text-anchor="middle" x="433" y="-612.3" font-family="Times New Roman,serif" font-size="14.00" fill="#f78a05">N.A</text>
</g>
<!-- struct17438731&#45;&gt;struct224386076 -->
<g id="edge28" class="edge">
<title>struct17438731&#45;&gt;struct224386076</title>
<path fill="none" stroke="#d19928" d="M388.35,-687.79C394.91,-679.08 402.6,-668.87 409.73,-659.4"/>
<polygon fill="#d19928" stroke="#d19928" points="412.48,-661.57 415.7,-651.48 406.89,-657.36 412.48,-661.57"/>
</g>
<!-- struct1203161279 -->
<g id="node3" class="node">
<title>struct1203161279</title>
<path fill="none" stroke="gray" d="M179.5,-521.5C179.5,-521.5 268.5,-521.5 268.5,-521.5 274.5,-521.5 280.5,-527.5 280.5,-533.5 280.5,-533.5 280.5,-555.5 280.5,-555.5 280.5,-561.5 274.5,-567.5 268.5,-567.5 268.5,-567.5 179.5,-567.5 179.5,-567.5 173.5,-567.5 167.5,-561.5 167.5,-555.5 167.5,-555.5 167.5,-533.5 167.5,-533.5 167.5,-527.5 173.5,-521.5 179.5,-521.5"/>
<text text-anchor="middle" x="191" y="-552.3" font-family="Times New Roman,serif" font-size="14.00" fill="#f78a05">[1, 2]</text>
<polyline fill="none" stroke="gray" points="214.5,-544.5 214.5,-567.5"/>
<text text-anchor="middle" x="224" y="-552.3" font-family="Times New Roman,serif" font-size="14.00" fill="#f78a05">|</text>
<polyline fill="none" stroke="gray" points="233.5,-544.5 233.5,-567.5"/>
<text text-anchor="middle" x="257" y="-552.3" font-family="Times New Roman,serif" font-size="14.00" fill="#f78a05">[1, 2]</text>
<polyline fill="none" stroke="gray" points="167.5,-544.5 280.5,-544.5"/>
<text text-anchor="middle" x="224" y="-529.3" font-family="Times New Roman,serif" font-size="14.00" fill="#f78a05">N.A</text>
</g>
<!-- struct1295522078&#45;&gt;struct1203161279 -->
<g id="edge2" class="edge">
<title>struct1295522078&#45;&gt;struct1203161279</title>
<path fill="none" stroke="#d19928" d="M287.69,-604.79C277.84,-595.62 266.21,-584.8 255.61,-574.93"/>
<polygon fill="#d19928" stroke="#d19928" points="258.19,-572.55 248.49,-568.3 253.42,-577.67 258.19,-572.55"/>
</g>
<!-- struct1064087465 -->
<g id="node6" class="node">
<title>struct1064087465</title>
<path fill="none" stroke="gray" d="M344,-521.5C344,-521.5 454,-521.5 454,-521.5 460,-521.5 466,-527.5 466,-533.5 466,-533.5 466,-555.5 466,-555.5 466,-561.5 460,-567.5 454,-567.5 454,-567.5 344,-567.5 344,-567.5 338,-567.5 332,-561.5 332,-555.5 332,-555.5 332,-533.5 332,-533.5 332,-527.5 338,-521.5 344,-521.5"/>
<text text-anchor="middle" x="369.5" y="-552.3" font-family="Times New Roman,serif" font-size="14.00" fill="#f78a05">[3, 4, 5, 6]</text>
<polyline fill="none" stroke="gray" points="407,-544.5 407,-567.5"/>
<text text-anchor="middle" x="417" y="-552.3" font-family="Times New Roman,serif" font-size="14.00" fill="#f78a05">.</text>
<polyline fill="none" stroke="gray" points="427,-544.5 427,-567.5"/>
<text text-anchor="middle" x="446.5" y="-552.3" font-family="Times New Roman,serif" font-size="14.00" fill="#f78a05">[13]</text>
<polyline fill="none" stroke="gray" points="332,-544.5 466,-544.5"/>
<text text-anchor="middle" x="399" y="-529.3" font-family="Times New Roman,serif" font-size="14.00" fill="#f78a05">N.A</text>
</g>
<!-- struct1295522078&#45;&gt;struct1064087465 -->
<g id="edge5" class="edge">
<title>struct1295522078&#45;&gt;struct1064087465</title>
<path fill="none" stroke="#d19928" d="M334.58,-604.79C344.55,-595.62 356.3,-584.8 367.03,-574.93"/>
<polygon fill="#d19928" stroke="#d19928" points="369.25,-577.64 374.24,-568.29 364.51,-572.49 369.25,-577.64"/>
</g>
<!-- struct1042110114 -->
<g id="node4" class="node">
<title>struct1042110114</title>
<path fill="none" stroke="gray" d="M12,-438.5C12,-438.5 124,-438.5 124,-438.5 130,-438.5 136,-444.5 136,-450.5 136,-450.5 136,-472.5 136,-472.5 136,-478.5 130,-484.5 124,-484.5 124,-484.5 12,-484.5 12,-484.5 6,-484.5 0,-478.5 0,-472.5 0,-472.5 0,-450.5 0,-450.5 0,-444.5 6,-438.5 12,-438.5"/>
<text text-anchor="middle" x="16" y="-469.3" font-family="Times New Roman,serif" font-size="14.00" fill="#f78a05">[1]</text>
<polyline fill="none" stroke="gray" points="32,-461.5 32,-484.5"/>
<text text-anchor="middle" x="68" y="-469.3" font-family="Times New Roman,serif" font-size="14.00" fill="#f78a05">minuscula</text>
<polyline fill="none" stroke="gray" points="104,-461.5 104,-484.5"/>
<text text-anchor="middle" x="120" y="-469.3" font-family="Times New Roman,serif" font-size="14.00" fill="#f78a05">[1]</text>
<polyline fill="none" stroke="gray" points="0,-461.5 136,-461.5"/>
<text text-anchor="middle" x="68" y="-446.3" font-family="Times New Roman,serif" font-size="14.00" fill="#f78a05">N.A</text>
</g>
<!-- struct1203161279&#45;&gt;struct1042110114 -->
<g id="edge3" class="edge">
<title>struct1203161279&#45;&gt;struct1042110114</title>
<path fill="none" stroke="#d19928" d="M181.78,-521.58C162.88,-511.77 140.4,-500.09 120.43,-489.72"/>
<polygon fill="#d19928" stroke="#d19928" points="122.08,-486.64 111.59,-485.13 118.85,-492.85 122.08,-486.64"/>
</g>
<!-- struct1657154448 -->
<g id="node5" class="node">
<title>struct1657154448</title>
<path fill="none" stroke="gray" d="M166.5,-438.5C166.5,-438.5 281.5,-438.5 281.5,-438.5 287.5,-438.5 293.5,-444.5 293.5,-450.5 293.5,-450.5 293.5,-472.5 293.5,-472.5 293.5,-478.5 287.5,-484.5 281.5,-484.5 281.5,-484.5 166.5,-484.5 166.5,-484.5 160.5,-484.5 154.5,-478.5 154.5,-472.5 154.5,-472.5 154.5,-450.5 154.5,-450.5 154.5,-444.5 160.5,-438.5 166.5,-438.5"/>
<text text-anchor="middle" x="170.5" y="-469.3" font-family="Times New Roman,serif" font-size="14.00" fill="#f78a05">[2]</text>
<polyline fill="none" stroke="gray" points="186.5,-461.5 186.5,-484.5"/>
<text text-anchor="middle" x="224" y="-469.3" font-family="Times New Roman,serif" font-size="14.00" fill="#f78a05">mayuscula</text>
<polyline fill="none" stroke="gray" points="261.5,-461.5 261.5,-484.5"/>
<text text-anchor="middle" x="277.5" y="-469.3" font-family="Times New Roman,serif" font-size="14.00" fill="#f78a05">[2]</text>
<polyline fill="none" stroke="gray" points="154.5,-461.5 293.5,-461.5"/>
<text text-anchor="middle" x="224" y="-446.3" font-family="Times New Roman,serif" font-size="14.00" fill="#f78a05">N.A</text>
</g>
<!-- struct1203161279&#45;&gt;struct1657154448 -->
<g id="edge4" class="edge">
<title>struct1203161279&#45;&gt;struct1657154448</title>
<path fill="none" stroke="#d19928" d="M224,-521.79C224,-513.71 224,-504.35 224,-495.48"/>
<polygon fill="#d19928" stroke="#d19928" points="227.5,-495.78 224,-485.78 220.5,-495.78 227.5,-495.78"/>
</g>
<!-- struct1315859403 -->
<g id="node7" class="node">
<title>struct1315859403</title>
<path fill="none" stroke="gray" d="M323.5,-438.5C323.5,-438.5 474.5,-438.5 474.5,-438.5 480.5,-438.5 486.5,-444.5 486.5,-450.5 486.5,-450.5 486.5,-472.5 486.5,-472.5 486.5,-478.5 480.5,-484.5 474.5,-484.5 474.5,-484.5 323.5,-484.5 323.5,-484.5 317.5,-484.5 311.5,-478.5 311.5,-472.5 311.5,-472.5 311.5,-450.5 311.5,-450.5 311.5,-444.5 317.5,-438.5 323.5,-438.5"/>
<text text-anchor="middle" x="349" y="-469.3" font-family="Times New Roman,serif" font-size="14.00" fill="#f78a05">[3, 4, 5, 6]</text>
<polyline fill="none" stroke="gray" points="386.5,-461.5 386.5,-484.5"/>
<text text-anchor="middle" x="399" y="-469.3" font-family="Times New Roman,serif" font-size="14.00" fill="#f78a05">+</text>
<polyline fill="none" stroke="gray" points="411.5,-461.5 411.5,-484.5"/>
<text text-anchor="middle" x="449" y="-469.3" font-family="Times New Roman,serif" font-size="14.00" fill="#f78a05">[3, 4, 5, 6]</text>
<polyline fill="none" stroke="gray" points="311.5,-461.5 486.5,-461.5"/>
<text text-anchor="middle" x="399" y="-446.3" font-family="Times New Roman,serif" font-size="14.00" fill="#f78a05">N.A</text>
</g>
<!-- struct1064087465&#45;&gt;struct1315859403 -->
<g id="edge6" class="edge">
<title>struct1064087465&#45;&gt;struct1315859403</title>
<path fill="none" stroke="#d19928" d="M399,-521.79C399,-513.71 399,-504.35 399,-495.48"/>
<polygon fill="#d19928" stroke="#d19928" points="402.5,-495.78 399,-485.78 395.5,-495.78 402.5,-495.78"/>
</g>
<!-- struct1636381650 -->
<g id="node15" class="node">
<title>struct1636381650</title>
<path fill="none" stroke="gray" d="M518.5,-438.5C518.5,-438.5 585.5,-438.5 585.5,-438.5 591.5,-438.5 597.5,-444.5 597.5,-450.5 597.5,-450.5 597.5,-472.5 597.5,-472.5 597.5,-478.5 591.5,-484.5 585.5,-484.5 585.5,-484.5 518.5,-484.5 518.5,-484.5 512.5,-484.5 506.5,-478.5 506.5,-472.5 506.5,-472.5 506.5,-450.5 506.5,-450.5 506.5,-444.5 512.5,-438.5 518.5,-438.5"/>
<text text-anchor="middle" x="522.5" y="-469.3" font-family="Times New Roman,serif" font-size="14.00" fill="#f78a05">[7]</text>
<polyline fill="none" stroke="gray" points="538.5,-461.5 538.5,-484.5"/>
<text text-anchor="middle" x="548.5" y="-469.3" font-family="Times New Roman,serif" font-size="14.00" fill="#f78a05">.</text>
<polyline fill="none" stroke="gray" points="558.5,-461.5 558.5,-484.5"/>
<text text-anchor="middle" x="578" y="-469.3" font-family="Times New Roman,serif" font-size="14.00" fill="#f78a05">[13]</text>
<polyline fill="none" stroke="gray" points="506.5,-461.5 597.5,-461.5"/>
<text text-anchor="middle" x="552" y="-446.3" font-family="Times New Roman,serif" font-size="14.00" fill="#f78a05">N.A</text>
</g>
<!-- struct1064087465&#45;&gt;struct1636381650 -->
<g id="edge14" class="edge">
<title>struct1064087465&#45;&gt;struct1636381650</title>
<path fill="none" stroke="#d19928" d="M440.4,-521.58C458.94,-511.77 480.99,-500.09 500.58,-489.72"/>
<polygon fill="#d19928" stroke="#d19928" points="502.02,-492.92 509.23,-485.15 498.75,-486.73 502.02,-492.92"/>
</g>
<!-- struct445816034 -->
<g id="node8" class="node">
<title>struct445816034</title>
<path fill="none" stroke="gray" d="M324.5,-355.5C324.5,-355.5 469.5,-355.5 469.5,-355.5 475.5,-355.5 481.5,-361.5 481.5,-367.5 481.5,-367.5 481.5,-389.5 481.5,-389.5 481.5,-395.5 475.5,-401.5 469.5,-401.5 469.5,-401.5 324.5,-401.5 324.5,-401.5 318.5,-401.5 312.5,-395.5 312.5,-389.5 312.5,-389.5 312.5,-367.5 312.5,-367.5 312.5,-361.5 318.5,-355.5 324.5,-355.5"/>
<text text-anchor="middle" x="350" y="-386.3" font-family="Times New Roman,serif" font-size="14.00" fill="#f78a05">[3, 4, 5, 6]</text>
<polyline fill="none" stroke="gray" points="387.5,-378.5 387.5,-401.5"/>
<text text-anchor="middle" x="397" y="-386.3" font-family="Times New Roman,serif" font-size="14.00" fill="#f78a05">|</text>
<polyline fill="none" stroke="gray" points="406.5,-378.5 406.5,-401.5"/>
<text text-anchor="middle" x="444" y="-386.3" font-family="Times New Roman,serif" font-size="14.00" fill="#f78a05">[3, 4, 5, 6]</text>
<polyline fill="none" stroke="gray" points="312.5,-378.5 481.5,-378.5"/>
<text text-anchor="middle" x="397" y="-363.3" font-family="Times New Roman,serif" font-size="14.00" fill="#f78a05">N.A</text>
</g>
<!-- struct1315859403&#45;&gt;struct445816034 -->
<g id="edge7" class="edge">
<title>struct1315859403&#45;&gt;struct445816034</title>
<path fill="none" stroke="#d19928" d="M398.46,-438.79C398.26,-430.71 398.03,-421.35 397.81,-412.48"/>
<polygon fill="#d19928" stroke="#d19928" points="401.32,-412.69 397.57,-402.78 394.32,-412.86 401.32,-412.69"/>
</g>
<!-- struct1230749323 -->
<g id="node9" class="node">
<title>struct1230749323</title>
<path fill="none" stroke="gray" d="M264.5,-272.5C264.5,-272.5 381.5,-272.5 381.5,-272.5 387.5,-272.5 393.5,-278.5 393.5,-284.5 393.5,-284.5 393.5,-306.5 393.5,-306.5 393.5,-312.5 387.5,-318.5 381.5,-318.5 381.5,-318.5 264.5,-318.5 264.5,-318.5 258.5,-318.5 252.5,-312.5 252.5,-306.5 252.5,-306.5 252.5,-284.5 252.5,-284.5 252.5,-278.5 258.5,-272.5 264.5,-272.5"/>
<text text-anchor="middle" x="283" y="-303.3" font-family="Times New Roman,serif" font-size="14.00" fill="#f78a05">[3, 4, 5]</text>
<polyline fill="none" stroke="gray" points="313.5,-295.5 313.5,-318.5"/>
<text text-anchor="middle" x="323" y="-303.3" font-family="Times New Roman,serif" font-size="14.00" fill="#f78a05">|</text>
<polyline fill="none" stroke="gray" points="332.5,-295.5 332.5,-318.5"/>
<text text-anchor="middle" x="363" y="-303.3" font-family="Times New Roman,serif" font-size="14.00" fill="#f78a05">[3, 4, 5]</text>
<polyline fill="none" stroke="gray" points="252.5,-295.5 393.5,-295.5"/>
<text text-anchor="middle" x="323" y="-280.3" font-family="Times New Roman,serif" font-size="14.00" fill="#f78a05">N.A</text>
</g>
<!-- struct445816034&#45;&gt;struct1230749323 -->
<g id="edge8" class="edge">
<title>struct445816034&#45;&gt;struct1230749323</title>
<path fill="none" stroke="#d19928" d="M377.17,-355.79C368.96,-346.8 359.3,-336.23 350.42,-326.52"/>
<polygon fill="#d19928" stroke="#d19928" points="353.24,-324.41 343.91,-319.38 348.07,-329.13 353.24,-324.41"/>
</g>
<!-- struct634604028 -->
<g id="node14" class="node">
<title>struct634604028</title>
<path fill="none" stroke="gray" d="M423.5,-272.5C423.5,-272.5 522.5,-272.5 522.5,-272.5 528.5,-272.5 534.5,-278.5 534.5,-284.5 534.5,-284.5 534.5,-306.5 534.5,-306.5 534.5,-312.5 528.5,-318.5 522.5,-318.5 522.5,-318.5 423.5,-318.5 423.5,-318.5 417.5,-318.5 411.5,-312.5 411.5,-306.5 411.5,-306.5 411.5,-284.5 411.5,-284.5 411.5,-278.5 417.5,-272.5 423.5,-272.5"/>
<text text-anchor="middle" x="427.5" y="-303.3" font-family="Times New Roman,serif" font-size="14.00" fill="#f78a05">[6]</text>
<polyline fill="none" stroke="gray" points="443.5,-295.5 443.5,-318.5"/>
<text text-anchor="middle" x="473" y="-303.3" font-family="Times New Roman,serif" font-size="14.00" fill="#f78a05">numero</text>
<polyline fill="none" stroke="gray" points="502.5,-295.5 502.5,-318.5"/>
<text text-anchor="middle" x="518.5" y="-303.3" font-family="Times New Roman,serif" font-size="14.00" fill="#f78a05">[6]</text>
<polyline fill="none" stroke="gray" points="411.5,-295.5 534.5,-295.5"/>
<text text-anchor="middle" x="473" y="-280.3" font-family="Times New Roman,serif" font-size="14.00" fill="#f78a05">N.A</text>
</g>
<!-- struct445816034&#45;&gt;struct634604028 -->
<g id="edge13" class="edge">
<title>struct445816034&#45;&gt;struct634604028</title>
<path fill="none" stroke="#d19928" d="M417.37,-355.79C425.8,-346.8 435.72,-336.23 444.84,-326.52"/>
<polygon fill="#d19928" stroke="#d19928" points="447.25,-329.06 451.54,-319.37 442.15,-324.27 447.25,-329.06"/>
</g>
<!-- struct319836654 -->
<g id="node10" class="node">
<title>struct319836654</title>
<path fill="none" stroke="gray" d="M212.5,-189.5C212.5,-189.5 301.5,-189.5 301.5,-189.5 307.5,-189.5 313.5,-195.5 313.5,-201.5 313.5,-201.5 313.5,-223.5 313.5,-223.5 313.5,-229.5 307.5,-235.5 301.5,-235.5 301.5,-235.5 212.5,-235.5 212.5,-235.5 206.5,-235.5 200.5,-229.5 200.5,-223.5 200.5,-223.5 200.5,-201.5 200.5,-201.5 200.5,-195.5 206.5,-189.5 212.5,-189.5"/>
<text text-anchor="middle" x="224" y="-220.3" font-family="Times New Roman,serif" font-size="14.00" fill="#f78a05">[3, 4]</text>
<polyline fill="none" stroke="gray" points="247.5,-212.5 247.5,-235.5"/>
<text text-anchor="middle" x="257" y="-220.3" font-family="Times New Roman,serif" font-size="14.00" fill="#f78a05">|</text>
<polyline fill="none" stroke="gray" points="266.5,-212.5 266.5,-235.5"/>
<text text-anchor="middle" x="290" y="-220.3" font-family="Times New Roman,serif" font-size="14.00" fill="#f78a05">[3, 4]</text>
<polyline fill="none" stroke="gray" points="200.5,-212.5 313.5,-212.5"/>
<text text-anchor="middle" x="257" y="-197.3" font-family="Times New Roman,serif" font-size="14.00" fill="#f78a05">N.A</text>
</g>
<!-- struct1230749323&#45;&gt;struct319836654 -->
<g id="edge9" class="edge">
<title>struct1230749323&#45;&gt;struct319836654</title>
<path fill="none" stroke="#d19928" d="M305.31,-272.79C298.14,-263.99 289.72,-253.66 281.94,-244.11"/>
<polygon fill="#d19928" stroke="#d19928" points="284.72,-241.98 275.69,-236.44 279.3,-246.4 284.72,-241.98"/>
</g>
<!-- struct878571960 -->
<g id="node13" class="node">
<title>struct878571960</title>
<path fill="none" stroke="gray" d="M343.5,-189.5C343.5,-189.5 458.5,-189.5 458.5,-189.5 464.5,-189.5 470.5,-195.5 470.5,-201.5 470.5,-201.5 470.5,-223.5 470.5,-223.5 470.5,-229.5 464.5,-235.5 458.5,-235.5 458.5,-235.5 343.5,-235.5 343.5,-235.5 337.5,-235.5 331.5,-229.5 331.5,-223.5 331.5,-223.5 331.5,-201.5 331.5,-201.5 331.5,-195.5 337.5,-189.5 343.5,-189.5"/>
<text text-anchor="middle" x="347.5" y="-220.3" font-family="Times New Roman,serif" font-size="14.00" fill="#f78a05">[5]</text>
<polyline fill="none" stroke="gray" points="363.5,-212.5 363.5,-235.5"/>
<text text-anchor="middle" x="401" y="-220.3" font-family="Times New Roman,serif" font-size="14.00" fill="#f78a05">mayuscula</text>
<polyline fill="none" stroke="gray" points="438.5,-212.5 438.5,-235.5"/>
<text text-anchor="middle" x="454.5" y="-220.3" font-family="Times New Roman,serif" font-size="14.00" fill="#f78a05">[5]</text>
<polyline fill="none" stroke="gray" points="331.5,-212.5 470.5,-212.5"/>
<text text-anchor="middle" x="401" y="-197.3" font-family="Times New Roman,serif" font-size="14.00" fill="#f78a05">N.A</text>
</g>
<!-- struct1230749323&#45;&gt;struct878571960 -->
<g id="edge12" class="edge">
<title>struct1230749323&#45;&gt;struct878571960</title>
<path fill="none" stroke="#d19928" d="M343.9,-272.79C352.56,-263.8 362.74,-253.23 372.09,-243.52"/>
<polygon fill="#d19928" stroke="#d19928" points="374.57,-245.99 378.99,-236.36 369.53,-241.13 374.57,-245.99"/>
</g>
<!-- struct782057588 -->
<g id="node11" class="node">
<title>struct782057588</title>
<path fill="none" stroke="gray" d="M95,-106.5C95,-106.5 203,-106.5 203,-106.5 209,-106.5 215,-112.5 215,-118.5 215,-118.5 215,-140.5 215,-140.5 215,-146.5 209,-152.5 203,-152.5 203,-152.5 95,-152.5 95,-152.5 89,-152.5 83,-146.5 83,-140.5 83,-140.5 83,-118.5 83,-118.5 83,-112.5 89,-106.5 95,-106.5"/>
<text text-anchor="middle" x="99" y="-137.3" font-family="Times New Roman,serif" font-size="14.00" fill="#f78a05">[3]</text>
<polyline fill="none" stroke="gray" points="115,-129.5 115,-152.5"/>
<text text-anchor="middle" x="149" y="-137.3" font-family="Times New Roman,serif" font-size="14.00" fill="#f78a05">simbolos</text>
<polyline fill="none" stroke="gray" points="183,-129.5 183,-152.5"/>
<text text-anchor="middle" x="199" y="-137.3" font-family="Times New Roman,serif" font-size="14.00" fill="#f78a05">[3]</text>
<polyline fill="none" stroke="gray" points="83,-129.5 215,-129.5"/>
<text text-anchor="middle" x="149" y="-114.3" font-family="Times New Roman,serif" font-size="14.00" fill="#f78a05">N.A</text>
</g>
<!-- struct319836654&#45;&gt;struct782057588 -->
<g id="edge10" class="edge">
<title>struct319836654&#45;&gt;struct782057588</title>
<path fill="none" stroke="#d19928" d="M227.77,-189.58C215.29,-180.22 200.55,-169.16 187.21,-159.16"/>
<polygon fill="#d19928" stroke="#d19928" points="189.56,-156.55 179.46,-153.35 185.36,-162.15 189.56,-156.55"/>
</g>
<!-- struct551992521 -->
<g id="node12" class="node">
<title>struct551992521</title>
<path fill="none" stroke="gray" d="M245,-106.5C245,-106.5 357,-106.5 357,-106.5 363,-106.5 369,-112.5 369,-118.5 369,-118.5 369,-140.5 369,-140.5 369,-146.5 363,-152.5 357,-152.5 357,-152.5 245,-152.5 245,-152.5 239,-152.5 233,-146.5 233,-140.5 233,-140.5 233,-118.5 233,-118.5 233,-112.5 239,-106.5 245,-106.5"/>
<text text-anchor="middle" x="249" y="-137.3" font-family="Times New Roman,serif" font-size="14.00" fill="#f78a05">[4]</text>
<polyline fill="none" stroke="gray" points="265,-129.5 265,-152.5"/>
<text text-anchor="middle" x="301" y="-137.3" font-family="Times New Roman,serif" font-size="14.00" fill="#f78a05">minuscula</text>
<polyline fill="none" stroke="gray" points="337,-129.5 337,-152.5"/>
<text text-anchor="middle" x="353" y="-137.3" font-family="Times New Roman,serif" font-size="14.00" fill="#f78a05">[4]</text>
<polyline fill="none" stroke="gray" points="233,-129.5 369,-129.5"/>
<text text-anchor="middle" x="301" y="-114.3" font-family="Times New Roman,serif" font-size="14.00" fill="#f78a05">N.A</text>
</g>
<!-- struct319836654&#45;&gt;struct551992521 -->
<g id="edge11" class="edge">
<title>struct319836654&#45;&gt;struct551992521</title>
<path fill="none" stroke="#d19928" d="M268.79,-189.79C273.38,-181.35 278.73,-171.51 283.73,-162.29"/>
<polygon fill="#d19928" stroke="#d19928" points="286.76,-164.05 288.45,-153.6 280.6,-160.71 286.76,-164.05"/>
</g>
<!-- struct1956436958 -->
<g id="node16" class="node">
<title>struct1956436958</title>
<path fill="none" stroke="gray" d="M511.5,-355.5C511.5,-355.5 592.5,-355.5 592.5,-355.5 598.5,-355.5 604.5,-361.5 604.5,-367.5 604.5,-367.5 604.5,-389.5 604.5,-389.5 604.5,-395.5 598.5,-401.5 592.5,-401.5 592.5,-401.5 511.5,-401.5 511.5,-401.5 505.5,-401.5 499.5,-395.5 499.5,-389.5 499.5,-389.5 499.5,-367.5 499.5,-367.5 499.5,-361.5 505.5,-355.5 511.5,-355.5"/>
<text text-anchor="middle" x="515.5" y="-386.3" font-family="Times New Roman,serif" font-size="14.00" fill="#f78a05">[7]</text>
<polyline fill="none" stroke="gray" points="531.5,-378.5 531.5,-401.5"/>
<text text-anchor="middle" x="552" y="-386.3" font-family="Times New Roman,serif" font-size="14.00" fill="#f78a05">&quot;@&quot;</text>
<polyline fill="none" stroke="gray" points="572.5,-378.5 572.5,-401.5"/>
<text text-anchor="middle" x="588.5" y="-386.3" font-family="Times New Roman,serif" font-size="14.00" fill="#f78a05">[7]</text>
<polyline fill="none" stroke="gray" points="499.5,-378.5 604.5,-378.5"/>
<text text-anchor="middle" x="552" y="-363.3" font-family="Times New Roman,serif" font-size="14.00" fill="#f78a05">N.A</text>
</g>
<!-- struct1636381650&#45;&gt;struct1956436958 -->
<g id="edge15" class="edge">
<title>struct1636381650&#45;&gt;struct1956436958</title>
<path fill="none" stroke="#d19928" d="M552,-438.79C552,-430.71 552,-421.35 552,-412.48"/>
<polygon fill="#d19928" stroke="#d19928" points="555.5,-412.78 552,-402.78 548.5,-412.78 555.5,-412.78"/>
</g>
<!-- struct798434500 -->
<g id="node17" class="node">
<title>struct798434500</title>
<path fill="none" stroke="gray" d="M635,-355.5C635,-355.5 717,-355.5 717,-355.5 723,-355.5 729,-361.5 729,-367.5 729,-367.5 729,-389.5 729,-389.5 729,-395.5 723,-401.5 717,-401.5 717,-401.5 635,-401.5 635,-401.5 629,-401.5 623,-395.5 623,-389.5 623,-389.5 623,-367.5 623,-367.5 623,-361.5 629,-355.5 635,-355.5"/>
<text text-anchor="middle" x="646.5" y="-386.3" font-family="Times New Roman,serif" font-size="14.00" fill="#f78a05">[8, 9]</text>
<polyline fill="none" stroke="gray" points="670,-378.5 670,-401.5"/>
<text text-anchor="middle" x="680" y="-386.3" font-family="Times New Roman,serif" font-size="14.00" fill="#f78a05">.</text>
<polyline fill="none" stroke="gray" points="690,-378.5 690,-401.5"/>
<text text-anchor="middle" x="709.5" y="-386.3" font-family="Times New Roman,serif" font-size="14.00" fill="#f78a05">[13]</text>
<polyline fill="none" stroke="gray" points="623,-378.5 729,-378.5"/>
<text text-anchor="middle" x="676" y="-363.3" font-family="Times New Roman,serif" font-size="14.00" fill="#f78a05">N.A</text>
</g>
<!-- struct1636381650&#45;&gt;struct798434500 -->
<g id="edge16" class="edge">
<title>struct1636381650&#45;&gt;struct798434500</title>
<path fill="none" stroke="#d19928" d="M585.56,-438.58C600.17,-429.04 617.47,-417.73 633.01,-407.58"/>
<polygon fill="#d19928" stroke="#d19928" points="634.69,-410.66 641.15,-402.27 630.86,-404.8 634.69,-410.66"/>
</g>
<!-- struct280237155 -->
<g id="node18" class="node">
<title>struct280237155</title>
<path fill="none" stroke="gray" d="M565.5,-272.5C565.5,-272.5 660.5,-272.5 660.5,-272.5 666.5,-272.5 672.5,-278.5 672.5,-284.5 672.5,-284.5 672.5,-306.5 672.5,-306.5 672.5,-312.5 666.5,-318.5 660.5,-318.5 660.5,-318.5 565.5,-318.5 565.5,-318.5 559.5,-318.5 553.5,-312.5 553.5,-306.5 553.5,-306.5 553.5,-284.5 553.5,-284.5 553.5,-278.5 559.5,-272.5 565.5,-272.5"/>
<text text-anchor="middle" x="577" y="-303.3" font-family="Times New Roman,serif" font-size="14.00" fill="#f78a05">[8, 9]</text>
<polyline fill="none" stroke="gray" points="600.5,-295.5 600.5,-318.5"/>
<text text-anchor="middle" x="613" y="-303.3" font-family="Times New Roman,serif" font-size="14.00" fill="#f78a05">+</text>
<polyline fill="none" stroke="gray" points="625.5,-295.5 625.5,-318.5"/>
<text text-anchor="middle" x="649" y="-303.3" font-family="Times New Roman,serif" font-size="14.00" fill="#f78a05">[8, 9]</text>
<polyline fill="none" stroke="gray" points="553.5,-295.5 672.5,-295.5"/>
<text text-anchor="middle" x="613" y="-280.3" font-family="Times New Roman,serif" font-size="14.00" fill="#f78a05">N.A</text>
</g>
<!-- struct798434500&#45;&gt;struct280237155 -->
<g id="edge17" class="edge">
<title>struct798434500&#45;&gt;struct280237155</title>
<path fill="none" stroke="#d19928" d="M659.12,-355.79C652.27,-346.99 644.23,-336.66 636.81,-327.11"/>
<polygon fill="#d19928" stroke="#d19928" points="639.76,-325.21 630.86,-319.46 634.24,-329.5 639.76,-325.21"/>
</g>
<!-- struct207315099 -->
<g id="node22" class="node">
<title>struct207315099</title>
<path fill="none" stroke="gray" d="M703,-272.5C703,-272.5 777,-272.5 777,-272.5 783,-272.5 789,-278.5 789,-284.5 789,-284.5 789,-306.5 789,-306.5 789,-312.5 783,-318.5 777,-318.5 777,-318.5 703,-318.5 703,-318.5 697,-318.5 691,-312.5 691,-306.5 691,-306.5 691,-284.5 691,-284.5 691,-278.5 697,-272.5 703,-272.5"/>
<text text-anchor="middle" x="710.5" y="-303.3" font-family="Times New Roman,serif" font-size="14.00" fill="#f78a05">[10]</text>
<polyline fill="none" stroke="gray" points="730,-295.5 730,-318.5"/>
<text text-anchor="middle" x="740" y="-303.3" font-family="Times New Roman,serif" font-size="14.00" fill="#f78a05">.</text>
<polyline fill="none" stroke="gray" points="750,-295.5 750,-318.5"/>
<text text-anchor="middle" x="769.5" y="-303.3" font-family="Times New Roman,serif" font-size="14.00" fill="#f78a05">[13]</text>
<polyline fill="none" stroke="gray" points="691,-295.5 789,-295.5"/>
<text text-anchor="middle" x="740" y="-280.3" font-family="Times New Roman,serif" font-size="14.00" fill="#f78a05">N.A</text>
</g>
<!-- struct798434500&#45;&gt;struct207315099 -->
<g id="edge21" class="edge">
<title>struct798434500&#45;&gt;struct207315099</title>
<path fill="none" stroke="#d19928" d="M693.15,-355.79C700.11,-346.99 708.27,-336.66 715.82,-327.11"/>
<polygon fill="#d19928" stroke="#d19928" points="718.41,-329.47 721.86,-319.45 712.92,-325.13 718.41,-329.47"/>
</g>
<!-- struct940290564 -->
<g id="node19" class="node">
<title>struct940290564</title>
<path fill="none" stroke="gray" d="M565.5,-189.5C565.5,-189.5 654.5,-189.5 654.5,-189.5 660.5,-189.5 666.5,-195.5 666.5,-201.5 666.5,-201.5 666.5,-223.5 666.5,-223.5 666.5,-229.5 660.5,-235.5 654.5,-235.5 654.5,-235.5 565.5,-235.5 565.5,-235.5 559.5,-235.5 553.5,-229.5 553.5,-223.5 553.5,-223.5 553.5,-201.5 553.5,-201.5 553.5,-195.5 559.5,-189.5 565.5,-189.5"/>
<text text-anchor="middle" x="577" y="-220.3" font-family="Times New Roman,serif" font-size="14.00" fill="#f78a05">[8, 9]</text>
<polyline fill="none" stroke="gray" points="600.5,-212.5 600.5,-235.5"/>
<text text-anchor="middle" x="610" y="-220.3" font-family="Times New Roman,serif" font-size="14.00" fill="#f78a05">|</text>
<polyline fill="none" stroke="gray" points="619.5,-212.5 619.5,-235.5"/>
<text text-anchor="middle" x="643" y="-220.3" font-family="Times New Roman,serif" font-size="14.00" fill="#f78a05">[8, 9]</text>
<polyline fill="none" stroke="gray" points="553.5,-212.5 666.5,-212.5"/>
<text text-anchor="middle" x="610" y="-197.3" font-family="Times New Roman,serif" font-size="14.00" fill="#f78a05">N.A</text>
</g>
<!-- struct280237155&#45;&gt;struct940290564 -->
<g id="edge18" class="edge">
<title>struct280237155&#45;&gt;struct940290564</title>
<path fill="none" stroke="#d19928" d="M612.2,-272.79C611.9,-264.71 611.55,-255.35 611.22,-246.48"/>
<polygon fill="#d19928" stroke="#d19928" points="614.73,-246.64 610.86,-236.78 607.73,-246.9 614.73,-246.64"/>
</g>
<!-- struct710663408 -->
<g id="node20" class="node">
<title>struct710663408</title>
<path fill="none" stroke="gray" d="M442,-106.5C442,-106.5 554,-106.5 554,-106.5 560,-106.5 566,-112.5 566,-118.5 566,-118.5 566,-140.5 566,-140.5 566,-146.5 560,-152.5 554,-152.5 554,-152.5 442,-152.5 442,-152.5 436,-152.5 430,-146.5 430,-140.5 430,-140.5 430,-118.5 430,-118.5 430,-112.5 436,-106.5 442,-106.5"/>
<text text-anchor="middle" x="446" y="-137.3" font-family="Times New Roman,serif" font-size="14.00" fill="#f78a05">[8]</text>
<polyline fill="none" stroke="gray" points="462,-129.5 462,-152.5"/>
<text text-anchor="middle" x="498" y="-137.3" font-family="Times New Roman,serif" font-size="14.00" fill="#f78a05">minuscula</text>
<polyline fill="none" stroke="gray" points="534,-129.5 534,-152.5"/>
<text text-anchor="middle" x="550" y="-137.3" font-family="Times New Roman,serif" font-size="14.00" fill="#f78a05">[8]</text>
<polyline fill="none" stroke="gray" points="430,-129.5 566,-129.5"/>
<text text-anchor="middle" x="498" y="-114.3" font-family="Times New Roman,serif" font-size="14.00" fill="#f78a05">N.A</text>
</g>
<!-- struct940290564&#45;&gt;struct710663408 -->
<g id="edge19" class="edge">
<title>struct940290564&#45;&gt;struct710663408</title>
<path fill="none" stroke="#d19928" d="M579.69,-189.58C566.74,-180.22 551.45,-169.16 537.63,-159.16"/>
<polygon fill="#d19928" stroke="#d19928" points="539.71,-156.35 529.56,-153.32 535.61,-162.02 539.71,-156.35"/>
</g>
<!-- struct1014787195 -->
<g id="node21" class="node">
<title>struct1014787195</title>
<path fill="none" stroke="gray" d="M596.5,-106.5C596.5,-106.5 711.5,-106.5 711.5,-106.5 717.5,-106.5 723.5,-112.5 723.5,-118.5 723.5,-118.5 723.5,-140.5 723.5,-140.5 723.5,-146.5 717.5,-152.5 711.5,-152.5 711.5,-152.5 596.5,-152.5 596.5,-152.5 590.5,-152.5 584.5,-146.5 584.5,-140.5 584.5,-140.5 584.5,-118.5 584.5,-118.5 584.5,-112.5 590.5,-106.5 596.5,-106.5"/>
<text text-anchor="middle" x="600.5" y="-137.3" font-family="Times New Roman,serif" font-size="14.00" fill="#f78a05">[9]</text>
<polyline fill="none" stroke="gray" points="616.5,-129.5 616.5,-152.5"/>
<text text-anchor="middle" x="654" y="-137.3" font-family="Times New Roman,serif" font-size="14.00" fill="#f78a05">mayuscula</text>
<polyline fill="none" stroke="gray" points="691.5,-129.5 691.5,-152.5"/>
<text text-anchor="middle" x="707.5" y="-137.3" font-family="Times New Roman,serif" font-size="14.00" fill="#f78a05">[9]</text>
<polyline fill="none" stroke="gray" points="584.5,-129.5 723.5,-129.5"/>
<text text-anchor="middle" x="654" y="-114.3" font-family="Times New Roman,serif" font-size="14.00" fill="#f78a05">N.A</text>
</g>
<!-- struct940290564&#45;&gt;struct1014787195 -->
<g id="edge20" class="edge">
<title>struct940290564&#45;&gt;struct1014787195</title>
<path fill="none" stroke="#d19928" d="M621.79,-189.79C626.38,-181.35 631.73,-171.51 636.73,-162.29"/>
<polygon fill="#d19928" stroke="#d19928" points="639.76,-164.05 641.45,-153.6 633.6,-160.71 639.76,-164.05"/>
</g>
<!-- struct1772451974 -->
<g id="node23" class="node">
<title>struct1772451974</title>
<path fill="none" stroke="gray" d="M697,-189.5C697,-189.5 783,-189.5 783,-189.5 789,-189.5 795,-195.5 795,-201.5 795,-201.5 795,-223.5 795,-223.5 795,-229.5 789,-235.5 783,-235.5 783,-235.5 697,-235.5 697,-235.5 691,-235.5 685,-229.5 685,-223.5 685,-223.5 685,-201.5 685,-201.5 685,-195.5 691,-189.5 697,-189.5"/>
<text text-anchor="middle" x="704.5" y="-220.3" font-family="Times New Roman,serif" font-size="14.00" fill="#f78a05">[10]</text>
<polyline fill="none" stroke="gray" points="724,-212.5 724,-235.5"/>
<text text-anchor="middle" x="740" y="-220.3" font-family="Times New Roman,serif" font-size="14.00" fill="#f78a05">&quot;.&quot;</text>
<polyline fill="none" stroke="gray" points="756,-212.5 756,-235.5"/>
<text text-anchor="middle" x="775.5" y="-220.3" font-family="Times New Roman,serif" font-size="14.00" fill="#f78a05">[10]</text>
<polyline fill="none" stroke="gray" points="685,-212.5 795,-212.5"/>
<text text-anchor="middle" x="740" y="-197.3" font-family="Times New Roman,serif" font-size="14.00" fill="#f78a05">N.A</text>
</g>
<!-- struct207315099&#45;&gt;struct1772451974 -->
<g id="edge22" class="edge">
<title>struct207315099&#45;&gt;struct1772451974</title>
<path fill="none" stroke="#d19928" d="M740,-272.79C740,-264.71 740,-255.35 740,-246.48"/>
<polygon fill="#d19928" stroke="#d19928" points="743.5,-246.78 740,-236.78 736.5,-246.78 743.5,-246.78"/>
</g>
<!-- struct502105374 -->
<g id="node24" class="node">
<title>struct502105374</title>
<path fill="none" stroke="gray" d="M825,-189.5C825,-189.5 899,-189.5 899,-189.5 905,-189.5 911,-195.5 911,-201.5 911,-201.5 911,-223.5 911,-223.5 911,-229.5 905,-235.5 899,-235.5 899,-235.5 825,-235.5 825,-235.5 819,-235.5 813,-229.5 813,-223.5 813,-223.5 813,-201.5 813,-201.5 813,-195.5 819,-189.5 825,-189.5"/>
<text text-anchor="middle" x="832.5" y="-220.3" font-family="Times New Roman,serif" font-size="14.00" fill="#f78a05">[11]</text>
<polyline fill="none" stroke="gray" points="852,-212.5 852,-235.5"/>
<text text-anchor="middle" x="862" y="-220.3" font-family="Times New Roman,serif" font-size="14.00" fill="#f78a05">.</text>
<polyline fill="none" stroke="gray" points="872,-212.5 872,-235.5"/>
<text text-anchor="middle" x="891.5" y="-220.3" font-family="Times New Roman,serif" font-size="14.00" fill="#f78a05">[13]</text>
<polyline fill="none" stroke="gray" points="813,-212.5 911,-212.5"/>
<text text-anchor="middle" x="862" y="-197.3" font-family="Times New Roman,serif" font-size="14.00" fill="#f78a05">N.A</text>
</g>
<!-- struct207315099&#45;&gt;struct502105374 -->
<g id="edge23" class="edge">
<title>struct207315099&#45;&gt;struct502105374</title>
<path fill="none" stroke="#d19928" d="M773.01,-272.58C787.39,-263.04 804.41,-251.73 819.7,-241.58"/>
<polygon fill="#d19928" stroke="#d19928" points="821.3,-244.72 827.7,-236.27 817.43,-238.89 821.3,-244.72"/>
</g>
<!-- struct1118645612 -->
<g id="node25" class="node">
<title>struct1118645612</title>
<path fill="none" stroke="gray" d="M774.5,-106.5C774.5,-106.5 863.5,-106.5 863.5,-106.5 869.5,-106.5 875.5,-112.5 875.5,-118.5 875.5,-118.5 875.5,-140.5 875.5,-140.5 875.5,-146.5 869.5,-152.5 863.5,-152.5 863.5,-152.5 774.5,-152.5 774.5,-152.5 768.5,-152.5 762.5,-146.5 762.5,-140.5 762.5,-140.5 762.5,-118.5 762.5,-118.5 762.5,-112.5 768.5,-106.5 774.5,-106.5"/>
<text text-anchor="middle" x="782" y="-137.3" font-family="Times New Roman,serif" font-size="14.00" fill="#f78a05">[11]</text>
<polyline fill="none" stroke="gray" points="801.5,-129.5 801.5,-152.5"/>
<text text-anchor="middle" x="819" y="-137.3" font-family="Times New Roman,serif" font-size="14.00" fill="#f78a05">&quot;c&quot;</text>
<polyline fill="none" stroke="gray" points="836.5,-129.5 836.5,-152.5"/>
<text text-anchor="middle" x="856" y="-137.3" font-family="Times New Roman,serif" font-size="14.00" fill="#f78a05">[11]</text>
<polyline fill="none" stroke="gray" points="762.5,-129.5 875.5,-129.5"/>
<text text-anchor="middle" x="819" y="-114.3" font-family="Times New Roman,serif" font-size="14.00" fill="#f78a05">N.A</text>
</g>
<!-- struct502105374&#45;&gt;struct1118645612 -->
<g id="edge24" class="edge">
<title>struct502105374&#45;&gt;struct1118645612</title>
<path fill="none" stroke="#d19928" d="M850.48,-189.79C845.99,-181.35 840.77,-171.51 835.88,-162.29"/>
<polygon fill="#d19928" stroke="#d19928" points="839.05,-160.79 831.26,-153.6 832.86,-164.08 839.05,-160.79"/>
</g>
<!-- struct363184666 -->
<g id="node26" class="node">
<title>struct363184666</title>
<path fill="none" stroke="gray" d="M906,-106.5C906,-106.5 980,-106.5 980,-106.5 986,-106.5 992,-112.5 992,-118.5 992,-118.5 992,-140.5 992,-140.5 992,-146.5 986,-152.5 980,-152.5 980,-152.5 906,-152.5 906,-152.5 900,-152.5 894,-146.5 894,-140.5 894,-140.5 894,-118.5 894,-118.5 894,-112.5 900,-106.5 906,-106.5"/>
<text text-anchor="middle" x="913.5" y="-137.3" font-family="Times New Roman,serif" font-size="14.00" fill="#f78a05">[12]</text>
<polyline fill="none" stroke="gray" points="933,-129.5 933,-152.5"/>
<text text-anchor="middle" x="943" y="-137.3" font-family="Times New Roman,serif" font-size="14.00" fill="#f78a05">.</text>
<polyline fill="none" stroke="gray" points="953,-129.5 953,-152.5"/>
<text text-anchor="middle" x="972.5" y="-137.3" font-family="Times New Roman,serif" font-size="14.00" fill="#f78a05">[13]</text>
<polyline fill="none" stroke="gray" points="894,-129.5 992,-129.5"/>
<text text-anchor="middle" x="943" y="-114.3" font-family="Times New Roman,serif" font-size="14.00" fill="#f78a05">N.A</text>
</g>
<!-- struct502105374&#45;&gt;struct363184666 -->
<g id="edge25" class="edge">
<title>struct502105374&#45;&gt;struct363184666</title>
<path fill="none" stroke="#d19928" d="M883.71,-189.79C892.79,-180.71 903.48,-170.02 913.28,-160.22"/>
<polygon fill="#d19928" stroke="#d19928" points="915.57,-162.88 920.16,-153.34 910.62,-157.93 915.57,-162.88"/>
</g>
<!-- struct1460070752 -->
<g id="node27" class="node">
<title>struct1460070752</title>
<path fill="none" stroke="gray" d="M831,-23.5C831,-23.5 921,-23.5 921,-23.5 927,-23.5 933,-29.5 933,-35.5 933,-35.5 933,-57.5 933,-57.5 933,-63.5 927,-69.5 921,-69.5 921,-69.5 831,-69.5 831,-69.5 825,-69.5 819,-63.5 819,-57.5 819,-57.5 819,-35.5 819,-35.5 819,-29.5 825,-23.5 831,-23.5"/>
<text text-anchor="middle" x="838.5" y="-54.3" font-family="Times New Roman,serif" font-size="14.00" fill="#f78a05">[12]</text>
<polyline fill="none" stroke="gray" points="858,-46.5 858,-69.5"/>
<text text-anchor="middle" x="876" y="-54.3" font-family="Times New Roman,serif" font-size="14.00" fill="#f78a05">&quot;o&quot;</text>
<polyline fill="none" stroke="gray" points="894,-46.5 894,-69.5"/>
<text text-anchor="middle" x="913.5" y="-54.3" font-family="Times New Roman,serif" font-size="14.00" fill="#f78a05">[12]</text>
<polyline fill="none" stroke="gray" points="819,-46.5 933,-46.5"/>
<text text-anchor="middle" x="876" y="-31.3" font-family="Times New Roman,serif" font-size="14.00" fill="#f78a05">N.A</text>
</g>
<!-- struct363184666&#45;&gt;struct1460070752 -->
<g id="edge26" class="edge">
<title>struct363184666&#45;&gt;struct1460070752</title>
<path fill="none" stroke="#d19928" d="M925.05,-106.79C917.76,-97.99 909.22,-87.66 901.32,-78.11"/>
<polygon fill="#d19928" stroke="#d19928" points="904.04,-75.91 894.97,-70.43 898.65,-80.37 904.04,-75.91"/>
</g>
<!-- struct649217003 -->
<g id="node28" class="node">
<title>struct649217003</title>
<path fill="none" stroke="gray" d="M963.5,-23.5C963.5,-23.5 1056.5,-23.5 1056.5,-23.5 1062.5,-23.5 1068.5,-29.5 1068.5,-35.5 1068.5,-35.5 1068.5,-57.5 1068.5,-57.5 1068.5,-63.5 1062.5,-69.5 1056.5,-69.5 1056.5,-69.5 963.5,-69.5 963.5,-69.5 957.5,-69.5 951.5,-63.5 951.5,-57.5 951.5,-57.5 951.5,-35.5 951.5,-35.5 951.5,-29.5 957.5,-23.5 963.5,-23.5"/>
<text text-anchor="middle" x="971" y="-54.3" font-family="Times New Roman,serif" font-size="14.00" fill="#f78a05">[13]</text>
<polyline fill="none" stroke="gray" points="990.5,-46.5 990.5,-69.5"/>
<text text-anchor="middle" x="1010" y="-54.3" font-family="Times New Roman,serif" font-size="14.00" fill="#f78a05">&quot;m&quot;</text>
<polyline fill="none" stroke="gray" points="1029.5,-46.5 1029.5,-69.5"/>
<text text-anchor="middle" x="1049" y="-54.3" font-family="Times New Roman,serif" font-size="14.00" fill="#f78a05">[13]</text>
<polyline fill="none" stroke="gray" points="951.5,-46.5 1068.5,-46.5"/>
<text text-anchor="middle" x="1010" y="-31.3" font-family="Times New Roman,serif" font-size="14.00" fill="#f78a05">N.A</text>
</g>
<!-- struct363184666&#45;&gt;struct649217003 -->
<g id="edge27" class="edge">
<title>struct363184666&#45;&gt;struct649217003</title>
<path fill="none" stroke="#d19928" d="M960.95,-106.79C968.24,-97.99 976.78,-87.66 984.68,-78.11"/>
<polygon fill="#d19928" stroke="#d19928" points="987.35,-80.37 991.03,-70.43 981.96,-75.91 987.35,-80.37"/>
</g>
</g>
</svg>
