<?xml version="1.0" encoding="UTF-8" standalone="no"?>
<!DOCTYPE svg PUBLIC "-//W3C//DTD SVG 1.1//EN"
 "http://www.w3.org/Graphics/SVG/1.1/DTD/svg11.dtd">
<!-- Generated by graphviz version 7.1.0 (20230121.1956)
 -->
<!-- Title: structs Pages: 1 -->
<svg width="353pt" height="410pt"
 viewBox="0.00 0.00 353.00 410.00" xmlns="http://www.w3.org/2000/svg" xmlns:xlink="http://www.w3.org/1999/xlink">
<g id="graph0" class="graph" transform="scale(1 1) rotate(0) translate(4 406)">
<title>structs</title>
<polygon fill="white" stroke="none" points="-4,4 -4,-406 349,-406 349,4 -4,4"/>
<text text-anchor="middle" x="172.5" y="-7.8" font-family="Times New Roman,serif" font-size="14.00">decimales</text>
<!-- struct624254225 -->
<g id="node1" class="node">
<title>struct624254225</title>
<path fill="none" stroke="gray" d="M139,-355.5C139,-355.5 199,-355.5 199,-355.5 205,-355.5 211,-361.5 211,-367.5 211,-367.5 211,-389.5 211,-389.5 211,-395.5 205,-401.5 199,-401.5 199,-401.5 139,-401.5 139,-401.5 133,-401.5 127,-395.5 127,-389.5 127,-389.5 127,-367.5 127,-367.5 127,-361.5 133,-355.5 139,-355.5"/>
<text text-anchor="middle" x="143" y="-386.3" font-family="Times New Roman,serif" font-size="14.00" fill="#f78a05">[1]</text>
<polyline fill="none" stroke="gray" points="159,-378.5 159,-401.5"/>
<text text-anchor="middle" x="169" y="-386.3" font-family="Times New Roman,serif" font-size="14.00" fill="#f78a05">.</text>
<polyline fill="none" stroke="gray" points="179,-378.5 179,-401.5"/>
<text text-anchor="middle" x="195" y="-386.3" font-family="Times New Roman,serif" font-size="14.00" fill="#f78a05">[4]</text>
<polyline fill="none" stroke="gray" points="127,-378.5 211,-378.5"/>
<text text-anchor="middle" x="169" y="-363.3" font-family="Times New Roman,serif" font-size="14.00" fill="#f78a05">N.A</text>
</g>
<!-- struct1066423291 -->
<g id="node2" class="node">
<title>struct1066423291</title>
<path fill="none" stroke="gray" d="M87,-272.5C87,-272.5 147,-272.5 147,-272.5 153,-272.5 159,-278.5 159,-284.5 159,-284.5 159,-306.5 159,-306.5 159,-312.5 153,-318.5 147,-318.5 147,-318.5 87,-318.5 87,-318.5 81,-318.5 75,-312.5 75,-306.5 75,-306.5 75,-284.5 75,-284.5 75,-278.5 81,-272.5 87,-272.5"/>
<text text-anchor="middle" x="91" y="-303.3" font-family="Times New Roman,serif" font-size="14.00" fill="#f78a05">[1]</text>
<polyline fill="none" stroke="gray" points="107,-295.5 107,-318.5"/>
<text text-anchor="middle" x="117" y="-303.3" font-family="Times New Roman,serif" font-size="14.00" fill="#f78a05">.</text>
<polyline fill="none" stroke="gray" points="127,-295.5 127,-318.5"/>
<text text-anchor="middle" x="143" y="-303.3" font-family="Times New Roman,serif" font-size="14.00" fill="#f78a05">[3]</text>
<polyline fill="none" stroke="gray" points="75,-295.5 159,-295.5"/>
<text text-anchor="middle" x="117" y="-280.3" font-family="Times New Roman,serif" font-size="14.00" fill="#f78a05">N.A</text>
</g>
<!-- struct624254225&#45;&gt;struct1066423291 -->
<g id="edge1" class="edge">
<title>struct624254225&#45;&gt;struct1066423291</title>
<path fill="none" stroke="#d19928" d="M155.06,-355.79C149.53,-347.17 143.05,-337.08 137.03,-327.7"/>
<polygon fill="#d19928" stroke="#d19928" points="140.14,-326.06 131.79,-319.54 134.25,-329.85 140.14,-326.06"/>
</g>
<!-- struct826283912 -->
<g id="node9" class="node">
<title>struct826283912</title>
<path fill="none" stroke="gray" d="M189.5,-272.5C189.5,-272.5 252.5,-272.5 252.5,-272.5 258.5,-272.5 264.5,-278.5 264.5,-284.5 264.5,-284.5 264.5,-306.5 264.5,-306.5 264.5,-312.5 258.5,-318.5 252.5,-318.5 252.5,-318.5 189.5,-318.5 189.5,-318.5 183.5,-318.5 177.5,-312.5 177.5,-306.5 177.5,-306.5 177.5,-284.5 177.5,-284.5 177.5,-278.5 183.5,-272.5 189.5,-272.5"/>
<text text-anchor="middle" x="193.5" y="-303.3" font-family="Times New Roman,serif" font-size="14.00" fill="#f78a05">[4]</text>
<polyline fill="none" stroke="gray" points="209.5,-295.5 209.5,-318.5"/>
<text text-anchor="middle" x="221" y="-303.3" font-family="Times New Roman,serif" font-size="14.00" fill="#f78a05">$</text>
<polyline fill="none" stroke="gray" points="232.5,-295.5 232.5,-318.5"/>
<text text-anchor="middle" x="248.5" y="-303.3" font-family="Times New Roman,serif" font-size="14.00" fill="#f78a05">[4]</text>
<polyline fill="none" stroke="gray" points="177.5,-295.5 264.5,-295.5"/>
<text text-anchor="middle" x="221" y="-280.3" font-family="Times New Roman,serif" font-size="14.00" fill="#f78a05">N.A</text>
</g>
<!-- struct624254225&#45;&gt;struct826283912 -->
<g id="edge8" class="edge">
<title>struct624254225&#45;&gt;struct826283912</title>
<path fill="none" stroke="#d19928" d="M182.94,-355.79C188.47,-347.17 194.95,-337.08 200.97,-327.7"/>
<polygon fill="#d19928" stroke="#d19928" points="203.75,-329.85 206.21,-319.54 197.86,-326.06 203.75,-329.85"/>
</g>
<!-- struct888731016 -->
<g id="node3" class="node">
<title>struct888731016</title>
<path fill="none" stroke="gray" d="M32.5,-189.5C32.5,-189.5 97.5,-189.5 97.5,-189.5 103.5,-189.5 109.5,-195.5 109.5,-201.5 109.5,-201.5 109.5,-223.5 109.5,-223.5 109.5,-229.5 103.5,-235.5 97.5,-235.5 97.5,-235.5 32.5,-235.5 32.5,-235.5 26.5,-235.5 20.5,-229.5 20.5,-223.5 20.5,-223.5 20.5,-201.5 20.5,-201.5 20.5,-195.5 26.5,-189.5 32.5,-189.5"/>
<text text-anchor="middle" x="36.5" y="-220.3" font-family="Times New Roman,serif" font-size="14.00" fill="#f78a05">[1]</text>
<polyline fill="none" stroke="gray" points="52.5,-212.5 52.5,-235.5"/>
<text text-anchor="middle" x="65" y="-220.3" font-family="Times New Roman,serif" font-size="14.00" fill="#f78a05">+</text>
<polyline fill="none" stroke="gray" points="77.5,-212.5 77.5,-235.5"/>
<text text-anchor="middle" x="93.5" y="-220.3" font-family="Times New Roman,serif" font-size="14.00" fill="#f78a05">[1]</text>
<polyline fill="none" stroke="gray" points="20.5,-212.5 109.5,-212.5"/>
<text text-anchor="middle" x="65" y="-197.3" font-family="Times New Roman,serif" font-size="14.00" fill="#f78a05">N.A</text>
</g>
<!-- struct1066423291&#45;&gt;struct888731016 -->
<g id="edge2" class="edge">
<title>struct1066423291&#45;&gt;struct888731016</title>
<path fill="none" stroke="#d19928" d="M103.06,-272.79C97.53,-264.17 91.05,-254.08 85.03,-244.7"/>
<polygon fill="#d19928" stroke="#d19928" points="88.14,-243.06 79.79,-236.54 82.25,-246.85 88.14,-243.06"/>
</g>
<!-- struct1613874620 -->
<g id="node5" class="node">
<title>struct1613874620</title>
<path fill="none" stroke="gray" d="M148,-189.5C148,-189.5 208,-189.5 208,-189.5 214,-189.5 220,-195.5 220,-201.5 220,-201.5 220,-223.5 220,-223.5 220,-229.5 214,-235.5 208,-235.5 208,-235.5 148,-235.5 148,-235.5 142,-235.5 136,-229.5 136,-223.5 136,-223.5 136,-201.5 136,-201.5 136,-195.5 142,-189.5 148,-189.5"/>
<text text-anchor="middle" x="152" y="-220.3" font-family="Times New Roman,serif" font-size="14.00" fill="#f78a05">[2]</text>
<polyline fill="none" stroke="gray" points="168,-212.5 168,-235.5"/>
<text text-anchor="middle" x="178" y="-220.3" font-family="Times New Roman,serif" font-size="14.00" fill="#f78a05">.</text>
<polyline fill="none" stroke="gray" points="188,-212.5 188,-235.5"/>
<text text-anchor="middle" x="204" y="-220.3" font-family="Times New Roman,serif" font-size="14.00" fill="#f78a05">[3]</text>
<polyline fill="none" stroke="gray" points="136,-212.5 220,-212.5"/>
<text text-anchor="middle" x="178" y="-197.3" font-family="Times New Roman,serif" font-size="14.00" fill="#f78a05">N.A</text>
</g>
<!-- struct1066423291&#45;&gt;struct1613874620 -->
<g id="edge4" class="edge">
<title>struct1066423291&#45;&gt;struct1613874620</title>
<path fill="none" stroke="#d19928" d="M133.35,-272.79C139.91,-264.08 147.6,-253.87 154.73,-244.4"/>
<polygon fill="#d19928" stroke="#d19928" points="157.48,-246.57 160.7,-236.48 151.89,-242.36 157.48,-246.57"/>
</g>
<!-- struct1877201028 -->
<g id="node4" class="node">
<title>struct1877201028</title>
<path fill="none" stroke="gray" d="M12,-106.5C12,-106.5 100,-106.5 100,-106.5 106,-106.5 112,-112.5 112,-118.5 112,-118.5 112,-140.5 112,-140.5 112,-146.5 106,-152.5 100,-152.5 100,-152.5 12,-152.5 12,-152.5 6,-152.5 0,-146.5 0,-140.5 0,-140.5 0,-118.5 0,-118.5 0,-112.5 6,-106.5 12,-106.5"/>
<text text-anchor="middle" x="16" y="-137.3" font-family="Times New Roman,serif" font-size="14.00" fill="#f78a05">[1]</text>
<polyline fill="none" stroke="gray" points="32,-129.5 32,-152.5"/>
<text text-anchor="middle" x="56" y="-137.3" font-family="Times New Roman,serif" font-size="14.00" fill="#f78a05">digito</text>
<polyline fill="none" stroke="gray" points="80,-129.5 80,-152.5"/>
<text text-anchor="middle" x="96" y="-137.3" font-family="Times New Roman,serif" font-size="14.00" fill="#f78a05">[1]</text>
<polyline fill="none" stroke="gray" points="0,-129.5 112,-129.5"/>
<text text-anchor="middle" x="56" y="-114.3" font-family="Times New Roman,serif" font-size="14.00" fill="#f78a05">N.A</text>
</g>
<!-- struct888731016&#45;&gt;struct1877201028 -->
<g id="edge3" class="edge">
<title>struct888731016&#45;&gt;struct1877201028</title>
<path fill="none" stroke="#d19928" d="M62.59,-189.79C61.69,-181.71 60.65,-172.35 59.66,-163.48"/>
<polygon fill="#d19928" stroke="#d19928" points="63.17,-163.32 58.59,-153.77 56.21,-164.1 63.17,-163.32"/>
</g>
<!-- struct1560501706 -->
<g id="node6" class="node">
<title>struct1560501706</title>
<path fill="none" stroke="gray" d="M142,-106.5C142,-106.5 214,-106.5 214,-106.5 220,-106.5 226,-112.5 226,-118.5 226,-118.5 226,-140.5 226,-140.5 226,-146.5 220,-152.5 214,-152.5 214,-152.5 142,-152.5 142,-152.5 136,-152.5 130,-146.5 130,-140.5 130,-140.5 130,-118.5 130,-118.5 130,-112.5 136,-106.5 142,-106.5"/>
<text text-anchor="middle" x="146" y="-137.3" font-family="Times New Roman,serif" font-size="14.00" fill="#f78a05">[2]</text>
<polyline fill="none" stroke="gray" points="162,-129.5 162,-152.5"/>
<text text-anchor="middle" x="178" y="-137.3" font-family="Times New Roman,serif" font-size="14.00" fill="#f78a05">&quot;.&quot;</text>
<polyline fill="none" stroke="gray" points="194,-129.5 194,-152.5"/>
<text text-anchor="middle" x="210" y="-137.3" font-family="Times New Roman,serif" font-size="14.00" fill="#f78a05">[2]</text>
<polyline fill="none" stroke="gray" points="130,-129.5 226,-129.5"/>
<text text-anchor="middle" x="178" y="-114.3" font-family="Times New Roman,serif" font-size="14.00" fill="#f78a05">N.A</text>
</g>
<!-- struct1613874620&#45;&gt;struct1560501706 -->
<g id="edge5" class="edge">
<title>struct1613874620&#45;&gt;struct1560501706</title>
<path fill="none" stroke="#d19928" d="M178,-189.79C178,-181.71 178,-172.35 178,-163.48"/>
<polygon fill="#d19928" stroke="#d19928" points="181.5,-163.78 178,-153.78 174.5,-163.78 181.5,-163.78"/>
</g>
<!-- struct782542679 -->
<g id="node7" class="node">
<title>struct782542679</title>
<path fill="none" stroke="gray" d="M256.5,-106.5C256.5,-106.5 321.5,-106.5 321.5,-106.5 327.5,-106.5 333.5,-112.5 333.5,-118.5 333.5,-118.5 333.5,-140.5 333.5,-140.5 333.5,-146.5 327.5,-152.5 321.5,-152.5 321.5,-152.5 256.5,-152.5 256.5,-152.5 250.5,-152.5 244.5,-146.5 244.5,-140.5 244.5,-140.5 244.5,-118.5 244.5,-118.5 244.5,-112.5 250.5,-106.5 256.5,-106.5"/>
<text text-anchor="middle" x="260.5" y="-137.3" font-family="Times New Roman,serif" font-size="14.00" fill="#f78a05">[3]</text>
<polyline fill="none" stroke="gray" points="276.5,-129.5 276.5,-152.5"/>
<text text-anchor="middle" x="289" y="-137.3" font-family="Times New Roman,serif" font-size="14.00" fill="#f78a05">+</text>
<polyline fill="none" stroke="gray" points="301.5,-129.5 301.5,-152.5"/>
<text text-anchor="middle" x="317.5" y="-137.3" font-family="Times New Roman,serif" font-size="14.00" fill="#f78a05">[3]</text>
<polyline fill="none" stroke="gray" points="244.5,-129.5 333.5,-129.5"/>
<text text-anchor="middle" x="289" y="-114.3" font-family="Times New Roman,serif" font-size="14.00" fill="#f78a05">N.A</text>
</g>
<!-- struct1613874620&#45;&gt;struct782542679 -->
<g id="edge6" class="edge">
<title>struct1613874620&#45;&gt;struct782542679</title>
<path fill="none" stroke="#d19928" d="M208.04,-189.58C220.87,-180.22 236.02,-169.16 249.73,-159.16"/>
<polygon fill="#d19928" stroke="#d19928" points="251.7,-162.05 257.72,-153.33 247.57,-156.4 251.7,-162.05"/>
</g>
<!-- struct1597126135 -->
<g id="node8" class="node">
<title>struct1597126135</title>
<path fill="none" stroke="gray" d="M245,-23.5C245,-23.5 333,-23.5 333,-23.5 339,-23.5 345,-29.5 345,-35.5 345,-35.5 345,-57.5 345,-57.5 345,-63.5 339,-69.5 333,-69.5 333,-69.5 245,-69.5 245,-69.5 239,-69.5 233,-63.5 233,-57.5 233,-57.5 233,-35.5 233,-35.5 233,-29.5 239,-23.5 245,-23.5"/>
<text text-anchor="middle" x="249" y="-54.3" font-family="Times New Roman,serif" font-size="14.00" fill="#f78a05">[3]</text>
<polyline fill="none" stroke="gray" points="265,-46.5 265,-69.5"/>
<text text-anchor="middle" x="289" y="-54.3" font-family="Times New Roman,serif" font-size="14.00" fill="#f78a05">digito</text>
<polyline fill="none" stroke="gray" points="313,-46.5 313,-69.5"/>
<text text-anchor="middle" x="329" y="-54.3" font-family="Times New Roman,serif" font-size="14.00" fill="#f78a05">[3]</text>
<polyline fill="none" stroke="gray" points="233,-46.5 345,-46.5"/>
<text text-anchor="middle" x="289" y="-31.3" font-family="Times New Roman,serif" font-size="14.00" fill="#f78a05">N.A</text>
</g>
<!-- struct782542679&#45;&gt;struct1597126135 -->
<g id="edge7" class="edge">
<title>struct782542679&#45;&gt;struct1597126135</title>
<path fill="none" stroke="#d19928" d="M289,-106.79C289,-98.71 289,-89.35 289,-80.48"/>
<polygon fill="#d19928" stroke="#d19928" points="292.5,-80.78 289,-70.78 285.5,-80.78 292.5,-80.78"/>
</g>
</g>
</svg>
