<?xml version="1.0" encoding="UTF-8" standalone="no"?>
<!DOCTYPE svg PUBLIC "-//W3C//DTD SVG 1.1//EN"
 "http://www.w3.org/Graphics/SVG/1.1/DTD/svg11.dtd">
<!-- Generated by graphviz version 7.1.0 (20230121.1956)
 -->
<!-- Title: structs Pages: 1 -->
<svg width="637pt" height="991pt"
 viewBox="0.00 0.00 637.00 991.00" xmlns="http://www.w3.org/2000/svg" xmlns:xlink="http://www.w3.org/1999/xlink">
<g id="graph0" class="graph" transform="scale(1 1) rotate(0) translate(4 987)">
<title>structs</title>
<polygon fill="white" stroke="none" points="-4,4 -4,-987 633,-987 633,4 -4,4"/>
<text text-anchor="middle" x="314.5" y="-7.8" font-family="Times New Roman,serif" font-size="14.00">frase</text>
<!-- struct1769556877 -->
<g id="node1" class="node">
<title>struct1769556877</title>
<path fill="none" stroke="gray" d="M149.5,-936.5C149.5,-936.5 216.5,-936.5 216.5,-936.5 222.5,-936.5 228.5,-942.5 228.5,-948.5 228.5,-948.5 228.5,-970.5 228.5,-970.5 228.5,-976.5 222.5,-982.5 216.5,-982.5 216.5,-982.5 149.5,-982.5 149.5,-982.5 143.5,-982.5 137.5,-976.5 137.5,-970.5 137.5,-970.5 137.5,-948.5 137.5,-948.5 137.5,-942.5 143.5,-936.5 149.5,-936.5"/>
<text text-anchor="middle" x="153.5" y="-967.3" font-family="Times New Roman,serif" font-size="14.00" fill="#f78a05">[1]</text>
<polyline fill="none" stroke="gray" points="169.5,-959.5 169.5,-982.5"/>
<text text-anchor="middle" x="179.5" y="-967.3" font-family="Times New Roman,serif" font-size="14.00" fill="#f78a05">.</text>
<polyline fill="none" stroke="gray" points="189.5,-959.5 189.5,-982.5"/>
<text text-anchor="middle" x="209" y="-967.3" font-family="Times New Roman,serif" font-size="14.00" fill="#f78a05">[10]</text>
<polyline fill="none" stroke="gray" points="137.5,-959.5 228.5,-959.5"/>
<text text-anchor="middle" x="183" y="-944.3" font-family="Times New Roman,serif" font-size="14.00" fill="#f78a05">N.A</text>
</g>
<!-- struct1744286583 -->
<g id="node2" class="node">
<title>struct1744286583</title>
<path fill="none" stroke="gray" d="M65.5,-853.5C65.5,-853.5 168.5,-853.5 168.5,-853.5 174.5,-853.5 180.5,-859.5 180.5,-865.5 180.5,-865.5 180.5,-887.5 180.5,-887.5 180.5,-893.5 174.5,-899.5 168.5,-899.5 168.5,-899.5 65.5,-899.5 65.5,-899.5 59.5,-899.5 53.5,-893.5 53.5,-887.5 53.5,-887.5 53.5,-865.5 53.5,-865.5 53.5,-859.5 59.5,-853.5 65.5,-853.5"/>
<text text-anchor="middle" x="69.5" y="-884.3" font-family="Times New Roman,serif" font-size="14.00" fill="#f78a05">[1]</text>
<polyline fill="none" stroke="gray" points="85.5,-876.5 85.5,-899.5"/>
<text text-anchor="middle" x="95.5" y="-884.3" font-family="Times New Roman,serif" font-size="14.00" fill="#f78a05">.</text>
<polyline fill="none" stroke="gray" points="105.5,-876.5 105.5,-899.5"/>
<text text-anchor="middle" x="143" y="-884.3" font-family="Times New Roman,serif" font-size="14.00" fill="#f78a05">[6, 7, 8, 9]</text>
<polyline fill="none" stroke="gray" points="53.5,-876.5 180.5,-876.5"/>
<text text-anchor="middle" x="117" y="-861.3" font-family="Times New Roman,serif" font-size="14.00" fill="#f78a05">N.A</text>
</g>
<!-- struct1769556877&#45;&gt;struct1744286583 -->
<g id="edge1" class="edge">
<title>struct1769556877&#45;&gt;struct1744286583</title>
<path fill="none" stroke="#d19928" d="M165.31,-936.79C158.14,-927.99 149.72,-917.66 141.94,-908.11"/>
<polygon fill="#d19928" stroke="#d19928" points="144.72,-905.98 135.69,-900.44 139.3,-910.4 144.72,-905.98"/>
</g>
<!-- struct1007811132 -->
<g id="node21" class="node">
<title>struct1007811132</title>
<path fill="none" stroke="gray" d="M210.5,-853.5C210.5,-853.5 287.5,-853.5 287.5,-853.5 293.5,-853.5 299.5,-859.5 299.5,-865.5 299.5,-865.5 299.5,-887.5 299.5,-887.5 299.5,-893.5 293.5,-899.5 287.5,-899.5 287.5,-899.5 210.5,-899.5 210.5,-899.5 204.5,-899.5 198.5,-893.5 198.5,-887.5 198.5,-887.5 198.5,-865.5 198.5,-865.5 198.5,-859.5 204.5,-853.5 210.5,-853.5"/>
<text text-anchor="middle" x="218" y="-884.3" font-family="Times New Roman,serif" font-size="14.00" fill="#f78a05">[10]</text>
<polyline fill="none" stroke="gray" points="237.5,-876.5 237.5,-899.5"/>
<text text-anchor="middle" x="249" y="-884.3" font-family="Times New Roman,serif" font-size="14.00" fill="#f78a05">$</text>
<polyline fill="none" stroke="gray" points="260.5,-876.5 260.5,-899.5"/>
<text text-anchor="middle" x="280" y="-884.3" font-family="Times New Roman,serif" font-size="14.00" fill="#f78a05">[10]</text>
<polyline fill="none" stroke="gray" points="198.5,-876.5 299.5,-876.5"/>
<text text-anchor="middle" x="249" y="-861.3" font-family="Times New Roman,serif" font-size="14.00" fill="#f78a05">N.A</text>
</g>
<!-- struct1769556877&#45;&gt;struct1007811132 -->
<g id="edge20" class="edge">
<title>struct1769556877&#45;&gt;struct1007811132</title>
<path fill="none" stroke="#d19928" d="M200.69,-936.79C207.86,-927.99 216.28,-917.66 224.06,-908.11"/>
<polygon fill="#d19928" stroke="#d19928" points="226.7,-910.4 230.31,-900.44 221.28,-905.98 226.7,-910.4"/>
</g>
<!-- struct1487661606 -->
<g id="node3" class="node">
<title>struct1487661606</title>
<path fill="none" stroke="gray" d="M12,-770.5C12,-770.5 90,-770.5 90,-770.5 96,-770.5 102,-776.5 102,-782.5 102,-782.5 102,-804.5 102,-804.5 102,-810.5 96,-816.5 90,-816.5 90,-816.5 12,-816.5 12,-816.5 6,-816.5 0,-810.5 0,-804.5 0,-804.5 0,-782.5 0,-782.5 0,-776.5 6,-770.5 12,-770.5"/>
<text text-anchor="middle" x="16" y="-801.3" font-family="Times New Roman,serif" font-size="14.00" fill="#f78a05">[1]</text>
<polyline fill="none" stroke="gray" points="32,-793.5 32,-816.5"/>
<text text-anchor="middle" x="51" y="-801.3" font-family="Times New Roman,serif" font-size="14.00" fill="#f78a05">&quot;C&quot;</text>
<polyline fill="none" stroke="gray" points="70,-793.5 70,-816.5"/>
<text text-anchor="middle" x="86" y="-801.3" font-family="Times New Roman,serif" font-size="14.00" fill="#f78a05">[1]</text>
<polyline fill="none" stroke="gray" points="0,-793.5 102,-793.5"/>
<text text-anchor="middle" x="51" y="-778.3" font-family="Times New Roman,serif" font-size="14.00" fill="#f78a05">N.A</text>
</g>
<!-- struct1744286583&#45;&gt;struct1487661606 -->
<g id="edge2" class="edge">
<title>struct1744286583&#45;&gt;struct1487661606</title>
<path fill="none" stroke="#d19928" d="M99.31,-853.79C92.14,-844.99 83.72,-834.66 75.94,-825.11"/>
<polygon fill="#d19928" stroke="#d19928" points="78.72,-822.98 69.69,-817.44 73.3,-827.4 78.72,-822.98"/>
</g>
<!-- struct1851258236 -->
<g id="node4" class="node">
<title>struct1851258236</title>
<path fill="none" stroke="gray" d="M132.5,-770.5C132.5,-770.5 235.5,-770.5 235.5,-770.5 241.5,-770.5 247.5,-776.5 247.5,-782.5 247.5,-782.5 247.5,-804.5 247.5,-804.5 247.5,-810.5 241.5,-816.5 235.5,-816.5 235.5,-816.5 132.5,-816.5 132.5,-816.5 126.5,-816.5 120.5,-810.5 120.5,-804.5 120.5,-804.5 120.5,-782.5 120.5,-782.5 120.5,-776.5 126.5,-770.5 132.5,-770.5"/>
<text text-anchor="middle" x="136.5" y="-801.3" font-family="Times New Roman,serif" font-size="14.00" fill="#f78a05">[2]</text>
<polyline fill="none" stroke="gray" points="152.5,-793.5 152.5,-816.5"/>
<text text-anchor="middle" x="162.5" y="-801.3" font-family="Times New Roman,serif" font-size="14.00" fill="#f78a05">.</text>
<polyline fill="none" stroke="gray" points="172.5,-793.5 172.5,-816.5"/>
<text text-anchor="middle" x="210" y="-801.3" font-family="Times New Roman,serif" font-size="14.00" fill="#f78a05">[6, 7, 8, 9]</text>
<polyline fill="none" stroke="gray" points="120.5,-793.5 247.5,-793.5"/>
<text text-anchor="middle" x="184" y="-778.3" font-family="Times New Roman,serif" font-size="14.00" fill="#f78a05">N.A</text>
</g>
<!-- struct1744286583&#45;&gt;struct1851258236 -->
<g id="edge3" class="edge">
<title>struct1744286583&#45;&gt;struct1851258236</title>
<path fill="none" stroke="#d19928" d="M134.95,-853.79C142.24,-844.99 150.78,-834.66 158.68,-825.11"/>
<polygon fill="#d19928" stroke="#d19928" points="161.35,-827.37 165.03,-817.43 155.96,-822.91 161.35,-827.37"/>
</g>
<!-- struct1305607704 -->
<g id="node5" class="node">
<title>struct1305607704</title>
<path fill="none" stroke="gray" d="M78.5,-687.5C78.5,-687.5 157.5,-687.5 157.5,-687.5 163.5,-687.5 169.5,-693.5 169.5,-699.5 169.5,-699.5 169.5,-721.5 169.5,-721.5 169.5,-727.5 163.5,-733.5 157.5,-733.5 157.5,-733.5 78.5,-733.5 78.5,-733.5 72.5,-733.5 66.5,-727.5 66.5,-721.5 66.5,-721.5 66.5,-699.5 66.5,-699.5 66.5,-693.5 72.5,-687.5 78.5,-687.5"/>
<text text-anchor="middle" x="82.5" y="-718.3" font-family="Times New Roman,serif" font-size="14.00" fill="#f78a05">[2]</text>
<polyline fill="none" stroke="gray" points="98.5,-710.5 98.5,-733.5"/>
<text text-anchor="middle" x="118" y="-718.3" font-family="Times New Roman,serif" font-size="14.00" fill="#f78a05">&quot;O&quot;</text>
<polyline fill="none" stroke="gray" points="137.5,-710.5 137.5,-733.5"/>
<text text-anchor="middle" x="153.5" y="-718.3" font-family="Times New Roman,serif" font-size="14.00" fill="#f78a05">[2]</text>
<polyline fill="none" stroke="gray" points="66.5,-710.5 169.5,-710.5"/>
<text text-anchor="middle" x="118" y="-695.3" font-family="Times New Roman,serif" font-size="14.00" fill="#f78a05">N.A</text>
</g>
<!-- struct1851258236&#45;&gt;struct1305607704 -->
<g id="edge4" class="edge">
<title>struct1851258236&#45;&gt;struct1305607704</title>
<path fill="none" stroke="#d19928" d="M166.31,-770.79C159.14,-761.99 150.72,-751.66 142.94,-742.11"/>
<polygon fill="#d19928" stroke="#d19928" points="145.72,-739.98 136.69,-734.44 140.3,-744.4 145.72,-739.98"/>
</g>
<!-- struct401047774 -->
<g id="node6" class="node">
<title>struct401047774</title>
<path fill="none" stroke="gray" d="M199.5,-687.5C199.5,-687.5 302.5,-687.5 302.5,-687.5 308.5,-687.5 314.5,-693.5 314.5,-699.5 314.5,-699.5 314.5,-721.5 314.5,-721.5 314.5,-727.5 308.5,-733.5 302.5,-733.5 302.5,-733.5 199.5,-733.5 199.5,-733.5 193.5,-733.5 187.5,-727.5 187.5,-721.5 187.5,-721.5 187.5,-699.5 187.5,-699.5 187.5,-693.5 193.5,-687.5 199.5,-687.5"/>
<text text-anchor="middle" x="203.5" y="-718.3" font-family="Times New Roman,serif" font-size="14.00" fill="#f78a05">[3]</text>
<polyline fill="none" stroke="gray" points="219.5,-710.5 219.5,-733.5"/>
<text text-anchor="middle" x="229.5" y="-718.3" font-family="Times New Roman,serif" font-size="14.00" fill="#f78a05">.</text>
<polyline fill="none" stroke="gray" points="239.5,-710.5 239.5,-733.5"/>
<text text-anchor="middle" x="277" y="-718.3" font-family="Times New Roman,serif" font-size="14.00" fill="#f78a05">[6, 7, 8, 9]</text>
<polyline fill="none" stroke="gray" points="187.5,-710.5 314.5,-710.5"/>
<text text-anchor="middle" x="251" y="-695.3" font-family="Times New Roman,serif" font-size="14.00" fill="#f78a05">N.A</text>
</g>
<!-- struct1851258236&#45;&gt;struct401047774 -->
<g id="edge5" class="edge">
<title>struct1851258236&#45;&gt;struct401047774</title>
<path fill="none" stroke="#d19928" d="M201.95,-770.79C209.24,-761.99 217.78,-751.66 225.68,-742.11"/>
<polygon fill="#d19928" stroke="#d19928" points="228.35,-744.37 232.03,-734.43 222.96,-739.91 228.35,-744.37"/>
</g>
<!-- struct270185182 -->
<g id="node7" class="node">
<title>struct270185182</title>
<path fill="none" stroke="gray" d="M143.5,-604.5C143.5,-604.5 224.5,-604.5 224.5,-604.5 230.5,-604.5 236.5,-610.5 236.5,-616.5 236.5,-616.5 236.5,-638.5 236.5,-638.5 236.5,-644.5 230.5,-650.5 224.5,-650.5 224.5,-650.5 143.5,-650.5 143.5,-650.5 137.5,-650.5 131.5,-644.5 131.5,-638.5 131.5,-638.5 131.5,-616.5 131.5,-616.5 131.5,-610.5 137.5,-604.5 143.5,-604.5"/>
<text text-anchor="middle" x="147.5" y="-635.3" font-family="Times New Roman,serif" font-size="14.00" fill="#f78a05">[3]</text>
<polyline fill="none" stroke="gray" points="163.5,-627.5 163.5,-650.5"/>
<text text-anchor="middle" x="184" y="-635.3" font-family="Times New Roman,serif" font-size="14.00" fill="#f78a05">&quot;M&quot;</text>
<polyline fill="none" stroke="gray" points="204.5,-627.5 204.5,-650.5"/>
<text text-anchor="middle" x="220.5" y="-635.3" font-family="Times New Roman,serif" font-size="14.00" fill="#f78a05">[3]</text>
<polyline fill="none" stroke="gray" points="131.5,-627.5 236.5,-627.5"/>
<text text-anchor="middle" x="184" y="-612.3" font-family="Times New Roman,serif" font-size="14.00" fill="#f78a05">N.A</text>
</g>
<!-- struct401047774&#45;&gt;struct270185182 -->
<g id="edge6" class="edge">
<title>struct401047774&#45;&gt;struct270185182</title>
<path fill="none" stroke="#d19928" d="M233.05,-687.79C225.76,-678.99 217.22,-668.66 209.32,-659.11"/>
<polygon fill="#d19928" stroke="#d19928" points="212.04,-656.91 202.97,-651.43 206.65,-661.37 212.04,-656.91"/>
</g>
<!-- struct1094142388 -->
<g id="node8" class="node">
<title>struct1094142388</title>
<path fill="none" stroke="gray" d="M266.5,-604.5C266.5,-604.5 369.5,-604.5 369.5,-604.5 375.5,-604.5 381.5,-610.5 381.5,-616.5 381.5,-616.5 381.5,-638.5 381.5,-638.5 381.5,-644.5 375.5,-650.5 369.5,-650.5 369.5,-650.5 266.5,-650.5 266.5,-650.5 260.5,-650.5 254.5,-644.5 254.5,-638.5 254.5,-638.5 254.5,-616.5 254.5,-616.5 254.5,-610.5 260.5,-604.5 266.5,-604.5"/>
<text text-anchor="middle" x="270.5" y="-635.3" font-family="Times New Roman,serif" font-size="14.00" fill="#f78a05">[4]</text>
<polyline fill="none" stroke="gray" points="286.5,-627.5 286.5,-650.5"/>
<text text-anchor="middle" x="296.5" y="-635.3" font-family="Times New Roman,serif" font-size="14.00" fill="#f78a05">.</text>
<polyline fill="none" stroke="gray" points="306.5,-627.5 306.5,-650.5"/>
<text text-anchor="middle" x="344" y="-635.3" font-family="Times New Roman,serif" font-size="14.00" fill="#f78a05">[6, 7, 8, 9]</text>
<polyline fill="none" stroke="gray" points="254.5,-627.5 381.5,-627.5"/>
<text text-anchor="middle" x="318" y="-612.3" font-family="Times New Roman,serif" font-size="14.00" fill="#f78a05">N.A</text>
</g>
<!-- struct401047774&#45;&gt;struct1094142388 -->
<g id="edge7" class="edge">
<title>struct401047774&#45;&gt;struct1094142388</title>
<path fill="none" stroke="#d19928" d="M268.95,-687.79C276.24,-678.99 284.78,-668.66 292.68,-659.11"/>
<polygon fill="#d19928" stroke="#d19928" points="295.35,-661.37 299.03,-651.43 289.96,-656.91 295.35,-661.37"/>
</g>
<!-- struct55860916 -->
<g id="node9" class="node">
<title>struct55860916</title>
<path fill="none" stroke="gray" d="M213.5,-521.5C213.5,-521.5 290.5,-521.5 290.5,-521.5 296.5,-521.5 302.5,-527.5 302.5,-533.5 302.5,-533.5 302.5,-555.5 302.5,-555.5 302.5,-561.5 296.5,-567.5 290.5,-567.5 290.5,-567.5 213.5,-567.5 213.5,-567.5 207.5,-567.5 201.5,-561.5 201.5,-555.5 201.5,-555.5 201.5,-533.5 201.5,-533.5 201.5,-527.5 207.5,-521.5 213.5,-521.5"/>
<text text-anchor="middle" x="217.5" y="-552.3" font-family="Times New Roman,serif" font-size="14.00" fill="#f78a05">[4]</text>
<polyline fill="none" stroke="gray" points="233.5,-544.5 233.5,-567.5"/>
<text text-anchor="middle" x="252" y="-552.3" font-family="Times New Roman,serif" font-size="14.00" fill="#f78a05">&quot;P&quot;</text>
<polyline fill="none" stroke="gray" points="270.5,-544.5 270.5,-567.5"/>
<text text-anchor="middle" x="286.5" y="-552.3" font-family="Times New Roman,serif" font-size="14.00" fill="#f78a05">[4]</text>
<polyline fill="none" stroke="gray" points="201.5,-544.5 302.5,-544.5"/>
<text text-anchor="middle" x="252" y="-529.3" font-family="Times New Roman,serif" font-size="14.00" fill="#f78a05">N.A</text>
</g>
<!-- struct1094142388&#45;&gt;struct55860916 -->
<g id="edge8" class="edge">
<title>struct1094142388&#45;&gt;struct55860916</title>
<path fill="none" stroke="#d19928" d="M300.31,-604.79C293.14,-595.99 284.72,-585.66 276.94,-576.11"/>
<polygon fill="#d19928" stroke="#d19928" points="279.72,-573.98 270.69,-568.44 274.3,-578.4 279.72,-573.98"/>
</g>
<!-- struct673107824 -->
<g id="node10" class="node">
<title>struct673107824</title>
<path fill="none" stroke="gray" d="M332.5,-521.5C332.5,-521.5 435.5,-521.5 435.5,-521.5 441.5,-521.5 447.5,-527.5 447.5,-533.5 447.5,-533.5 447.5,-555.5 447.5,-555.5 447.5,-561.5 441.5,-567.5 435.5,-567.5 435.5,-567.5 332.5,-567.5 332.5,-567.5 326.5,-567.5 320.5,-561.5 320.5,-555.5 320.5,-555.5 320.5,-533.5 320.5,-533.5 320.5,-527.5 326.5,-521.5 332.5,-521.5"/>
<text text-anchor="middle" x="336.5" y="-552.3" font-family="Times New Roman,serif" font-size="14.00" fill="#f78a05">[5]</text>
<polyline fill="none" stroke="gray" points="352.5,-544.5 352.5,-567.5"/>
<text text-anchor="middle" x="362.5" y="-552.3" font-family="Times New Roman,serif" font-size="14.00" fill="#f78a05">.</text>
<polyline fill="none" stroke="gray" points="372.5,-544.5 372.5,-567.5"/>
<text text-anchor="middle" x="410" y="-552.3" font-family="Times New Roman,serif" font-size="14.00" fill="#f78a05">[6, 7, 8, 9]</text>
<polyline fill="none" stroke="gray" points="320.5,-544.5 447.5,-544.5"/>
<text text-anchor="middle" x="384" y="-529.3" font-family="Times New Roman,serif" font-size="14.00" fill="#f78a05">N.A</text>
</g>
<!-- struct1094142388&#45;&gt;struct673107824 -->
<g id="edge9" class="edge">
<title>struct1094142388&#45;&gt;struct673107824</title>
<path fill="none" stroke="#d19928" d="M335.69,-604.79C342.86,-595.99 351.28,-585.66 359.06,-576.11"/>
<polygon fill="#d19928" stroke="#d19928" points="361.7,-578.4 365.31,-568.44 356.28,-573.98 361.7,-578.4"/>
</g>
<!-- struct1842812143 -->
<g id="node11" class="node">
<title>struct1842812143</title>
<path fill="none" stroke="gray" d="M282.5,-438.5C282.5,-438.5 355.5,-438.5 355.5,-438.5 361.5,-438.5 367.5,-444.5 367.5,-450.5 367.5,-450.5 367.5,-472.5 367.5,-472.5 367.5,-478.5 361.5,-484.5 355.5,-484.5 355.5,-484.5 282.5,-484.5 282.5,-484.5 276.5,-484.5 270.5,-478.5 270.5,-472.5 270.5,-472.5 270.5,-450.5 270.5,-450.5 270.5,-444.5 276.5,-438.5 282.5,-438.5"/>
<text text-anchor="middle" x="286.5" y="-469.3" font-family="Times New Roman,serif" font-size="14.00" fill="#f78a05">[5]</text>
<polyline fill="none" stroke="gray" points="302.5,-461.5 302.5,-484.5"/>
<text text-anchor="middle" x="319" y="-469.3" font-family="Times New Roman,serif" font-size="14.00" fill="#f78a05">&quot;I&quot;</text>
<polyline fill="none" stroke="gray" points="335.5,-461.5 335.5,-484.5"/>
<text text-anchor="middle" x="351.5" y="-469.3" font-family="Times New Roman,serif" font-size="14.00" fill="#f78a05">[5]</text>
<polyline fill="none" stroke="gray" points="270.5,-461.5 367.5,-461.5"/>
<text text-anchor="middle" x="319" y="-446.3" font-family="Times New Roman,serif" font-size="14.00" fill="#f78a05">N.A</text>
</g>
<!-- struct673107824&#45;&gt;struct1842812143 -->
<g id="edge10" class="edge">
<title>struct673107824&#45;&gt;struct1842812143</title>
<path fill="none" stroke="#d19928" d="M366.58,-521.79C359.51,-512.99 351.22,-502.66 343.56,-493.11"/>
<polygon fill="#d19928" stroke="#d19928" points="346.4,-491.06 337.41,-485.45 340.94,-495.44 346.4,-491.06"/>
</g>
<!-- struct374774280 -->
<g id="node12" class="node">
<title>struct374774280</title>
<path fill="none" stroke="gray" d="M397.5,-438.5C397.5,-438.5 500.5,-438.5 500.5,-438.5 506.5,-438.5 512.5,-444.5 512.5,-450.5 512.5,-450.5 512.5,-472.5 512.5,-472.5 512.5,-478.5 506.5,-484.5 500.5,-484.5 500.5,-484.5 397.5,-484.5 397.5,-484.5 391.5,-484.5 385.5,-478.5 385.5,-472.5 385.5,-472.5 385.5,-450.5 385.5,-450.5 385.5,-444.5 391.5,-438.5 397.5,-438.5"/>
<text text-anchor="middle" x="401.5" y="-469.3" font-family="Times New Roman,serif" font-size="14.00" fill="#f78a05">[6]</text>
<polyline fill="none" stroke="gray" points="417.5,-461.5 417.5,-484.5"/>
<text text-anchor="middle" x="427.5" y="-469.3" font-family="Times New Roman,serif" font-size="14.00" fill="#f78a05">.</text>
<polyline fill="none" stroke="gray" points="437.5,-461.5 437.5,-484.5"/>
<text text-anchor="middle" x="475" y="-469.3" font-family="Times New Roman,serif" font-size="14.00" fill="#f78a05">[6, 7, 8, 9]</text>
<polyline fill="none" stroke="gray" points="385.5,-461.5 512.5,-461.5"/>
<text text-anchor="middle" x="449" y="-446.3" font-family="Times New Roman,serif" font-size="14.00" fill="#f78a05">N.A</text>
</g>
<!-- struct673107824&#45;&gt;struct374774280 -->
<g id="edge11" class="edge">
<title>struct673107824&#45;&gt;struct374774280</title>
<path fill="none" stroke="#d19928" d="M401.42,-521.79C408.49,-512.99 416.78,-502.66 424.44,-493.11"/>
<polygon fill="#d19928" stroke="#d19928" points="427.06,-495.44 430.59,-485.45 421.6,-491.06 427.06,-495.44"/>
</g>
<!-- struct928434056 -->
<g id="node13" class="node">
<title>struct928434056</title>
<path fill="none" stroke="gray" d="M341.5,-355.5C341.5,-355.5 416.5,-355.5 416.5,-355.5 422.5,-355.5 428.5,-361.5 428.5,-367.5 428.5,-367.5 428.5,-389.5 428.5,-389.5 428.5,-395.5 422.5,-401.5 416.5,-401.5 416.5,-401.5 341.5,-401.5 341.5,-401.5 335.5,-401.5 329.5,-395.5 329.5,-389.5 329.5,-389.5 329.5,-367.5 329.5,-367.5 329.5,-361.5 335.5,-355.5 341.5,-355.5"/>
<text text-anchor="middle" x="345.5" y="-386.3" font-family="Times New Roman,serif" font-size="14.00" fill="#f78a05">[6]</text>
<polyline fill="none" stroke="gray" points="361.5,-378.5 361.5,-401.5"/>
<text text-anchor="middle" x="379" y="-386.3" font-family="Times New Roman,serif" font-size="14.00" fill="#f78a05">&quot;1&quot;</text>
<polyline fill="none" stroke="gray" points="396.5,-378.5 396.5,-401.5"/>
<text text-anchor="middle" x="412.5" y="-386.3" font-family="Times New Roman,serif" font-size="14.00" fill="#f78a05">[6]</text>
<polyline fill="none" stroke="gray" points="329.5,-378.5 428.5,-378.5"/>
<text text-anchor="middle" x="379" y="-363.3" font-family="Times New Roman,serif" font-size="14.00" fill="#f78a05">N.A</text>
</g>
<!-- struct374774280&#45;&gt;struct928434056 -->
<g id="edge12" class="edge">
<title>struct374774280&#45;&gt;struct928434056</title>
<path fill="none" stroke="#d19928" d="M430.24,-438.79C422.55,-429.9 413.52,-419.44 405.2,-409.81"/>
<polygon fill="#d19928" stroke="#d19928" points="407.99,-407.69 398.8,-402.41 402.69,-412.27 407.99,-407.69"/>
</g>
<!-- struct1768815453 -->
<g id="node14" class="node">
<title>struct1768815453</title>
<path fill="none" stroke="gray" d="M458.5,-355.5C458.5,-355.5 579.5,-355.5 579.5,-355.5 585.5,-355.5 591.5,-361.5 591.5,-367.5 591.5,-367.5 591.5,-389.5 591.5,-389.5 591.5,-395.5 585.5,-401.5 579.5,-401.5 579.5,-401.5 458.5,-401.5 458.5,-401.5 452.5,-401.5 446.5,-395.5 446.5,-389.5 446.5,-389.5 446.5,-367.5 446.5,-367.5 446.5,-361.5 452.5,-355.5 458.5,-355.5"/>
<text text-anchor="middle" x="477" y="-386.3" font-family="Times New Roman,serif" font-size="14.00" fill="#f78a05">[7, 8, 9]</text>
<polyline fill="none" stroke="gray" points="507.5,-378.5 507.5,-401.5"/>
<text text-anchor="middle" x="519" y="-386.3" font-family="Times New Roman,serif" font-size="14.00" fill="#f78a05">?</text>
<polyline fill="none" stroke="gray" points="530.5,-378.5 530.5,-401.5"/>
<text text-anchor="middle" x="561" y="-386.3" font-family="Times New Roman,serif" font-size="14.00" fill="#f78a05">[7, 8, 9]</text>
<polyline fill="none" stroke="gray" points="446.5,-378.5 591.5,-378.5"/>
<text text-anchor="middle" x="519" y="-363.3" font-family="Times New Roman,serif" font-size="14.00" fill="#f78a05">A</text>
</g>
<!-- struct374774280&#45;&gt;struct1768815453 -->
<g id="edge13" class="edge">
<title>struct374774280&#45;&gt;struct1768815453</title>
<path fill="none" stroke="#d19928" d="M467.76,-438.79C475.45,-429.9 484.48,-419.44 492.8,-409.81"/>
<polygon fill="#d19928" stroke="#d19928" points="495.31,-412.27 499.2,-402.41 490.01,-407.69 495.31,-412.27"/>
</g>
<!-- struct1011415795 -->
<g id="node15" class="node">
<title>struct1011415795</title>
<path fill="none" stroke="gray" d="M457.5,-272.5C457.5,-272.5 580.5,-272.5 580.5,-272.5 586.5,-272.5 592.5,-278.5 592.5,-284.5 592.5,-284.5 592.5,-306.5 592.5,-306.5 592.5,-312.5 586.5,-318.5 580.5,-318.5 580.5,-318.5 457.5,-318.5 457.5,-318.5 451.5,-318.5 445.5,-312.5 445.5,-306.5 445.5,-306.5 445.5,-284.5 445.5,-284.5 445.5,-278.5 451.5,-272.5 457.5,-272.5"/>
<text text-anchor="middle" x="476" y="-303.3" font-family="Times New Roman,serif" font-size="14.00" fill="#f78a05">[7, 8, 9]</text>
<polyline fill="none" stroke="gray" points="506.5,-295.5 506.5,-318.5"/>
<text text-anchor="middle" x="519" y="-303.3" font-family="Times New Roman,serif" font-size="14.00" fill="#f78a05">+</text>
<polyline fill="none" stroke="gray" points="531.5,-295.5 531.5,-318.5"/>
<text text-anchor="middle" x="562" y="-303.3" font-family="Times New Roman,serif" font-size="14.00" fill="#f78a05">[7, 8, 9]</text>
<polyline fill="none" stroke="gray" points="445.5,-295.5 592.5,-295.5"/>
<text text-anchor="middle" x="519" y="-280.3" font-family="Times New Roman,serif" font-size="14.00" fill="#f78a05">N.A</text>
</g>
<!-- struct1768815453&#45;&gt;struct1011415795 -->
<g id="edge14" class="edge">
<title>struct1768815453&#45;&gt;struct1011415795</title>
<path fill="none" stroke="#d19928" d="M519,-355.79C519,-347.71 519,-338.35 519,-329.48"/>
<polygon fill="#d19928" stroke="#d19928" points="522.5,-329.78 519,-319.78 515.5,-329.78 522.5,-329.78"/>
</g>
<!-- struct510439848 -->
<g id="node16" class="node">
<title>struct510439848</title>
<path fill="none" stroke="gray" d="M460.5,-189.5C460.5,-189.5 577.5,-189.5 577.5,-189.5 583.5,-189.5 589.5,-195.5 589.5,-201.5 589.5,-201.5 589.5,-223.5 589.5,-223.5 589.5,-229.5 583.5,-235.5 577.5,-235.5 577.5,-235.5 460.5,-235.5 460.5,-235.5 454.5,-235.5 448.5,-229.5 448.5,-223.5 448.5,-223.5 448.5,-201.5 448.5,-201.5 448.5,-195.5 454.5,-189.5 460.5,-189.5"/>
<text text-anchor="middle" x="479" y="-220.3" font-family="Times New Roman,serif" font-size="14.00" fill="#f78a05">[7, 8, 9]</text>
<polyline fill="none" stroke="gray" points="509.5,-212.5 509.5,-235.5"/>
<text text-anchor="middle" x="519" y="-220.3" font-family="Times New Roman,serif" font-size="14.00" fill="#f78a05">|</text>
<polyline fill="none" stroke="gray" points="528.5,-212.5 528.5,-235.5"/>
<text text-anchor="middle" x="559" y="-220.3" font-family="Times New Roman,serif" font-size="14.00" fill="#f78a05">[7, 8, 9]</text>
<polyline fill="none" stroke="gray" points="448.5,-212.5 589.5,-212.5"/>
<text text-anchor="middle" x="519" y="-197.3" font-family="Times New Roman,serif" font-size="14.00" fill="#f78a05">N.A</text>
</g>
<!-- struct1011415795&#45;&gt;struct510439848 -->
<g id="edge15" class="edge">
<title>struct1011415795&#45;&gt;struct510439848</title>
<path fill="none" stroke="#d19928" d="M519,-272.79C519,-264.71 519,-255.35 519,-246.48"/>
<polygon fill="#d19928" stroke="#d19928" points="522.5,-246.78 519,-236.78 515.5,-246.78 522.5,-246.78"/>
</g>
<!-- struct520576874 -->
<g id="node17" class="node">
<title>struct520576874</title>
<path fill="none" stroke="gray" d="M413.5,-106.5C413.5,-106.5 502.5,-106.5 502.5,-106.5 508.5,-106.5 514.5,-112.5 514.5,-118.5 514.5,-118.5 514.5,-140.5 514.5,-140.5 514.5,-146.5 508.5,-152.5 502.5,-152.5 502.5,-152.5 413.5,-152.5 413.5,-152.5 407.5,-152.5 401.5,-146.5 401.5,-140.5 401.5,-140.5 401.5,-118.5 401.5,-118.5 401.5,-112.5 407.5,-106.5 413.5,-106.5"/>
<text text-anchor="middle" x="425" y="-137.3" font-family="Times New Roman,serif" font-size="14.00" fill="#f78a05">[7, 8]</text>
<polyline fill="none" stroke="gray" points="448.5,-129.5 448.5,-152.5"/>
<text text-anchor="middle" x="458" y="-137.3" font-family="Times New Roman,serif" font-size="14.00" fill="#f78a05">|</text>
<polyline fill="none" stroke="gray" points="467.5,-129.5 467.5,-152.5"/>
<text text-anchor="middle" x="491" y="-137.3" font-family="Times New Roman,serif" font-size="14.00" fill="#f78a05">[7, 8]</text>
<polyline fill="none" stroke="gray" points="401.5,-129.5 514.5,-129.5"/>
<text text-anchor="middle" x="458" y="-114.3" font-family="Times New Roman,serif" font-size="14.00" fill="#f78a05">N.A</text>
</g>
<!-- struct510439848&#45;&gt;struct520576874 -->
<g id="edge16" class="edge">
<title>struct510439848&#45;&gt;struct520576874</title>
<path fill="none" stroke="#d19928" d="M502.65,-189.79C496.09,-181.08 488.4,-170.87 481.27,-161.4"/>
<polygon fill="#d19928" stroke="#d19928" points="484.11,-159.36 475.3,-153.48 478.52,-163.57 484.11,-159.36"/>
</g>
<!-- struct432540256 -->
<g id="node20" class="node">
<title>struct432540256</title>
<path fill="none" stroke="gray" d="M545,-106.5C545,-106.5 617,-106.5 617,-106.5 623,-106.5 629,-112.5 629,-118.5 629,-118.5 629,-140.5 629,-140.5 629,-146.5 623,-152.5 617,-152.5 617,-152.5 545,-152.5 545,-152.5 539,-152.5 533,-146.5 533,-140.5 533,-140.5 533,-118.5 533,-118.5 533,-112.5 539,-106.5 545,-106.5"/>
<text text-anchor="middle" x="549" y="-137.3" font-family="Times New Roman,serif" font-size="14.00" fill="#f78a05">[9]</text>
<polyline fill="none" stroke="gray" points="565,-129.5 565,-152.5"/>
<text text-anchor="middle" x="581" y="-137.3" font-family="Times New Roman,serif" font-size="14.00" fill="#f78a05">&quot; &quot;</text>
<polyline fill="none" stroke="gray" points="597,-129.5 597,-152.5"/>
<text text-anchor="middle" x="613" y="-137.3" font-family="Times New Roman,serif" font-size="14.00" fill="#f78a05">[9]</text>
<polyline fill="none" stroke="gray" points="533,-129.5 629,-129.5"/>
<text text-anchor="middle" x="581" y="-114.3" font-family="Times New Roman,serif" font-size="14.00" fill="#f78a05">N.A</text>
</g>
<!-- struct510439848&#45;&gt;struct432540256 -->
<g id="edge19" class="edge">
<title>struct510439848&#45;&gt;struct432540256</title>
<path fill="none" stroke="#d19928" d="M535.61,-189.79C542.29,-181.08 550.1,-170.87 557.35,-161.4"/>
<polygon fill="#d19928" stroke="#d19928" points="560.12,-163.54 563.42,-153.47 554.56,-159.28 560.12,-163.54"/>
</g>
<!-- struct423033028 -->
<g id="node18" class="node">
<title>struct423033028</title>
<path fill="none" stroke="gray" d="M355,-23.5C355,-23.5 435,-23.5 435,-23.5 441,-23.5 447,-29.5 447,-35.5 447,-35.5 447,-57.5 447,-57.5 447,-63.5 441,-69.5 435,-69.5 435,-69.5 355,-69.5 355,-69.5 349,-69.5 343,-63.5 343,-57.5 343,-57.5 343,-35.5 343,-35.5 343,-29.5 349,-23.5 355,-23.5"/>
<text text-anchor="middle" x="359" y="-54.3" font-family="Times New Roman,serif" font-size="14.00" fill="#f78a05">[7]</text>
<polyline fill="none" stroke="gray" points="375,-46.5 375,-69.5"/>
<text text-anchor="middle" x="395" y="-54.3" font-family="Times New Roman,serif" font-size="14.00" fill="#f78a05">letra</text>
<polyline fill="none" stroke="gray" points="415,-46.5 415,-69.5"/>
<text text-anchor="middle" x="431" y="-54.3" font-family="Times New Roman,serif" font-size="14.00" fill="#f78a05">[7]</text>
<polyline fill="none" stroke="gray" points="343,-46.5 447,-46.5"/>
<text text-anchor="middle" x="395" y="-31.3" font-family="Times New Roman,serif" font-size="14.00" fill="#f78a05">N.A</text>
</g>
<!-- struct520576874&#45;&gt;struct423033028 -->
<g id="edge17" class="edge">
<title>struct520576874&#45;&gt;struct423033028</title>
<path fill="none" stroke="#d19928" d="M441.12,-106.79C434.27,-97.99 426.23,-87.66 418.81,-78.11"/>
<polygon fill="#d19928" stroke="#d19928" points="421.76,-76.21 412.86,-70.46 416.24,-80.5 421.76,-76.21"/>
</g>
<!-- struct1649546867 -->
<g id="node19" class="node">
<title>struct1649546867</title>
<path fill="none" stroke="gray" d="M477,-23.5C477,-23.5 565,-23.5 565,-23.5 571,-23.5 577,-29.5 577,-35.5 577,-35.5 577,-57.5 577,-57.5 577,-63.5 571,-69.5 565,-69.5 565,-69.5 477,-69.5 477,-69.5 471,-69.5 465,-63.5 465,-57.5 465,-57.5 465,-35.5 465,-35.5 465,-29.5 471,-23.5 477,-23.5"/>
<text text-anchor="middle" x="481" y="-54.3" font-family="Times New Roman,serif" font-size="14.00" fill="#f78a05">[8]</text>
<polyline fill="none" stroke="gray" points="497,-46.5 497,-69.5"/>
<text text-anchor="middle" x="521" y="-54.3" font-family="Times New Roman,serif" font-size="14.00" fill="#f78a05">digito</text>
<polyline fill="none" stroke="gray" points="545,-46.5 545,-69.5"/>
<text text-anchor="middle" x="561" y="-54.3" font-family="Times New Roman,serif" font-size="14.00" fill="#f78a05">[8]</text>
<polyline fill="none" stroke="gray" points="465,-46.5 577,-46.5"/>
<text text-anchor="middle" x="521" y="-31.3" font-family="Times New Roman,serif" font-size="14.00" fill="#f78a05">N.A</text>
</g>
<!-- struct520576874&#45;&gt;struct1649546867 -->
<g id="edge18" class="edge">
<title>struct520576874&#45;&gt;struct1649546867</title>
<path fill="none" stroke="#d19928" d="M474.88,-106.79C481.73,-97.99 489.77,-87.66 497.19,-78.11"/>
<polygon fill="#d19928" stroke="#d19928" points="499.76,-80.5 503.14,-70.46 494.24,-76.21 499.76,-80.5"/>
</g>
</g>
</svg>
