<?xml version="1.0" encoding="UTF-8" standalone="no"?>
<!DOCTYPE svg PUBLIC "-//W3C//DTD SVG 1.1//EN"
 "http://www.w3.org/Graphics/SVG/1.1/DTD/svg11.dtd">
<!-- Generated by graphviz version 7.1.0 (20230121.1956)
 -->
<!-- Title: structs Pages: 1 -->
<svg width="475pt" height="493pt"
 viewBox="0.00 0.00 475.00 493.00" xmlns="http://www.w3.org/2000/svg" xmlns:xlink="http://www.w3.org/1999/xlink">
<g id="graph0" class="graph" transform="scale(1 1) rotate(0) translate(4 489)">
<title>structs</title>
<polygon fill="white" stroke="none" points="-4,4 -4,-489 471,-489 471,4 -4,4"/>
<text text-anchor="middle" x="233.5" y="-7.8" font-family="Times New Roman,serif" font-size="14.00">identificador</text>
<!-- struct391726130 -->
<g id="node1" class="node">
<title>struct391726130</title>
<path fill="none" stroke="gray" d="M209,-438.5C209,-438.5 269,-438.5 269,-438.5 275,-438.5 281,-444.5 281,-450.5 281,-450.5 281,-472.5 281,-472.5 281,-478.5 275,-484.5 269,-484.5 269,-484.5 209,-484.5 209,-484.5 203,-484.5 197,-478.5 197,-472.5 197,-472.5 197,-450.5 197,-450.5 197,-444.5 203,-438.5 209,-438.5"/>
<text text-anchor="middle" x="213" y="-469.3" font-family="Times New Roman,serif" font-size="14.00" fill="#f78a05">[1]</text>
<polyline fill="none" stroke="gray" points="229,-461.5 229,-484.5"/>
<text text-anchor="middle" x="239" y="-469.3" font-family="Times New Roman,serif" font-size="14.00" fill="#f78a05">.</text>
<polyline fill="none" stroke="gray" points="249,-461.5 249,-484.5"/>
<text text-anchor="middle" x="265" y="-469.3" font-family="Times New Roman,serif" font-size="14.00" fill="#f78a05">[5]</text>
<polyline fill="none" stroke="gray" points="197,-461.5 281,-461.5"/>
<text text-anchor="middle" x="239" y="-446.3" font-family="Times New Roman,serif" font-size="14.00" fill="#f78a05">N.A</text>
</g>
<!-- struct715698682 -->
<g id="node2" class="node">
<title>struct715698682</title>
<path fill="none" stroke="gray" d="M125.5,-355.5C125.5,-355.5 228.5,-355.5 228.5,-355.5 234.5,-355.5 240.5,-361.5 240.5,-367.5 240.5,-367.5 240.5,-389.5 240.5,-389.5 240.5,-395.5 234.5,-401.5 228.5,-401.5 228.5,-401.5 125.5,-401.5 125.5,-401.5 119.5,-401.5 113.5,-395.5 113.5,-389.5 113.5,-389.5 113.5,-367.5 113.5,-367.5 113.5,-361.5 119.5,-355.5 125.5,-355.5"/>
<text text-anchor="middle" x="129.5" y="-386.3" font-family="Times New Roman,serif" font-size="14.00" fill="#f78a05">[1]</text>
<polyline fill="none" stroke="gray" points="145.5,-378.5 145.5,-401.5"/>
<text text-anchor="middle" x="155.5" y="-386.3" font-family="Times New Roman,serif" font-size="14.00" fill="#f78a05">.</text>
<polyline fill="none" stroke="gray" points="165.5,-378.5 165.5,-401.5"/>
<text text-anchor="middle" x="203" y="-386.3" font-family="Times New Roman,serif" font-size="14.00" fill="#f78a05">[1, 2, 3, 4]</text>
<polyline fill="none" stroke="gray" points="113.5,-378.5 240.5,-378.5"/>
<text text-anchor="middle" x="177" y="-363.3" font-family="Times New Roman,serif" font-size="14.00" fill="#f78a05">N.A</text>
</g>
<!-- struct391726130&#45;&gt;struct715698682 -->
<g id="edge1" class="edge">
<title>struct391726130&#45;&gt;struct715698682</title>
<path fill="none" stroke="#d19928" d="M222.39,-438.79C215.71,-430.08 207.9,-419.87 200.65,-410.4"/>
<polygon fill="#d19928" stroke="#d19928" points="203.44,-408.28 194.58,-402.47 197.88,-412.54 203.44,-408.28"/>
</g>
<!-- struct1520366251 -->
<g id="node10" class="node">
<title>struct1520366251</title>
<path fill="none" stroke="gray" d="M270.5,-355.5C270.5,-355.5 333.5,-355.5 333.5,-355.5 339.5,-355.5 345.5,-361.5 345.5,-367.5 345.5,-367.5 345.5,-389.5 345.5,-389.5 345.5,-395.5 339.5,-401.5 333.5,-401.5 333.5,-401.5 270.5,-401.5 270.5,-401.5 264.5,-401.5 258.5,-395.5 258.5,-389.5 258.5,-389.5 258.5,-367.5 258.5,-367.5 258.5,-361.5 264.5,-355.5 270.5,-355.5"/>
<text text-anchor="middle" x="274.5" y="-386.3" font-family="Times New Roman,serif" font-size="14.00" fill="#f78a05">[5]</text>
<polyline fill="none" stroke="gray" points="290.5,-378.5 290.5,-401.5"/>
<text text-anchor="middle" x="302" y="-386.3" font-family="Times New Roman,serif" font-size="14.00" fill="#f78a05">$</text>
<polyline fill="none" stroke="gray" points="313.5,-378.5 313.5,-401.5"/>
<text text-anchor="middle" x="329.5" y="-386.3" font-family="Times New Roman,serif" font-size="14.00" fill="#f78a05">[5]</text>
<polyline fill="none" stroke="gray" points="258.5,-378.5 345.5,-378.5"/>
<text text-anchor="middle" x="302" y="-363.3" font-family="Times New Roman,serif" font-size="14.00" fill="#f78a05">N.A</text>
</g>
<!-- struct391726130&#45;&gt;struct1520366251 -->
<g id="edge9" class="edge">
<title>struct391726130&#45;&gt;struct1520366251</title>
<path fill="none" stroke="#d19928" d="M255.88,-438.79C262.73,-429.99 270.77,-419.66 278.19,-410.11"/>
<polygon fill="#d19928" stroke="#d19928" points="280.76,-412.5 284.14,-402.46 275.24,-408.21 280.76,-412.5"/>
</g>
<!-- struct2066610398 -->
<g id="node3" class="node">
<title>struct2066610398</title>
<path fill="none" stroke="gray" d="M12,-272.5C12,-272.5 164,-272.5 164,-272.5 170,-272.5 176,-278.5 176,-284.5 176,-284.5 176,-306.5 176,-306.5 176,-312.5 170,-318.5 164,-318.5 164,-318.5 12,-318.5 12,-318.5 6,-318.5 0,-312.5 0,-306.5 0,-306.5 0,-284.5 0,-284.5 0,-278.5 6,-272.5 12,-272.5"/>
<text text-anchor="middle" x="16" y="-303.3" font-family="Times New Roman,serif" font-size="14.00" fill="#f78a05">[1]</text>
<polyline fill="none" stroke="gray" points="32,-295.5 32,-318.5"/>
<text text-anchor="middle" x="88" y="-303.3" font-family="Times New Roman,serif" font-size="14.00" fill="#f78a05">abecedarioMinus</text>
<polyline fill="none" stroke="gray" points="144,-295.5 144,-318.5"/>
<text text-anchor="middle" x="160" y="-303.3" font-family="Times New Roman,serif" font-size="14.00" fill="#f78a05">[1]</text>
<polyline fill="none" stroke="gray" points="0,-295.5 176,-295.5"/>
<text text-anchor="middle" x="88" y="-280.3" font-family="Times New Roman,serif" font-size="14.00" fill="#f78a05">N.A</text>
</g>
<!-- struct715698682&#45;&gt;struct2066610398 -->
<g id="edge2" class="edge">
<title>struct715698682&#45;&gt;struct2066610398</title>
<path fill="none" stroke="#d19928" d="M153.15,-355.79C143.07,-346.62 131.18,-335.8 120.34,-325.93"/>
<polygon fill="#d19928" stroke="#d19928" points="122.79,-323.43 113.04,-319.29 118.08,-328.6 122.79,-323.43"/>
</g>
<!-- struct1438913611 -->
<g id="node4" class="node">
<title>struct1438913611</title>
<path fill="none" stroke="gray" d="M206.5,-272.5C206.5,-272.5 327.5,-272.5 327.5,-272.5 333.5,-272.5 339.5,-278.5 339.5,-284.5 339.5,-284.5 339.5,-306.5 339.5,-306.5 339.5,-312.5 333.5,-318.5 327.5,-318.5 327.5,-318.5 206.5,-318.5 206.5,-318.5 200.5,-318.5 194.5,-312.5 194.5,-306.5 194.5,-306.5 194.5,-284.5 194.5,-284.5 194.5,-278.5 200.5,-272.5 206.5,-272.5"/>
<text text-anchor="middle" x="225" y="-303.3" font-family="Times New Roman,serif" font-size="14.00" fill="#f78a05">[2, 3, 4]</text>
<polyline fill="none" stroke="gray" points="255.5,-295.5 255.5,-318.5"/>
<text text-anchor="middle" x="267" y="-303.3" font-family="Times New Roman,serif" font-size="14.00" fill="#f78a05">*</text>
<polyline fill="none" stroke="gray" points="278.5,-295.5 278.5,-318.5"/>
<text text-anchor="middle" x="309" y="-303.3" font-family="Times New Roman,serif" font-size="14.00" fill="#f78a05">[2, 3, 4]</text>
<polyline fill="none" stroke="gray" points="194.5,-295.5 339.5,-295.5"/>
<text text-anchor="middle" x="267" y="-280.3" font-family="Times New Roman,serif" font-size="14.00" fill="#f78a05">A</text>
</g>
<!-- struct715698682&#45;&gt;struct1438913611 -->
<g id="edge3" class="edge">
<title>struct715698682&#45;&gt;struct1438913611</title>
<path fill="none" stroke="#d19928" d="M201.12,-355.79C211.31,-346.62 223.33,-335.8 234.3,-325.93"/>
<polygon fill="#d19928" stroke="#d19928" points="236.6,-328.57 241.69,-319.28 231.92,-323.37 236.6,-328.57"/>
</g>
<!-- struct2067485444 -->
<g id="node5" class="node">
<title>struct2067485444</title>
<path fill="none" stroke="gray" d="M208.5,-189.5C208.5,-189.5 325.5,-189.5 325.5,-189.5 331.5,-189.5 337.5,-195.5 337.5,-201.5 337.5,-201.5 337.5,-223.5 337.5,-223.5 337.5,-229.5 331.5,-235.5 325.5,-235.5 325.5,-235.5 208.5,-235.5 208.5,-235.5 202.5,-235.5 196.5,-229.5 196.5,-223.5 196.5,-223.5 196.5,-201.5 196.5,-201.5 196.5,-195.5 202.5,-189.5 208.5,-189.5"/>
<text text-anchor="middle" x="227" y="-220.3" font-family="Times New Roman,serif" font-size="14.00" fill="#f78a05">[2, 3, 4]</text>
<polyline fill="none" stroke="gray" points="257.5,-212.5 257.5,-235.5"/>
<text text-anchor="middle" x="267" y="-220.3" font-family="Times New Roman,serif" font-size="14.00" fill="#f78a05">|</text>
<polyline fill="none" stroke="gray" points="276.5,-212.5 276.5,-235.5"/>
<text text-anchor="middle" x="307" y="-220.3" font-family="Times New Roman,serif" font-size="14.00" fill="#f78a05">[2, 3, 4]</text>
<polyline fill="none" stroke="gray" points="196.5,-212.5 337.5,-212.5"/>
<text text-anchor="middle" x="267" y="-197.3" font-family="Times New Roman,serif" font-size="14.00" fill="#f78a05">N.A</text>
</g>
<!-- struct1438913611&#45;&gt;struct2067485444 -->
<g id="edge4" class="edge">
<title>struct1438913611&#45;&gt;struct2067485444</title>
<path fill="none" stroke="#d19928" d="M267,-272.79C267,-264.71 267,-255.35 267,-246.48"/>
<polygon fill="#d19928" stroke="#d19928" points="270.5,-246.78 267,-236.78 263.5,-246.78 270.5,-246.78"/>
</g>
<!-- struct1019435743 -->
<g id="node6" class="node">
<title>struct1019435743</title>
<path fill="none" stroke="gray" d="M167,-106.5C167,-106.5 243,-106.5 243,-106.5 249,-106.5 255,-112.5 255,-118.5 255,-118.5 255,-140.5 255,-140.5 255,-146.5 249,-152.5 243,-152.5 243,-152.5 167,-152.5 167,-152.5 161,-152.5 155,-146.5 155,-140.5 155,-140.5 155,-118.5 155,-118.5 155,-112.5 161,-106.5 167,-106.5"/>
<text text-anchor="middle" x="171" y="-137.3" font-family="Times New Roman,serif" font-size="14.00" fill="#f78a05">[2]</text>
<polyline fill="none" stroke="gray" points="187,-129.5 187,-152.5"/>
<text text-anchor="middle" x="205" y="-137.3" font-family="Times New Roman,serif" font-size="14.00" fill="#f78a05">&quot;_&quot;</text>
<polyline fill="none" stroke="gray" points="223,-129.5 223,-152.5"/>
<text text-anchor="middle" x="239" y="-137.3" font-family="Times New Roman,serif" font-size="14.00" fill="#f78a05">[2]</text>
<polyline fill="none" stroke="gray" points="155,-129.5 255,-129.5"/>
<text text-anchor="middle" x="205" y="-114.3" font-family="Times New Roman,serif" font-size="14.00" fill="#f78a05">N.A</text>
</g>
<!-- struct2067485444&#45;&gt;struct1019435743 -->
<g id="edge5" class="edge">
<title>struct2067485444&#45;&gt;struct1019435743</title>
<path fill="none" stroke="#d19928" d="M250.39,-189.79C243.71,-181.08 235.9,-170.87 228.65,-161.4"/>
<polygon fill="#d19928" stroke="#d19928" points="231.44,-159.28 222.58,-153.47 225.88,-163.54 231.44,-159.28"/>
</g>
<!-- struct683458193 -->
<g id="node7" class="node">
<title>struct683458193</title>
<path fill="none" stroke="gray" d="M285.5,-106.5C285.5,-106.5 374.5,-106.5 374.5,-106.5 380.5,-106.5 386.5,-112.5 386.5,-118.5 386.5,-118.5 386.5,-140.5 386.5,-140.5 386.5,-146.5 380.5,-152.5 374.5,-152.5 374.5,-152.5 285.5,-152.5 285.5,-152.5 279.5,-152.5 273.5,-146.5 273.5,-140.5 273.5,-140.5 273.5,-118.5 273.5,-118.5 273.5,-112.5 279.5,-106.5 285.5,-106.5"/>
<text text-anchor="middle" x="297" y="-137.3" font-family="Times New Roman,serif" font-size="14.00" fill="#f78a05">[3, 4]</text>
<polyline fill="none" stroke="gray" points="320.5,-129.5 320.5,-152.5"/>
<text text-anchor="middle" x="330" y="-137.3" font-family="Times New Roman,serif" font-size="14.00" fill="#f78a05">|</text>
<polyline fill="none" stroke="gray" points="339.5,-129.5 339.5,-152.5"/>
<text text-anchor="middle" x="363" y="-137.3" font-family="Times New Roman,serif" font-size="14.00" fill="#f78a05">[3, 4]</text>
<polyline fill="none" stroke="gray" points="273.5,-129.5 386.5,-129.5"/>
<text text-anchor="middle" x="330" y="-114.3" font-family="Times New Roman,serif" font-size="14.00" fill="#f78a05">N.A</text>
</g>
<!-- struct2067485444&#45;&gt;struct683458193 -->
<g id="edge6" class="edge">
<title>struct2067485444&#45;&gt;struct683458193</title>
<path fill="none" stroke="#d19928" d="M283.88,-189.79C290.73,-180.99 298.77,-170.66 306.19,-161.11"/>
<polygon fill="#d19928" stroke="#d19928" points="308.76,-163.5 312.14,-153.46 303.24,-159.21 308.76,-163.5"/>
</g>
<!-- struct1571783041 -->
<g id="node8" class="node">
<title>struct1571783041</title>
<path fill="none" stroke="gray" d="M173,-23.5C173,-23.5 325,-23.5 325,-23.5 331,-23.5 337,-29.5 337,-35.5 337,-35.5 337,-57.5 337,-57.5 337,-63.5 331,-69.5 325,-69.5 325,-69.5 173,-69.5 173,-69.5 167,-69.5 161,-63.5 161,-57.5 161,-57.5 161,-35.5 161,-35.5 161,-29.5 167,-23.5 173,-23.5"/>
<text text-anchor="middle" x="177" y="-54.3" font-family="Times New Roman,serif" font-size="14.00" fill="#f78a05">[3]</text>
<polyline fill="none" stroke="gray" points="193,-46.5 193,-69.5"/>
<text text-anchor="middle" x="249" y="-54.3" font-family="Times New Roman,serif" font-size="14.00" fill="#f78a05">abecedarioMinus</text>
<polyline fill="none" stroke="gray" points="305,-46.5 305,-69.5"/>
<text text-anchor="middle" x="321" y="-54.3" font-family="Times New Roman,serif" font-size="14.00" fill="#f78a05">[3]</text>
<polyline fill="none" stroke="gray" points="161,-46.5 337,-46.5"/>
<text text-anchor="middle" x="249" y="-31.3" font-family="Times New Roman,serif" font-size="14.00" fill="#f78a05">N.A</text>
</g>
<!-- struct683458193&#45;&gt;struct1571783041 -->
<g id="edge7" class="edge">
<title>struct683458193&#45;&gt;struct1571783041</title>
<path fill="none" stroke="#d19928" d="M308.29,-106.79C299.21,-97.71 288.52,-87.02 278.72,-77.22"/>
<polygon fill="#d19928" stroke="#d19928" points="281.38,-74.93 271.84,-70.34 276.43,-79.88 281.38,-74.93"/>
</g>
<!-- struct2091731523 -->
<g id="node9" class="node">
<title>struct2091731523</title>
<path fill="none" stroke="gray" d="M367,-23.5C367,-23.5 455,-23.5 455,-23.5 461,-23.5 467,-29.5 467,-35.5 467,-35.5 467,-57.5 467,-57.5 467,-63.5 461,-69.5 455,-69.5 455,-69.5 367,-69.5 367,-69.5 361,-69.5 355,-63.5 355,-57.5 355,-57.5 355,-35.5 355,-35.5 355,-29.5 361,-23.5 367,-23.5"/>
<text text-anchor="middle" x="371" y="-54.3" font-family="Times New Roman,serif" font-size="14.00" fill="#f78a05">[4]</text>
<polyline fill="none" stroke="gray" points="387,-46.5 387,-69.5"/>
<text text-anchor="middle" x="411" y="-54.3" font-family="Times New Roman,serif" font-size="14.00" fill="#f78a05">digito</text>
<polyline fill="none" stroke="gray" points="435,-46.5 435,-69.5"/>
<text text-anchor="middle" x="451" y="-54.3" font-family="Times New Roman,serif" font-size="14.00" fill="#f78a05">[4]</text>
<polyline fill="none" stroke="gray" points="355,-46.5 467,-46.5"/>
<text text-anchor="middle" x="411" y="-31.3" font-family="Times New Roman,serif" font-size="14.00" fill="#f78a05">N.A</text>
</g>
<!-- struct683458193&#45;&gt;struct2091731523 -->
<g id="edge8" class="edge">
<title>struct683458193&#45;&gt;struct2091731523</title>
<path fill="none" stroke="#d19928" d="M351.71,-106.79C360.79,-97.71 371.48,-87.02 381.28,-77.22"/>
<polygon fill="#d19928" stroke="#d19928" points="383.57,-79.88 388.16,-70.34 378.62,-74.93 383.57,-79.88"/>
</g>
</g>
</svg>
