<?xml version="1.0" encoding="UTF-8" standalone="no"?>
<!DOCTYPE svg PUBLIC "-//W3C//DTD SVG 1.1//EN"
 "http://www.w3.org/Graphics/SVG/1.1/DTD/svg11.dtd">
<!-- Generated by graphviz version 7.1.0 (20230121.1956)
 -->
<!-- Title: structs Pages: 1 -->
<svg width="887pt" height="1074pt"
 viewBox="0.00 0.00 886.50 1074.00" xmlns="http://www.w3.org/2000/svg" xmlns:xlink="http://www.w3.org/1999/xlink">
<g id="graph0" class="graph" transform="scale(1 1) rotate(0) translate(4 1070)">
<title>structs</title>
<polygon fill="white" stroke="none" points="-4,4 -4,-1070 882.5,-1070 882.5,4 -4,4"/>
<text text-anchor="middle" x="439.25" y="-7.8" font-family="Times New Roman,serif" font-size="14.00">url</text>
<!-- struct1956338157 -->
<g id="node1" class="node">
<title>struct1956338157</title>
<path fill="none" stroke="gray" d="M129,-1019.5C129,-1019.5 196,-1019.5 196,-1019.5 202,-1019.5 208,-1025.5 208,-1031.5 208,-1031.5 208,-1053.5 208,-1053.5 208,-1059.5 202,-1065.5 196,-1065.5 196,-1065.5 129,-1065.5 129,-1065.5 123,-1065.5 117,-1059.5 117,-1053.5 117,-1053.5 117,-1031.5 117,-1031.5 117,-1025.5 123,-1019.5 129,-1019.5"/>
<text text-anchor="middle" x="133" y="-1050.3" font-family="Times New Roman,serif" font-size="14.00" fill="#f78a05">[1]</text>
<polyline fill="none" stroke="gray" points="149,-1042.5 149,-1065.5"/>
<text text-anchor="middle" x="159" y="-1050.3" font-family="Times New Roman,serif" font-size="14.00" fill="#f78a05">.</text>
<polyline fill="none" stroke="gray" points="169,-1042.5 169,-1065.5"/>
<text text-anchor="middle" x="188.5" y="-1050.3" font-family="Times New Roman,serif" font-size="14.00" fill="#f78a05">[12]</text>
<polyline fill="none" stroke="gray" points="117,-1042.5 208,-1042.5"/>
<text text-anchor="middle" x="162.5" y="-1027.3" font-family="Times New Roman,serif" font-size="14.00" fill="#f78a05">N.A</text>
</g>
<!-- struct439419974 -->
<g id="node2" class="node">
<title>struct439419974</title>
<path fill="none" stroke="gray" d="M72,-936.5C72,-936.5 139,-936.5 139,-936.5 145,-936.5 151,-942.5 151,-948.5 151,-948.5 151,-970.5 151,-970.5 151,-976.5 145,-982.5 139,-982.5 139,-982.5 72,-982.5 72,-982.5 66,-982.5 60,-976.5 60,-970.5 60,-970.5 60,-948.5 60,-948.5 60,-942.5 66,-936.5 72,-936.5"/>
<text text-anchor="middle" x="76" y="-967.3" font-family="Times New Roman,serif" font-size="14.00" fill="#f78a05">[1]</text>
<polyline fill="none" stroke="gray" points="92,-959.5 92,-982.5"/>
<text text-anchor="middle" x="102" y="-967.3" font-family="Times New Roman,serif" font-size="14.00" fill="#f78a05">.</text>
<polyline fill="none" stroke="gray" points="112,-959.5 112,-982.5"/>
<text text-anchor="middle" x="131.5" y="-967.3" font-family="Times New Roman,serif" font-size="14.00" fill="#f78a05">[11]</text>
<polyline fill="none" stroke="gray" points="60,-959.5 151,-959.5"/>
<text text-anchor="middle" x="105.5" y="-944.3" font-family="Times New Roman,serif" font-size="14.00" fill="#f78a05">N.A</text>
</g>
<!-- struct1956338157&#45;&gt;struct439419974 -->
<g id="edge1" class="edge">
<title>struct1956338157&#45;&gt;struct439419974</title>
<path fill="none" stroke="#d19928" d="M147.23,-1019.79C141.09,-1011.08 133.91,-1000.87 127.25,-991.4"/>
<polygon fill="#d19928" stroke="#d19928" points="130.31,-989.67 121.69,-983.5 124.58,-993.7 130.31,-989.67"/>
</g>
<!-- struct77996313 -->
<g id="node26" class="node">
<title>struct77996313</title>
<path fill="none" stroke="gray" d="M181,-936.5C181,-936.5 258,-936.5 258,-936.5 264,-936.5 270,-942.5 270,-948.5 270,-948.5 270,-970.5 270,-970.5 270,-976.5 264,-982.5 258,-982.5 258,-982.5 181,-982.5 181,-982.5 175,-982.5 169,-976.5 169,-970.5 169,-970.5 169,-948.5 169,-948.5 169,-942.5 175,-936.5 181,-936.5"/>
<text text-anchor="middle" x="188.5" y="-967.3" font-family="Times New Roman,serif" font-size="14.00" fill="#f78a05">[12]</text>
<polyline fill="none" stroke="gray" points="208,-959.5 208,-982.5"/>
<text text-anchor="middle" x="219.5" y="-967.3" font-family="Times New Roman,serif" font-size="14.00" fill="#f78a05">$</text>
<polyline fill="none" stroke="gray" points="231,-959.5 231,-982.5"/>
<text text-anchor="middle" x="250.5" y="-967.3" font-family="Times New Roman,serif" font-size="14.00" fill="#f78a05">[12]</text>
<polyline fill="none" stroke="gray" points="169,-959.5 270,-959.5"/>
<text text-anchor="middle" x="219.5" y="-944.3" font-family="Times New Roman,serif" font-size="14.00" fill="#f78a05">N.A</text>
</g>
<!-- struct1956338157&#45;&gt;struct77996313 -->
<g id="edge25" class="edge">
<title>struct1956338157&#45;&gt;struct77996313</title>
<path fill="none" stroke="#d19928" d="M177.77,-1019.79C183.91,-1011.08 191.09,-1000.87 197.75,-991.4"/>
<polygon fill="#d19928" stroke="#d19928" points="200.42,-993.7 203.31,-983.5 194.69,-989.67 200.42,-993.7"/>
</g>
<!-- struct1720606101 -->
<g id="node3" class="node">
<title>struct1720606101</title>
<path fill="none" stroke="gray" d="M12,-853.5C12,-853.5 87,-853.5 87,-853.5 93,-853.5 99,-859.5 99,-865.5 99,-865.5 99,-887.5 99,-887.5 99,-893.5 93,-899.5 87,-899.5 87,-899.5 12,-899.5 12,-899.5 6,-899.5 0,-893.5 0,-887.5 0,-887.5 0,-865.5 0,-865.5 0,-859.5 6,-853.5 12,-853.5"/>
<text text-anchor="middle" x="16" y="-884.3" font-family="Times New Roman,serif" font-size="14.00" fill="#f78a05">[1]</text>
<polyline fill="none" stroke="gray" points="32,-876.5 32,-899.5"/>
<text text-anchor="middle" x="49.5" y="-884.3" font-family="Times New Roman,serif" font-size="14.00" fill="#f78a05">&quot;h&quot;</text>
<polyline fill="none" stroke="gray" points="67,-876.5 67,-899.5"/>
<text text-anchor="middle" x="83" y="-884.3" font-family="Times New Roman,serif" font-size="14.00" fill="#f78a05">[1]</text>
<polyline fill="none" stroke="gray" points="0,-876.5 99,-876.5"/>
<text text-anchor="middle" x="49.5" y="-861.3" font-family="Times New Roman,serif" font-size="14.00" fill="#f78a05">N.A</text>
</g>
<!-- struct439419974&#45;&gt;struct1720606101 -->
<g id="edge2" class="edge">
<title>struct439419974&#45;&gt;struct1720606101</title>
<path fill="none" stroke="#d19928" d="M90.49,-936.79C84.53,-928.17 77.56,-918.08 71.07,-908.7"/>
<polygon fill="#d19928" stroke="#d19928" points="73.97,-906.75 65.41,-900.51 68.22,-910.73 73.97,-906.75"/>
</g>
<!-- struct1134987810 -->
<g id="node4" class="node">
<title>struct1134987810</title>
<path fill="none" stroke="gray" d="M129,-853.5C129,-853.5 196,-853.5 196,-853.5 202,-853.5 208,-859.5 208,-865.5 208,-865.5 208,-887.5 208,-887.5 208,-893.5 202,-899.5 196,-899.5 196,-899.5 129,-899.5 129,-899.5 123,-899.5 117,-893.5 117,-887.5 117,-887.5 117,-865.5 117,-865.5 117,-859.5 123,-853.5 129,-853.5"/>
<text text-anchor="middle" x="133" y="-884.3" font-family="Times New Roman,serif" font-size="14.00" fill="#f78a05">[2]</text>
<polyline fill="none" stroke="gray" points="149,-876.5 149,-899.5"/>
<text text-anchor="middle" x="159" y="-884.3" font-family="Times New Roman,serif" font-size="14.00" fill="#f78a05">.</text>
<polyline fill="none" stroke="gray" points="169,-876.5 169,-899.5"/>
<text text-anchor="middle" x="188.5" y="-884.3" font-family="Times New Roman,serif" font-size="14.00" fill="#f78a05">[11]</text>
<polyline fill="none" stroke="gray" points="117,-876.5 208,-876.5"/>
<text text-anchor="middle" x="162.5" y="-861.3" font-family="Times New Roman,serif" font-size="14.00" fill="#f78a05">N.A</text>
</g>
<!-- struct439419974&#45;&gt;struct1134987810 -->
<g id="edge3" class="edge">
<title>struct439419974&#45;&gt;struct1134987810</title>
<path fill="none" stroke="#d19928" d="M120.77,-936.79C126.91,-928.08 134.09,-917.87 140.75,-908.4"/>
<polygon fill="#d19928" stroke="#d19928" points="143.42,-910.7 146.31,-900.5 137.69,-906.67 143.42,-910.7"/>
</g>
<!-- struct1843193738 -->
<g id="node5" class="node">
<title>struct1843193738</title>
<path fill="none" stroke="gray" d="M70.5,-770.5C70.5,-770.5 142.5,-770.5 142.5,-770.5 148.5,-770.5 154.5,-776.5 154.5,-782.5 154.5,-782.5 154.5,-804.5 154.5,-804.5 154.5,-810.5 148.5,-816.5 142.5,-816.5 142.5,-816.5 70.5,-816.5 70.5,-816.5 64.5,-816.5 58.5,-810.5 58.5,-804.5 58.5,-804.5 58.5,-782.5 58.5,-782.5 58.5,-776.5 64.5,-770.5 70.5,-770.5"/>
<text text-anchor="middle" x="74.5" y="-801.3" font-family="Times New Roman,serif" font-size="14.00" fill="#f78a05">[2]</text>
<polyline fill="none" stroke="gray" points="90.5,-793.5 90.5,-816.5"/>
<text text-anchor="middle" x="106.5" y="-801.3" font-family="Times New Roman,serif" font-size="14.00" fill="#f78a05">&quot;t&quot;</text>
<polyline fill="none" stroke="gray" points="122.5,-793.5 122.5,-816.5"/>
<text text-anchor="middle" x="138.5" y="-801.3" font-family="Times New Roman,serif" font-size="14.00" fill="#f78a05">[2]</text>
<polyline fill="none" stroke="gray" points="58.5,-793.5 154.5,-793.5"/>
<text text-anchor="middle" x="106.5" y="-778.3" font-family="Times New Roman,serif" font-size="14.00" fill="#f78a05">N.A</text>
</g>
<!-- struct1134987810&#45;&gt;struct1843193738 -->
<g id="edge4" class="edge">
<title>struct1134987810&#45;&gt;struct1843193738</title>
<path fill="none" stroke="#d19928" d="M147.49,-853.79C141.53,-845.17 134.56,-835.08 128.07,-825.7"/>
<polygon fill="#d19928" stroke="#d19928" points="130.97,-823.75 122.41,-817.51 125.22,-827.73 130.97,-823.75"/>
</g>
<!-- struct2136853827 -->
<g id="node6" class="node">
<title>struct2136853827</title>
<path fill="none" stroke="gray" d="M185,-770.5C185,-770.5 252,-770.5 252,-770.5 258,-770.5 264,-776.5 264,-782.5 264,-782.5 264,-804.5 264,-804.5 264,-810.5 258,-816.5 252,-816.5 252,-816.5 185,-816.5 185,-816.5 179,-816.5 173,-810.5 173,-804.5 173,-804.5 173,-782.5 173,-782.5 173,-776.5 179,-770.5 185,-770.5"/>
<text text-anchor="middle" x="189" y="-801.3" font-family="Times New Roman,serif" font-size="14.00" fill="#f78a05">[3]</text>
<polyline fill="none" stroke="gray" points="205,-793.5 205,-816.5"/>
<text text-anchor="middle" x="215" y="-801.3" font-family="Times New Roman,serif" font-size="14.00" fill="#f78a05">.</text>
<polyline fill="none" stroke="gray" points="225,-793.5 225,-816.5"/>
<text text-anchor="middle" x="244.5" y="-801.3" font-family="Times New Roman,serif" font-size="14.00" fill="#f78a05">[11]</text>
<polyline fill="none" stroke="gray" points="173,-793.5 264,-793.5"/>
<text text-anchor="middle" x="218.5" y="-778.3" font-family="Times New Roman,serif" font-size="14.00" fill="#f78a05">N.A</text>
</g>
<!-- struct1134987810&#45;&gt;struct2136853827 -->
<g id="edge5" class="edge">
<title>struct1134987810&#45;&gt;struct2136853827</title>
<path fill="none" stroke="#d19928" d="M177.51,-853.79C183.47,-845.17 190.44,-835.08 196.93,-825.7"/>
<polygon fill="#d19928" stroke="#d19928" points="199.78,-827.73 202.59,-817.51 194.03,-823.75 199.78,-827.73"/>
</g>
<!-- struct1797998024 -->
<g id="node7" class="node">
<title>struct1797998024</title>
<path fill="none" stroke="gray" d="M126.5,-687.5C126.5,-687.5 198.5,-687.5 198.5,-687.5 204.5,-687.5 210.5,-693.5 210.5,-699.5 210.5,-699.5 210.5,-721.5 210.5,-721.5 210.5,-727.5 204.5,-733.5 198.5,-733.5 198.5,-733.5 126.5,-733.5 126.5,-733.5 120.5,-733.5 114.5,-727.5 114.5,-721.5 114.5,-721.5 114.5,-699.5 114.5,-699.5 114.5,-693.5 120.5,-687.5 126.5,-687.5"/>
<text text-anchor="middle" x="130.5" y="-718.3" font-family="Times New Roman,serif" font-size="14.00" fill="#f78a05">[3]</text>
<polyline fill="none" stroke="gray" points="146.5,-710.5 146.5,-733.5"/>
<text text-anchor="middle" x="162.5" y="-718.3" font-family="Times New Roman,serif" font-size="14.00" fill="#f78a05">&quot;t&quot;</text>
<polyline fill="none" stroke="gray" points="178.5,-710.5 178.5,-733.5"/>
<text text-anchor="middle" x="194.5" y="-718.3" font-family="Times New Roman,serif" font-size="14.00" fill="#f78a05">[3]</text>
<polyline fill="none" stroke="gray" points="114.5,-710.5 210.5,-710.5"/>
<text text-anchor="middle" x="162.5" y="-695.3" font-family="Times New Roman,serif" font-size="14.00" fill="#f78a05">N.A</text>
</g>
<!-- struct2136853827&#45;&gt;struct1797998024 -->
<g id="edge6" class="edge">
<title>struct2136853827&#45;&gt;struct1797998024</title>
<path fill="none" stroke="#d19928" d="M203.49,-770.79C197.53,-762.17 190.56,-752.08 184.07,-742.7"/>
<polygon fill="#d19928" stroke="#d19928" points="186.97,-740.75 178.41,-734.51 181.22,-744.73 186.97,-740.75"/>
</g>
<!-- struct480982293 -->
<g id="node8" class="node">
<title>struct480982293</title>
<path fill="none" stroke="gray" d="M241,-687.5C241,-687.5 308,-687.5 308,-687.5 314,-687.5 320,-693.5 320,-699.5 320,-699.5 320,-721.5 320,-721.5 320,-727.5 314,-733.5 308,-733.5 308,-733.5 241,-733.5 241,-733.5 235,-733.5 229,-727.5 229,-721.5 229,-721.5 229,-699.5 229,-699.5 229,-693.5 235,-687.5 241,-687.5"/>
<text text-anchor="middle" x="245" y="-718.3" font-family="Times New Roman,serif" font-size="14.00" fill="#f78a05">[4]</text>
<polyline fill="none" stroke="gray" points="261,-710.5 261,-733.5"/>
<text text-anchor="middle" x="271" y="-718.3" font-family="Times New Roman,serif" font-size="14.00" fill="#f78a05">.</text>
<polyline fill="none" stroke="gray" points="281,-710.5 281,-733.5"/>
<text text-anchor="middle" x="300.5" y="-718.3" font-family="Times New Roman,serif" font-size="14.00" fill="#f78a05">[11]</text>
<polyline fill="none" stroke="gray" points="229,-710.5 320,-710.5"/>
<text text-anchor="middle" x="274.5" y="-695.3" font-family="Times New Roman,serif" font-size="14.00" fill="#f78a05">N.A</text>
</g>
<!-- struct2136853827&#45;&gt;struct480982293 -->
<g id="edge7" class="edge">
<title>struct2136853827&#45;&gt;struct480982293</title>
<path fill="none" stroke="#d19928" d="M233.51,-770.79C239.47,-762.17 246.44,-752.08 252.93,-742.7"/>
<polygon fill="#d19928" stroke="#d19928" points="255.78,-744.73 258.59,-734.51 250.03,-740.75 255.78,-744.73"/>
</g>
<!-- struct381776317 -->
<g id="node9" class="node">
<title>struct381776317</title>
<path fill="none" stroke="gray" d="M176.5,-604.5C176.5,-604.5 252.5,-604.5 252.5,-604.5 258.5,-604.5 264.5,-610.5 264.5,-616.5 264.5,-616.5 264.5,-638.5 264.5,-638.5 264.5,-644.5 258.5,-650.5 252.5,-650.5 252.5,-650.5 176.5,-650.5 176.5,-650.5 170.5,-650.5 164.5,-644.5 164.5,-638.5 164.5,-638.5 164.5,-616.5 164.5,-616.5 164.5,-610.5 170.5,-604.5 176.5,-604.5"/>
<text text-anchor="middle" x="180.5" y="-635.3" font-family="Times New Roman,serif" font-size="14.00" fill="#f78a05">[4]</text>
<polyline fill="none" stroke="gray" points="196.5,-627.5 196.5,-650.5"/>
<text text-anchor="middle" x="214.5" y="-635.3" font-family="Times New Roman,serif" font-size="14.00" fill="#f78a05">&quot;p&quot;</text>
<polyline fill="none" stroke="gray" points="232.5,-627.5 232.5,-650.5"/>
<text text-anchor="middle" x="248.5" y="-635.3" font-family="Times New Roman,serif" font-size="14.00" fill="#f78a05">[4]</text>
<polyline fill="none" stroke="gray" points="164.5,-627.5 264.5,-627.5"/>
<text text-anchor="middle" x="214.5" y="-612.3" font-family="Times New Roman,serif" font-size="14.00" fill="#f78a05">N.A</text>
</g>
<!-- struct480982293&#45;&gt;struct381776317 -->
<g id="edge8" class="edge">
<title>struct480982293&#45;&gt;struct381776317</title>
<path fill="none" stroke="#d19928" d="M258.42,-687.79C251.96,-679.08 244.4,-668.87 237.39,-659.4"/>
<polygon fill="#d19928" stroke="#d19928" points="240.29,-657.43 231.52,-651.48 234.66,-661.6 240.29,-657.43"/>
</g>
<!-- struct132616691 -->
<g id="node10" class="node">
<title>struct132616691</title>
<path fill="none" stroke="gray" d="M294.5,-604.5C294.5,-604.5 376.5,-604.5 376.5,-604.5 382.5,-604.5 388.5,-610.5 388.5,-616.5 388.5,-616.5 388.5,-638.5 388.5,-638.5 388.5,-644.5 382.5,-650.5 376.5,-650.5 376.5,-650.5 294.5,-650.5 294.5,-650.5 288.5,-650.5 282.5,-644.5 282.5,-638.5 282.5,-638.5 282.5,-616.5 282.5,-616.5 282.5,-610.5 288.5,-604.5 294.5,-604.5"/>
<text text-anchor="middle" x="306" y="-635.3" font-family="Times New Roman,serif" font-size="14.00" fill="#f78a05">[5, 6]</text>
<polyline fill="none" stroke="gray" points="329.5,-627.5 329.5,-650.5"/>
<text text-anchor="middle" x="339.5" y="-635.3" font-family="Times New Roman,serif" font-size="14.00" fill="#f78a05">.</text>
<polyline fill="none" stroke="gray" points="349.5,-627.5 349.5,-650.5"/>
<text text-anchor="middle" x="369" y="-635.3" font-family="Times New Roman,serif" font-size="14.00" fill="#f78a05">[11]</text>
<polyline fill="none" stroke="gray" points="282.5,-627.5 388.5,-627.5"/>
<text text-anchor="middle" x="335.5" y="-612.3" font-family="Times New Roman,serif" font-size="14.00" fill="#f78a05">N.A</text>
</g>
<!-- struct480982293&#45;&gt;struct132616691 -->
<g id="edge9" class="edge">
<title>struct480982293&#45;&gt;struct132616691</title>
<path fill="none" stroke="#d19928" d="M290.85,-687.79C297.41,-679.08 305.1,-668.87 312.23,-659.4"/>
<polygon fill="#d19928" stroke="#d19928" points="314.98,-661.57 318.2,-651.48 309.39,-657.36 314.98,-661.57"/>
</g>
<!-- struct911446466 -->
<g id="node11" class="node">
<title>struct911446466</title>
<path fill="none" stroke="gray" d="M249,-521.5C249,-521.5 312,-521.5 312,-521.5 318,-521.5 324,-527.5 324,-533.5 324,-533.5 324,-555.5 324,-555.5 324,-561.5 318,-567.5 312,-567.5 312,-567.5 249,-567.5 249,-567.5 243,-567.5 237,-561.5 237,-555.5 237,-555.5 237,-533.5 237,-533.5 237,-527.5 243,-521.5 249,-521.5"/>
<text text-anchor="middle" x="253" y="-552.3" font-family="Times New Roman,serif" font-size="14.00" fill="#f78a05">[5]</text>
<polyline fill="none" stroke="gray" points="269,-544.5 269,-567.5"/>
<text text-anchor="middle" x="280.5" y="-552.3" font-family="Times New Roman,serif" font-size="14.00" fill="#f78a05">?</text>
<polyline fill="none" stroke="gray" points="292,-544.5 292,-567.5"/>
<text text-anchor="middle" x="308" y="-552.3" font-family="Times New Roman,serif" font-size="14.00" fill="#f78a05">[5]</text>
<polyline fill="none" stroke="gray" points="237,-544.5 324,-544.5"/>
<text text-anchor="middle" x="280.5" y="-529.3" font-family="Times New Roman,serif" font-size="14.00" fill="#f78a05">A</text>
</g>
<!-- struct132616691&#45;&gt;struct911446466 -->
<g id="edge10" class="edge">
<title>struct132616691&#45;&gt;struct911446466</title>
<path fill="none" stroke="#d19928" d="M320.76,-604.79C314.9,-596.17 308.06,-586.08 301.68,-576.7"/>
<polygon fill="#d19928" stroke="#d19928" points="304.64,-574.83 296.13,-568.52 298.85,-578.76 304.64,-574.83"/>
</g>
<!-- struct1858388694 -->
<g id="node13" class="node">
<title>struct1858388694</title>
<path fill="none" stroke="gray" d="M358,-521.5C358,-521.5 425,-521.5 425,-521.5 431,-521.5 437,-527.5 437,-533.5 437,-533.5 437,-555.5 437,-555.5 437,-561.5 431,-567.5 425,-567.5 425,-567.5 358,-567.5 358,-567.5 352,-567.5 346,-561.5 346,-555.5 346,-555.5 346,-533.5 346,-533.5 346,-527.5 352,-521.5 358,-521.5"/>
<text text-anchor="middle" x="362" y="-552.3" font-family="Times New Roman,serif" font-size="14.00" fill="#f78a05">[6]</text>
<polyline fill="none" stroke="gray" points="378,-544.5 378,-567.5"/>
<text text-anchor="middle" x="388" y="-552.3" font-family="Times New Roman,serif" font-size="14.00" fill="#f78a05">.</text>
<polyline fill="none" stroke="gray" points="398,-544.5 398,-567.5"/>
<text text-anchor="middle" x="417.5" y="-552.3" font-family="Times New Roman,serif" font-size="14.00" fill="#f78a05">[11]</text>
<polyline fill="none" stroke="gray" points="346,-544.5 437,-544.5"/>
<text text-anchor="middle" x="391.5" y="-529.3" font-family="Times New Roman,serif" font-size="14.00" fill="#f78a05">N.A</text>
</g>
<!-- struct132616691&#45;&gt;struct1858388694 -->
<g id="edge12" class="edge">
<title>struct132616691&#45;&gt;struct1858388694</title>
<path fill="none" stroke="#d19928" d="M350.51,-604.79C356.47,-596.17 363.44,-586.08 369.93,-576.7"/>
<polygon fill="#d19928" stroke="#d19928" points="372.78,-578.73 375.59,-568.51 367.03,-574.75 372.78,-578.73"/>
</g>
<!-- struct1939151232 -->
<g id="node12" class="node">
<title>struct1939151232</title>
<path fill="none" stroke="gray" d="M238,-438.5C238,-438.5 313,-438.5 313,-438.5 319,-438.5 325,-444.5 325,-450.5 325,-450.5 325,-472.5 325,-472.5 325,-478.5 319,-484.5 313,-484.5 313,-484.5 238,-484.5 238,-484.5 232,-484.5 226,-478.5 226,-472.5 226,-472.5 226,-450.5 226,-450.5 226,-444.5 232,-438.5 238,-438.5"/>
<text text-anchor="middle" x="242" y="-469.3" font-family="Times New Roman,serif" font-size="14.00" fill="#f78a05">[5]</text>
<polyline fill="none" stroke="gray" points="258,-461.5 258,-484.5"/>
<text text-anchor="middle" x="275.5" y="-469.3" font-family="Times New Roman,serif" font-size="14.00" fill="#f78a05">&quot;s&quot;</text>
<polyline fill="none" stroke="gray" points="293,-461.5 293,-484.5"/>
<text text-anchor="middle" x="309" y="-469.3" font-family="Times New Roman,serif" font-size="14.00" fill="#f78a05">[5]</text>
<polyline fill="none" stroke="gray" points="226,-461.5 325,-461.5"/>
<text text-anchor="middle" x="275.5" y="-446.3" font-family="Times New Roman,serif" font-size="14.00" fill="#f78a05">N.A</text>
</g>
<!-- struct911446466&#45;&gt;struct1939151232 -->
<g id="edge11" class="edge">
<title>struct911446466&#45;&gt;struct1939151232</title>
<path fill="none" stroke="#d19928" d="M279.16,-521.79C278.66,-513.71 278.08,-504.35 277.54,-495.48"/>
<polygon fill="#d19928" stroke="#d19928" points="281.05,-495.54 276.94,-485.78 274.06,-495.97 281.05,-495.54"/>
</g>
<!-- struct1436004084 -->
<g id="node14" class="node">
<title>struct1436004084</title>
<path fill="none" stroke="gray" d="M355.5,-438.5C355.5,-438.5 427.5,-438.5 427.5,-438.5 433.5,-438.5 439.5,-444.5 439.5,-450.5 439.5,-450.5 439.5,-472.5 439.5,-472.5 439.5,-478.5 433.5,-484.5 427.5,-484.5 427.5,-484.5 355.5,-484.5 355.5,-484.5 349.5,-484.5 343.5,-478.5 343.5,-472.5 343.5,-472.5 343.5,-450.5 343.5,-450.5 343.5,-444.5 349.5,-438.5 355.5,-438.5"/>
<text text-anchor="middle" x="359.5" y="-469.3" font-family="Times New Roman,serif" font-size="14.00" fill="#f78a05">[6]</text>
<polyline fill="none" stroke="gray" points="375.5,-461.5 375.5,-484.5"/>
<text text-anchor="middle" x="391.5" y="-469.3" font-family="Times New Roman,serif" font-size="14.00" fill="#f78a05">&quot;:&quot;</text>
<polyline fill="none" stroke="gray" points="407.5,-461.5 407.5,-484.5"/>
<text text-anchor="middle" x="423.5" y="-469.3" font-family="Times New Roman,serif" font-size="14.00" fill="#f78a05">[6]</text>
<polyline fill="none" stroke="gray" points="343.5,-461.5 439.5,-461.5"/>
<text text-anchor="middle" x="391.5" y="-446.3" font-family="Times New Roman,serif" font-size="14.00" fill="#f78a05">N.A</text>
</g>
<!-- struct1858388694&#45;&gt;struct1436004084 -->
<g id="edge13" class="edge">
<title>struct1858388694&#45;&gt;struct1436004084</title>
<path fill="none" stroke="#d19928" d="M391.5,-521.79C391.5,-513.71 391.5,-504.35 391.5,-495.48"/>
<polygon fill="#d19928" stroke="#d19928" points="395,-495.78 391.5,-485.78 388,-495.78 395,-495.78"/>
</g>
<!-- struct2137061381 -->
<g id="node15" class="node">
<title>struct2137061381</title>
<path fill="none" stroke="gray" d="M470,-438.5C470,-438.5 537,-438.5 537,-438.5 543,-438.5 549,-444.5 549,-450.5 549,-450.5 549,-472.5 549,-472.5 549,-478.5 543,-484.5 537,-484.5 537,-484.5 470,-484.5 470,-484.5 464,-484.5 458,-478.5 458,-472.5 458,-472.5 458,-450.5 458,-450.5 458,-444.5 464,-438.5 470,-438.5"/>
<text text-anchor="middle" x="474" y="-469.3" font-family="Times New Roman,serif" font-size="14.00" fill="#f78a05">[7]</text>
<polyline fill="none" stroke="gray" points="490,-461.5 490,-484.5"/>
<text text-anchor="middle" x="500" y="-469.3" font-family="Times New Roman,serif" font-size="14.00" fill="#f78a05">.</text>
<polyline fill="none" stroke="gray" points="510,-461.5 510,-484.5"/>
<text text-anchor="middle" x="529.5" y="-469.3" font-family="Times New Roman,serif" font-size="14.00" fill="#f78a05">[11]</text>
<polyline fill="none" stroke="gray" points="458,-461.5 549,-461.5"/>
<text text-anchor="middle" x="503.5" y="-446.3" font-family="Times New Roman,serif" font-size="14.00" fill="#f78a05">N.A</text>
</g>
<!-- struct1858388694&#45;&gt;struct2137061381 -->
<g id="edge14" class="edge">
<title>struct1858388694&#45;&gt;struct2137061381</title>
<path fill="none" stroke="#d19928" d="M421.81,-521.58C434.76,-512.22 450.05,-501.16 463.87,-491.16"/>
<polygon fill="#d19928" stroke="#d19928" points="465.89,-494.02 471.94,-485.32 461.79,-488.35 465.89,-494.02"/>
</g>
<!-- struct618837872 -->
<g id="node16" class="node">
<title>struct618837872</title>
<path fill="none" stroke="gray" d="M411.5,-355.5C411.5,-355.5 483.5,-355.5 483.5,-355.5 489.5,-355.5 495.5,-361.5 495.5,-367.5 495.5,-367.5 495.5,-389.5 495.5,-389.5 495.5,-395.5 489.5,-401.5 483.5,-401.5 483.5,-401.5 411.5,-401.5 411.5,-401.5 405.5,-401.5 399.5,-395.5 399.5,-389.5 399.5,-389.5 399.5,-367.5 399.5,-367.5 399.5,-361.5 405.5,-355.5 411.5,-355.5"/>
<text text-anchor="middle" x="415.5" y="-386.3" font-family="Times New Roman,serif" font-size="14.00" fill="#f78a05">[7]</text>
<polyline fill="none" stroke="gray" points="431.5,-378.5 431.5,-401.5"/>
<text text-anchor="middle" x="447.5" y="-386.3" font-family="Times New Roman,serif" font-size="14.00" fill="#f78a05">&quot;/&quot;</text>
<polyline fill="none" stroke="gray" points="463.5,-378.5 463.5,-401.5"/>
<text text-anchor="middle" x="479.5" y="-386.3" font-family="Times New Roman,serif" font-size="14.00" fill="#f78a05">[7]</text>
<polyline fill="none" stroke="gray" points="399.5,-378.5 495.5,-378.5"/>
<text text-anchor="middle" x="447.5" y="-363.3" font-family="Times New Roman,serif" font-size="14.00" fill="#f78a05">N.A</text>
</g>
<!-- struct2137061381&#45;&gt;struct618837872 -->
<g id="edge15" class="edge">
<title>struct2137061381&#45;&gt;struct618837872</title>
<path fill="none" stroke="#d19928" d="M488.49,-438.79C482.53,-430.17 475.56,-420.08 469.07,-410.7"/>
<polygon fill="#d19928" stroke="#d19928" points="471.97,-408.75 463.41,-402.51 466.22,-412.73 471.97,-408.75"/>
</g>
<!-- struct1819804488 -->
<g id="node17" class="node">
<title>struct1819804488</title>
<path fill="none" stroke="gray" d="M526,-355.5C526,-355.5 593,-355.5 593,-355.5 599,-355.5 605,-361.5 605,-367.5 605,-367.5 605,-389.5 605,-389.5 605,-395.5 599,-401.5 593,-401.5 593,-401.5 526,-401.5 526,-401.5 520,-401.5 514,-395.5 514,-389.5 514,-389.5 514,-367.5 514,-367.5 514,-361.5 520,-355.5 526,-355.5"/>
<text text-anchor="middle" x="530" y="-386.3" font-family="Times New Roman,serif" font-size="14.00" fill="#f78a05">[8]</text>
<polyline fill="none" stroke="gray" points="546,-378.5 546,-401.5"/>
<text text-anchor="middle" x="556" y="-386.3" font-family="Times New Roman,serif" font-size="14.00" fill="#f78a05">.</text>
<polyline fill="none" stroke="gray" points="566,-378.5 566,-401.5"/>
<text text-anchor="middle" x="585.5" y="-386.3" font-family="Times New Roman,serif" font-size="14.00" fill="#f78a05">[11]</text>
<polyline fill="none" stroke="gray" points="514,-378.5 605,-378.5"/>
<text text-anchor="middle" x="559.5" y="-363.3" font-family="Times New Roman,serif" font-size="14.00" fill="#f78a05">N.A</text>
</g>
<!-- struct2137061381&#45;&gt;struct1819804488 -->
<g id="edge16" class="edge">
<title>struct2137061381&#45;&gt;struct1819804488</title>
<path fill="none" stroke="#d19928" d="M518.51,-438.79C524.47,-430.17 531.44,-420.08 537.93,-410.7"/>
<polygon fill="#d19928" stroke="#d19928" points="540.78,-412.73 543.59,-402.51 535.03,-408.75 540.78,-412.73"/>
</g>
<!-- struct74510397 -->
<g id="node18" class="node">
<title>struct74510397</title>
<path fill="none" stroke="gray" d="M467.5,-272.5C467.5,-272.5 539.5,-272.5 539.5,-272.5 545.5,-272.5 551.5,-278.5 551.5,-284.5 551.5,-284.5 551.5,-306.5 551.5,-306.5 551.5,-312.5 545.5,-318.5 539.5,-318.5 539.5,-318.5 467.5,-318.5 467.5,-318.5 461.5,-318.5 455.5,-312.5 455.5,-306.5 455.5,-306.5 455.5,-284.5 455.5,-284.5 455.5,-278.5 461.5,-272.5 467.5,-272.5"/>
<text text-anchor="middle" x="471.5" y="-303.3" font-family="Times New Roman,serif" font-size="14.00" fill="#f78a05">[8]</text>
<polyline fill="none" stroke="gray" points="487.5,-295.5 487.5,-318.5"/>
<text text-anchor="middle" x="503.5" y="-303.3" font-family="Times New Roman,serif" font-size="14.00" fill="#f78a05">&quot;/&quot;</text>
<polyline fill="none" stroke="gray" points="519.5,-295.5 519.5,-318.5"/>
<text text-anchor="middle" x="535.5" y="-303.3" font-family="Times New Roman,serif" font-size="14.00" fill="#f78a05">[8]</text>
<polyline fill="none" stroke="gray" points="455.5,-295.5 551.5,-295.5"/>
<text text-anchor="middle" x="503.5" y="-280.3" font-family="Times New Roman,serif" font-size="14.00" fill="#f78a05">N.A</text>
</g>
<!-- struct1819804488&#45;&gt;struct74510397 -->
<g id="edge17" class="edge">
<title>struct1819804488&#45;&gt;struct74510397</title>
<path fill="none" stroke="#d19928" d="M544.49,-355.79C538.53,-347.17 531.56,-337.08 525.07,-327.7"/>
<polygon fill="#d19928" stroke="#d19928" points="527.97,-325.75 519.41,-319.51 522.22,-329.73 527.97,-325.75"/>
</g>
<!-- struct2091417702 -->
<g id="node19" class="node">
<title>struct2091417702</title>
<path fill="none" stroke="gray" d="M582,-272.5C582,-272.5 649,-272.5 649,-272.5 655,-272.5 661,-278.5 661,-284.5 661,-284.5 661,-306.5 661,-306.5 661,-312.5 655,-318.5 649,-318.5 649,-318.5 582,-318.5 582,-318.5 576,-318.5 570,-312.5 570,-306.5 570,-306.5 570,-284.5 570,-284.5 570,-278.5 576,-272.5 582,-272.5"/>
<text text-anchor="middle" x="586" y="-303.3" font-family="Times New Roman,serif" font-size="14.00" fill="#f78a05">[9]</text>
<polyline fill="none" stroke="gray" points="602,-295.5 602,-318.5"/>
<text text-anchor="middle" x="612" y="-303.3" font-family="Times New Roman,serif" font-size="14.00" fill="#f78a05">.</text>
<polyline fill="none" stroke="gray" points="622,-295.5 622,-318.5"/>
<text text-anchor="middle" x="641.5" y="-303.3" font-family="Times New Roman,serif" font-size="14.00" fill="#f78a05">[11]</text>
<polyline fill="none" stroke="gray" points="570,-295.5 661,-295.5"/>
<text text-anchor="middle" x="615.5" y="-280.3" font-family="Times New Roman,serif" font-size="14.00" fill="#f78a05">N.A</text>
</g>
<!-- struct1819804488&#45;&gt;struct2091417702 -->
<g id="edge18" class="edge">
<title>struct1819804488&#45;&gt;struct2091417702</title>
<path fill="none" stroke="#d19928" d="M574.51,-355.79C580.47,-347.17 587.44,-337.08 593.93,-327.7"/>
<polygon fill="#d19928" stroke="#d19928" points="596.78,-329.73 599.59,-319.51 591.03,-325.75 596.78,-329.73"/>
</g>
<!-- struct1296097716 -->
<g id="node20" class="node">
<title>struct1296097716</title>
<path fill="none" stroke="gray" d="M520,-189.5C520,-189.5 585,-189.5 585,-189.5 591,-189.5 597,-195.5 597,-201.5 597,-201.5 597,-223.5 597,-223.5 597,-229.5 591,-235.5 585,-235.5 585,-235.5 520,-235.5 520,-235.5 514,-235.5 508,-229.5 508,-223.5 508,-223.5 508,-201.5 508,-201.5 508,-195.5 514,-189.5 520,-189.5"/>
<text text-anchor="middle" x="524" y="-220.3" font-family="Times New Roman,serif" font-size="14.00" fill="#f78a05">[9]</text>
<polyline fill="none" stroke="gray" points="540,-212.5 540,-235.5"/>
<text text-anchor="middle" x="552.5" y="-220.3" font-family="Times New Roman,serif" font-size="14.00" fill="#f78a05">+</text>
<polyline fill="none" stroke="gray" points="565,-212.5 565,-235.5"/>
<text text-anchor="middle" x="581" y="-220.3" font-family="Times New Roman,serif" font-size="14.00" fill="#f78a05">[9]</text>
<polyline fill="none" stroke="gray" points="508,-212.5 597,-212.5"/>
<text text-anchor="middle" x="552.5" y="-197.3" font-family="Times New Roman,serif" font-size="14.00" fill="#f78a05">N.A</text>
</g>
<!-- struct2091417702&#45;&gt;struct1296097716 -->
<g id="edge19" class="edge">
<title>struct2091417702&#45;&gt;struct1296097716</title>
<path fill="none" stroke="#d19928" d="M598.62,-272.79C591.77,-263.99 583.73,-253.66 576.31,-244.11"/>
<polygon fill="#d19928" stroke="#d19928" points="579.26,-242.21 570.36,-236.46 573.74,-246.5 579.26,-242.21"/>
</g>
<!-- struct1652304915 -->
<g id="node22" class="node">
<title>struct1652304915</title>
<path fill="none" stroke="gray" d="M641.5,-189.5C641.5,-189.5 715.5,-189.5 715.5,-189.5 721.5,-189.5 727.5,-195.5 727.5,-201.5 727.5,-201.5 727.5,-223.5 727.5,-223.5 727.5,-229.5 721.5,-235.5 715.5,-235.5 715.5,-235.5 641.5,-235.5 641.5,-235.5 635.5,-235.5 629.5,-229.5 629.5,-223.5 629.5,-223.5 629.5,-201.5 629.5,-201.5 629.5,-195.5 635.5,-189.5 641.5,-189.5"/>
<text text-anchor="middle" x="649" y="-220.3" font-family="Times New Roman,serif" font-size="14.00" fill="#f78a05">[10]</text>
<polyline fill="none" stroke="gray" points="668.5,-212.5 668.5,-235.5"/>
<text text-anchor="middle" x="678.5" y="-220.3" font-family="Times New Roman,serif" font-size="14.00" fill="#f78a05">.</text>
<polyline fill="none" stroke="gray" points="688.5,-212.5 688.5,-235.5"/>
<text text-anchor="middle" x="708" y="-220.3" font-family="Times New Roman,serif" font-size="14.00" fill="#f78a05">[11]</text>
<polyline fill="none" stroke="gray" points="629.5,-212.5 727.5,-212.5"/>
<text text-anchor="middle" x="678.5" y="-197.3" font-family="Times New Roman,serif" font-size="14.00" fill="#f78a05">N.A</text>
</g>
<!-- struct2091417702&#45;&gt;struct1652304915 -->
<g id="edge21" class="edge">
<title>struct2091417702&#45;&gt;struct1652304915</title>
<path fill="none" stroke="#d19928" d="M632.38,-272.79C639.23,-263.99 647.27,-253.66 654.69,-244.11"/>
<polygon fill="#d19928" stroke="#d19928" points="657.26,-246.5 660.64,-236.46 651.74,-242.21 657.26,-246.5"/>
</g>
<!-- struct1628363031 -->
<g id="node21" class="node">
<title>struct1628363031</title>
<path fill="none" stroke="gray" d="M481.5,-106.5C481.5,-106.5 593.5,-106.5 593.5,-106.5 599.5,-106.5 605.5,-112.5 605.5,-118.5 605.5,-118.5 605.5,-140.5 605.5,-140.5 605.5,-146.5 599.5,-152.5 593.5,-152.5 593.5,-152.5 481.5,-152.5 481.5,-152.5 475.5,-152.5 469.5,-146.5 469.5,-140.5 469.5,-140.5 469.5,-118.5 469.5,-118.5 469.5,-112.5 475.5,-106.5 481.5,-106.5"/>
<text text-anchor="middle" x="485.5" y="-137.3" font-family="Times New Roman,serif" font-size="14.00" fill="#f78a05">[9]</text>
<polyline fill="none" stroke="gray" points="501.5,-129.5 501.5,-152.5"/>
<text text-anchor="middle" x="537.5" y="-137.3" font-family="Times New Roman,serif" font-size="14.00" fill="#f78a05">minuscula</text>
<polyline fill="none" stroke="gray" points="573.5,-129.5 573.5,-152.5"/>
<text text-anchor="middle" x="589.5" y="-137.3" font-family="Times New Roman,serif" font-size="14.00" fill="#f78a05">[9]</text>
<polyline fill="none" stroke="gray" points="469.5,-129.5 605.5,-129.5"/>
<text text-anchor="middle" x="537.5" y="-114.3" font-family="Times New Roman,serif" font-size="14.00" fill="#f78a05">N.A</text>
</g>
<!-- struct1296097716&#45;&gt;struct1628363031 -->
<g id="edge20" class="edge">
<title>struct1296097716&#45;&gt;struct1628363031</title>
<path fill="none" stroke="#d19928" d="M548.48,-189.79C546.98,-181.71 545.25,-172.35 543.61,-163.48"/>
<polygon fill="#d19928" stroke="#d19928" points="547.07,-162.95 541.81,-153.75 540.19,-164.22 547.07,-162.95"/>
</g>
<!-- struct1525627786 -->
<g id="node23" class="node">
<title>struct1525627786</title>
<path fill="none" stroke="gray" d="M635.5,-106.5C635.5,-106.5 721.5,-106.5 721.5,-106.5 727.5,-106.5 733.5,-112.5 733.5,-118.5 733.5,-118.5 733.5,-140.5 733.5,-140.5 733.5,-146.5 727.5,-152.5 721.5,-152.5 721.5,-152.5 635.5,-152.5 635.5,-152.5 629.5,-152.5 623.5,-146.5 623.5,-140.5 623.5,-140.5 623.5,-118.5 623.5,-118.5 623.5,-112.5 629.5,-106.5 635.5,-106.5"/>
<text text-anchor="middle" x="643" y="-137.3" font-family="Times New Roman,serif" font-size="14.00" fill="#f78a05">[10]</text>
<polyline fill="none" stroke="gray" points="662.5,-129.5 662.5,-152.5"/>
<text text-anchor="middle" x="678.5" y="-137.3" font-family="Times New Roman,serif" font-size="14.00" fill="#f78a05">&quot;.&quot;</text>
<polyline fill="none" stroke="gray" points="694.5,-129.5 694.5,-152.5"/>
<text text-anchor="middle" x="714" y="-137.3" font-family="Times New Roman,serif" font-size="14.00" fill="#f78a05">[10]</text>
<polyline fill="none" stroke="gray" points="623.5,-129.5 733.5,-129.5"/>
<text text-anchor="middle" x="678.5" y="-114.3" font-family="Times New Roman,serif" font-size="14.00" fill="#f78a05">N.A</text>
</g>
<!-- struct1652304915&#45;&gt;struct1525627786 -->
<g id="edge22" class="edge">
<title>struct1652304915&#45;&gt;struct1525627786</title>
<path fill="none" stroke="#d19928" d="M678.5,-189.79C678.5,-181.71 678.5,-172.35 678.5,-163.48"/>
<polygon fill="#d19928" stroke="#d19928" points="682,-163.78 678.5,-153.78 675,-163.78 682,-163.78"/>
</g>
<!-- struct275266594 -->
<g id="node24" class="node">
<title>struct275266594</title>
<path fill="none" stroke="gray" d="M764,-106.5C764,-106.5 843,-106.5 843,-106.5 849,-106.5 855,-112.5 855,-118.5 855,-118.5 855,-140.5 855,-140.5 855,-146.5 849,-152.5 843,-152.5 843,-152.5 764,-152.5 764,-152.5 758,-152.5 752,-146.5 752,-140.5 752,-140.5 752,-118.5 752,-118.5 752,-112.5 758,-106.5 764,-106.5"/>
<text text-anchor="middle" x="771.5" y="-137.3" font-family="Times New Roman,serif" font-size="14.00" fill="#f78a05">[11]</text>
<polyline fill="none" stroke="gray" points="791,-129.5 791,-152.5"/>
<text text-anchor="middle" x="803.5" y="-137.3" font-family="Times New Roman,serif" font-size="14.00" fill="#f78a05">+</text>
<polyline fill="none" stroke="gray" points="816,-129.5 816,-152.5"/>
<text text-anchor="middle" x="835.5" y="-137.3" font-family="Times New Roman,serif" font-size="14.00" fill="#f78a05">[11]</text>
<polyline fill="none" stroke="gray" points="752,-129.5 855,-129.5"/>
<text text-anchor="middle" x="803.5" y="-114.3" font-family="Times New Roman,serif" font-size="14.00" fill="#f78a05">N.A</text>
</g>
<!-- struct1652304915&#45;&gt;struct275266594 -->
<g id="edge23" class="edge">
<title>struct1652304915&#45;&gt;struct275266594</title>
<path fill="none" stroke="#d19928" d="M712.33,-189.58C727.06,-180.04 744.5,-168.73 760.16,-158.58"/>
<polygon fill="#d19928" stroke="#d19928" points="761.89,-161.64 768.38,-153.26 758.08,-155.76 761.89,-161.64"/>
</g>
<!-- struct121211225 -->
<g id="node25" class="node">
<title>struct121211225</title>
<path fill="none" stroke="gray" d="M740.5,-23.5C740.5,-23.5 866.5,-23.5 866.5,-23.5 872.5,-23.5 878.5,-29.5 878.5,-35.5 878.5,-35.5 878.5,-57.5 878.5,-57.5 878.5,-63.5 872.5,-69.5 866.5,-69.5 866.5,-69.5 740.5,-69.5 740.5,-69.5 734.5,-69.5 728.5,-63.5 728.5,-57.5 728.5,-57.5 728.5,-35.5 728.5,-35.5 728.5,-29.5 734.5,-23.5 740.5,-23.5"/>
<text text-anchor="middle" x="748" y="-54.3" font-family="Times New Roman,serif" font-size="14.00" fill="#f78a05">[11]</text>
<polyline fill="none" stroke="gray" points="767.5,-46.5 767.5,-69.5"/>
<text text-anchor="middle" x="803.5" y="-54.3" font-family="Times New Roman,serif" font-size="14.00" fill="#f78a05">minuscula</text>
<polyline fill="none" stroke="gray" points="839.5,-46.5 839.5,-69.5"/>
<text text-anchor="middle" x="859" y="-54.3" font-family="Times New Roman,serif" font-size="14.00" fill="#f78a05">[11]</text>
<polyline fill="none" stroke="gray" points="728.5,-46.5 878.5,-46.5"/>
<text text-anchor="middle" x="803.5" y="-31.3" font-family="Times New Roman,serif" font-size="14.00" fill="#f78a05">N.A</text>
</g>
<!-- struct275266594&#45;&gt;struct121211225 -->
<g id="edge24" class="edge">
<title>struct275266594&#45;&gt;struct121211225</title>
<path fill="none" stroke="#d19928" d="M803.5,-106.79C803.5,-98.71 803.5,-89.35 803.5,-80.48"/>
<polygon fill="#d19928" stroke="#d19928" points="807,-80.78 803.5,-70.78 800,-80.78 807,-80.78"/>
</g>
</g>
</svg>
