<?xml version="1.0" encoding="UTF-8" standalone="no"?>
<!DOCTYPE svg PUBLIC "-//W3C//DTD SVG 1.1//EN"
 "http://www.w3.org/Graphics/SVG/1.1/DTD/svg11.dtd">
<!-- Generated by graphviz version 7.1.0 (20230121.1956)
 -->
<!-- Title: G Pages: 1 -->
<svg width="522pt" height="261pt"
 viewBox="0.00 0.00 522.00 261.00" xmlns="http://www.w3.org/2000/svg" xmlns:xlink="http://www.w3.org/1999/xlink">
<g id="graph0" class="graph" transform="scale(1 1) rotate(0) translate(4 257)">
<title>G</title>
<polygon fill="white" stroke="none" points="-4,4 -4,-257 518,-257 518,4 -4,4"/>
<g id="clust1" class="cluster">
<title>cluster1</title>
<polygon fill="none" stroke="white" points="8,-8 8,-245 506,-245 506,-8 8,-8"/>
<text text-anchor="middle" x="257" y="-229.8" font-family="Times New Roman,serif" font-size="14.00">Tabla Transiciones (cadena)</text>
</g>
<!-- a0 -->
<g id="node1" class="node">
<title>a0</title>
<polygon fill="none" stroke="gray" points="498,-214 16,-214 16,-16 498,-16 498,-214"/>
<polygon fill="none" stroke="gray" points="29,-173 29,-205 183,-205 183,-173 29,-173"/>
<text text-anchor="start" x="35" y="-184.6" font-family="Times New Roman,serif" font-size="18.00" fill="#ff7b00">Estados\Terminales</text>
<polygon fill="none" stroke="gray" points="188,-173 188,-205 223,-205 223,-173 188,-173"/>
<text text-anchor="start" x="201" y="-184.6" font-family="Times New Roman,serif" font-size="18.00" fill="#18cc84">\&#39;</text>
<polygon fill="none" stroke="gray" points="228,-173 228,-205 263,-205 263,-173 228,-173"/>
<text text-anchor="start" x="238" y="-184.6" font-family="Times New Roman,serif" font-size="18.00" fill="#18cc84">\n</text>
<polygon fill="none" stroke="gray" points="268,-173 268,-205 323,-205 323,-173 268,-173"/>
<text text-anchor="start" x="274" y="-184.6" font-family="Times New Roman,serif" font-size="18.00" fill="#18cc84">minus</text>
<polygon fill="none" stroke="gray" points="328,-173 328,-205 387,-205 387,-173 328,-173"/>
<text text-anchor="start" x="334" y="-184.6" font-family="Times New Roman,serif" font-size="18.00" fill="#18cc84">mayus</text>
<polygon fill="none" stroke="gray" points="392,-173 392,-205 445,-205 445,-173 392,-173"/>
<text text-anchor="start" x="398" y="-184.6" font-family="Times New Roman,serif" font-size="18.00" fill="#18cc84">digito</text>
<polygon fill="none" stroke="gray" points="450,-173 450,-205 485,-205 485,-173 450,-173"/>
<text text-anchor="start" x="457.5" y="-184.6" font-family="Times New Roman,serif" font-size="18.00" fill="#18cc84">&quot; &quot;</text>
<polygon fill="none" stroke="gray" points="29,-136 29,-168 183,-168 183,-136 29,-136"/>
<text text-anchor="start" x="90" y="-147.6" font-family="Times New Roman,serif" font-size="18.00" fill="#18cc84">0 S0</text>
<polygon fill="none" stroke="gray" points="188,-136 188,-168 223,-168 223,-136 188,-136"/>
<text text-anchor="start" x="194" y="-147.6" font-family="Times New Roman,serif" font-size="18.00" fill="#18abcc"> S1</text>
<polygon fill="none" stroke="gray" points="228,-136 228,-168 263,-168 263,-136 228,-136"/>
<text text-anchor="start" x="234.5" y="-147.6" font-family="Times New Roman,serif" font-size="18.00" fill="#18abcc"> &#45;&#45; </text>
<polygon fill="none" stroke="gray" points="268,-136 268,-168 323,-168 323,-136 268,-136"/>
<text text-anchor="start" x="284.5" y="-147.6" font-family="Times New Roman,serif" font-size="18.00" fill="#18abcc"> &#45;&#45; </text>
<polygon fill="none" stroke="gray" points="328,-136 328,-168 387,-168 387,-136 328,-136"/>
<text text-anchor="start" x="346.5" y="-147.6" font-family="Times New Roman,serif" font-size="18.00" fill="#18abcc"> &#45;&#45; </text>
<polygon fill="none" stroke="gray" points="392,-136 392,-168 445,-168 445,-136 392,-136"/>
<text text-anchor="start" x="407.5" y="-147.6" font-family="Times New Roman,serif" font-size="18.00" fill="#18abcc"> &#45;&#45; </text>
<polygon fill="none" stroke="gray" points="450,-136 450,-168 485,-168 485,-136 450,-136"/>
<text text-anchor="start" x="456.5" y="-147.6" font-family="Times New Roman,serif" font-size="18.00" fill="#18abcc"> &#45;&#45; </text>
<polygon fill="none" stroke="gray" points="29,-99 29,-131 183,-131 183,-99 29,-99"/>
<text text-anchor="start" x="96.5" y="-110.6" font-family="Times New Roman,serif" font-size="18.00" fill="#18cc84">S1</text>
<polygon fill="none" stroke="gray" points="188,-99 188,-131 223,-131 223,-99 188,-99"/>
<text text-anchor="start" x="194.5" y="-110.6" font-family="Times New Roman,serif" font-size="18.00" fill="#18abcc"> &#45;&#45; </text>
<polygon fill="none" stroke="gray" points="228,-99 228,-131 263,-131 263,-99 228,-99"/>
<text text-anchor="start" x="234" y="-110.6" font-family="Times New Roman,serif" font-size="18.00" fill="#18abcc"> S2</text>
<polygon fill="none" stroke="gray" points="268,-99 268,-131 323,-131 323,-99 268,-99"/>
<text text-anchor="start" x="284" y="-110.6" font-family="Times New Roman,serif" font-size="18.00" fill="#18abcc"> S2</text>
<polygon fill="none" stroke="gray" points="328,-99 328,-131 387,-131 387,-99 328,-99"/>
<text text-anchor="start" x="346" y="-110.6" font-family="Times New Roman,serif" font-size="18.00" fill="#18abcc"> S2</text>
<polygon fill="none" stroke="gray" points="392,-99 392,-131 445,-131 445,-99 392,-99"/>
<text text-anchor="start" x="407" y="-110.6" font-family="Times New Roman,serif" font-size="18.00" fill="#18abcc"> S2</text>
<polygon fill="none" stroke="gray" points="450,-99 450,-131 485,-131 485,-99 450,-99"/>
<text text-anchor="start" x="456" y="-110.6" font-family="Times New Roman,serif" font-size="18.00" fill="#18abcc"> S2</text>
<polygon fill="none" stroke="gray" points="29,-62 29,-94 183,-94 183,-62 29,-62"/>
<text text-anchor="start" x="96.5" y="-73.6" font-family="Times New Roman,serif" font-size="18.00" fill="#18cc84">S2</text>
<polygon fill="none" stroke="gray" points="188,-62 188,-94 223,-94 223,-62 188,-62"/>
<text text-anchor="start" x="194" y="-73.6" font-family="Times New Roman,serif" font-size="18.00" fill="#18abcc"> S3</text>
<polygon fill="none" stroke="gray" points="228,-62 228,-94 263,-94 263,-62 228,-62"/>
<text text-anchor="start" x="234" y="-73.6" font-family="Times New Roman,serif" font-size="18.00" fill="#18abcc"> S2</text>
<polygon fill="none" stroke="gray" points="268,-62 268,-94 323,-94 323,-62 268,-62"/>
<text text-anchor="start" x="284" y="-73.6" font-family="Times New Roman,serif" font-size="18.00" fill="#18abcc"> S2</text>
<polygon fill="none" stroke="gray" points="328,-62 328,-94 387,-94 387,-62 328,-62"/>
<text text-anchor="start" x="346" y="-73.6" font-family="Times New Roman,serif" font-size="18.00" fill="#18abcc"> S2</text>
<polygon fill="none" stroke="gray" points="392,-62 392,-94 445,-94 445,-62 392,-62"/>
<text text-anchor="start" x="407" y="-73.6" font-family="Times New Roman,serif" font-size="18.00" fill="#18abcc"> S2</text>
<polygon fill="none" stroke="gray" points="450,-62 450,-94 485,-94 485,-62 450,-62"/>
<text text-anchor="start" x="456" y="-73.6" font-family="Times New Roman,serif" font-size="18.00" fill="#18abcc"> S2</text>
<polygon fill="none" stroke="gray" points="29,-25 29,-57 183,-57 183,-25 29,-25"/>
<text text-anchor="start" x="87.5" y="-36.6" font-family="Times New Roman,serif" font-size="18.00" fill="#18cc84">$ &#160;S3</text>
<polygon fill="none" stroke="gray" points="188,-25 188,-57 223,-57 223,-25 188,-25"/>
<text text-anchor="start" x="194.5" y="-36.6" font-family="Times New Roman,serif" font-size="18.00" fill="#18abcc"> &#45;&#45; </text>
<polygon fill="none" stroke="gray" points="228,-25 228,-57 263,-57 263,-25 228,-25"/>
<text text-anchor="start" x="234.5" y="-36.6" font-family="Times New Roman,serif" font-size="18.00" fill="#18abcc"> &#45;&#45; </text>
<polygon fill="none" stroke="gray" points="268,-25 268,-57 323,-57 323,-25 268,-25"/>
<text text-anchor="start" x="284.5" y="-36.6" font-family="Times New Roman,serif" font-size="18.00" fill="#18abcc"> &#45;&#45; </text>
<polygon fill="none" stroke="gray" points="328,-25 328,-57 387,-57 387,-25 328,-25"/>
<text text-anchor="start" x="346.5" y="-36.6" font-family="Times New Roman,serif" font-size="18.00" fill="#18abcc"> &#45;&#45; </text>
<polygon fill="none" stroke="gray" points="392,-25 392,-57 445,-57 445,-25 392,-25"/>
<text text-anchor="start" x="407.5" y="-36.6" font-family="Times New Roman,serif" font-size="18.00" fill="#18abcc"> &#45;&#45; </text>
<polygon fill="none" stroke="gray" points="450,-25 450,-57 485,-57 485,-25 450,-25"/>
<text text-anchor="start" x="456.5" y="-36.6" font-family="Times New Roman,serif" font-size="18.00" fill="#18abcc"> &#45;&#45; </text>
</g>
</g>
</svg>
