<?xml version="1.0" encoding="UTF-8" standalone="no"?>
<!DOCTYPE svg PUBLIC "-//W3C//DTD SVG 1.1//EN"
 "http://www.w3.org/Graphics/SVG/1.1/DTD/svg11.dtd">
<!-- Generated by graphviz version 7.1.0 (20230121.1956)
 -->
<!-- Title: G Pages: 1 -->
<svg width="776pt" height="446pt"
 viewBox="0.00 0.00 776.00 446.00" xmlns="http://www.w3.org/2000/svg" xmlns:xlink="http://www.w3.org/1999/xlink">
<g id="graph0" class="graph" transform="scale(1 1) rotate(0) translate(4 442)">
<title>G</title>
<polygon fill="white" stroke="none" points="-4,4 -4,-442 772,-442 772,4 -4,4"/>
<g id="clust1" class="cluster">
<title>cluster1</title>
<polygon fill="none" stroke="white" points="8,-8 8,-430 760,-430 760,-8 8,-8"/>
<text text-anchor="middle" x="384" y="-414.8" font-family="Times New Roman,serif" font-size="14.00">Tabla Transiciones (correoElectronico)</text>
</g>
<!-- a0 -->
<g id="node1" class="node">
<title>a0</title>
<polygon fill="none" stroke="gray" points="751.5,-399 16.5,-399 16.5,-16 751.5,-16 751.5,-399"/>
<polygon fill="none" stroke="gray" points="30,-357.5 30,-389.5 184,-389.5 184,-357.5 30,-357.5"/>
<text text-anchor="start" x="36" y="-369.1" font-family="Times New Roman,serif" font-size="18.00" fill="#ff7b00">Estados\Terminales</text>
<polygon fill="none" stroke="gray" points="189,-357.5 189,-389.5 274,-389.5 274,-357.5 189,-357.5"/>
<text text-anchor="start" x="195" y="-369.1" font-family="Times New Roman,serif" font-size="18.00" fill="#18cc84">minuscula</text>
<polygon fill="none" stroke="gray" points="279,-357.5 279,-389.5 368,-389.5 368,-357.5 279,-357.5"/>
<text text-anchor="start" x="285" y="-369.1" font-family="Times New Roman,serif" font-size="18.00" fill="#18cc84">mayuscula</text>
<polygon fill="none" stroke="gray" points="373,-357.5 373,-389.5 449,-389.5 449,-357.5 373,-357.5"/>
<text text-anchor="start" x="379" y="-369.1" font-family="Times New Roman,serif" font-size="18.00" fill="#18cc84">simbolos</text>
<polygon fill="none" stroke="gray" points="454,-357.5 454,-389.5 521,-389.5 521,-357.5 454,-357.5"/>
<text text-anchor="start" x="460" y="-369.1" font-family="Times New Roman,serif" font-size="18.00" fill="#18cc84">numero</text>
<polygon fill="none" stroke="gray" points="526,-357.5 526,-389.5 570,-389.5 570,-357.5 526,-357.5"/>
<text text-anchor="start" x="532" y="-369.1" font-family="Times New Roman,serif" font-size="18.00" fill="#18cc84">&quot;@&quot;</text>
<polygon fill="none" stroke="gray" points="575,-357.5 575,-389.5 610,-389.5 610,-357.5 575,-357.5"/>
<text text-anchor="start" x="582.5" y="-369.1" font-family="Times New Roman,serif" font-size="18.00" fill="#18cc84">&quot;.&quot;</text>
<polygon fill="none" stroke="gray" points="615,-357.5 615,-389.5 651,-389.5 651,-357.5 615,-357.5"/>
<text text-anchor="start" x="621" y="-369.1" font-family="Times New Roman,serif" font-size="18.00" fill="#18cc84">&quot;c&quot;</text>
<polygon fill="none" stroke="gray" points="656,-357.5 656,-389.5 693,-389.5 693,-357.5 656,-357.5"/>
<text text-anchor="start" x="662" y="-369.1" font-family="Times New Roman,serif" font-size="18.00" fill="#18cc84">&quot;o&quot;</text>
<polygon fill="none" stroke="gray" points="698,-357.5 698,-389.5 739,-389.5 739,-357.5 698,-357.5"/>
<text text-anchor="start" x="704" y="-369.1" font-family="Times New Roman,serif" font-size="18.00" fill="#18cc84">&quot;m&quot;</text>
<polygon fill="none" stroke="gray" points="30,-320.5 30,-352.5 184,-352.5 184,-320.5 30,-320.5"/>
<text text-anchor="start" x="91" y="-332.1" font-family="Times New Roman,serif" font-size="18.00" fill="#18cc84">0 S0</text>
<polygon fill="none" stroke="gray" points="189,-320.5 189,-352.5 274,-352.5 274,-320.5 189,-320.5"/>
<text text-anchor="start" x="220" y="-332.1" font-family="Times New Roman,serif" font-size="18.00" fill="#18abcc"> S1</text>
<polygon fill="none" stroke="gray" points="279,-320.5 279,-352.5 368,-352.5 368,-320.5 279,-320.5"/>
<text text-anchor="start" x="312" y="-332.1" font-family="Times New Roman,serif" font-size="18.00" fill="#18abcc"> S1</text>
<polygon fill="none" stroke="gray" points="373,-320.5 373,-352.5 449,-352.5 449,-320.5 373,-320.5"/>
<text text-anchor="start" x="400" y="-332.1" font-family="Times New Roman,serif" font-size="18.00" fill="#18abcc"> &#45;&#45; </text>
<polygon fill="none" stroke="gray" points="454,-320.5 454,-352.5 521,-352.5 521,-320.5 454,-320.5"/>
<text text-anchor="start" x="476.5" y="-332.1" font-family="Times New Roman,serif" font-size="18.00" fill="#18abcc"> &#45;&#45; </text>
<polygon fill="none" stroke="gray" points="526,-320.5 526,-352.5 570,-352.5 570,-320.5 526,-320.5"/>
<text text-anchor="start" x="537" y="-332.1" font-family="Times New Roman,serif" font-size="18.00" fill="#18abcc"> &#45;&#45; </text>
<polygon fill="none" stroke="gray" points="575,-320.5 575,-352.5 610,-352.5 610,-320.5 575,-320.5"/>
<text text-anchor="start" x="581.5" y="-332.1" font-family="Times New Roman,serif" font-size="18.00" fill="#18abcc"> &#45;&#45; </text>
<polygon fill="none" stroke="gray" points="615,-320.5 615,-352.5 651,-352.5 651,-320.5 615,-320.5"/>
<text text-anchor="start" x="622" y="-332.1" font-family="Times New Roman,serif" font-size="18.00" fill="#18abcc"> &#45;&#45; </text>
<polygon fill="none" stroke="gray" points="656,-320.5 656,-352.5 693,-352.5 693,-320.5 656,-320.5"/>
<text text-anchor="start" x="663.5" y="-332.1" font-family="Times New Roman,serif" font-size="18.00" fill="#18abcc"> &#45;&#45; </text>
<polygon fill="none" stroke="gray" points="698,-320.5 698,-352.5 739,-352.5 739,-320.5 698,-320.5"/>
<text text-anchor="start" x="707.5" y="-332.1" font-family="Times New Roman,serif" font-size="18.00" fill="#18abcc"> &#45;&#45; </text>
<polygon fill="none" stroke="gray" points="30,-283.5 30,-315.5 184,-315.5 184,-283.5 30,-283.5"/>
<text text-anchor="start" x="97.5" y="-295.1" font-family="Times New Roman,serif" font-size="18.00" fill="#18cc84">S1</text>
<polygon fill="none" stroke="gray" points="189,-283.5 189,-315.5 274,-315.5 274,-283.5 189,-283.5"/>
<text text-anchor="start" x="220" y="-295.1" font-family="Times New Roman,serif" font-size="18.00" fill="#18abcc"> S2</text>
<polygon fill="none" stroke="gray" points="279,-283.5 279,-315.5 368,-315.5 368,-283.5 279,-283.5"/>
<text text-anchor="start" x="312" y="-295.1" font-family="Times New Roman,serif" font-size="18.00" fill="#18abcc"> S2</text>
<polygon fill="none" stroke="gray" points="373,-283.5 373,-315.5 449,-315.5 449,-283.5 373,-283.5"/>
<text text-anchor="start" x="399.5" y="-295.1" font-family="Times New Roman,serif" font-size="18.00" fill="#18abcc"> S2</text>
<polygon fill="none" stroke="gray" points="454,-283.5 454,-315.5 521,-315.5 521,-283.5 454,-283.5"/>
<text text-anchor="start" x="476" y="-295.1" font-family="Times New Roman,serif" font-size="18.00" fill="#18abcc"> S2</text>
<polygon fill="none" stroke="gray" points="526,-283.5 526,-315.5 570,-315.5 570,-283.5 526,-283.5"/>
<text text-anchor="start" x="537" y="-295.1" font-family="Times New Roman,serif" font-size="18.00" fill="#18abcc"> &#45;&#45; </text>
<polygon fill="none" stroke="gray" points="575,-283.5 575,-315.5 610,-315.5 610,-283.5 575,-283.5"/>
<text text-anchor="start" x="581.5" y="-295.1" font-family="Times New Roman,serif" font-size="18.00" fill="#18abcc"> &#45;&#45; </text>
<polygon fill="none" stroke="gray" points="615,-283.5 615,-315.5 651,-315.5 651,-283.5 615,-283.5"/>
<text text-anchor="start" x="622" y="-295.1" font-family="Times New Roman,serif" font-size="18.00" fill="#18abcc"> &#45;&#45; </text>
<polygon fill="none" stroke="gray" points="656,-283.5 656,-315.5 693,-315.5 693,-283.5 656,-283.5"/>
<text text-anchor="start" x="663.5" y="-295.1" font-family="Times New Roman,serif" font-size="18.00" fill="#18abcc"> &#45;&#45; </text>
<polygon fill="none" stroke="gray" points="698,-283.5 698,-315.5 739,-315.5 739,-283.5 698,-283.5"/>
<text text-anchor="start" x="707.5" y="-295.1" font-family="Times New Roman,serif" font-size="18.00" fill="#18abcc"> &#45;&#45; </text>
<polygon fill="none" stroke="gray" points="30,-246.5 30,-278.5 184,-278.5 184,-246.5 30,-246.5"/>
<text text-anchor="start" x="97.5" y="-258.1" font-family="Times New Roman,serif" font-size="18.00" fill="#18cc84">S2</text>
<polygon fill="none" stroke="gray" points="189,-246.5 189,-278.5 274,-278.5 274,-246.5 189,-246.5"/>
<text text-anchor="start" x="220" y="-258.1" font-family="Times New Roman,serif" font-size="18.00" fill="#18abcc"> S2</text>
<polygon fill="none" stroke="gray" points="279,-246.5 279,-278.5 368,-278.5 368,-246.5 279,-246.5"/>
<text text-anchor="start" x="312" y="-258.1" font-family="Times New Roman,serif" font-size="18.00" fill="#18abcc"> S2</text>
<polygon fill="none" stroke="gray" points="373,-246.5 373,-278.5 449,-278.5 449,-246.5 373,-246.5"/>
<text text-anchor="start" x="399.5" y="-258.1" font-family="Times New Roman,serif" font-size="18.00" fill="#18abcc"> S2</text>
<polygon fill="none" stroke="gray" points="454,-246.5 454,-278.5 521,-278.5 521,-246.5 454,-246.5"/>
<text text-anchor="start" x="476" y="-258.1" font-family="Times New Roman,serif" font-size="18.00" fill="#18abcc"> S2</text>
<polygon fill="none" stroke="gray" points="526,-246.5 526,-278.5 570,-278.5 570,-246.5 526,-246.5"/>
<text text-anchor="start" x="536.5" y="-258.1" font-family="Times New Roman,serif" font-size="18.00" fill="#18abcc"> S3</text>
<polygon fill="none" stroke="gray" points="575,-246.5 575,-278.5 610,-278.5 610,-246.5 575,-246.5"/>
<text text-anchor="start" x="581.5" y="-258.1" font-family="Times New Roman,serif" font-size="18.00" fill="#18abcc"> &#45;&#45; </text>
<polygon fill="none" stroke="gray" points="615,-246.5 615,-278.5 651,-278.5 651,-246.5 615,-246.5"/>
<text text-anchor="start" x="622" y="-258.1" font-family="Times New Roman,serif" font-size="18.00" fill="#18abcc"> &#45;&#45; </text>
<polygon fill="none" stroke="gray" points="656,-246.5 656,-278.5 693,-278.5 693,-246.5 656,-246.5"/>
<text text-anchor="start" x="663.5" y="-258.1" font-family="Times New Roman,serif" font-size="18.00" fill="#18abcc"> &#45;&#45; </text>
<polygon fill="none" stroke="gray" points="698,-246.5 698,-278.5 739,-278.5 739,-246.5 698,-246.5"/>
<text text-anchor="start" x="707.5" y="-258.1" font-family="Times New Roman,serif" font-size="18.00" fill="#18abcc"> &#45;&#45; </text>
<polygon fill="none" stroke="gray" points="30,-209.5 30,-241.5 184,-241.5 184,-209.5 30,-209.5"/>
<text text-anchor="start" x="97.5" y="-221.1" font-family="Times New Roman,serif" font-size="18.00" fill="#18cc84">S3</text>
<polygon fill="none" stroke="gray" points="189,-209.5 189,-241.5 274,-241.5 274,-209.5 189,-209.5"/>
<text text-anchor="start" x="220" y="-221.1" font-family="Times New Roman,serif" font-size="18.00" fill="#18abcc"> S4</text>
<polygon fill="none" stroke="gray" points="279,-209.5 279,-241.5 368,-241.5 368,-209.5 279,-209.5"/>
<text text-anchor="start" x="312" y="-221.1" font-family="Times New Roman,serif" font-size="18.00" fill="#18abcc"> S4</text>
<polygon fill="none" stroke="gray" points="373,-209.5 373,-241.5 449,-241.5 449,-209.5 373,-209.5"/>
<text text-anchor="start" x="400" y="-221.1" font-family="Times New Roman,serif" font-size="18.00" fill="#18abcc"> &#45;&#45; </text>
<polygon fill="none" stroke="gray" points="454,-209.5 454,-241.5 521,-241.5 521,-209.5 454,-209.5"/>
<text text-anchor="start" x="476.5" y="-221.1" font-family="Times New Roman,serif" font-size="18.00" fill="#18abcc"> &#45;&#45; </text>
<polygon fill="none" stroke="gray" points="526,-209.5 526,-241.5 570,-241.5 570,-209.5 526,-209.5"/>
<text text-anchor="start" x="537" y="-221.1" font-family="Times New Roman,serif" font-size="18.00" fill="#18abcc"> &#45;&#45; </text>
<polygon fill="none" stroke="gray" points="575,-209.5 575,-241.5 610,-241.5 610,-209.5 575,-209.5"/>
<text text-anchor="start" x="581.5" y="-221.1" font-family="Times New Roman,serif" font-size="18.00" fill="#18abcc"> &#45;&#45; </text>
<polygon fill="none" stroke="gray" points="615,-209.5 615,-241.5 651,-241.5 651,-209.5 615,-209.5"/>
<text text-anchor="start" x="622" y="-221.1" font-family="Times New Roman,serif" font-size="18.00" fill="#18abcc"> &#45;&#45; </text>
<polygon fill="none" stroke="gray" points="656,-209.5 656,-241.5 693,-241.5 693,-209.5 656,-209.5"/>
<text text-anchor="start" x="663.5" y="-221.1" font-family="Times New Roman,serif" font-size="18.00" fill="#18abcc"> &#45;&#45; </text>
<polygon fill="none" stroke="gray" points="698,-209.5 698,-241.5 739,-241.5 739,-209.5 698,-209.5"/>
<text text-anchor="start" x="707.5" y="-221.1" font-family="Times New Roman,serif" font-size="18.00" fill="#18abcc"> &#45;&#45; </text>
<polygon fill="none" stroke="gray" points="30,-172.5 30,-204.5 184,-204.5 184,-172.5 30,-172.5"/>
<text text-anchor="start" x="97.5" y="-184.1" font-family="Times New Roman,serif" font-size="18.00" fill="#18cc84">S4</text>
<polygon fill="none" stroke="gray" points="189,-172.5 189,-204.5 274,-204.5 274,-172.5 189,-172.5"/>
<text text-anchor="start" x="220" y="-184.1" font-family="Times New Roman,serif" font-size="18.00" fill="#18abcc"> S4</text>
<polygon fill="none" stroke="gray" points="279,-172.5 279,-204.5 368,-204.5 368,-172.5 279,-172.5"/>
<text text-anchor="start" x="312" y="-184.1" font-family="Times New Roman,serif" font-size="18.00" fill="#18abcc"> S4</text>
<polygon fill="none" stroke="gray" points="373,-172.5 373,-204.5 449,-204.5 449,-172.5 373,-172.5"/>
<text text-anchor="start" x="400" y="-184.1" font-family="Times New Roman,serif" font-size="18.00" fill="#18abcc"> &#45;&#45; </text>
<polygon fill="none" stroke="gray" points="454,-172.5 454,-204.5 521,-204.5 521,-172.5 454,-172.5"/>
<text text-anchor="start" x="476.5" y="-184.1" font-family="Times New Roman,serif" font-size="18.00" fill="#18abcc"> &#45;&#45; </text>
<polygon fill="none" stroke="gray" points="526,-172.5 526,-204.5 570,-204.5 570,-172.5 526,-172.5"/>
<text text-anchor="start" x="537" y="-184.1" font-family="Times New Roman,serif" font-size="18.00" fill="#18abcc"> &#45;&#45; </text>
<polygon fill="none" stroke="gray" points="575,-172.5 575,-204.5 610,-204.5 610,-172.5 575,-172.5"/>
<text text-anchor="start" x="581" y="-184.1" font-family="Times New Roman,serif" font-size="18.00" fill="#18abcc"> S5</text>
<polygon fill="none" stroke="gray" points="615,-172.5 615,-204.5 651,-204.5 651,-172.5 615,-172.5"/>
<text text-anchor="start" x="622" y="-184.1" font-family="Times New Roman,serif" font-size="18.00" fill="#18abcc"> &#45;&#45; </text>
<polygon fill="none" stroke="gray" points="656,-172.5 656,-204.5 693,-204.5 693,-172.5 656,-172.5"/>
<text text-anchor="start" x="663.5" y="-184.1" font-family="Times New Roman,serif" font-size="18.00" fill="#18abcc"> &#45;&#45; </text>
<polygon fill="none" stroke="gray" points="698,-172.5 698,-204.5 739,-204.5 739,-172.5 698,-172.5"/>
<text text-anchor="start" x="707.5" y="-184.1" font-family="Times New Roman,serif" font-size="18.00" fill="#18abcc"> &#45;&#45; </text>
<polygon fill="none" stroke="gray" points="30,-135.5 30,-167.5 184,-167.5 184,-135.5 30,-135.5"/>
<text text-anchor="start" x="97.5" y="-147.1" font-family="Times New Roman,serif" font-size="18.00" fill="#18cc84">S5</text>
<polygon fill="none" stroke="gray" points="189,-135.5 189,-167.5 274,-167.5 274,-135.5 189,-135.5"/>
<text text-anchor="start" x="220.5" y="-147.1" font-family="Times New Roman,serif" font-size="18.00" fill="#18abcc"> &#45;&#45; </text>
<polygon fill="none" stroke="gray" points="279,-135.5 279,-167.5 368,-167.5 368,-135.5 279,-135.5"/>
<text text-anchor="start" x="312.5" y="-147.1" font-family="Times New Roman,serif" font-size="18.00" fill="#18abcc"> &#45;&#45; </text>
<polygon fill="none" stroke="gray" points="373,-135.5 373,-167.5 449,-167.5 449,-135.5 373,-135.5"/>
<text text-anchor="start" x="400" y="-147.1" font-family="Times New Roman,serif" font-size="18.00" fill="#18abcc"> &#45;&#45; </text>
<polygon fill="none" stroke="gray" points="454,-135.5 454,-167.5 521,-167.5 521,-135.5 454,-135.5"/>
<text text-anchor="start" x="476.5" y="-147.1" font-family="Times New Roman,serif" font-size="18.00" fill="#18abcc"> &#45;&#45; </text>
<polygon fill="none" stroke="gray" points="526,-135.5 526,-167.5 570,-167.5 570,-135.5 526,-135.5"/>
<text text-anchor="start" x="537" y="-147.1" font-family="Times New Roman,serif" font-size="18.00" fill="#18abcc"> &#45;&#45; </text>
<polygon fill="none" stroke="gray" points="575,-135.5 575,-167.5 610,-167.5 610,-135.5 575,-135.5"/>
<text text-anchor="start" x="581.5" y="-147.1" font-family="Times New Roman,serif" font-size="18.00" fill="#18abcc"> &#45;&#45; </text>
<polygon fill="none" stroke="gray" points="615,-135.5 615,-167.5 651,-167.5 651,-135.5 615,-135.5"/>
<text text-anchor="start" x="621.5" y="-147.1" font-family="Times New Roman,serif" font-size="18.00" fill="#18abcc"> S6</text>
<polygon fill="none" stroke="gray" points="656,-135.5 656,-167.5 693,-167.5 693,-135.5 656,-135.5"/>
<text text-anchor="start" x="663.5" y="-147.1" font-family="Times New Roman,serif" font-size="18.00" fill="#18abcc"> &#45;&#45; </text>
<polygon fill="none" stroke="gray" points="698,-135.5 698,-167.5 739,-167.5 739,-135.5 698,-135.5"/>
<text text-anchor="start" x="707.5" y="-147.1" font-family="Times New Roman,serif" font-size="18.00" fill="#18abcc"> &#45;&#45; </text>
<polygon fill="none" stroke="gray" points="30,-98.5 30,-130.5 184,-130.5 184,-98.5 30,-98.5"/>
<text text-anchor="start" x="97.5" y="-110.1" font-family="Times New Roman,serif" font-size="18.00" fill="#18cc84">S6</text>
<polygon fill="none" stroke="gray" points="189,-98.5 189,-130.5 274,-130.5 274,-98.5 189,-98.5"/>
<text text-anchor="start" x="220.5" y="-110.1" font-family="Times New Roman,serif" font-size="18.00" fill="#18abcc"> &#45;&#45; </text>
<polygon fill="none" stroke="gray" points="279,-98.5 279,-130.5 368,-130.5 368,-98.5 279,-98.5"/>
<text text-anchor="start" x="312.5" y="-110.1" font-family="Times New Roman,serif" font-size="18.00" fill="#18abcc"> &#45;&#45; </text>
<polygon fill="none" stroke="gray" points="373,-98.5 373,-130.5 449,-130.5 449,-98.5 373,-98.5"/>
<text text-anchor="start" x="400" y="-110.1" font-family="Times New Roman,serif" font-size="18.00" fill="#18abcc"> &#45;&#45; </text>
<polygon fill="none" stroke="gray" points="454,-98.5 454,-130.5 521,-130.5 521,-98.5 454,-98.5"/>
<text text-anchor="start" x="476.5" y="-110.1" font-family="Times New Roman,serif" font-size="18.00" fill="#18abcc"> &#45;&#45; </text>
<polygon fill="none" stroke="gray" points="526,-98.5 526,-130.5 570,-130.5 570,-98.5 526,-98.5"/>
<text text-anchor="start" x="537" y="-110.1" font-family="Times New Roman,serif" font-size="18.00" fill="#18abcc"> &#45;&#45; </text>
<polygon fill="none" stroke="gray" points="575,-98.5 575,-130.5 610,-130.5 610,-98.5 575,-98.5"/>
<text text-anchor="start" x="581.5" y="-110.1" font-family="Times New Roman,serif" font-size="18.00" fill="#18abcc"> &#45;&#45; </text>
<polygon fill="none" stroke="gray" points="615,-98.5 615,-130.5 651,-130.5 651,-98.5 615,-98.5"/>
<text text-anchor="start" x="622" y="-110.1" font-family="Times New Roman,serif" font-size="18.00" fill="#18abcc"> &#45;&#45; </text>
<polygon fill="none" stroke="gray" points="656,-98.5 656,-130.5 693,-130.5 693,-98.5 656,-98.5"/>
<text text-anchor="start" x="663" y="-110.1" font-family="Times New Roman,serif" font-size="18.00" fill="#18abcc"> S7</text>
<polygon fill="none" stroke="gray" points="698,-98.5 698,-130.5 739,-130.5 739,-98.5 698,-98.5"/>
<text text-anchor="start" x="707.5" y="-110.1" font-family="Times New Roman,serif" font-size="18.00" fill="#18abcc"> &#45;&#45; </text>
<polygon fill="none" stroke="gray" points="30,-61.5 30,-93.5 184,-93.5 184,-61.5 30,-61.5"/>
<text text-anchor="start" x="97.5" y="-73.1" font-family="Times New Roman,serif" font-size="18.00" fill="#18cc84">S7</text>
<polygon fill="none" stroke="gray" points="189,-61.5 189,-93.5 274,-93.5 274,-61.5 189,-61.5"/>
<text text-anchor="start" x="220.5" y="-73.1" font-family="Times New Roman,serif" font-size="18.00" fill="#18abcc"> &#45;&#45; </text>
<polygon fill="none" stroke="gray" points="279,-61.5 279,-93.5 368,-93.5 368,-61.5 279,-61.5"/>
<text text-anchor="start" x="312.5" y="-73.1" font-family="Times New Roman,serif" font-size="18.00" fill="#18abcc"> &#45;&#45; </text>
<polygon fill="none" stroke="gray" points="373,-61.5 373,-93.5 449,-93.5 449,-61.5 373,-61.5"/>
<text text-anchor="start" x="400" y="-73.1" font-family="Times New Roman,serif" font-size="18.00" fill="#18abcc"> &#45;&#45; </text>
<polygon fill="none" stroke="gray" points="454,-61.5 454,-93.5 521,-93.5 521,-61.5 454,-61.5"/>
<text text-anchor="start" x="476.5" y="-73.1" font-family="Times New Roman,serif" font-size="18.00" fill="#18abcc"> &#45;&#45; </text>
<polygon fill="none" stroke="gray" points="526,-61.5 526,-93.5 570,-93.5 570,-61.5 526,-61.5"/>
<text text-anchor="start" x="537" y="-73.1" font-family="Times New Roman,serif" font-size="18.00" fill="#18abcc"> &#45;&#45; </text>
<polygon fill="none" stroke="gray" points="575,-61.5 575,-93.5 610,-93.5 610,-61.5 575,-61.5"/>
<text text-anchor="start" x="581.5" y="-73.1" font-family="Times New Roman,serif" font-size="18.00" fill="#18abcc"> &#45;&#45; </text>
<polygon fill="none" stroke="gray" points="615,-61.5 615,-93.5 651,-93.5 651,-61.5 615,-61.5"/>
<text text-anchor="start" x="622" y="-73.1" font-family="Times New Roman,serif" font-size="18.00" fill="#18abcc"> &#45;&#45; </text>
<polygon fill="none" stroke="gray" points="656,-61.5 656,-93.5 693,-93.5 693,-61.5 656,-61.5"/>
<text text-anchor="start" x="663.5" y="-73.1" font-family="Times New Roman,serif" font-size="18.00" fill="#18abcc"> &#45;&#45; </text>
<polygon fill="none" stroke="gray" points="698,-61.5 698,-93.5 739,-93.5 739,-61.5 698,-61.5"/>
<text text-anchor="start" x="707" y="-73.1" font-family="Times New Roman,serif" font-size="18.00" fill="#18abcc"> S8</text>
<polygon fill="none" stroke="gray" points="30,-24.5 30,-56.5 184,-56.5 184,-24.5 30,-24.5"/>
<text text-anchor="start" x="88.5" y="-36.1" font-family="Times New Roman,serif" font-size="18.00" fill="#18cc84">$ &#160;S8</text>
<polygon fill="none" stroke="gray" points="189,-24.5 189,-56.5 274,-56.5 274,-24.5 189,-24.5"/>
<text text-anchor="start" x="220.5" y="-36.1" font-family="Times New Roman,serif" font-size="18.00" fill="#18abcc"> &#45;&#45; </text>
<polygon fill="none" stroke="gray" points="279,-24.5 279,-56.5 368,-56.5 368,-24.5 279,-24.5"/>
<text text-anchor="start" x="312.5" y="-36.1" font-family="Times New Roman,serif" font-size="18.00" fill="#18abcc"> &#45;&#45; </text>
<polygon fill="none" stroke="gray" points="373,-24.5 373,-56.5 449,-56.5 449,-24.5 373,-24.5"/>
<text text-anchor="start" x="400" y="-36.1" font-family="Times New Roman,serif" font-size="18.00" fill="#18abcc"> &#45;&#45; </text>
<polygon fill="none" stroke="gray" points="454,-24.5 454,-56.5 521,-56.5 521,-24.5 454,-24.5"/>
<text text-anchor="start" x="476.5" y="-36.1" font-family="Times New Roman,serif" font-size="18.00" fill="#18abcc"> &#45;&#45; </text>
<polygon fill="none" stroke="gray" points="526,-24.5 526,-56.5 570,-56.5 570,-24.5 526,-24.5"/>
<text text-anchor="start" x="537" y="-36.1" font-family="Times New Roman,serif" font-size="18.00" fill="#18abcc"> &#45;&#45; </text>
<polygon fill="none" stroke="gray" points="575,-24.5 575,-56.5 610,-56.5 610,-24.5 575,-24.5"/>
<text text-anchor="start" x="581.5" y="-36.1" font-family="Times New Roman,serif" font-size="18.00" fill="#18abcc"> &#45;&#45; </text>
<polygon fill="none" stroke="gray" points="615,-24.5 615,-56.5 651,-56.5 651,-24.5 615,-24.5"/>
<text text-anchor="start" x="622" y="-36.1" font-family="Times New Roman,serif" font-size="18.00" fill="#18abcc"> &#45;&#45; </text>
<polygon fill="none" stroke="gray" points="656,-24.5 656,-56.5 693,-56.5 693,-24.5 656,-24.5"/>
<text text-anchor="start" x="663.5" y="-36.1" font-family="Times New Roman,serif" font-size="18.00" fill="#18abcc"> &#45;&#45; </text>
<polygon fill="none" stroke="gray" points="698,-24.5 698,-56.5 739,-56.5 739,-24.5 698,-24.5"/>
<text text-anchor="start" x="707.5" y="-36.1" font-family="Times New Roman,serif" font-size="18.00" fill="#18abcc"> &#45;&#45; </text>
</g>
</g>
</svg>
