<?xml version="1.0" encoding="UTF-8" standalone="no"?>
<!DOCTYPE svg PUBLIC "-//W3C//DTD SVG 1.1//EN"
 "http://www.w3.org/Graphics/SVG/1.1/DTD/svg11.dtd">
<!-- Generated by graphviz version 7.1.0 (20230121.1956)
 -->
<!-- Title: G Pages: 1 -->
<svg width="318pt" height="261pt"
 viewBox="0.00 0.00 318.00 261.00" xmlns="http://www.w3.org/2000/svg" xmlns:xlink="http://www.w3.org/1999/xlink">
<g id="graph0" class="graph" transform="scale(1 1) rotate(0) translate(4 257)">
<title>G</title>
<polygon fill="white" stroke="none" points="-4,4 -4,-257 314,-257 314,4 -4,4"/>
<g id="clust1" class="cluster">
<title>cluster1</title>
<polygon fill="none" stroke="white" points="8,-8 8,-245 302,-245 302,-8 8,-8"/>
<text text-anchor="middle" x="155" y="-229.8" font-family="Times New Roman,serif" font-size="14.00">Tabla Transiciones (decimales)</text>
</g>
<!-- a0 -->
<g id="node1" class="node">
<title>a0</title>
<polygon fill="none" stroke="gray" points="294,-214 16,-214 16,-16 294,-16 294,-214"/>
<polygon fill="none" stroke="gray" points="29,-173 29,-205 183,-205 183,-173 29,-173"/>
<text text-anchor="start" x="35" y="-184.6" font-family="Times New Roman,serif" font-size="18.00" fill="#ff7b00">Estados\Terminales</text>
<polygon fill="none" stroke="gray" points="188,-173 188,-205 241,-205 241,-173 188,-173"/>
<text text-anchor="start" x="194" y="-184.6" font-family="Times New Roman,serif" font-size="18.00" fill="#18cc84">digito</text>
<polygon fill="none" stroke="gray" points="246,-173 246,-205 281,-205 281,-173 246,-173"/>
<text text-anchor="start" x="253.5" y="-184.6" font-family="Times New Roman,serif" font-size="18.00" fill="#18cc84">&quot;.&quot;</text>
<polygon fill="none" stroke="gray" points="29,-136 29,-168 183,-168 183,-136 29,-136"/>
<text text-anchor="start" x="90" y="-147.6" font-family="Times New Roman,serif" font-size="18.00" fill="#18cc84">0 S0</text>
<polygon fill="none" stroke="gray" points="188,-136 188,-168 241,-168 241,-136 188,-136"/>
<text text-anchor="start" x="203" y="-147.6" font-family="Times New Roman,serif" font-size="18.00" fill="#18abcc"> S1</text>
<polygon fill="none" stroke="gray" points="246,-136 246,-168 281,-168 281,-136 246,-136"/>
<text text-anchor="start" x="252.5" y="-147.6" font-family="Times New Roman,serif" font-size="18.00" fill="#18abcc"> &#45;&#45; </text>
<polygon fill="none" stroke="gray" points="29,-99 29,-131 183,-131 183,-99 29,-99"/>
<text text-anchor="start" x="96.5" y="-110.6" font-family="Times New Roman,serif" font-size="18.00" fill="#18cc84">S1</text>
<polygon fill="none" stroke="gray" points="188,-99 188,-131 241,-131 241,-99 188,-99"/>
<text text-anchor="start" x="203" y="-110.6" font-family="Times New Roman,serif" font-size="18.00" fill="#18abcc"> S1</text>
<polygon fill="none" stroke="gray" points="246,-99 246,-131 281,-131 281,-99 246,-99"/>
<text text-anchor="start" x="252" y="-110.6" font-family="Times New Roman,serif" font-size="18.00" fill="#18abcc"> S2</text>
<polygon fill="none" stroke="gray" points="29,-62 29,-94 183,-94 183,-62 29,-62"/>
<text text-anchor="start" x="96.5" y="-73.6" font-family="Times New Roman,serif" font-size="18.00" fill="#18cc84">S2</text>
<polygon fill="none" stroke="gray" points="188,-62 188,-94 241,-94 241,-62 188,-62"/>
<text text-anchor="start" x="203" y="-73.6" font-family="Times New Roman,serif" font-size="18.00" fill="#18abcc"> S3</text>
<polygon fill="none" stroke="gray" points="246,-62 246,-94 281,-94 281,-62 246,-62"/>
<text text-anchor="start" x="252.5" y="-73.6" font-family="Times New Roman,serif" font-size="18.00" fill="#18abcc"> &#45;&#45; </text>
<polygon fill="none" stroke="gray" points="29,-25 29,-57 183,-57 183,-25 29,-25"/>
<text text-anchor="start" x="87.5" y="-36.6" font-family="Times New Roman,serif" font-size="18.00" fill="#18cc84">$ &#160;S3</text>
<polygon fill="none" stroke="gray" points="188,-25 188,-57 241,-57 241,-25 188,-25"/>
<text text-anchor="start" x="203" y="-36.6" font-family="Times New Roman,serif" font-size="18.00" fill="#18abcc"> S3</text>
<polygon fill="none" stroke="gray" points="246,-25 246,-57 281,-57 281,-25 246,-25"/>
<text text-anchor="start" x="252.5" y="-36.6" font-family="Times New Roman,serif" font-size="18.00" fill="#18abcc"> &#45;&#45; </text>
</g>
</g>
</svg>
