<?xml version="1.0" encoding="UTF-8" standalone="no"?>
<!DOCTYPE svg PUBLIC "-//W3C//DTD SVG 1.1//EN"
 "http://www.w3.org/Graphics/SVG/1.1/DTD/svg11.dtd">
<!-- Generated by graphviz version 7.1.0 (20230121.1956)
 -->
<!-- Title: G Pages: 1 -->
<svg width="632pt" height="372pt"
 viewBox="0.00 0.00 632.00 372.00" xmlns="http://www.w3.org/2000/svg" xmlns:xlink="http://www.w3.org/1999/xlink">
<g id="graph0" class="graph" transform="scale(1 1) rotate(0) translate(4 368)">
<title>G</title>
<polygon fill="white" stroke="none" points="-4,4 -4,-368 628,-368 628,4 -4,4"/>
<g id="clust1" class="cluster">
<title>cluster1</title>
<polygon fill="none" stroke="white" points="8,-8 8,-356 616,-356 616,-8 8,-8"/>
<text text-anchor="middle" x="312" y="-340.8" font-family="Times New Roman,serif" font-size="14.00">Tabla Transiciones (frase)</text>
</g>
<!-- a0 -->
<g id="node1" class="node">
<title>a0</title>
<polygon fill="none" stroke="gray" points="607.5,-325 16.5,-325 16.5,-16 607.5,-16 607.5,-325"/>
<polygon fill="none" stroke="gray" points="30,-283.5 30,-315.5 184,-315.5 184,-283.5 30,-283.5"/>
<text text-anchor="start" x="36" y="-295.1" font-family="Times New Roman,serif" font-size="18.00" fill="#ff7b00">Estados\Terminales</text>
<polygon fill="none" stroke="gray" points="189,-283.5 189,-315.5 229,-315.5 229,-283.5 189,-283.5"/>
<text text-anchor="start" x="195" y="-295.1" font-family="Times New Roman,serif" font-size="18.00" fill="#18cc84">&quot;C&quot;</text>
<polygon fill="none" stroke="gray" points="234,-283.5 234,-315.5 274,-315.5 274,-283.5 234,-283.5"/>
<text text-anchor="start" x="240" y="-295.1" font-family="Times New Roman,serif" font-size="18.00" fill="#18cc84">&quot;O&quot;</text>
<polygon fill="none" stroke="gray" points="279,-283.5 279,-315.5 322,-315.5 322,-283.5 279,-283.5"/>
<text text-anchor="start" x="285" y="-295.1" font-family="Times New Roman,serif" font-size="18.00" fill="#18cc84">&quot;M&quot;</text>
<polygon fill="none" stroke="gray" points="327,-283.5 327,-315.5 365,-315.5 365,-283.5 327,-283.5"/>
<text text-anchor="start" x="333" y="-295.1" font-family="Times New Roman,serif" font-size="18.00" fill="#18cc84">&quot;P&quot;</text>
<polygon fill="none" stroke="gray" points="370,-283.5 370,-315.5 405,-315.5 405,-283.5 370,-283.5"/>
<text text-anchor="start" x="376.5" y="-295.1" font-family="Times New Roman,serif" font-size="18.00" fill="#18cc84">&quot;I&quot;</text>
<polygon fill="none" stroke="gray" points="410,-283.5 410,-315.5 447,-315.5 447,-283.5 410,-283.5"/>
<text text-anchor="start" x="416" y="-295.1" font-family="Times New Roman,serif" font-size="18.00" fill="#18cc84">&quot;1&quot;</text>
<polygon fill="none" stroke="gray" points="452,-283.5 452,-315.5 497,-315.5 497,-283.5 452,-283.5"/>
<text text-anchor="start" x="458" y="-295.1" font-family="Times New Roman,serif" font-size="18.00" fill="#18cc84">letra</text>
<polygon fill="none" stroke="gray" points="502,-283.5 502,-315.5 555,-315.5 555,-283.5 502,-283.5"/>
<text text-anchor="start" x="508" y="-295.1" font-family="Times New Roman,serif" font-size="18.00" fill="#18cc84">digito</text>
<polygon fill="none" stroke="gray" points="560,-283.5 560,-315.5 595,-315.5 595,-283.5 560,-283.5"/>
<text text-anchor="start" x="567.5" y="-295.1" font-family="Times New Roman,serif" font-size="18.00" fill="#18cc84">&quot; &quot;</text>
<polygon fill="none" stroke="gray" points="30,-246.5 30,-278.5 184,-278.5 184,-246.5 30,-246.5"/>
<text text-anchor="start" x="91" y="-258.1" font-family="Times New Roman,serif" font-size="18.00" fill="#18cc84">0 S0</text>
<polygon fill="none" stroke="gray" points="189,-246.5 189,-278.5 229,-278.5 229,-246.5 189,-246.5"/>
<text text-anchor="start" x="197.5" y="-258.1" font-family="Times New Roman,serif" font-size="18.00" fill="#18abcc"> S1</text>
<polygon fill="none" stroke="gray" points="234,-246.5 234,-278.5 274,-278.5 274,-246.5 234,-246.5"/>
<text text-anchor="start" x="243" y="-258.1" font-family="Times New Roman,serif" font-size="18.00" fill="#18abcc"> &#45;&#45; </text>
<polygon fill="none" stroke="gray" points="279,-246.5 279,-278.5 322,-278.5 322,-246.5 279,-246.5"/>
<text text-anchor="start" x="289.5" y="-258.1" font-family="Times New Roman,serif" font-size="18.00" fill="#18abcc"> &#45;&#45; </text>
<polygon fill="none" stroke="gray" points="327,-246.5 327,-278.5 365,-278.5 365,-246.5 327,-246.5"/>
<text text-anchor="start" x="335" y="-258.1" font-family="Times New Roman,serif" font-size="18.00" fill="#18abcc"> &#45;&#45; </text>
<polygon fill="none" stroke="gray" points="370,-246.5 370,-278.5 405,-278.5 405,-246.5 370,-246.5"/>
<text text-anchor="start" x="376.5" y="-258.1" font-family="Times New Roman,serif" font-size="18.00" fill="#18abcc"> &#45;&#45; </text>
<polygon fill="none" stroke="gray" points="410,-246.5 410,-278.5 447,-278.5 447,-246.5 410,-246.5"/>
<text text-anchor="start" x="417.5" y="-258.1" font-family="Times New Roman,serif" font-size="18.00" fill="#18abcc"> &#45;&#45; </text>
<polygon fill="none" stroke="gray" points="452,-246.5 452,-278.5 497,-278.5 497,-246.5 452,-246.5"/>
<text text-anchor="start" x="463.5" y="-258.1" font-family="Times New Roman,serif" font-size="18.00" fill="#18abcc"> &#45;&#45; </text>
<polygon fill="none" stroke="gray" points="502,-246.5 502,-278.5 555,-278.5 555,-246.5 502,-246.5"/>
<text text-anchor="start" x="517.5" y="-258.1" font-family="Times New Roman,serif" font-size="18.00" fill="#18abcc"> &#45;&#45; </text>
<polygon fill="none" stroke="gray" points="560,-246.5 560,-278.5 595,-278.5 595,-246.5 560,-246.5"/>
<text text-anchor="start" x="566.5" y="-258.1" font-family="Times New Roman,serif" font-size="18.00" fill="#18abcc"> &#45;&#45; </text>
<polygon fill="none" stroke="gray" points="30,-209.5 30,-241.5 184,-241.5 184,-209.5 30,-209.5"/>
<text text-anchor="start" x="97.5" y="-221.1" font-family="Times New Roman,serif" font-size="18.00" fill="#18cc84">S1</text>
<polygon fill="none" stroke="gray" points="189,-209.5 189,-241.5 229,-241.5 229,-209.5 189,-209.5"/>
<text text-anchor="start" x="198" y="-221.1" font-family="Times New Roman,serif" font-size="18.00" fill="#18abcc"> &#45;&#45; </text>
<polygon fill="none" stroke="gray" points="234,-209.5 234,-241.5 274,-241.5 274,-209.5 234,-209.5"/>
<text text-anchor="start" x="242.5" y="-221.1" font-family="Times New Roman,serif" font-size="18.00" fill="#18abcc"> S2</text>
<polygon fill="none" stroke="gray" points="279,-209.5 279,-241.5 322,-241.5 322,-209.5 279,-209.5"/>
<text text-anchor="start" x="289.5" y="-221.1" font-family="Times New Roman,serif" font-size="18.00" fill="#18abcc"> &#45;&#45; </text>
<polygon fill="none" stroke="gray" points="327,-209.5 327,-241.5 365,-241.5 365,-209.5 327,-209.5"/>
<text text-anchor="start" x="335" y="-221.1" font-family="Times New Roman,serif" font-size="18.00" fill="#18abcc"> &#45;&#45; </text>
<polygon fill="none" stroke="gray" points="370,-209.5 370,-241.5 405,-241.5 405,-209.5 370,-209.5"/>
<text text-anchor="start" x="376.5" y="-221.1" font-family="Times New Roman,serif" font-size="18.00" fill="#18abcc"> &#45;&#45; </text>
<polygon fill="none" stroke="gray" points="410,-209.5 410,-241.5 447,-241.5 447,-209.5 410,-209.5"/>
<text text-anchor="start" x="417.5" y="-221.1" font-family="Times New Roman,serif" font-size="18.00" fill="#18abcc"> &#45;&#45; </text>
<polygon fill="none" stroke="gray" points="452,-209.5 452,-241.5 497,-241.5 497,-209.5 452,-209.5"/>
<text text-anchor="start" x="463.5" y="-221.1" font-family="Times New Roman,serif" font-size="18.00" fill="#18abcc"> &#45;&#45; </text>
<polygon fill="none" stroke="gray" points="502,-209.5 502,-241.5 555,-241.5 555,-209.5 502,-209.5"/>
<text text-anchor="start" x="517.5" y="-221.1" font-family="Times New Roman,serif" font-size="18.00" fill="#18abcc"> &#45;&#45; </text>
<polygon fill="none" stroke="gray" points="560,-209.5 560,-241.5 595,-241.5 595,-209.5 560,-209.5"/>
<text text-anchor="start" x="566.5" y="-221.1" font-family="Times New Roman,serif" font-size="18.00" fill="#18abcc"> &#45;&#45; </text>
<polygon fill="none" stroke="gray" points="30,-172.5 30,-204.5 184,-204.5 184,-172.5 30,-172.5"/>
<text text-anchor="start" x="97.5" y="-184.1" font-family="Times New Roman,serif" font-size="18.00" fill="#18cc84">S2</text>
<polygon fill="none" stroke="gray" points="189,-172.5 189,-204.5 229,-204.5 229,-172.5 189,-172.5"/>
<text text-anchor="start" x="198" y="-184.1" font-family="Times New Roman,serif" font-size="18.00" fill="#18abcc"> &#45;&#45; </text>
<polygon fill="none" stroke="gray" points="234,-172.5 234,-204.5 274,-204.5 274,-172.5 234,-172.5"/>
<text text-anchor="start" x="243" y="-184.1" font-family="Times New Roman,serif" font-size="18.00" fill="#18abcc"> &#45;&#45; </text>
<polygon fill="none" stroke="gray" points="279,-172.5 279,-204.5 322,-204.5 322,-172.5 279,-172.5"/>
<text text-anchor="start" x="289" y="-184.1" font-family="Times New Roman,serif" font-size="18.00" fill="#18abcc"> S3</text>
<polygon fill="none" stroke="gray" points="327,-172.5 327,-204.5 365,-204.5 365,-172.5 327,-172.5"/>
<text text-anchor="start" x="335" y="-184.1" font-family="Times New Roman,serif" font-size="18.00" fill="#18abcc"> &#45;&#45; </text>
<polygon fill="none" stroke="gray" points="370,-172.5 370,-204.5 405,-204.5 405,-172.5 370,-172.5"/>
<text text-anchor="start" x="376.5" y="-184.1" font-family="Times New Roman,serif" font-size="18.00" fill="#18abcc"> &#45;&#45; </text>
<polygon fill="none" stroke="gray" points="410,-172.5 410,-204.5 447,-204.5 447,-172.5 410,-172.5"/>
<text text-anchor="start" x="417.5" y="-184.1" font-family="Times New Roman,serif" font-size="18.00" fill="#18abcc"> &#45;&#45; </text>
<polygon fill="none" stroke="gray" points="452,-172.5 452,-204.5 497,-204.5 497,-172.5 452,-172.5"/>
<text text-anchor="start" x="463.5" y="-184.1" font-family="Times New Roman,serif" font-size="18.00" fill="#18abcc"> &#45;&#45; </text>
<polygon fill="none" stroke="gray" points="502,-172.5 502,-204.5 555,-204.5 555,-172.5 502,-172.5"/>
<text text-anchor="start" x="517.5" y="-184.1" font-family="Times New Roman,serif" font-size="18.00" fill="#18abcc"> &#45;&#45; </text>
<polygon fill="none" stroke="gray" points="560,-172.5 560,-204.5 595,-204.5 595,-172.5 560,-172.5"/>
<text text-anchor="start" x="566.5" y="-184.1" font-family="Times New Roman,serif" font-size="18.00" fill="#18abcc"> &#45;&#45; </text>
<polygon fill="none" stroke="gray" points="30,-135.5 30,-167.5 184,-167.5 184,-135.5 30,-135.5"/>
<text text-anchor="start" x="97.5" y="-147.1" font-family="Times New Roman,serif" font-size="18.00" fill="#18cc84">S3</text>
<polygon fill="none" stroke="gray" points="189,-135.5 189,-167.5 229,-167.5 229,-135.5 189,-135.5"/>
<text text-anchor="start" x="198" y="-147.1" font-family="Times New Roman,serif" font-size="18.00" fill="#18abcc"> &#45;&#45; </text>
<polygon fill="none" stroke="gray" points="234,-135.5 234,-167.5 274,-167.5 274,-135.5 234,-135.5"/>
<text text-anchor="start" x="243" y="-147.1" font-family="Times New Roman,serif" font-size="18.00" fill="#18abcc"> &#45;&#45; </text>
<polygon fill="none" stroke="gray" points="279,-135.5 279,-167.5 322,-167.5 322,-135.5 279,-135.5"/>
<text text-anchor="start" x="289.5" y="-147.1" font-family="Times New Roman,serif" font-size="18.00" fill="#18abcc"> &#45;&#45; </text>
<polygon fill="none" stroke="gray" points="327,-135.5 327,-167.5 365,-167.5 365,-135.5 327,-135.5"/>
<text text-anchor="start" x="334.5" y="-147.1" font-family="Times New Roman,serif" font-size="18.00" fill="#18abcc"> S4</text>
<polygon fill="none" stroke="gray" points="370,-135.5 370,-167.5 405,-167.5 405,-135.5 370,-135.5"/>
<text text-anchor="start" x="376.5" y="-147.1" font-family="Times New Roman,serif" font-size="18.00" fill="#18abcc"> &#45;&#45; </text>
<polygon fill="none" stroke="gray" points="410,-135.5 410,-167.5 447,-167.5 447,-135.5 410,-135.5"/>
<text text-anchor="start" x="417.5" y="-147.1" font-family="Times New Roman,serif" font-size="18.00" fill="#18abcc"> &#45;&#45; </text>
<polygon fill="none" stroke="gray" points="452,-135.5 452,-167.5 497,-167.5 497,-135.5 452,-135.5"/>
<text text-anchor="start" x="463.5" y="-147.1" font-family="Times New Roman,serif" font-size="18.00" fill="#18abcc"> &#45;&#45; </text>
<polygon fill="none" stroke="gray" points="502,-135.5 502,-167.5 555,-167.5 555,-135.5 502,-135.5"/>
<text text-anchor="start" x="517.5" y="-147.1" font-family="Times New Roman,serif" font-size="18.00" fill="#18abcc"> &#45;&#45; </text>
<polygon fill="none" stroke="gray" points="560,-135.5 560,-167.5 595,-167.5 595,-135.5 560,-135.5"/>
<text text-anchor="start" x="566.5" y="-147.1" font-family="Times New Roman,serif" font-size="18.00" fill="#18abcc"> &#45;&#45; </text>
<polygon fill="none" stroke="gray" points="30,-98.5 30,-130.5 184,-130.5 184,-98.5 30,-98.5"/>
<text text-anchor="start" x="97.5" y="-110.1" font-family="Times New Roman,serif" font-size="18.00" fill="#18cc84">S4</text>
<polygon fill="none" stroke="gray" points="189,-98.5 189,-130.5 229,-130.5 229,-98.5 189,-98.5"/>
<text text-anchor="start" x="198" y="-110.1" font-family="Times New Roman,serif" font-size="18.00" fill="#18abcc"> &#45;&#45; </text>
<polygon fill="none" stroke="gray" points="234,-98.5 234,-130.5 274,-130.5 274,-98.5 234,-98.5"/>
<text text-anchor="start" x="243" y="-110.1" font-family="Times New Roman,serif" font-size="18.00" fill="#18abcc"> &#45;&#45; </text>
<polygon fill="none" stroke="gray" points="279,-98.5 279,-130.5 322,-130.5 322,-98.5 279,-98.5"/>
<text text-anchor="start" x="289.5" y="-110.1" font-family="Times New Roman,serif" font-size="18.00" fill="#18abcc"> &#45;&#45; </text>
<polygon fill="none" stroke="gray" points="327,-98.5 327,-130.5 365,-130.5 365,-98.5 327,-98.5"/>
<text text-anchor="start" x="335" y="-110.1" font-family="Times New Roman,serif" font-size="18.00" fill="#18abcc"> &#45;&#45; </text>
<polygon fill="none" stroke="gray" points="370,-98.5 370,-130.5 405,-130.5 405,-98.5 370,-98.5"/>
<text text-anchor="start" x="376" y="-110.1" font-family="Times New Roman,serif" font-size="18.00" fill="#18abcc"> S5</text>
<polygon fill="none" stroke="gray" points="410,-98.5 410,-130.5 447,-130.5 447,-98.5 410,-98.5"/>
<text text-anchor="start" x="417.5" y="-110.1" font-family="Times New Roman,serif" font-size="18.00" fill="#18abcc"> &#45;&#45; </text>
<polygon fill="none" stroke="gray" points="452,-98.5 452,-130.5 497,-130.5 497,-98.5 452,-98.5"/>
<text text-anchor="start" x="463.5" y="-110.1" font-family="Times New Roman,serif" font-size="18.00" fill="#18abcc"> &#45;&#45; </text>
<polygon fill="none" stroke="gray" points="502,-98.5 502,-130.5 555,-130.5 555,-98.5 502,-98.5"/>
<text text-anchor="start" x="517.5" y="-110.1" font-family="Times New Roman,serif" font-size="18.00" fill="#18abcc"> &#45;&#45; </text>
<polygon fill="none" stroke="gray" points="560,-98.5 560,-130.5 595,-130.5 595,-98.5 560,-98.5"/>
<text text-anchor="start" x="566.5" y="-110.1" font-family="Times New Roman,serif" font-size="18.00" fill="#18abcc"> &#45;&#45; </text>
<polygon fill="none" stroke="gray" points="30,-61.5 30,-93.5 184,-93.5 184,-61.5 30,-61.5"/>
<text text-anchor="start" x="97.5" y="-73.1" font-family="Times New Roman,serif" font-size="18.00" fill="#18cc84">S5</text>
<polygon fill="none" stroke="gray" points="189,-61.5 189,-93.5 229,-93.5 229,-61.5 189,-61.5"/>
<text text-anchor="start" x="198" y="-73.1" font-family="Times New Roman,serif" font-size="18.00" fill="#18abcc"> &#45;&#45; </text>
<polygon fill="none" stroke="gray" points="234,-61.5 234,-93.5 274,-93.5 274,-61.5 234,-61.5"/>
<text text-anchor="start" x="243" y="-73.1" font-family="Times New Roman,serif" font-size="18.00" fill="#18abcc"> &#45;&#45; </text>
<polygon fill="none" stroke="gray" points="279,-61.5 279,-93.5 322,-93.5 322,-61.5 279,-61.5"/>
<text text-anchor="start" x="289.5" y="-73.1" font-family="Times New Roman,serif" font-size="18.00" fill="#18abcc"> &#45;&#45; </text>
<polygon fill="none" stroke="gray" points="327,-61.5 327,-93.5 365,-93.5 365,-61.5 327,-61.5"/>
<text text-anchor="start" x="335" y="-73.1" font-family="Times New Roman,serif" font-size="18.00" fill="#18abcc"> &#45;&#45; </text>
<polygon fill="none" stroke="gray" points="370,-61.5 370,-93.5 405,-93.5 405,-61.5 370,-61.5"/>
<text text-anchor="start" x="376.5" y="-73.1" font-family="Times New Roman,serif" font-size="18.00" fill="#18abcc"> &#45;&#45; </text>
<polygon fill="none" stroke="gray" points="410,-61.5 410,-93.5 447,-93.5 447,-61.5 410,-61.5"/>
<text text-anchor="start" x="417" y="-73.1" font-family="Times New Roman,serif" font-size="18.00" fill="#18abcc"> S6</text>
<polygon fill="none" stroke="gray" points="452,-61.5 452,-93.5 497,-93.5 497,-61.5 452,-61.5"/>
<text text-anchor="start" x="463.5" y="-73.1" font-family="Times New Roman,serif" font-size="18.00" fill="#18abcc"> &#45;&#45; </text>
<polygon fill="none" stroke="gray" points="502,-61.5 502,-93.5 555,-93.5 555,-61.5 502,-61.5"/>
<text text-anchor="start" x="517.5" y="-73.1" font-family="Times New Roman,serif" font-size="18.00" fill="#18abcc"> &#45;&#45; </text>
<polygon fill="none" stroke="gray" points="560,-61.5 560,-93.5 595,-93.5 595,-61.5 560,-61.5"/>
<text text-anchor="start" x="566.5" y="-73.1" font-family="Times New Roman,serif" font-size="18.00" fill="#18abcc"> &#45;&#45; </text>
<polygon fill="none" stroke="gray" points="30,-24.5 30,-56.5 184,-56.5 184,-24.5 30,-24.5"/>
<text text-anchor="start" x="88.5" y="-36.1" font-family="Times New Roman,serif" font-size="18.00" fill="#18cc84">$ &#160;S6</text>
<polygon fill="none" stroke="gray" points="189,-24.5 189,-56.5 229,-56.5 229,-24.5 189,-24.5"/>
<text text-anchor="start" x="198" y="-36.1" font-family="Times New Roman,serif" font-size="18.00" fill="#18abcc"> &#45;&#45; </text>
<polygon fill="none" stroke="gray" points="234,-24.5 234,-56.5 274,-56.5 274,-24.5 234,-24.5"/>
<text text-anchor="start" x="243" y="-36.1" font-family="Times New Roman,serif" font-size="18.00" fill="#18abcc"> &#45;&#45; </text>
<polygon fill="none" stroke="gray" points="279,-24.5 279,-56.5 322,-56.5 322,-24.5 279,-24.5"/>
<text text-anchor="start" x="289.5" y="-36.1" font-family="Times New Roman,serif" font-size="18.00" fill="#18abcc"> &#45;&#45; </text>
<polygon fill="none" stroke="gray" points="327,-24.5 327,-56.5 365,-56.5 365,-24.5 327,-24.5"/>
<text text-anchor="start" x="335" y="-36.1" font-family="Times New Roman,serif" font-size="18.00" fill="#18abcc"> &#45;&#45; </text>
<polygon fill="none" stroke="gray" points="370,-24.5 370,-56.5 405,-56.5 405,-24.5 370,-24.5"/>
<text text-anchor="start" x="376.5" y="-36.1" font-family="Times New Roman,serif" font-size="18.00" fill="#18abcc"> &#45;&#45; </text>
<polygon fill="none" stroke="gray" points="410,-24.5 410,-56.5 447,-56.5 447,-24.5 410,-24.5"/>
<text text-anchor="start" x="417.5" y="-36.1" font-family="Times New Roman,serif" font-size="18.00" fill="#18abcc"> &#45;&#45; </text>
<polygon fill="none" stroke="gray" points="452,-24.5 452,-56.5 497,-56.5 497,-24.5 452,-24.5"/>
<text text-anchor="start" x="463" y="-36.1" font-family="Times New Roman,serif" font-size="18.00" fill="#18abcc"> S6</text>
<polygon fill="none" stroke="gray" points="502,-24.5 502,-56.5 555,-56.5 555,-24.5 502,-24.5"/>
<text text-anchor="start" x="517" y="-36.1" font-family="Times New Roman,serif" font-size="18.00" fill="#18abcc"> S6</text>
<polygon fill="none" stroke="gray" points="560,-24.5 560,-56.5 595,-56.5 595,-24.5 560,-24.5"/>
<text text-anchor="start" x="566" y="-36.1" font-family="Times New Roman,serif" font-size="18.00" fill="#18abcc"> S6</text>
</g>
</g>
</svg>
