<?xml version="1.0" encoding="UTF-8" standalone="no"?>
<!DOCTYPE svg PUBLIC "-//W3C//DTD SVG 1.1//EN"
 "http://www.w3.org/Graphics/SVG/1.1/DTD/svg11.dtd">
<!-- Generated by graphviz version 7.1.0 (20230121.1956)
 -->
<!-- Title: G Pages: 1 -->
<svg width="462pt" height="187pt"
 viewBox="0.00 0.00 462.00 187.00" xmlns="http://www.w3.org/2000/svg" xmlns:xlink="http://www.w3.org/1999/xlink">
<g id="graph0" class="graph" transform="scale(1 1) rotate(0) translate(4 183)">
<title>G</title>
<polygon fill="white" stroke="none" points="-4,4 -4,-183 458,-183 458,4 -4,4"/>
<g id="clust1" class="cluster">
<title>cluster1</title>
<polygon fill="none" stroke="white" points="8,-8 8,-171 446,-171 446,-8 8,-8"/>
<text text-anchor="middle" x="227" y="-155.8" font-family="Times New Roman,serif" font-size="14.00">Tabla Transiciones (identificador)</text>
</g>
<!-- a0 -->
<g id="node1" class="node">
<title>a0</title>
<polygon fill="none" stroke="gray" points="437.5,-140 16.5,-140 16.5,-16 437.5,-16 437.5,-140"/>
<polygon fill="none" stroke="gray" points="30,-99 30,-131 184,-131 184,-99 30,-99"/>
<text text-anchor="start" x="36" y="-110.6" font-family="Times New Roman,serif" font-size="18.00" fill="#ff7b00">Estados\Terminales</text>
<polygon fill="none" stroke="gray" points="189,-99 189,-131 325,-131 325,-99 189,-99"/>
<text text-anchor="start" x="195" y="-110.6" font-family="Times New Roman,serif" font-size="18.00" fill="#18cc84">abecedarioMinus</text>
<polygon fill="none" stroke="gray" points="330,-99 330,-131 367,-131 367,-99 330,-99"/>
<text text-anchor="start" x="336" y="-110.6" font-family="Times New Roman,serif" font-size="18.00" fill="#18cc84">&quot;_&quot;</text>
<polygon fill="none" stroke="gray" points="372,-99 372,-131 425,-131 425,-99 372,-99"/>
<text text-anchor="start" x="378" y="-110.6" font-family="Times New Roman,serif" font-size="18.00" fill="#18cc84">digito</text>
<polygon fill="none" stroke="gray" points="30,-62 30,-94 184,-94 184,-62 30,-62"/>
<text text-anchor="start" x="91" y="-73.6" font-family="Times New Roman,serif" font-size="18.00" fill="#18cc84">0 S0</text>
<polygon fill="none" stroke="gray" points="189,-62 189,-94 325,-94 325,-62 189,-62"/>
<text text-anchor="start" x="245.5" y="-73.6" font-family="Times New Roman,serif" font-size="18.00" fill="#18abcc"> S1</text>
<polygon fill="none" stroke="gray" points="330,-62 330,-94 367,-94 367,-62 330,-62"/>
<text text-anchor="start" x="337.5" y="-73.6" font-family="Times New Roman,serif" font-size="18.00" fill="#18abcc"> &#45;&#45; </text>
<polygon fill="none" stroke="gray" points="372,-62 372,-94 425,-94 425,-62 372,-62"/>
<text text-anchor="start" x="387.5" y="-73.6" font-family="Times New Roman,serif" font-size="18.00" fill="#18abcc"> &#45;&#45; </text>
<polygon fill="none" stroke="gray" points="30,-25 30,-57 184,-57 184,-25 30,-25"/>
<text text-anchor="start" x="88.5" y="-36.6" font-family="Times New Roman,serif" font-size="18.00" fill="#18cc84">$ &#160;S1</text>
<polygon fill="none" stroke="gray" points="189,-25 189,-57 325,-57 325,-25 189,-25"/>
<text text-anchor="start" x="245.5" y="-36.6" font-family="Times New Roman,serif" font-size="18.00" fill="#18abcc"> S1</text>
<polygon fill="none" stroke="gray" points="330,-25 330,-57 367,-57 367,-25 330,-25"/>
<text text-anchor="start" x="337" y="-36.6" font-family="Times New Roman,serif" font-size="18.00" fill="#18abcc"> S1</text>
<polygon fill="none" stroke="gray" points="372,-25 372,-57 425,-57 425,-25 372,-25"/>
<text text-anchor="start" x="387" y="-36.6" font-family="Times New Roman,serif" font-size="18.00" fill="#18abcc"> S1</text>
</g>
</g>
</svg>
