<?xml version="1.0" encoding="UTF-8" standalone="no"?>
<!DOCTYPE svg PUBLIC "-//W3C//DTD SVG 1.1//EN"
 "http://www.w3.org/Graphics/SVG/1.1/DTD/svg11.dtd">
<!-- Generated by graphviz version 7.1.0 (20230121.1956)
 -->
<!-- Title: G Pages: 1 -->
<svg width="604pt" height="557pt"
 viewBox="0.00 0.00 604.00 557.00" xmlns="http://www.w3.org/2000/svg" xmlns:xlink="http://www.w3.org/1999/xlink">
<g id="graph0" class="graph" transform="scale(1 1) rotate(0) translate(4 553)">
<title>G</title>
<polygon fill="white" stroke="none" points="-4,4 -4,-553 600,-553 600,4 -4,4"/>
<g id="clust1" class="cluster">
<title>cluster1</title>
<polygon fill="none" stroke="white" points="8,-8 8,-541 588,-541 588,-8 8,-8"/>
<text text-anchor="middle" x="298" y="-525.8" font-family="Times New Roman,serif" font-size="14.00">Tabla Transiciones (url)</text>
</g>
<!-- a0 -->
<g id="node1" class="node">
<title>a0</title>
<polygon fill="none" stroke="gray" points="579.5,-510 16.5,-510 16.5,-16 579.5,-16 579.5,-510"/>
<polygon fill="none" stroke="gray" points="30,-469 30,-501 184,-501 184,-469 30,-469"/>
<text text-anchor="start" x="36" y="-480.6" font-family="Times New Roman,serif" font-size="18.00" fill="#ff7b00">Estados\Terminales</text>
<polygon fill="none" stroke="gray" points="189,-469 189,-501 226,-501 226,-469 189,-469"/>
<text text-anchor="start" x="195" y="-480.6" font-family="Times New Roman,serif" font-size="18.00" fill="#18cc84">&quot;h&quot;</text>
<polygon fill="none" stroke="gray" points="231,-469 231,-501 266,-501 266,-469 231,-469"/>
<text text-anchor="start" x="238" y="-480.6" font-family="Times New Roman,serif" font-size="18.00" fill="#18cc84">&quot;t&quot;</text>
<polygon fill="none" stroke="gray" points="271,-469 271,-501 308,-501 308,-469 271,-469"/>
<text text-anchor="start" x="277" y="-480.6" font-family="Times New Roman,serif" font-size="18.00" fill="#18cc84">&quot;p&quot;</text>
<polygon fill="none" stroke="gray" points="313,-469 313,-501 348,-501 348,-469 313,-469"/>
<text text-anchor="start" x="319.5" y="-480.6" font-family="Times New Roman,serif" font-size="18.00" fill="#18cc84">&quot;s&quot;</text>
<polygon fill="none" stroke="gray" points="353,-469 353,-501 388,-501 388,-469 353,-469"/>
<text text-anchor="start" x="360.5" y="-480.6" font-family="Times New Roman,serif" font-size="18.00" fill="#18cc84">&quot;:&quot;</text>
<polygon fill="none" stroke="gray" points="393,-469 393,-501 428,-501 428,-469 393,-469"/>
<text text-anchor="start" x="400" y="-480.6" font-family="Times New Roman,serif" font-size="18.00" fill="#18cc84">&quot;/&quot;</text>
<polygon fill="none" stroke="gray" points="433,-469 433,-501 518,-501 518,-469 433,-469"/>
<text text-anchor="start" x="439" y="-480.6" font-family="Times New Roman,serif" font-size="18.00" fill="#18cc84">minuscula</text>
<polygon fill="none" stroke="gray" points="523,-469 523,-501 567,-501 567,-469 523,-469"/>
<text text-anchor="start" x="535" y="-480.6" font-family="Times New Roman,serif" font-size="18.00" fill="#18cc84">&quot;.&quot;</text>
<polygon fill="none" stroke="gray" points="30,-432 30,-464 184,-464 184,-432 30,-432"/>
<text text-anchor="start" x="91" y="-443.6" font-family="Times New Roman,serif" font-size="18.00" fill="#18cc84">0 S0</text>
<polygon fill="none" stroke="gray" points="189,-432 189,-464 226,-464 226,-432 189,-432"/>
<text text-anchor="start" x="196" y="-443.6" font-family="Times New Roman,serif" font-size="18.00" fill="#18abcc"> S1</text>
<polygon fill="none" stroke="gray" points="231,-432 231,-464 266,-464 266,-432 231,-432"/>
<text text-anchor="start" x="237.5" y="-443.6" font-family="Times New Roman,serif" font-size="18.00" fill="#18abcc"> &#45;&#45; </text>
<polygon fill="none" stroke="gray" points="271,-432 271,-464 308,-464 308,-432 271,-432"/>
<text text-anchor="start" x="278.5" y="-443.6" font-family="Times New Roman,serif" font-size="18.00" fill="#18abcc"> &#45;&#45; </text>
<polygon fill="none" stroke="gray" points="313,-432 313,-464 348,-464 348,-432 313,-432"/>
<text text-anchor="start" x="319.5" y="-443.6" font-family="Times New Roman,serif" font-size="18.00" fill="#18abcc"> &#45;&#45; </text>
<polygon fill="none" stroke="gray" points="353,-432 353,-464 388,-464 388,-432 353,-432"/>
<text text-anchor="start" x="359.5" y="-443.6" font-family="Times New Roman,serif" font-size="18.00" fill="#18abcc"> &#45;&#45; </text>
<polygon fill="none" stroke="gray" points="393,-432 393,-464 428,-464 428,-432 393,-432"/>
<text text-anchor="start" x="399.5" y="-443.6" font-family="Times New Roman,serif" font-size="18.00" fill="#18abcc"> &#45;&#45; </text>
<polygon fill="none" stroke="gray" points="433,-432 433,-464 518,-464 518,-432 433,-432"/>
<text text-anchor="start" x="464.5" y="-443.6" font-family="Times New Roman,serif" font-size="18.00" fill="#18abcc"> &#45;&#45; </text>
<polygon fill="none" stroke="gray" points="523,-432 523,-464 567,-464 567,-432 523,-432"/>
<text text-anchor="start" x="534" y="-443.6" font-family="Times New Roman,serif" font-size="18.00" fill="#18abcc"> &#45;&#45; </text>
<polygon fill="none" stroke="gray" points="30,-395 30,-427 184,-427 184,-395 30,-395"/>
<text text-anchor="start" x="97.5" y="-406.6" font-family="Times New Roman,serif" font-size="18.00" fill="#18cc84">S1</text>
<polygon fill="none" stroke="gray" points="189,-395 189,-427 226,-427 226,-395 189,-395"/>
<text text-anchor="start" x="196.5" y="-406.6" font-family="Times New Roman,serif" font-size="18.00" fill="#18abcc"> &#45;&#45; </text>
<polygon fill="none" stroke="gray" points="231,-395 231,-427 266,-427 266,-395 231,-395"/>
<text text-anchor="start" x="237" y="-406.6" font-family="Times New Roman,serif" font-size="18.00" fill="#18abcc"> S2</text>
<polygon fill="none" stroke="gray" points="271,-395 271,-427 308,-427 308,-395 271,-395"/>
<text text-anchor="start" x="278.5" y="-406.6" font-family="Times New Roman,serif" font-size="18.00" fill="#18abcc"> &#45;&#45; </text>
<polygon fill="none" stroke="gray" points="313,-395 313,-427 348,-427 348,-395 313,-395"/>
<text text-anchor="start" x="319.5" y="-406.6" font-family="Times New Roman,serif" font-size="18.00" fill="#18abcc"> &#45;&#45; </text>
<polygon fill="none" stroke="gray" points="353,-395 353,-427 388,-427 388,-395 353,-395"/>
<text text-anchor="start" x="359.5" y="-406.6" font-family="Times New Roman,serif" font-size="18.00" fill="#18abcc"> &#45;&#45; </text>
<polygon fill="none" stroke="gray" points="393,-395 393,-427 428,-427 428,-395 393,-395"/>
<text text-anchor="start" x="399.5" y="-406.6" font-family="Times New Roman,serif" font-size="18.00" fill="#18abcc"> &#45;&#45; </text>
<polygon fill="none" stroke="gray" points="433,-395 433,-427 518,-427 518,-395 433,-395"/>
<text text-anchor="start" x="464.5" y="-406.6" font-family="Times New Roman,serif" font-size="18.00" fill="#18abcc"> &#45;&#45; </text>
<polygon fill="none" stroke="gray" points="523,-395 523,-427 567,-427 567,-395 523,-395"/>
<text text-anchor="start" x="534" y="-406.6" font-family="Times New Roman,serif" font-size="18.00" fill="#18abcc"> &#45;&#45; </text>
<polygon fill="none" stroke="gray" points="30,-358 30,-390 184,-390 184,-358 30,-358"/>
<text text-anchor="start" x="97.5" y="-369.6" font-family="Times New Roman,serif" font-size="18.00" fill="#18cc84">S2</text>
<polygon fill="none" stroke="gray" points="189,-358 189,-390 226,-390 226,-358 189,-358"/>
<text text-anchor="start" x="196.5" y="-369.6" font-family="Times New Roman,serif" font-size="18.00" fill="#18abcc"> &#45;&#45; </text>
<polygon fill="none" stroke="gray" points="231,-358 231,-390 266,-390 266,-358 231,-358"/>
<text text-anchor="start" x="237" y="-369.6" font-family="Times New Roman,serif" font-size="18.00" fill="#18abcc"> S3</text>
<polygon fill="none" stroke="gray" points="271,-358 271,-390 308,-390 308,-358 271,-358"/>
<text text-anchor="start" x="278.5" y="-369.6" font-family="Times New Roman,serif" font-size="18.00" fill="#18abcc"> &#45;&#45; </text>
<polygon fill="none" stroke="gray" points="313,-358 313,-390 348,-390 348,-358 313,-358"/>
<text text-anchor="start" x="319.5" y="-369.6" font-family="Times New Roman,serif" font-size="18.00" fill="#18abcc"> &#45;&#45; </text>
<polygon fill="none" stroke="gray" points="353,-358 353,-390 388,-390 388,-358 353,-358"/>
<text text-anchor="start" x="359.5" y="-369.6" font-family="Times New Roman,serif" font-size="18.00" fill="#18abcc"> &#45;&#45; </text>
<polygon fill="none" stroke="gray" points="393,-358 393,-390 428,-390 428,-358 393,-358"/>
<text text-anchor="start" x="399.5" y="-369.6" font-family="Times New Roman,serif" font-size="18.00" fill="#18abcc"> &#45;&#45; </text>
<polygon fill="none" stroke="gray" points="433,-358 433,-390 518,-390 518,-358 433,-358"/>
<text text-anchor="start" x="464.5" y="-369.6" font-family="Times New Roman,serif" font-size="18.00" fill="#18abcc"> &#45;&#45; </text>
<polygon fill="none" stroke="gray" points="523,-358 523,-390 567,-390 567,-358 523,-358"/>
<text text-anchor="start" x="534" y="-369.6" font-family="Times New Roman,serif" font-size="18.00" fill="#18abcc"> &#45;&#45; </text>
<polygon fill="none" stroke="gray" points="30,-321 30,-353 184,-353 184,-321 30,-321"/>
<text text-anchor="start" x="97.5" y="-332.6" font-family="Times New Roman,serif" font-size="18.00" fill="#18cc84">S3</text>
<polygon fill="none" stroke="gray" points="189,-321 189,-353 226,-353 226,-321 189,-321"/>
<text text-anchor="start" x="196.5" y="-332.6" font-family="Times New Roman,serif" font-size="18.00" fill="#18abcc"> &#45;&#45; </text>
<polygon fill="none" stroke="gray" points="231,-321 231,-353 266,-353 266,-321 231,-321"/>
<text text-anchor="start" x="237.5" y="-332.6" font-family="Times New Roman,serif" font-size="18.00" fill="#18abcc"> &#45;&#45; </text>
<polygon fill="none" stroke="gray" points="271,-321 271,-353 308,-353 308,-321 271,-321"/>
<text text-anchor="start" x="278" y="-332.6" font-family="Times New Roman,serif" font-size="18.00" fill="#18abcc"> S4</text>
<polygon fill="none" stroke="gray" points="313,-321 313,-353 348,-353 348,-321 313,-321"/>
<text text-anchor="start" x="319.5" y="-332.6" font-family="Times New Roman,serif" font-size="18.00" fill="#18abcc"> &#45;&#45; </text>
<polygon fill="none" stroke="gray" points="353,-321 353,-353 388,-353 388,-321 353,-321"/>
<text text-anchor="start" x="359.5" y="-332.6" font-family="Times New Roman,serif" font-size="18.00" fill="#18abcc"> &#45;&#45; </text>
<polygon fill="none" stroke="gray" points="393,-321 393,-353 428,-353 428,-321 393,-321"/>
<text text-anchor="start" x="399.5" y="-332.6" font-family="Times New Roman,serif" font-size="18.00" fill="#18abcc"> &#45;&#45; </text>
<polygon fill="none" stroke="gray" points="433,-321 433,-353 518,-353 518,-321 433,-321"/>
<text text-anchor="start" x="464.5" y="-332.6" font-family="Times New Roman,serif" font-size="18.00" fill="#18abcc"> &#45;&#45; </text>
<polygon fill="none" stroke="gray" points="523,-321 523,-353 567,-353 567,-321 523,-321"/>
<text text-anchor="start" x="534" y="-332.6" font-family="Times New Roman,serif" font-size="18.00" fill="#18abcc"> &#45;&#45; </text>
<polygon fill="none" stroke="gray" points="30,-284 30,-316 184,-316 184,-284 30,-284"/>
<text text-anchor="start" x="97.5" y="-295.6" font-family="Times New Roman,serif" font-size="18.00" fill="#18cc84">S4</text>
<polygon fill="none" stroke="gray" points="189,-284 189,-316 226,-316 226,-284 189,-284"/>
<text text-anchor="start" x="196.5" y="-295.6" font-family="Times New Roman,serif" font-size="18.00" fill="#18abcc"> &#45;&#45; </text>
<polygon fill="none" stroke="gray" points="231,-284 231,-316 266,-316 266,-284 231,-284"/>
<text text-anchor="start" x="237.5" y="-295.6" font-family="Times New Roman,serif" font-size="18.00" fill="#18abcc"> &#45;&#45; </text>
<polygon fill="none" stroke="gray" points="271,-284 271,-316 308,-316 308,-284 271,-284"/>
<text text-anchor="start" x="278.5" y="-295.6" font-family="Times New Roman,serif" font-size="18.00" fill="#18abcc"> &#45;&#45; </text>
<polygon fill="none" stroke="gray" points="313,-284 313,-316 348,-316 348,-284 313,-284"/>
<text text-anchor="start" x="319" y="-295.6" font-family="Times New Roman,serif" font-size="18.00" fill="#18abcc"> S5</text>
<polygon fill="none" stroke="gray" points="353,-284 353,-316 388,-316 388,-284 353,-284"/>
<text text-anchor="start" x="359" y="-295.6" font-family="Times New Roman,serif" font-size="18.00" fill="#18abcc"> S6</text>
<polygon fill="none" stroke="gray" points="393,-284 393,-316 428,-316 428,-284 393,-284"/>
<text text-anchor="start" x="399.5" y="-295.6" font-family="Times New Roman,serif" font-size="18.00" fill="#18abcc"> &#45;&#45; </text>
<polygon fill="none" stroke="gray" points="433,-284 433,-316 518,-316 518,-284 433,-284"/>
<text text-anchor="start" x="464.5" y="-295.6" font-family="Times New Roman,serif" font-size="18.00" fill="#18abcc"> &#45;&#45; </text>
<polygon fill="none" stroke="gray" points="523,-284 523,-316 567,-316 567,-284 523,-284"/>
<text text-anchor="start" x="534" y="-295.6" font-family="Times New Roman,serif" font-size="18.00" fill="#18abcc"> &#45;&#45; </text>
<polygon fill="none" stroke="gray" points="30,-247 30,-279 184,-279 184,-247 30,-247"/>
<text text-anchor="start" x="97.5" y="-258.6" font-family="Times New Roman,serif" font-size="18.00" fill="#18cc84">S5</text>
<polygon fill="none" stroke="gray" points="189,-247 189,-279 226,-279 226,-247 189,-247"/>
<text text-anchor="start" x="196.5" y="-258.6" font-family="Times New Roman,serif" font-size="18.00" fill="#18abcc"> &#45;&#45; </text>
<polygon fill="none" stroke="gray" points="231,-247 231,-279 266,-279 266,-247 231,-247"/>
<text text-anchor="start" x="237.5" y="-258.6" font-family="Times New Roman,serif" font-size="18.00" fill="#18abcc"> &#45;&#45; </text>
<polygon fill="none" stroke="gray" points="271,-247 271,-279 308,-279 308,-247 271,-247"/>
<text text-anchor="start" x="278.5" y="-258.6" font-family="Times New Roman,serif" font-size="18.00" fill="#18abcc"> &#45;&#45; </text>
<polygon fill="none" stroke="gray" points="313,-247 313,-279 348,-279 348,-247 313,-247"/>
<text text-anchor="start" x="319.5" y="-258.6" font-family="Times New Roman,serif" font-size="18.00" fill="#18abcc"> &#45;&#45; </text>
<polygon fill="none" stroke="gray" points="353,-247 353,-279 388,-279 388,-247 353,-247"/>
<text text-anchor="start" x="359" y="-258.6" font-family="Times New Roman,serif" font-size="18.00" fill="#18abcc"> S6</text>
<polygon fill="none" stroke="gray" points="393,-247 393,-279 428,-279 428,-247 393,-247"/>
<text text-anchor="start" x="399.5" y="-258.6" font-family="Times New Roman,serif" font-size="18.00" fill="#18abcc"> &#45;&#45; </text>
<polygon fill="none" stroke="gray" points="433,-247 433,-279 518,-279 518,-247 433,-247"/>
<text text-anchor="start" x="464.5" y="-258.6" font-family="Times New Roman,serif" font-size="18.00" fill="#18abcc"> &#45;&#45; </text>
<polygon fill="none" stroke="gray" points="523,-247 523,-279 567,-279 567,-247 523,-247"/>
<text text-anchor="start" x="534" y="-258.6" font-family="Times New Roman,serif" font-size="18.00" fill="#18abcc"> &#45;&#45; </text>
<polygon fill="none" stroke="gray" points="30,-210 30,-242 184,-242 184,-210 30,-210"/>
<text text-anchor="start" x="97.5" y="-221.6" font-family="Times New Roman,serif" font-size="18.00" fill="#18cc84">S6</text>
<polygon fill="none" stroke="gray" points="189,-210 189,-242 226,-242 226,-210 189,-210"/>
<text text-anchor="start" x="196.5" y="-221.6" font-family="Times New Roman,serif" font-size="18.00" fill="#18abcc"> &#45;&#45; </text>
<polygon fill="none" stroke="gray" points="231,-210 231,-242 266,-242 266,-210 231,-210"/>
<text text-anchor="start" x="237.5" y="-221.6" font-family="Times New Roman,serif" font-size="18.00" fill="#18abcc"> &#45;&#45; </text>
<polygon fill="none" stroke="gray" points="271,-210 271,-242 308,-242 308,-210 271,-210"/>
<text text-anchor="start" x="278.5" y="-221.6" font-family="Times New Roman,serif" font-size="18.00" fill="#18abcc"> &#45;&#45; </text>
<polygon fill="none" stroke="gray" points="313,-210 313,-242 348,-242 348,-210 313,-210"/>
<text text-anchor="start" x="319.5" y="-221.6" font-family="Times New Roman,serif" font-size="18.00" fill="#18abcc"> &#45;&#45; </text>
<polygon fill="none" stroke="gray" points="353,-210 353,-242 388,-242 388,-210 353,-210"/>
<text text-anchor="start" x="359.5" y="-221.6" font-family="Times New Roman,serif" font-size="18.00" fill="#18abcc"> &#45;&#45; </text>
<polygon fill="none" stroke="gray" points="393,-210 393,-242 428,-242 428,-210 393,-210"/>
<text text-anchor="start" x="399" y="-221.6" font-family="Times New Roman,serif" font-size="18.00" fill="#18abcc"> S7</text>
<polygon fill="none" stroke="gray" points="433,-210 433,-242 518,-242 518,-210 433,-210"/>
<text text-anchor="start" x="464.5" y="-221.6" font-family="Times New Roman,serif" font-size="18.00" fill="#18abcc"> &#45;&#45; </text>
<polygon fill="none" stroke="gray" points="523,-210 523,-242 567,-242 567,-210 523,-210"/>
<text text-anchor="start" x="534" y="-221.6" font-family="Times New Roman,serif" font-size="18.00" fill="#18abcc"> &#45;&#45; </text>
<polygon fill="none" stroke="gray" points="30,-173 30,-205 184,-205 184,-173 30,-173"/>
<text text-anchor="start" x="97.5" y="-184.6" font-family="Times New Roman,serif" font-size="18.00" fill="#18cc84">S7</text>
<polygon fill="none" stroke="gray" points="189,-173 189,-205 226,-205 226,-173 189,-173"/>
<text text-anchor="start" x="196.5" y="-184.6" font-family="Times New Roman,serif" font-size="18.00" fill="#18abcc"> &#45;&#45; </text>
<polygon fill="none" stroke="gray" points="231,-173 231,-205 266,-205 266,-173 231,-173"/>
<text text-anchor="start" x="237.5" y="-184.6" font-family="Times New Roman,serif" font-size="18.00" fill="#18abcc"> &#45;&#45; </text>
<polygon fill="none" stroke="gray" points="271,-173 271,-205 308,-205 308,-173 271,-173"/>
<text text-anchor="start" x="278.5" y="-184.6" font-family="Times New Roman,serif" font-size="18.00" fill="#18abcc"> &#45;&#45; </text>
<polygon fill="none" stroke="gray" points="313,-173 313,-205 348,-205 348,-173 313,-173"/>
<text text-anchor="start" x="319.5" y="-184.6" font-family="Times New Roman,serif" font-size="18.00" fill="#18abcc"> &#45;&#45; </text>
<polygon fill="none" stroke="gray" points="353,-173 353,-205 388,-205 388,-173 353,-173"/>
<text text-anchor="start" x="359.5" y="-184.6" font-family="Times New Roman,serif" font-size="18.00" fill="#18abcc"> &#45;&#45; </text>
<polygon fill="none" stroke="gray" points="393,-173 393,-205 428,-205 428,-173 393,-173"/>
<text text-anchor="start" x="399" y="-184.6" font-family="Times New Roman,serif" font-size="18.00" fill="#18abcc"> S8</text>
<polygon fill="none" stroke="gray" points="433,-173 433,-205 518,-205 518,-173 433,-173"/>
<text text-anchor="start" x="464.5" y="-184.6" font-family="Times New Roman,serif" font-size="18.00" fill="#18abcc"> &#45;&#45; </text>
<polygon fill="none" stroke="gray" points="523,-173 523,-205 567,-205 567,-173 523,-173"/>
<text text-anchor="start" x="534" y="-184.6" font-family="Times New Roman,serif" font-size="18.00" fill="#18abcc"> &#45;&#45; </text>
<polygon fill="none" stroke="gray" points="30,-136 30,-168 184,-168 184,-136 30,-136"/>
<text text-anchor="start" x="97.5" y="-147.6" font-family="Times New Roman,serif" font-size="18.00" fill="#18cc84">S8</text>
<polygon fill="none" stroke="gray" points="189,-136 189,-168 226,-168 226,-136 189,-136"/>
<text text-anchor="start" x="196.5" y="-147.6" font-family="Times New Roman,serif" font-size="18.00" fill="#18abcc"> &#45;&#45; </text>
<polygon fill="none" stroke="gray" points="231,-136 231,-168 266,-168 266,-136 231,-136"/>
<text text-anchor="start" x="237.5" y="-147.6" font-family="Times New Roman,serif" font-size="18.00" fill="#18abcc"> &#45;&#45; </text>
<polygon fill="none" stroke="gray" points="271,-136 271,-168 308,-168 308,-136 271,-136"/>
<text text-anchor="start" x="278.5" y="-147.6" font-family="Times New Roman,serif" font-size="18.00" fill="#18abcc"> &#45;&#45; </text>
<polygon fill="none" stroke="gray" points="313,-136 313,-168 348,-168 348,-136 313,-136"/>
<text text-anchor="start" x="319.5" y="-147.6" font-family="Times New Roman,serif" font-size="18.00" fill="#18abcc"> &#45;&#45; </text>
<polygon fill="none" stroke="gray" points="353,-136 353,-168 388,-168 388,-136 353,-136"/>
<text text-anchor="start" x="359.5" y="-147.6" font-family="Times New Roman,serif" font-size="18.00" fill="#18abcc"> &#45;&#45; </text>
<polygon fill="none" stroke="gray" points="393,-136 393,-168 428,-168 428,-136 393,-136"/>
<text text-anchor="start" x="399.5" y="-147.6" font-family="Times New Roman,serif" font-size="18.00" fill="#18abcc"> &#45;&#45; </text>
<polygon fill="none" stroke="gray" points="433,-136 433,-168 518,-168 518,-136 433,-136"/>
<text text-anchor="start" x="464" y="-147.6" font-family="Times New Roman,serif" font-size="18.00" fill="#18abcc"> S9</text>
<polygon fill="none" stroke="gray" points="523,-136 523,-168 567,-168 567,-136 523,-136"/>
<text text-anchor="start" x="534" y="-147.6" font-family="Times New Roman,serif" font-size="18.00" fill="#18abcc"> &#45;&#45; </text>
<polygon fill="none" stroke="gray" points="30,-99 30,-131 184,-131 184,-99 30,-99"/>
<text text-anchor="start" x="97.5" y="-110.6" font-family="Times New Roman,serif" font-size="18.00" fill="#18cc84">S9</text>
<polygon fill="none" stroke="gray" points="189,-99 189,-131 226,-131 226,-99 189,-99"/>
<text text-anchor="start" x="196.5" y="-110.6" font-family="Times New Roman,serif" font-size="18.00" fill="#18abcc"> &#45;&#45; </text>
<polygon fill="none" stroke="gray" points="231,-99 231,-131 266,-131 266,-99 231,-99"/>
<text text-anchor="start" x="237.5" y="-110.6" font-family="Times New Roman,serif" font-size="18.00" fill="#18abcc"> &#45;&#45; </text>
<polygon fill="none" stroke="gray" points="271,-99 271,-131 308,-131 308,-99 271,-99"/>
<text text-anchor="start" x="278.5" y="-110.6" font-family="Times New Roman,serif" font-size="18.00" fill="#18abcc"> &#45;&#45; </text>
<polygon fill="none" stroke="gray" points="313,-99 313,-131 348,-131 348,-99 313,-99"/>
<text text-anchor="start" x="319.5" y="-110.6" font-family="Times New Roman,serif" font-size="18.00" fill="#18abcc"> &#45;&#45; </text>
<polygon fill="none" stroke="gray" points="353,-99 353,-131 388,-131 388,-99 353,-99"/>
<text text-anchor="start" x="359.5" y="-110.6" font-family="Times New Roman,serif" font-size="18.00" fill="#18abcc"> &#45;&#45; </text>
<polygon fill="none" stroke="gray" points="393,-99 393,-131 428,-131 428,-99 393,-99"/>
<text text-anchor="start" x="399.5" y="-110.6" font-family="Times New Roman,serif" font-size="18.00" fill="#18abcc"> &#45;&#45; </text>
<polygon fill="none" stroke="gray" points="433,-99 433,-131 518,-131 518,-99 433,-99"/>
<text text-anchor="start" x="464" y="-110.6" font-family="Times New Roman,serif" font-size="18.00" fill="#18abcc"> S9</text>
<polygon fill="none" stroke="gray" points="523,-99 523,-131 567,-131 567,-99 523,-99"/>
<text text-anchor="start" x="529" y="-110.6" font-family="Times New Roman,serif" font-size="18.00" fill="#18abcc"> S10</text>
<polygon fill="none" stroke="gray" points="30,-62 30,-94 184,-94 184,-62 30,-62"/>
<text text-anchor="start" x="93" y="-73.6" font-family="Times New Roman,serif" font-size="18.00" fill="#18cc84">S10</text>
<polygon fill="none" stroke="gray" points="189,-62 189,-94 226,-94 226,-62 189,-62"/>
<text text-anchor="start" x="196.5" y="-73.6" font-family="Times New Roman,serif" font-size="18.00" fill="#18abcc"> &#45;&#45; </text>
<polygon fill="none" stroke="gray" points="231,-62 231,-94 266,-94 266,-62 231,-62"/>
<text text-anchor="start" x="237.5" y="-73.6" font-family="Times New Roman,serif" font-size="18.00" fill="#18abcc"> &#45;&#45; </text>
<polygon fill="none" stroke="gray" points="271,-62 271,-94 308,-94 308,-62 271,-62"/>
<text text-anchor="start" x="278.5" y="-73.6" font-family="Times New Roman,serif" font-size="18.00" fill="#18abcc"> &#45;&#45; </text>
<polygon fill="none" stroke="gray" points="313,-62 313,-94 348,-94 348,-62 313,-62"/>
<text text-anchor="start" x="319.5" y="-73.6" font-family="Times New Roman,serif" font-size="18.00" fill="#18abcc"> &#45;&#45; </text>
<polygon fill="none" stroke="gray" points="353,-62 353,-94 388,-94 388,-62 353,-62"/>
<text text-anchor="start" x="359.5" y="-73.6" font-family="Times New Roman,serif" font-size="18.00" fill="#18abcc"> &#45;&#45; </text>
<polygon fill="none" stroke="gray" points="393,-62 393,-94 428,-94 428,-62 393,-62"/>
<text text-anchor="start" x="399.5" y="-73.6" font-family="Times New Roman,serif" font-size="18.00" fill="#18abcc"> &#45;&#45; </text>
<polygon fill="none" stroke="gray" points="433,-62 433,-94 518,-94 518,-62 433,-62"/>
<text text-anchor="start" x="459.5" y="-73.6" font-family="Times New Roman,serif" font-size="18.00" fill="#18abcc"> S11</text>
<polygon fill="none" stroke="gray" points="523,-62 523,-94 567,-94 567,-62 523,-62"/>
<text text-anchor="start" x="534" y="-73.6" font-family="Times New Roman,serif" font-size="18.00" fill="#18abcc"> &#45;&#45; </text>
<polygon fill="none" stroke="gray" points="30,-25 30,-57 184,-57 184,-25 30,-25"/>
<text text-anchor="start" x="84" y="-36.6" font-family="Times New Roman,serif" font-size="18.00" fill="#18cc84">$ &#160;S11</text>
<polygon fill="none" stroke="gray" points="189,-25 189,-57 226,-57 226,-25 189,-25"/>
<text text-anchor="start" x="196.5" y="-36.6" font-family="Times New Roman,serif" font-size="18.00" fill="#18abcc"> &#45;&#45; </text>
<polygon fill="none" stroke="gray" points="231,-25 231,-57 266,-57 266,-25 231,-25"/>
<text text-anchor="start" x="237.5" y="-36.6" font-family="Times New Roman,serif" font-size="18.00" fill="#18abcc"> &#45;&#45; </text>
<polygon fill="none" stroke="gray" points="271,-25 271,-57 308,-57 308,-25 271,-25"/>
<text text-anchor="start" x="278.5" y="-36.6" font-family="Times New Roman,serif" font-size="18.00" fill="#18abcc"> &#45;&#45; </text>
<polygon fill="none" stroke="gray" points="313,-25 313,-57 348,-57 348,-25 313,-25"/>
<text text-anchor="start" x="319.5" y="-36.6" font-family="Times New Roman,serif" font-size="18.00" fill="#18abcc"> &#45;&#45; </text>
<polygon fill="none" stroke="gray" points="353,-25 353,-57 388,-57 388,-25 353,-25"/>
<text text-anchor="start" x="359.5" y="-36.6" font-family="Times New Roman,serif" font-size="18.00" fill="#18abcc"> &#45;&#45; </text>
<polygon fill="none" stroke="gray" points="393,-25 393,-57 428,-57 428,-25 393,-25"/>
<text text-anchor="start" x="399.5" y="-36.6" font-family="Times New Roman,serif" font-size="18.00" fill="#18abcc"> &#45;&#45; </text>
<polygon fill="none" stroke="gray" points="433,-25 433,-57 518,-57 518,-25 433,-25"/>
<text text-anchor="start" x="459.5" y="-36.6" font-family="Times New Roman,serif" font-size="18.00" fill="#18abcc"> S11</text>
<polygon fill="none" stroke="gray" points="523,-25 523,-57 567,-57 567,-25 523,-25"/>
<text text-anchor="start" x="534" y="-36.6" font-family="Times New Roman,serif" font-size="18.00" fill="#18abcc"> &#45;&#45; </text>
</g>
</g>
</svg>
