<svg xmlns="http://www.w3.org/2000/svg" width="3548.03" height="2000" viewBox="0 0 3548.03 2000">
  <defs>
    <style>
      .cls-1 {
        fill-rule: evenodd;
      }
    </style>
  </defs>
  <path id="Forma_1" data-name="Forma 1" class="cls-1" d="M1171.7,109c818.18,0,1434.73.059,1435.81,0,19.02,0.09,19.23,9.668,19.23,38.462-0.05,4.9-.15,1021.748,0,1022.438,0.1,14.94-4.88,80.43-64.1,80.13-6-.03-312.72.76-407.03,0-18.03,23.26-99.13,91.81-112.17,108.97-7.83,10.31-6.44,23.64-3.21,28.85,13.63,17.97,50.6,34.47,80.13,48.07,29.63,16.64,19.96,54.33-6.41,57.7-13.76.04-432.19-.04-448.69,0-19.38.08-44.33-25.83-9.62-57.7,17.45-11.15,51.53-21.37,78.59-50.64,5.3-5.72,6.18-18.72-1.67-29.49-15.88-19.75-106.83-100.79-112.17-105.76-99.6.93-399.72,0-403.83,0-74.61-.05-67.71-80.41-67.3-80.13,0-21.57-.02-1011.459,0-1012.823C1149.76,130.4,1146.87,109.276,1171.7,109Zm38.45,881.41h1355.7V185.923c0.15-38.5-4.68-45.074-12.82-44.872-60.73-.379-1397.97.278-1323.65,0-10.35.1-19.49,6.677-19.23,35.257,0.06,5.615,0,179.243,0,224.359V990.41Zm403.83-721.154c10.36,0.105,529.39.045,548.04,0,29.26,37.739,115.3,150.223,125,163.462,0.14,0.2.1,25.265,0,25.641-25.96,25.937-307.14,321.966-314.09,330.128-28.24,31.4-66.02,74-83.33,73.718-19.69-.206-32.81-19.645-73.71-60.9-18.18-19.545-308.73-327.835-326.91-346.154-0.35-6.519-.44-21.846,0-22.436C1497.22,421.681,1600.9,286.552,1613.98,269.256Zm28.84,60.9q-28.845,40.06-57.69,80.128h141.02q11.22-38.457,22.44-76.923v-3.2H1642.82Zm169.86,0q-11.205,40.06-22.43,80.128h198.71q-11.22-40.06-22.44-80.128H1812.68Zm214.73,0q11.22,40.06,22.44,80.128h141.02v-3.2q-4.815-4.808-9.62-9.615-24.03-33.651-48.07-67.308H2027.41ZM1585.13,471.179q112.17,115.374,224.35,230.77-41.655-115.374-83.33-230.77H1585.13Zm205.12,0c32.05,89.735,92.62,256.209,96.15,266.026,0.99,3.21,2.02,3.223,3.2,0,1.45-3.962,67.02-180.494,99.36-266.026H1790.25Zm262.8,0q-43.26,115.374-86.53,230.77,112.17-115.374,224.35-230.77H2053.05Zm-842.9,580.131c-0.11,7.98.12,106.41,0,115.38-0.17,13.73,13.21,22.3,25.64,22.44H2543.41c14.38-.2,22.21-7.65,22.44-16.03V1051.31H1210.15Zm499.98,198.72c58.42,48.37,130,106.82,67.3,182.69h217.94c-56.83-87.39,27.2-133.79,73.71-182.69C2017.96,1249.82,1741.03,1250.03,1710.13,1250.03ZM130.089,1666.69c12.158-.13,53.163-0.15,57.689,0,12.559-.03,16.1,2.64,16.025,19.23-0.173,36.41,0,94.7,0,112.18-0.066,12.69-.214,19.09-12.82,19.23-11.6-.03-53.765.06-64.1,0-9.542-.05-12.7-3.31-12.819-16.02,0.08-27.28-.2-82.71,0-115.39C114.163,1670.2,117.329,1666.7,130.089,1666.69Zm342.929,0c6.363-.03,12.744,2.25,12.82,12.82,0.025,18.05.049,47.63,0,60.9-3.2,4.37-3.9,8.24-16.025,12.82-51.57,10.02-60.949,43.45-41.664,57.69,12.756,8.02,21.535,12.47,35.254,16.03,94.212,24.45,194.851,41.17,217.936,108.97,31.944,93.83-40.629,172.92-144.222,173.08-9.958-.05-16.1-1.31-16.025-12.82,0.112-17.71-.105-50.11,0-60.9-0.128-7.88-1.26-12.78,12.82-12.82,2.725,0.2,17.686-3.67,28.844-6.41,15.976-4.44,22.178-8.74,32.05-22.43,4.272-8.29,4.681-21.52,0-28.85-10.506-11-55.066-27.85-86.534-35.26-107.915-25.4-177.131-48.36-176.271-137.82,0.328-34.23,11.575-62.31,28.844-80.13C385.464,1686.17,404.666,1668.66,473.018,1666.69Zm346.134,0c19.052,0.03,42.735-.02,57.689,0,9.734,0.02,15.929,6.22,16.025,16.03,0.12,44.06.116,100.02,0,118.59-0.063,9.99-.1,15.92-12.82,16.02-20.753-.06-48.775.03-64.1,0-10.8-.02-12.792-7.44-12.82-19.23-0.058-24.69.042-62.96,0-112.18C803.061,1675.36,806.712,1666.66,819.152,1666.69Zm246.778,0c25.71,0.09,54.54.15,76.92,0,10.45-.07,12.87,4.93,12.82,9.62,0.01,7.94.11,13.76,0,19.23q-72.105,67.305-144.22,134.61c31.86,58.62,140.7,189.71,169.86,240.39-0.01,9.18.16,11.46,0,16.02,0.09,13.19-5.3,15.93-12.82,16.03-16.87.21-54.75,0.14-70.51,0-48.71-67.44-101.493-140.33-150.63-208.33q-27.24,25.635-54.484,51.28c0.022,8.17.269,102.25,0,141.02-0.072,10.23-3.268,15.89-16.025,16.03-12.857,0-37.5-.04-57.689,0-12.67.03-16.029-6.76-16.025-22.44-0.071-25.49.038-124.21,0-166.66,0-4.69,2.638-5.89,3.205-6.41Q936.12,1786.9,1065.93,1666.69Zm349.34,0c25.57,0.07,45.23-.07,70.51,0,8.23-.04,8.52,3.86,9.61,6.41,16,37.36,28.88,78.39,44.87,115.39,32.56,76.97,124.98,275.52,125,282.05,0.04,9.63,0,17.06,0,19.23-0.02,10.74-4.83,12.8-12.82,12.82-70.93.1-316.86-.21-407.03,0-8.67.02-12.86-6.08-12.82-12.82-0.05-3.96,0-12,0-16.03-0.16-3.6,19.81-57.69,35.25-57.69h275.63q-46.47-112.17-92.94-224.36h-3.21c-10.35,25.55-44.98,111.27-73.71,182.69-5.35,9.06-7.8,15.56-16.03,16.03-18.69.05-42.76,0.17-60.89,0-7.97-.07-15.99-3.94-16.03-16.03-0.01-4.24.08-8.99,0-16.02-0.09-4.56,99.92-232.18,121.79-282.05C1404.91,1670.7,1406.42,1666.61,1415.27,1666.69Zm365.36,0c24.61-.03,46.5.01,70.51,0,5.09-.01,136.75,191.25,205.12,285.26h3.2c-0.1-20.89-.01-267.93,0-272.44,0.01-4.96,1.64-12.76,12.82-12.82,14.84-.03,51.02.15,61.24,0.13,11.98-.06,12.5,3.92,12.48,12.69-0.09,56.53-.02,377.21,0,410.26-0.01,10.68-5.7,12.86-16.03,12.82-10.58-.06-42.38.16-64.1,0-6.41-.02-13.16-11.31-16.02-16.03-10.16-14.84-285.23-384.2-285.24-391.02,0.01-5.61-.01-12.09,0-16.03C1764.63,1673.5,1771.44,1666.73,1780.63,1666.69Zm525.61,0c7.41,0.03,146.68.21,198.71,0,42.62-.17,141.32,44.12,169.86,153.85,47.14,181.2-87.27,281.61-166.65,282.05-33.65-.05-169.4-0.14-205.12,0-10.01.04-12.84-4.47-12.82-19.23,0.01-11.28.01-29.83,0-51.28-0.05-12.27,3.6-15.9,19.23-16.03,51.77,0.27,139.05.44,189.09,0,43.63-15.71,77.37-41.21,89.74-99.36,7.35-34.53,3.9-80.49-12.82-108.97-13.57-23.12-43.29-48.18-86.53-54.49-49.55-.15-131.44-0.18-182.69,0-14.55.05-15.93-5.94-16.02-19.23-0.08-14.5-.19-27.4,0-48.08C2290.32,1676.27,2290.61,1666.82,2306.24,1666.69Zm631.38,0c27.65,0.04,49.41.1,73.71,0,10.14,0,12.38,11.51,12.82,12.82,10.38,24.52,166.66,394.23,166.66,394.23-0.05,4.71.04,9.88,0,16.03-0.07,9.37-2.58,12.93-12.82,12.82-132.81-.11-273.61.13-407.03,0-8.03-.01-12.84-1.39-12.82-12.82-0.03-5.02.01-10.2,0-16.03-0.03-11.95,20.89-57.62,32.05-57.69,92.2,0.1,186.13.23,278.83,0q-46.47-112.17-92.94-224.36h-3.21c-10.13,25.18-52.63,130.45-73.71,182.69-4.79,11.87-8.67,15.84-16.03,16.03-16.27.07-48.62,0.11-64.09,0-8.87-.02-12.87-8.89-12.82-16.03,0.03-4.47-.12-11.6,0-16.02,19.48-47.17,101.76-239.78,118.58-278.85C2929.47,1671.77,2933.46,1666.71,2937.62,1666.69Zm439.08,285.26c0,10.39.07,128.17,0,137.82-0.02,9.44-4.25,12.85-12.82,12.82-18.44.04-40.81-.04-60.9,0-7.86.07-12.82-3.67-12.82-16.03,0-69.18-.01-152.69,0-205.12,0-9.25,2.91-15.91,16.03-16.03,42.85,0,172.17.12,198.7,0,49.46-.01,60.75-32.97,60.9-54.49,0.29-42.23-45.47-57.67-60.9-57.69-48.31-.02-162.37.01-195.5,0-13.01,0-19.3-3.73-19.23-16.02v-54.49c0.01-13.54,3.41-16.16,16.03-16.03,94.28-.13,160.35,0,221.14,0,95.97-.06,124.62,79.14,124.99,141.03,0.54,90.4-49.85,119.53-80.12,125-0.02,2.35-.05,4.79,0,6.41,23.61,33.85,62.33,90.12,89.74,131.41,0.14,6.94.04,10.13,0,16.02-0.04,11.97-3.96,15.94-12.82,16.03-34.5-.05-73.72,0-73.72,0-21.15-33.64-70.76-112.62-96.15-150.64H3376.7ZM530.707,1669.9c6.611-.12,16.953-0.01,25.64,0,41.912,0.02,121.847,45.33,121.787,134.61,0.016,11.57-6.388,16.01-16.024,16.03-5.815.09-42.17,0.02-60.894,0-13.16.04-15.965-6.18-16.025-22.44,0.107-20.37-44.255-44.91-54.484-44.87-8.522-.01-9.683-5.36-9.615-9.61v-64.11C521.05,1671.17,524.742,1669.91,530.707,1669.9ZM130.089,1839.77c9.712-.05,45.792.05,57.689,0,12.414,0.14,16.035,5.93,16.025,19.23-0.039,54.76-.037,205.27,0,227.56,0.016,9.56-.314,15.98-12.82,16.03h-64.1c-5.221-.03-12.8-3.51-12.819-16.03-0.006-4.26-.061-224,0-230.77C114.031,1843.2,117.582,1839.82,130.089,1839.77ZM332,1942.33c28.906-.03,44.927-0.02,67.3,0,10.081,0.09,9.6,6.81,9.615,16.03,0.057,39.31,26.916,60.77,60.894,60.9,9.59,0.08,16.156,3.4,16.025,9.61v64.1c-0.233,10.04-1.562,12.85-12.82,12.82-83.8.04-137.173-30.44-153.837-125-0.038-3.81-.076-18.6,0-22.43C319.209,1950.8,321.323,1942.41,332,1942.33Zm1445.429,9.62c28.92,0.03,54.33-.05,64.1,0,8.83,0.03,12.73,2.73,12.82,19.23,0.18,32.85.01,110.58,0,115.38-0.02,6.88-3.27,16.06-12.82,16.03-15.83.01-43.79-.01-60.9,0-12.72.03-16.04-6.23-16.02-16.03,0.08-34.38.03-90.94,0-121.79C1764.65,1956.69,1769.27,1951.96,1777.43,1951.95Zm-1368.511,6.41c0.057,39.31,26.916,60.77,60.894,60.9" transform="translate(-114 -109)"/>
</svg>
