<?xml version="1.0" encoding="UTF-8" standalone="no"?>
<!DOCTYPE svg PUBLIC "-//W3C//DTD SVG 1.1//EN"
 "http://www.w3.org/Graphics/SVG/1.1/DTD/svg11.dtd">
<!-- Generated by graphviz version 7.1.0 (20230121.1956)
 -->
<!-- Title: finite_state_machine Pages: 1 -->
<svg width="2478pt" height="354pt"
 viewBox="0.00 0.00 2478.40 354.45" xmlns="http://www.w3.org/2000/svg" xmlns:xlink="http://www.w3.org/1999/xlink">
<g id="graph0" class="graph" transform="scale(1 1) rotate(0) translate(4 350.45)">
<title>finite_state_machine</title>
<polygon fill="white" stroke="none" points="-4,4 -4,-350.45 2474.4,-350.45 2474.4,4 -4,4"/>
<text text-anchor="middle" x="1235.2" y="-7.8" font-family="Times New Roman,serif" font-size="14.00">cadena</text>
<!-- 41 -->
<g id="node1" class="node">
<title>41</title>
<ellipse fill="#f78a05" stroke="#f78a05" cx="2444.96" cy="-57" rx="21.4" ry="21.4"/>
<ellipse fill="none" stroke="#f78a05" cx="2444.96" cy="-57" rx="25.4" ry="25.4"/>
<text text-anchor="middle" x="2444.96" y="-53.3" font-family="Helvetica,Arial,sans-serif" font-size="14.00" fill="white">41</text>
</g>
<!-- flechainicio -->
<!-- 0 -->
<g id="node3" class="node">
<title>0</title>
<ellipse fill="#d19928" stroke="#d19928" cx="123" cy="-68" rx="18" ry="18"/>
<text text-anchor="middle" x="123" y="-64.3" font-family="Helvetica,Arial,sans-serif" font-size="14.00" fill="white">0</text>
</g>
<!-- flechainicio&#45;&gt;0 -->
<g id="edge1" class="edge">
<title>flechainicio&#45;&gt;0</title>
<path fill="none" stroke="#9c9332" d="M36.47,-68C52.03,-68 75.08,-68 93.34,-68"/>
<polygon fill="#9c9332" stroke="#9c9332" points="93.27,-71.5 103.27,-68 93.27,-64.5 93.27,-71.5"/>
<text text-anchor="middle" x="70.5" y="-71.8" font-family="Helvetica,Arial,sans-serif" font-size="14.00" fill="#f78a05">inicio</text>
</g>
<!-- 1 -->
<g id="node4" class="node">
<title>1</title>
<ellipse fill="#d19928" stroke="#d19928" cx="199" cy="-68" rx="18" ry="18"/>
<text text-anchor="middle" x="199" y="-64.3" font-family="Helvetica,Arial,sans-serif" font-size="14.00" fill="white">1</text>
</g>
<!-- 0&#45;&gt;1 -->
<g id="edge2" class="edge">
<title>0&#45;&gt;1</title>
<path fill="none" stroke="#9c9332" d="M141.16,-68C149.51,-68 159.77,-68 169.26,-68"/>
<polygon fill="#9c9332" stroke="#9c9332" points="169.16,-71.5 179.16,-68 169.16,-64.5 169.16,-71.5"/>
<text text-anchor="middle" x="161" y="-71.8" font-family="Helvetica,Arial,sans-serif" font-size="14.00" fill="#f78a05">&#39;</text>
</g>
<!-- 2 -->
<g id="node5" class="node">
<title>2</title>
<ellipse fill="#d19928" stroke="#d19928" cx="278" cy="-68" rx="18" ry="18"/>
<text text-anchor="middle" x="278" y="-64.3" font-family="Helvetica,Arial,sans-serif" font-size="14.00" fill="white">2</text>
</g>
<!-- 1&#45;&gt;2 -->
<g id="edge3" class="edge">
<title>1&#45;&gt;2</title>
<path fill="none" stroke="#9c9332" d="M217.47,-68C226.53,-68 237.83,-68 248.14,-68"/>
<polygon fill="#9c9332" stroke="#9c9332" points="248.08,-71.5 258.08,-68 248.08,-64.5 248.08,-71.5"/>
<text text-anchor="middle" x="238.5" y="-71.8" font-family="Helvetica,Arial,sans-serif" font-size="14.00" fill="#f78a05">ε</text>
</g>
<!-- 5 -->
<g id="node6" class="node">
<title>5</title>
<ellipse fill="#d19928" stroke="#d19928" cx="357" cy="-95" rx="18" ry="18"/>
<text text-anchor="middle" x="357" y="-91.3" font-family="Helvetica,Arial,sans-serif" font-size="14.00" fill="white">5</text>
</g>
<!-- 2&#45;&gt;5 -->
<g id="edge4" class="edge">
<title>2&#45;&gt;5</title>
<path fill="none" stroke="#9c9332" d="M295.33,-73.73C305.13,-77.16 317.84,-81.62 329.09,-85.56"/>
<polygon fill="#9c9332" stroke="#9c9332" points="327.67,-88.78 338.27,-88.78 329.99,-82.17 327.67,-88.78"/>
<text text-anchor="middle" x="317.5" y="-86.8" font-family="Helvetica,Arial,sans-serif" font-size="14.00" fill="#f78a05">ε</text>
</g>
<!-- 3 -->
<g id="node7" class="node">
<title>3</title>
<ellipse fill="#d19928" stroke="#d19928" cx="357" cy="-41" rx="18" ry="18"/>
<text text-anchor="middle" x="357" y="-37.3" font-family="Helvetica,Arial,sans-serif" font-size="14.00" fill="white">3</text>
</g>
<!-- 2&#45;&gt;3 -->
<g id="edge5" class="edge">
<title>2&#45;&gt;3</title>
<path fill="none" stroke="#9c9332" d="M295.33,-62.27C305.13,-58.84 317.84,-54.38 329.09,-50.44"/>
<polygon fill="#9c9332" stroke="#9c9332" points="329.99,-53.83 338.27,-47.22 327.67,-47.22 329.99,-53.83"/>
<text text-anchor="middle" x="317.5" y="-59.8" font-family="Helvetica,Arial,sans-serif" font-size="14.00" fill="#f78a05">ε</text>
</g>
<!-- 8 -->
<g id="node10" class="node">
<title>8</title>
<ellipse fill="#d19928" stroke="#d19928" cx="436" cy="-142" rx="18" ry="18"/>
<text text-anchor="middle" x="436" y="-138.3" font-family="Helvetica,Arial,sans-serif" font-size="14.00" fill="white">8</text>
</g>
<!-- 5&#45;&gt;8 -->
<g id="edge8" class="edge">
<title>5&#45;&gt;8</title>
<path fill="none" stroke="#9c9332" d="M372.85,-104.06C383.5,-110.56 398.1,-119.47 410.47,-127.02"/>
<polygon fill="#9c9332" stroke="#9c9332" points="408.55,-129.95 418.91,-132.18 412.2,-123.98 408.55,-129.95"/>
<text text-anchor="middle" x="396.5" y="-123.8" font-family="Helvetica,Arial,sans-serif" font-size="14.00" fill="#f78a05">ε</text>
</g>
<!-- 6 -->
<g id="node11" class="node">
<title>6</title>
<ellipse fill="#d19928" stroke="#d19928" cx="436" cy="-88" rx="18" ry="18"/>
<text text-anchor="middle" x="436" y="-84.3" font-family="Helvetica,Arial,sans-serif" font-size="14.00" fill="white">6</text>
</g>
<!-- 5&#45;&gt;6 -->
<g id="edge9" class="edge">
<title>5&#45;&gt;6</title>
<path fill="none" stroke="#9c9332" d="M375.09,-93.45C384.3,-92.61 395.9,-91.55 406.43,-90.6"/>
<polygon fill="#9c9332" stroke="#9c9332" points="406.54,-94.1 416.19,-89.71 405.91,-87.13 406.54,-94.1"/>
<text text-anchor="middle" x="396.5" y="-95.8" font-family="Helvetica,Arial,sans-serif" font-size="14.00" fill="#f78a05">ε</text>
</g>
<!-- 4 -->
<g id="node8" class="node">
<title>4</title>
<ellipse fill="#d19928" stroke="#d19928" cx="490" cy="-41" rx="18" ry="18"/>
<text text-anchor="middle" x="490" y="-37.3" font-family="Helvetica,Arial,sans-serif" font-size="14.00" fill="white">4</text>
</g>
<!-- 3&#45;&gt;4 -->
<g id="edge6" class="edge">
<title>3&#45;&gt;4</title>
<path fill="none" stroke="#9c9332" d="M375.4,-41C397.03,-41 434.25,-41 460.17,-41"/>
<polygon fill="#9c9332" stroke="#9c9332" points="460.02,-44.5 470.02,-41 460.02,-37.5 460.02,-44.5"/>
<text text-anchor="middle" x="396.5" y="-44.8" font-family="Helvetica,Arial,sans-serif" font-size="14.00" fill="#f78a05"> </text>
</g>
<!-- 19 -->
<g id="node9" class="node">
<title>19</title>
<ellipse fill="#d19928" stroke="#d19928" cx="1133.72" cy="-57" rx="21.4" ry="21.4"/>
<text text-anchor="middle" x="1133.72" y="-53.3" font-family="Helvetica,Arial,sans-serif" font-size="14.00" fill="white">19</text>
</g>
<!-- 4&#45;&gt;19 -->
<g id="edge7" class="edge">
<title>4&#45;&gt;19</title>
<path fill="none" stroke="#9c9332" d="M508.28,-41C530.93,-41 571.89,-41 606.9,-41 606.9,-41 606.9,-41 1048.83,-41 1066.72,-41 1086.39,-44.56 1102.19,-48.32"/>
<polygon fill="#9c9332" stroke="#9c9332" points="1100.9,-51.6 1111.45,-50.67 1102.62,-44.82 1100.9,-51.6"/>
<text text-anchor="middle" x="833.08" y="-44.8" font-family="Helvetica,Arial,sans-serif" font-size="14.00" fill="#f78a05">ε</text>
</g>
<!-- 20 -->
<g id="node23" class="node">
<title>20</title>
<ellipse fill="#d19928" stroke="#d19928" cx="1219.62" cy="-57" rx="21.4" ry="21.4"/>
<text text-anchor="middle" x="1219.62" y="-53.3" font-family="Helvetica,Arial,sans-serif" font-size="14.00" fill="white">20</text>
</g>
<!-- 19&#45;&gt;20 -->
<g id="edge25" class="edge">
<title>19&#45;&gt;20</title>
<path fill="none" stroke="#9c9332" d="M1155.46,-57C1164.84,-57 1176.13,-57 1186.57,-57"/>
<polygon fill="#9c9332" stroke="#9c9332" points="1186.31,-60.5 1196.31,-57 1186.31,-53.5 1186.31,-60.5"/>
<text text-anchor="middle" x="1176.67" y="-60.8" font-family="Helvetica,Arial,sans-serif" font-size="14.00" fill="#f78a05">ε</text>
</g>
<!-- 11 -->
<g id="node14" class="node">
<title>11</title>
<ellipse fill="#d19928" stroke="#d19928" cx="547.45" cy="-192" rx="21.4" ry="21.4"/>
<text text-anchor="middle" x="547.45" y="-188.3" font-family="Helvetica,Arial,sans-serif" font-size="14.00" fill="white">11</text>
</g>
<!-- 8&#45;&gt;11 -->
<g id="edge12" class="edge">
<title>8&#45;&gt;11</title>
<path fill="none" stroke="#9c9332" d="M452.62,-149.73C458.66,-152.68 465.63,-156.04 472,-159 486.77,-165.86 503.33,-173.23 517.07,-179.26"/>
<polygon fill="#9c9332" stroke="#9c9332" points="515.44,-182.37 526.01,-183.17 518.25,-175.95 515.44,-182.37"/>
<text text-anchor="middle" x="490" y="-178.8" font-family="Helvetica,Arial,sans-serif" font-size="14.00" fill="#f78a05">ε</text>
</g>
<!-- 9 -->
<g id="node15" class="node">
<title>9</title>
<ellipse fill="#d19928" stroke="#d19928" cx="547.45" cy="-135" rx="18" ry="18"/>
<text text-anchor="middle" x="547.45" y="-131.3" font-family="Helvetica,Arial,sans-serif" font-size="14.00" fill="white">9</text>
</g>
<!-- 8&#45;&gt;9 -->
<g id="edge13" class="edge">
<title>8&#45;&gt;9</title>
<path fill="none" stroke="#9c9332" d="M454.1,-140.91C471.11,-139.82 497.51,-138.13 517.74,-136.84"/>
<polygon fill="#9c9332" stroke="#9c9332" points="517.84,-140.34 527.6,-136.21 517.39,-133.35 517.84,-140.34"/>
<text text-anchor="middle" x="490" y="-143.8" font-family="Helvetica,Arial,sans-serif" font-size="14.00" fill="#f78a05">ε</text>
</g>
<!-- 7 -->
<g id="node12" class="node">
<title>7</title>
<ellipse fill="#d19928" stroke="#d19928" cx="607.9" cy="-88" rx="18" ry="18"/>
<text text-anchor="middle" x="607.9" y="-84.3" font-family="Helvetica,Arial,sans-serif" font-size="14.00" fill="white">7</text>
</g>
<!-- 6&#45;&gt;7 -->
<g id="edge10" class="edge">
<title>6&#45;&gt;7</title>
<path fill="none" stroke="#9c9332" d="M454.23,-88C483.35,-88 542.63,-88 578.14,-88"/>
<polygon fill="#9c9332" stroke="#9c9332" points="578.11,-91.5 588.11,-88 578.11,-84.5 578.11,-91.5"/>
<text text-anchor="middle" x="490" y="-91.8" font-family="Helvetica,Arial,sans-serif" font-size="14.00" fill="#f78a05">digito</text>
</g>
<!-- 18 -->
<g id="node13" class="node">
<title>18</title>
<ellipse fill="#d19928" stroke="#d19928" cx="1047.83" cy="-90" rx="21.4" ry="21.4"/>
<text text-anchor="middle" x="1047.83" y="-86.3" font-family="Helvetica,Arial,sans-serif" font-size="14.00" fill="white">18</text>
</g>
<!-- 7&#45;&gt;18 -->
<g id="edge11" class="edge">
<title>7&#45;&gt;18</title>
<path fill="none" stroke="#9c9332" d="M626.29,-88C649.53,-88 691.98,-88 728.24,-88 728.24,-88 728.24,-88 962.93,-88 980.11,-88 999.27,-88.42 1014.93,-88.88"/>
<polygon fill="#9c9332" stroke="#9c9332" points="1014.52,-92.37 1024.63,-89.19 1014.74,-85.37 1014.52,-92.37"/>
<text text-anchor="middle" x="833.08" y="-91.8" font-family="Helvetica,Arial,sans-serif" font-size="14.00" fill="#f78a05">ε</text>
</g>
<!-- 18&#45;&gt;19 -->
<g id="edge24" class="edge">
<title>18&#45;&gt;19</title>
<path fill="none" stroke="#9c9332" d="M1068.28,-82.35C1078.55,-78.31 1091.38,-73.26 1102.88,-68.74"/>
<polygon fill="#9c9332" stroke="#9c9332" points="1103.94,-72.08 1111.96,-65.17 1101.37,-65.57 1103.94,-72.08"/>
<text text-anchor="middle" x="1090.77" y="-78.8" font-family="Helvetica,Arial,sans-serif" font-size="14.00" fill="#f78a05">ε</text>
</g>
<!-- 14 -->
<g id="node18" class="node">
<title>14</title>
<ellipse fill="#d19928" stroke="#d19928" cx="668.34" cy="-245" rx="21.4" ry="21.4"/>
<text text-anchor="middle" x="668.34" y="-241.3" font-family="Helvetica,Arial,sans-serif" font-size="14.00" fill="white">14</text>
</g>
<!-- 11&#45;&gt;14 -->
<g id="edge16" class="edge">
<title>11&#45;&gt;14</title>
<path fill="none" stroke="#9c9332" d="M567.55,-200.52C586.53,-208.98 615.9,-222.07 637.87,-231.86"/>
<polygon fill="#9c9332" stroke="#9c9332" points="636.35,-235.01 646.91,-235.89 639.2,-228.62 636.35,-235.01"/>
<text text-anchor="middle" x="607.9" y="-230.8" font-family="Helvetica,Arial,sans-serif" font-size="14.00" fill="#f78a05">ε</text>
</g>
<!-- 12 -->
<g id="node19" class="node">
<title>12</title>
<ellipse fill="#d19928" stroke="#d19928" cx="668.34" cy="-184" rx="21.4" ry="21.4"/>
<text text-anchor="middle" x="668.34" y="-180.3" font-family="Helvetica,Arial,sans-serif" font-size="14.00" fill="white">12</text>
</g>
<!-- 11&#45;&gt;12 -->
<g id="edge17" class="edge">
<title>11&#45;&gt;12</title>
<path fill="none" stroke="#9c9332" d="M569.16,-190.61C587.49,-189.37 614.51,-187.55 635.58,-186.14"/>
<polygon fill="#9c9332" stroke="#9c9332" points="635.62,-189.64 645.36,-185.48 635.15,-182.66 635.62,-189.64"/>
<text text-anchor="middle" x="607.9" y="-192.8" font-family="Helvetica,Arial,sans-serif" font-size="14.00" fill="#f78a05">ε</text>
</g>
<!-- 10 -->
<g id="node16" class="node">
<title>10</title>
<ellipse fill="#d19928" stroke="#d19928" cx="729.24" cy="-135" rx="21.4" ry="21.4"/>
<text text-anchor="middle" x="729.24" y="-131.3" font-family="Helvetica,Arial,sans-serif" font-size="14.00" fill="white">10</text>
</g>
<!-- 9&#45;&gt;10 -->
<g id="edge14" class="edge">
<title>9&#45;&gt;10</title>
<path fill="none" stroke="#9c9332" d="M565.69,-135C595.67,-135 657.84,-135 696.01,-135"/>
<polygon fill="#9c9332" stroke="#9c9332" points="695.98,-138.5 705.98,-135 695.98,-131.5 695.98,-138.5"/>
<text text-anchor="middle" x="607.9" y="-138.8" font-family="Helvetica,Arial,sans-serif" font-size="14.00" fill="#f78a05">mayus</text>
</g>
<!-- 17 -->
<g id="node17" class="node">
<title>17</title>
<ellipse fill="#d19928" stroke="#d19928" cx="961.93" cy="-137" rx="21.4" ry="21.4"/>
<text text-anchor="middle" x="961.93" y="-133.3" font-family="Helvetica,Arial,sans-serif" font-size="14.00" fill="white">17</text>
</g>
<!-- 10&#45;&gt;17 -->
<g id="edge15" class="edge">
<title>10&#45;&gt;17</title>
<path fill="none" stroke="#9c9332" d="M751.12,-135.18C791.61,-135.53 881.02,-136.31 929.01,-136.72"/>
<polygon fill="#9c9332" stroke="#9c9332" points="928.72,-140.22 938.75,-136.81 928.78,-133.22 928.72,-140.22"/>
<text text-anchor="middle" x="833.08" y="-139.8" font-family="Helvetica,Arial,sans-serif" font-size="14.00" fill="#f78a05">ε</text>
</g>
<!-- 17&#45;&gt;18 -->
<g id="edge23" class="edge">
<title>17&#45;&gt;18</title>
<path fill="none" stroke="#9c9332" d="M981.13,-126.8C992.13,-120.64 1006.37,-112.67 1018.77,-105.71"/>
<polygon fill="#9c9332" stroke="#9c9332" points="1020.32,-108.86 1027.34,-100.92 1016.9,-102.75 1020.32,-108.86"/>
<text text-anchor="middle" x="1004.88" y="-118.8" font-family="Helvetica,Arial,sans-serif" font-size="14.00" fill="#f78a05">ε</text>
</g>
<!-- 15 -->
<g id="node22" class="node">
<title>15</title>
<ellipse fill="#d19928" stroke="#d19928" cx="790.14" cy="-245" rx="21.4" ry="21.4"/>
<text text-anchor="middle" x="790.14" y="-241.3" font-family="Helvetica,Arial,sans-serif" font-size="14.00" fill="white">15</text>
</g>
<!-- 14&#45;&gt;15 -->
<g id="edge20" class="edge">
<title>14&#45;&gt;15</title>
<path fill="none" stroke="#9c9332" d="M690.21,-245C708.68,-245 735.91,-245 757.13,-245"/>
<polygon fill="#9c9332" stroke="#9c9332" points="757,-248.5 767,-245 757,-241.5 757,-248.5"/>
</g>
<!-- 13 -->
<g id="node20" class="node">
<title>13</title>
<ellipse fill="#d19928" stroke="#d19928" cx="790.14" cy="-184" rx="21.4" ry="21.4"/>
<text text-anchor="middle" x="790.14" y="-180.3" font-family="Helvetica,Arial,sans-serif" font-size="14.00" fill="white">13</text>
</g>
<!-- 12&#45;&gt;13 -->
<g id="edge18" class="edge">
<title>12&#45;&gt;13</title>
<path fill="none" stroke="#9c9332" d="M690.21,-184C708.68,-184 735.91,-184 757.13,-184"/>
<polygon fill="#9c9332" stroke="#9c9332" points="757,-187.5 767,-184 757,-180.5 757,-187.5"/>
<text text-anchor="middle" x="729.24" y="-187.8" font-family="Helvetica,Arial,sans-serif" font-size="14.00" fill="#f78a05">minus</text>
</g>
<!-- 16 -->
<g id="node21" class="node">
<title>16</title>
<ellipse fill="#d19928" stroke="#d19928" cx="876.03" cy="-184" rx="21.4" ry="21.4"/>
<text text-anchor="middle" x="876.03" y="-180.3" font-family="Helvetica,Arial,sans-serif" font-size="14.00" fill="white">16</text>
</g>
<!-- 13&#45;&gt;16 -->
<g id="edge19" class="edge">
<title>13&#45;&gt;16</title>
<path fill="none" stroke="#9c9332" d="M811.88,-184C821.25,-184 832.55,-184 842.98,-184"/>
<polygon fill="#9c9332" stroke="#9c9332" points="842.73,-187.5 852.73,-184 842.73,-180.5 842.73,-187.5"/>
<text text-anchor="middle" x="833.08" y="-187.8" font-family="Helvetica,Arial,sans-serif" font-size="14.00" fill="#f78a05">ε</text>
</g>
<!-- 16&#45;&gt;17 -->
<g id="edge22" class="edge">
<title>16&#45;&gt;17</title>
<path fill="none" stroke="#9c9332" d="M895.24,-173.8C906.23,-167.64 920.47,-159.67 932.88,-152.71"/>
<polygon fill="#9c9332" stroke="#9c9332" points="934.43,-155.86 941.44,-147.92 931.01,-149.75 934.43,-155.86"/>
<text text-anchor="middle" x="918.98" y="-165.8" font-family="Helvetica,Arial,sans-serif" font-size="14.00" fill="#f78a05">ε</text>
</g>
<!-- 15&#45;&gt;16 -->
<g id="edge21" class="edge">
<title>15&#45;&gt;16</title>
<path fill="none" stroke="#9c9332" d="M808.11,-232.66C819.83,-224.14 835.62,-212.65 848.93,-202.98"/>
<polygon fill="#9c9332" stroke="#9c9332" points="850.83,-205.93 856.86,-197.22 846.71,-200.27 850.83,-205.93"/>
<text text-anchor="middle" x="833.08" y="-219.8" font-family="Helvetica,Arial,sans-serif" font-size="14.00" fill="#f78a05">ε</text>
</g>
<!-- 21 -->
<g id="node24" class="node">
<title>21</title>
<ellipse fill="#d19928" stroke="#d19928" cx="1305.51" cy="-105" rx="21.4" ry="21.4"/>
<text text-anchor="middle" x="1305.51" y="-101.3" font-family="Helvetica,Arial,sans-serif" font-size="14.00" fill="white">21</text>
</g>
<!-- 20&#45;&gt;21 -->
<g id="edge26" class="edge">
<title>20&#45;&gt;21</title>
<path fill="none" stroke="#9c9332" d="M1238.82,-67.42C1249.82,-73.71 1264.05,-81.85 1276.46,-88.95"/>
<polygon fill="#9c9332" stroke="#9c9332" points="1274.61,-91.93 1285.03,-93.85 1278.09,-85.85 1274.61,-91.93"/>
<text text-anchor="middle" x="1262.57" y="-86.8" font-family="Helvetica,Arial,sans-serif" font-size="14.00" fill="#f78a05">ε</text>
</g>
<!-- 39 -->
<g id="node25" class="node">
<title>39</title>
<ellipse fill="#d19928" stroke="#d19928" cx="2272.16" cy="-57" rx="21.4" ry="21.4"/>
<text text-anchor="middle" x="2272.16" y="-53.3" font-family="Helvetica,Arial,sans-serif" font-size="14.00" fill="white">39</text>
</g>
<!-- 20&#45;&gt;39 -->
<g id="edge27" class="edge">
<title>20&#45;&gt;39</title>
<path fill="none" stroke="#9c9332" d="M1240.42,-51.04C1257.29,-46.49 1282.27,-41 1304.51,-41 1304.51,-41 1304.51,-41 2187.27,-41 2205.17,-41 2224.84,-44.56 2240.63,-48.32"/>
<polygon fill="#9c9332" stroke="#9c9332" points="2239.34,-51.6 2249.9,-50.67 2241.07,-44.82 2239.34,-51.6"/>
<text text-anchor="middle" x="1781.79" y="-44.8" font-family="Helvetica,Arial,sans-serif" font-size="14.00" fill="#f78a05">ε</text>
</g>
<!-- 24 -->
<g id="node26" class="node">
<title>24</title>
<ellipse fill="#d19928" stroke="#d19928" cx="1391.41" cy="-189" rx="21.4" ry="21.4"/>
<text text-anchor="middle" x="1391.41" y="-185.3" font-family="Helvetica,Arial,sans-serif" font-size="14.00" fill="white">24</text>
</g>
<!-- 21&#45;&gt;24 -->
<g id="edge28" class="edge">
<title>21&#45;&gt;24</title>
<path fill="none" stroke="#9c9332" d="M1321.13,-119.63C1334.04,-132.56 1353.08,-151.62 1367.93,-166.49"/>
<polygon fill="#9c9332" stroke="#9c9332" points="1365.07,-168.58 1374.61,-173.18 1370.02,-163.63 1365.07,-168.58"/>
<text text-anchor="middle" x="1348.46" y="-153.8" font-family="Helvetica,Arial,sans-serif" font-size="14.00" fill="#f78a05">ε</text>
</g>
<!-- 22 -->
<g id="node27" class="node">
<title>22</title>
<ellipse fill="#d19928" stroke="#d19928" cx="1391.41" cy="-128" rx="21.4" ry="21.4"/>
<text text-anchor="middle" x="1391.41" y="-124.3" font-family="Helvetica,Arial,sans-serif" font-size="14.00" fill="white">22</text>
</g>
<!-- 21&#45;&gt;22 -->
<g id="edge29" class="edge">
<title>21&#45;&gt;22</title>
<path fill="none" stroke="#9c9332" d="M1326.4,-110.45C1336.25,-113.15 1348.37,-116.48 1359.41,-119.5"/>
<polygon fill="#9c9332" stroke="#9c9332" points="1358.35,-122.84 1368.92,-122.11 1360.2,-116.09 1358.35,-122.84"/>
<text text-anchor="middle" x="1348.46" y="-121.8" font-family="Helvetica,Arial,sans-serif" font-size="14.00" fill="#f78a05">ε</text>
</g>
<!-- 40 -->
<g id="node43" class="node">
<title>40</title>
<ellipse fill="#d19928" stroke="#d19928" cx="2358.06" cy="-57" rx="21.4" ry="21.4"/>
<text text-anchor="middle" x="2358.06" y="-53.3" font-family="Helvetica,Arial,sans-serif" font-size="14.00" fill="white">40</text>
</g>
<!-- 39&#45;&gt;40 -->
<g id="edge51" class="edge">
<title>39&#45;&gt;40</title>
<path fill="none" stroke="#9c9332" d="M2293.9,-57C2303.28,-57 2314.58,-57 2325.01,-57"/>
<polygon fill="#9c9332" stroke="#9c9332" points="2324.76,-60.5 2334.76,-57 2324.76,-53.5 2324.76,-60.5"/>
<text text-anchor="middle" x="2315.11" y="-60.8" font-family="Helvetica,Arial,sans-serif" font-size="14.00" fill="#f78a05">ε</text>
</g>
<!-- 27 -->
<g id="node30" class="node">
<title>27</title>
<ellipse fill="#d19928" stroke="#d19928" cx="1477.31" cy="-227" rx="21.4" ry="21.4"/>
<text text-anchor="middle" x="1477.31" y="-223.3" font-family="Helvetica,Arial,sans-serif" font-size="14.00" fill="white">27</text>
</g>
<!-- 24&#45;&gt;27 -->
<g id="edge32" class="edge">
<title>24&#45;&gt;27</title>
<path fill="none" stroke="#9c9332" d="M1411.45,-197.62C1421.96,-202.38 1435.24,-208.4 1447.04,-213.75"/>
<polygon fill="#9c9332" stroke="#9c9332" points="1445.41,-216.85 1455.97,-217.79 1448.3,-210.47 1445.41,-216.85"/>
<text text-anchor="middle" x="1434.36" y="-212.8" font-family="Helvetica,Arial,sans-serif" font-size="14.00" fill="#f78a05">ε</text>
</g>
<!-- 25 -->
<g id="node31" class="node">
<title>25</title>
<ellipse fill="#d19928" stroke="#d19928" cx="1477.31" cy="-166" rx="21.4" ry="21.4"/>
<text text-anchor="middle" x="1477.31" y="-162.3" font-family="Helvetica,Arial,sans-serif" font-size="14.00" fill="white">25</text>
</g>
<!-- 24&#45;&gt;25 -->
<g id="edge33" class="edge">
<title>24&#45;&gt;25</title>
<path fill="none" stroke="#9c9332" d="M1412.29,-183.55C1422.15,-180.85 1434.27,-177.52 1445.31,-174.5"/>
<polygon fill="#9c9332" stroke="#9c9332" points="1446.1,-177.91 1454.82,-171.89 1444.25,-171.16 1446.1,-177.91"/>
<text text-anchor="middle" x="1434.36" y="-182.8" font-family="Helvetica,Arial,sans-serif" font-size="14.00" fill="#f78a05">ε</text>
</g>
<!-- 23 -->
<g id="node28" class="node">
<title>23</title>
<ellipse fill="#d19928" stroke="#d19928" cx="1538.2" cy="-117" rx="21.4" ry="21.4"/>
<text text-anchor="middle" x="1538.2" y="-113.3" font-family="Helvetica,Arial,sans-serif" font-size="14.00" fill="white">23</text>
</g>
<!-- 22&#45;&gt;23 -->
<g id="edge30" class="edge">
<title>22&#45;&gt;23</title>
<path fill="none" stroke="#9c9332" d="M1413.16,-126.42C1437.24,-124.59 1477.24,-121.56 1505.29,-119.42"/>
<polygon fill="#9c9332" stroke="#9c9332" points="1505.28,-122.94 1514.99,-118.69 1504.75,-115.96 1505.28,-122.94"/>
<text text-anchor="middle" x="1434.36" y="-129.8" font-family="Helvetica,Arial,sans-serif" font-size="14.00" fill="#f78a05"> </text>
</g>
<!-- 38 -->
<g id="node29" class="node">
<title>38</title>
<ellipse fill="#d19928" stroke="#d19928" cx="2186.27" cy="-103" rx="21.4" ry="21.4"/>
<text text-anchor="middle" x="2186.27" y="-99.3" font-family="Helvetica,Arial,sans-serif" font-size="14.00" fill="white">38</text>
</g>
<!-- 23&#45;&gt;38 -->
<g id="edge31" class="edge">
<title>23&#45;&gt;38</title>
<path fill="none" stroke="#9c9332" d="M1559.98,-117C1583.87,-117 1624.26,-117 1658.99,-117 1658.99,-117 1658.99,-117 2101.37,-117 2118.91,-117 2138.22,-113.99 2153.9,-110.76"/>
<polygon fill="#9c9332" stroke="#9c9332" points="2154.59,-114.19 2163.6,-108.62 2153.08,-107.35 2154.59,-114.19"/>
<text text-anchor="middle" x="1885.63" y="-120.8" font-family="Helvetica,Arial,sans-serif" font-size="14.00" fill="#f78a05">ε</text>
</g>
<!-- 38&#45;&gt;21 -->
<g id="edge49" class="edge">
<title>38&#45;&gt;21</title>
<path fill="none" stroke="#9c9332" d="M2166.38,-94.34C2149.66,-87.46 2124.4,-79 2101.37,-79 1390.41,-79 1390.41,-79 1390.41,-79 1371.45,-79 1351.12,-85.13 1335.23,-91.44"/>
<polygon fill="#9c9332" stroke="#9c9332" points="1334.24,-88.05 1326.39,-95.17 1336.97,-94.5 1334.24,-88.05"/>
<text text-anchor="middle" x="1781.79" y="-82.8" font-family="Helvetica,Arial,sans-serif" font-size="14.00" fill="#f78a05">ε</text>
</g>
<!-- 38&#45;&gt;39 -->
<g id="edge50" class="edge">
<title>38&#45;&gt;39</title>
<path fill="none" stroke="#9c9332" d="M2205.47,-93.02C2216.47,-86.99 2230.7,-79.18 2243.11,-72.38"/>
<polygon fill="#9c9332" stroke="#9c9332" points="2244.58,-75.57 2251.67,-67.69 2241.22,-69.43 2244.58,-75.57"/>
<text text-anchor="middle" x="2229.22" y="-85.8" font-family="Helvetica,Arial,sans-serif" font-size="14.00" fill="#f78a05">ε</text>
</g>
<!-- 30 -->
<g id="node34" class="node">
<title>30</title>
<ellipse fill="#d19928" stroke="#d19928" cx="1599.1" cy="-276" rx="21.4" ry="21.4"/>
<text text-anchor="middle" x="1599.1" y="-272.3" font-family="Helvetica,Arial,sans-serif" font-size="14.00" fill="white">30</text>
</g>
<!-- 27&#45;&gt;30 -->
<g id="edge36" class="edge">
<title>27&#45;&gt;30</title>
<path fill="none" stroke="#9c9332" d="M1497.55,-234.87C1516.68,-242.7 1546.27,-254.8 1568.4,-263.85"/>
<polygon fill="#9c9332" stroke="#9c9332" points="1566.92,-267.03 1577.5,-267.57 1569.57,-260.55 1566.92,-267.03"/>
<text text-anchor="middle" x="1538.2" y="-263.8" font-family="Helvetica,Arial,sans-serif" font-size="14.00" fill="#f78a05">ε</text>
</g>
<!-- 28 -->
<g id="node35" class="node">
<title>28</title>
<ellipse fill="#d19928" stroke="#d19928" cx="1599.1" cy="-215" rx="21.4" ry="21.4"/>
<text text-anchor="middle" x="1599.1" y="-211.3" font-family="Helvetica,Arial,sans-serif" font-size="14.00" fill="white">28</text>
</g>
<!-- 27&#45;&gt;28 -->
<g id="edge37" class="edge">
<title>27&#45;&gt;28</title>
<path fill="none" stroke="#9c9332" d="M1498.9,-224.94C1517.33,-223.09 1544.64,-220.36 1565.94,-218.22"/>
<polygon fill="#9c9332" stroke="#9c9332" points="1566.27,-221.71 1575.87,-217.23 1565.57,-214.74 1566.27,-221.71"/>
<text text-anchor="middle" x="1538.2" y="-226.8" font-family="Helvetica,Arial,sans-serif" font-size="14.00" fill="#f78a05">ε</text>
</g>
<!-- 26 -->
<g id="node32" class="node">
<title>26</title>
<ellipse fill="#d19928" stroke="#d19928" cx="1659.99" cy="-166" rx="21.4" ry="21.4"/>
<text text-anchor="middle" x="1659.99" y="-162.3" font-family="Helvetica,Arial,sans-serif" font-size="14.00" fill="white">26</text>
</g>
<!-- 25&#45;&gt;26 -->
<g id="edge34" class="edge">
<title>25&#45;&gt;26</title>
<path fill="none" stroke="#9c9332" d="M1499.03,-166C1530.4,-166 1590.18,-166 1627.11,-166"/>
<polygon fill="#9c9332" stroke="#9c9332" points="1626.72,-169.5 1636.72,-166 1626.72,-162.5 1626.72,-169.5"/>
<text text-anchor="middle" x="1538.2" y="-169.8" font-family="Helvetica,Arial,sans-serif" font-size="14.00" fill="#f78a05">digito</text>
</g>
<!-- 37 -->
<g id="node33" class="node">
<title>37</title>
<ellipse fill="#d19928" stroke="#d19928" cx="2100.37" cy="-166" rx="21.4" ry="21.4"/>
<text text-anchor="middle" x="2100.37" y="-162.3" font-family="Helvetica,Arial,sans-serif" font-size="14.00" fill="white">37</text>
</g>
<!-- 26&#45;&gt;37 -->
<g id="edge35" class="edge">
<title>26&#45;&gt;37</title>
<path fill="none" stroke="#9c9332" d="M1681.77,-166C1705.66,-166 1746.06,-166 1780.79,-166 1780.79,-166 1780.79,-166 2015.48,-166 2032.65,-166 2051.81,-166 2067.48,-166"/>
<polygon fill="#9c9332" stroke="#9c9332" points="2067.17,-169.5 2077.17,-166 2067.17,-162.5 2067.17,-169.5"/>
<text text-anchor="middle" x="1885.63" y="-169.8" font-family="Helvetica,Arial,sans-serif" font-size="14.00" fill="#f78a05">ε</text>
</g>
<!-- 37&#45;&gt;38 -->
<g id="edge48" class="edge">
<title>37&#45;&gt;38</title>
<path fill="none" stroke="#9c9332" d="M2117.95,-153.55C2129.82,-144.64 2146.04,-132.46 2159.58,-122.29"/>
<polygon fill="#9c9332" stroke="#9c9332" points="2161.34,-125.35 2167.23,-116.55 2157.13,-119.75 2161.34,-125.35"/>
<text text-anchor="middle" x="2143.32" y="-140.8" font-family="Helvetica,Arial,sans-serif" font-size="14.00" fill="#f78a05">ε</text>
</g>
<!-- 33 -->
<g id="node38" class="node">
<title>33</title>
<ellipse fill="#d19928" stroke="#d19928" cx="1720.89" cy="-325" rx="21.4" ry="21.4"/>
<text text-anchor="middle" x="1720.89" y="-321.3" font-family="Helvetica,Arial,sans-serif" font-size="14.00" fill="white">33</text>
</g>
<!-- 30&#45;&gt;33 -->
<g id="edge40" class="edge">
<title>30&#45;&gt;33</title>
<path fill="none" stroke="#9c9332" d="M1619.35,-283.87C1638.47,-291.7 1668.06,-303.8 1690.2,-312.85"/>
<polygon fill="#9c9332" stroke="#9c9332" points="1688.71,-316.03 1699.29,-316.57 1691.36,-309.55 1688.71,-316.03"/>
<text text-anchor="middle" x="1659.99" y="-312.8" font-family="Helvetica,Arial,sans-serif" font-size="14.00" fill="#f78a05">ε</text>
</g>
<!-- 31 -->
<g id="node39" class="node">
<title>31</title>
<ellipse fill="#d19928" stroke="#d19928" cx="1720.89" cy="-264" rx="21.4" ry="21.4"/>
<text text-anchor="middle" x="1720.89" y="-260.3" font-family="Helvetica,Arial,sans-serif" font-size="14.00" fill="white">31</text>
</g>
<!-- 30&#45;&gt;31 -->
<g id="edge41" class="edge">
<title>30&#45;&gt;31</title>
<path fill="none" stroke="#9c9332" d="M1620.69,-273.94C1639.12,-272.09 1666.43,-269.36 1687.74,-267.22"/>
<polygon fill="#9c9332" stroke="#9c9332" points="1688.06,-270.71 1697.66,-266.23 1687.36,-263.74 1688.06,-270.71"/>
<text text-anchor="middle" x="1659.99" y="-275.8" font-family="Helvetica,Arial,sans-serif" font-size="14.00" fill="#f78a05">ε</text>
</g>
<!-- 29 -->
<g id="node36" class="node">
<title>29</title>
<ellipse fill="#d19928" stroke="#d19928" cx="1781.79" cy="-215" rx="21.4" ry="21.4"/>
<text text-anchor="middle" x="1781.79" y="-211.3" font-family="Helvetica,Arial,sans-serif" font-size="14.00" fill="white">29</text>
</g>
<!-- 28&#45;&gt;29 -->
<g id="edge38" class="edge">
<title>28&#45;&gt;29</title>
<path fill="none" stroke="#9c9332" d="M1620.83,-215C1652.19,-215 1711.97,-215 1748.9,-215"/>
<polygon fill="#9c9332" stroke="#9c9332" points="1748.51,-218.5 1758.51,-215 1748.51,-211.5 1748.51,-218.5"/>
<text text-anchor="middle" x="1659.99" y="-218.8" font-family="Helvetica,Arial,sans-serif" font-size="14.00" fill="#f78a05">mayus</text>
</g>
<!-- 36 -->
<g id="node37" class="node">
<title>36</title>
<ellipse fill="#d19928" stroke="#d19928" cx="2014.48" cy="-215" rx="21.4" ry="21.4"/>
<text text-anchor="middle" x="2014.48" y="-211.3" font-family="Helvetica,Arial,sans-serif" font-size="14.00" fill="white">36</text>
</g>
<!-- 29&#45;&gt;36 -->
<g id="edge39" class="edge">
<title>29&#45;&gt;36</title>
<path fill="none" stroke="#9c9332" d="M1803.67,-215C1844.16,-215 1933.57,-215 1981.56,-215"/>
<polygon fill="#9c9332" stroke="#9c9332" points="1981.3,-218.5 1991.3,-215 1981.3,-211.5 1981.3,-218.5"/>
<text text-anchor="middle" x="1885.63" y="-218.8" font-family="Helvetica,Arial,sans-serif" font-size="14.00" fill="#f78a05">ε</text>
</g>
<!-- 36&#45;&gt;37 -->
<g id="edge47" class="edge">
<title>36&#45;&gt;37</title>
<path fill="none" stroke="#9c9332" d="M2033.27,-204.61C2044.43,-198.09 2059.04,-189.55 2071.7,-182.16"/>
<polygon fill="#9c9332" stroke="#9c9332" points="2073.14,-185.37 2080.01,-177.31 2069.61,-179.33 2073.14,-185.37"/>
<text text-anchor="middle" x="2057.42" y="-194.8" font-family="Helvetica,Arial,sans-serif" font-size="14.00" fill="#f78a05">ε</text>
</g>
<!-- 34 -->
<g id="node42" class="node">
<title>34</title>
<ellipse fill="#d19928" stroke="#d19928" cx="1842.68" cy="-325" rx="21.4" ry="21.4"/>
<text text-anchor="middle" x="1842.68" y="-321.3" font-family="Helvetica,Arial,sans-serif" font-size="14.00" fill="white">34</text>
</g>
<!-- 33&#45;&gt;34 -->
<g id="edge44" class="edge">
<title>33&#45;&gt;34</title>
<path fill="none" stroke="#9c9332" d="M1742.76,-325C1761.22,-325 1788.45,-325 1809.67,-325"/>
<polygon fill="#9c9332" stroke="#9c9332" points="1809.54,-328.5 1819.54,-325 1809.54,-321.5 1809.54,-328.5"/>
</g>
<!-- 32 -->
<g id="node40" class="node">
<title>32</title>
<ellipse fill="#d19928" stroke="#d19928" cx="1842.68" cy="-264" rx="21.4" ry="21.4"/>
<text text-anchor="middle" x="1842.68" y="-260.3" font-family="Helvetica,Arial,sans-serif" font-size="14.00" fill="white">32</text>
</g>
<!-- 31&#45;&gt;32 -->
<g id="edge42" class="edge">
<title>31&#45;&gt;32</title>
<path fill="none" stroke="#9c9332" d="M1742.76,-264C1761.22,-264 1788.45,-264 1809.67,-264"/>
<polygon fill="#9c9332" stroke="#9c9332" points="1809.54,-267.5 1819.54,-264 1809.54,-260.5 1809.54,-267.5"/>
<text text-anchor="middle" x="1781.79" y="-267.8" font-family="Helvetica,Arial,sans-serif" font-size="14.00" fill="#f78a05">minus</text>
</g>
<!-- 35 -->
<g id="node41" class="node">
<title>35</title>
<ellipse fill="#d19928" stroke="#d19928" cx="1928.58" cy="-264" rx="21.4" ry="21.4"/>
<text text-anchor="middle" x="1928.58" y="-260.3" font-family="Helvetica,Arial,sans-serif" font-size="14.00" fill="white">35</text>
</g>
<!-- 32&#45;&gt;35 -->
<g id="edge43" class="edge">
<title>32&#45;&gt;35</title>
<path fill="none" stroke="#9c9332" d="M1864.42,-264C1873.8,-264 1885.1,-264 1895.53,-264"/>
<polygon fill="#9c9332" stroke="#9c9332" points="1895.28,-267.5 1905.28,-264 1895.28,-260.5 1895.28,-267.5"/>
<text text-anchor="middle" x="1885.63" y="-267.8" font-family="Helvetica,Arial,sans-serif" font-size="14.00" fill="#f78a05">ε</text>
</g>
<!-- 35&#45;&gt;36 -->
<g id="edge46" class="edge">
<title>35&#45;&gt;36</title>
<path fill="none" stroke="#9c9332" d="M1947.37,-253.61C1958.53,-247.09 1973.15,-238.55 1985.8,-231.16"/>
<polygon fill="#9c9332" stroke="#9c9332" points="1987.24,-234.37 1994.11,-226.31 1983.71,-228.33 1987.24,-234.37"/>
<text text-anchor="middle" x="1971.53" y="-243.8" font-family="Helvetica,Arial,sans-serif" font-size="14.00" fill="#f78a05">ε</text>
</g>
<!-- 34&#45;&gt;35 -->
<g id="edge45" class="edge">
<title>34&#45;&gt;35</title>
<path fill="none" stroke="#9c9332" d="M1860.66,-312.66C1872.37,-304.14 1888.17,-292.65 1901.47,-282.98"/>
<polygon fill="#9c9332" stroke="#9c9332" points="1903.37,-285.93 1909.4,-277.22 1899.26,-280.27 1903.37,-285.93"/>
<text text-anchor="middle" x="1885.63" y="-299.8" font-family="Helvetica,Arial,sans-serif" font-size="14.00" fill="#f78a05">ε</text>
</g>
<!-- 40&#45;&gt;41 -->
<g id="edge52" class="edge">
<title>40&#45;&gt;41</title>
<path fill="none" stroke="#9c9332" d="M2379.61,-57C2388.12,-57 2398.25,-57 2407.93,-57"/>
<polygon fill="#9c9332" stroke="#9c9332" points="2407.85,-60.5 2417.85,-57 2407.85,-53.5 2407.85,-60.5"/>
<text text-anchor="middle" x="2399.51" y="-60.8" font-family="Helvetica,Arial,sans-serif" font-size="14.00" fill="#f78a05">&#39;</text>
</g>
</g>
</svg>
