<?xml version="1.0" encoding="UTF-8" standalone="no"?>
<!DOCTYPE svg PUBLIC "-//W3C//DTD SVG 1.1//EN"
 "http://www.w3.org/Graphics/SVG/1.1/DTD/svg11.dtd">
<!-- Generated by graphviz version 7.1.0 (20230121.1956)
 -->
<!-- Title: finite_state_machine Pages: 1 -->
<svg width="1321pt" height="136pt"
 viewBox="0.00 0.00 1320.58 135.65" xmlns="http://www.w3.org/2000/svg" xmlns:xlink="http://www.w3.org/1999/xlink">
<g id="graph0" class="graph" transform="scale(1 1) rotate(0) translate(4 131.65)">
<title>finite_state_machine</title>
<polygon fill="white" stroke="none" points="-4,4 -4,-131.65 1316.58,-131.65 1316.58,4 -4,4"/>
<text text-anchor="middle" x="656.29" y="-7.8" font-family="Times New Roman,serif" font-size="14.00">decimales</text>
<!-- 13 -->
<g id="node1" class="node">
<title>13</title>
<ellipse fill="#f78a05" stroke="#f78a05" cx="1287.14" cy="-69.65" rx="21.4" ry="21.4"/>
<ellipse fill="none" stroke="#f78a05" cx="1287.14" cy="-69.65" rx="25.4" ry="25.4"/>
<text text-anchor="middle" x="1287.14" y="-65.95" font-family="Helvetica,Arial,sans-serif" font-size="14.00" fill="white">13</text>
</g>
<!-- flechainicio -->
<!-- 0 -->
<g id="node3" class="node">
<title>0</title>
<ellipse fill="#d19928" stroke="#d19928" cx="123" cy="-69.65" rx="18" ry="18"/>
<text text-anchor="middle" x="123" y="-65.95" font-family="Helvetica,Arial,sans-serif" font-size="14.00" fill="white">0</text>
</g>
<!-- flechainicio&#45;&gt;0 -->
<g id="edge1" class="edge">
<title>flechainicio&#45;&gt;0</title>
<path fill="none" stroke="#9c9332" d="M36.47,-69.65C52.03,-69.65 75.08,-69.65 93.34,-69.65"/>
<polygon fill="#9c9332" stroke="#9c9332" points="93.27,-73.15 103.27,-69.65 93.27,-66.15 93.27,-73.15"/>
<text text-anchor="middle" x="70.5" y="-73.45" font-family="Helvetica,Arial,sans-serif" font-size="14.00" fill="#f78a05">inicio</text>
</g>
<!-- 1 -->
<g id="node4" class="node">
<title>1</title>
<ellipse fill="#d19928" stroke="#d19928" cx="230" cy="-69.65" rx="18" ry="18"/>
<text text-anchor="middle" x="230" y="-65.95" font-family="Helvetica,Arial,sans-serif" font-size="14.00" fill="white">1</text>
</g>
<!-- 0&#45;&gt;1 -->
<g id="edge2" class="edge">
<title>0&#45;&gt;1</title>
<path fill="none" stroke="#9c9332" d="M141.34,-69.65C157.3,-69.65 181.28,-69.65 200.13,-69.65"/>
<polygon fill="#9c9332" stroke="#9c9332" points="200.12,-73.15 210.12,-69.65 200.12,-66.15 200.12,-73.15"/>
<text text-anchor="middle" x="176.5" y="-73.45" font-family="Helvetica,Arial,sans-serif" font-size="14.00" fill="#f78a05">digito</text>
</g>
<!-- 2 -->
<g id="node5" class="node">
<title>2</title>
<ellipse fill="#d19928" stroke="#d19928" cx="309" cy="-69.65" rx="18" ry="18"/>
<text text-anchor="middle" x="309" y="-65.95" font-family="Helvetica,Arial,sans-serif" font-size="14.00" fill="white">2</text>
</g>
<!-- 1&#45;&gt;2 -->
<g id="edge3" class="edge">
<title>1&#45;&gt;2</title>
<path fill="none" stroke="#9c9332" d="M248.47,-69.65C257.53,-69.65 268.83,-69.65 279.14,-69.65"/>
<polygon fill="#9c9332" stroke="#9c9332" points="279.08,-73.15 289.08,-69.65 279.08,-66.15 279.08,-73.15"/>
<text text-anchor="middle" x="269.5" y="-73.45" font-family="Helvetica,Arial,sans-serif" font-size="14.00" fill="#f78a05">ε</text>
</g>
<!-- 3 -->
<g id="node6" class="node">
<title>3</title>
<ellipse fill="#d19928" stroke="#d19928" cx="388" cy="-99.65" rx="18" ry="18"/>
<text text-anchor="middle" x="388" y="-95.95" font-family="Helvetica,Arial,sans-serif" font-size="14.00" fill="white">3</text>
</g>
<!-- 2&#45;&gt;3 -->
<g id="edge4" class="edge">
<title>2&#45;&gt;3</title>
<path fill="none" stroke="#9c9332" d="M326.33,-76.02C336.13,-79.83 348.84,-84.79 360.09,-89.17"/>
<polygon fill="#9c9332" stroke="#9c9332" points="358.7,-92.38 369.28,-92.75 361.24,-85.86 358.7,-92.38"/>
<text text-anchor="middle" x="348.5" y="-88.45" font-family="Helvetica,Arial,sans-serif" font-size="14.00" fill="#f78a05">ε</text>
</g>
<!-- 5 -->
<g id="node7" class="node">
<title>5</title>
<ellipse fill="#d19928" stroke="#d19928" cx="574" cy="-69.65" rx="18" ry="18"/>
<text text-anchor="middle" x="574" y="-65.95" font-family="Helvetica,Arial,sans-serif" font-size="14.00" fill="white">5</text>
</g>
<!-- 2&#45;&gt;5 -->
<g id="edge5" class="edge">
<title>2&#45;&gt;5</title>
<path fill="none" stroke="#9c9332" d="M327.26,-69.65C371.56,-69.65 489.66,-69.65 544.41,-69.65"/>
<polygon fill="#9c9332" stroke="#9c9332" points="544.17,-73.15 554.17,-69.65 544.17,-66.15 544.17,-73.15"/>
<text text-anchor="middle" x="441.5" y="-73.45" font-family="Helvetica,Arial,sans-serif" font-size="14.00" fill="#f78a05">ε</text>
</g>
<!-- 4 -->
<g id="node8" class="node">
<title>4</title>
<ellipse fill="#d19928" stroke="#d19928" cx="495" cy="-99.65" rx="18" ry="18"/>
<text text-anchor="middle" x="495" y="-95.95" font-family="Helvetica,Arial,sans-serif" font-size="14.00" fill="white">4</text>
</g>
<!-- 3&#45;&gt;4 -->
<g id="edge6" class="edge">
<title>3&#45;&gt;4</title>
<path fill="none" stroke="#9c9332" d="M405.09,-106.41C410.94,-108.54 417.66,-110.6 424,-111.65 439.34,-114.21 443.66,-114.21 459,-111.65 461.67,-111.21 464.42,-110.58 467.13,-109.85"/>
<polygon fill="#9c9332" stroke="#9c9332" points="468,-113.25 476.47,-106.87 465.88,-106.58 468,-113.25"/>
<text text-anchor="middle" x="441.5" y="-116.45" font-family="Helvetica,Arial,sans-serif" font-size="14.00" fill="#f78a05">digito</text>
</g>
<!-- 6 -->
<g id="node9" class="node">
<title>6</title>
<ellipse fill="#d19928" stroke="#d19928" cx="653" cy="-69.65" rx="18" ry="18"/>
<text text-anchor="middle" x="653" y="-65.95" font-family="Helvetica,Arial,sans-serif" font-size="14.00" fill="white">6</text>
</g>
<!-- 5&#45;&gt;6 -->
<g id="edge9" class="edge">
<title>5&#45;&gt;6</title>
<path fill="none" stroke="#9c9332" d="M592.47,-69.65C601.53,-69.65 612.83,-69.65 623.14,-69.65"/>
<polygon fill="#9c9332" stroke="#9c9332" points="623.08,-73.15 633.08,-69.65 623.08,-66.15 623.08,-73.15"/>
<text text-anchor="middle" x="613.5" y="-73.45" font-family="Helvetica,Arial,sans-serif" font-size="14.00" fill="#f78a05">ε</text>
</g>
<!-- 4&#45;&gt;3 -->
<g id="edge7" class="edge">
<title>4&#45;&gt;3</title>
<path fill="none" stroke="#9c9332" d="M477.01,-95.56C471.32,-94.37 464.92,-93.24 459,-92.65 443.52,-91.12 439.48,-91.12 424,-92.65 421.78,-92.87 419.49,-93.17 417.2,-93.52"/>
<polygon fill="#9c9332" stroke="#9c9332" points="416.69,-90.05 407.48,-95.28 417.94,-96.94 416.69,-90.05"/>
<text text-anchor="middle" x="441.5" y="-96.45" font-family="Helvetica,Arial,sans-serif" font-size="14.00" fill="#f78a05">ε</text>
</g>
<!-- 4&#45;&gt;5 -->
<g id="edge8" class="edge">
<title>4&#45;&gt;5</title>
<path fill="none" stroke="#9c9332" d="M512.33,-93.29C522.13,-89.47 534.84,-84.52 546.09,-80.14"/>
<polygon fill="#9c9332" stroke="#9c9332" points="547.24,-83.45 555.28,-76.56 544.7,-76.93 547.24,-83.45"/>
<text text-anchor="middle" x="534.5" y="-88.45" font-family="Helvetica,Arial,sans-serif" font-size="14.00" fill="#f78a05">ε</text>
</g>
<!-- 7 -->
<g id="node10" class="node">
<title>7</title>
<ellipse fill="#d19928" stroke="#d19928" cx="729" cy="-69.65" rx="18" ry="18"/>
<text text-anchor="middle" x="729" y="-65.95" font-family="Helvetica,Arial,sans-serif" font-size="14.00" fill="white">7</text>
</g>
<!-- 6&#45;&gt;7 -->
<g id="edge10" class="edge">
<title>6&#45;&gt;7</title>
<path fill="none" stroke="#9c9332" d="M671.16,-69.65C679.51,-69.65 689.77,-69.65 699.26,-69.65"/>
<polygon fill="#9c9332" stroke="#9c9332" points="699.16,-73.15 709.16,-69.65 699.16,-66.15 699.16,-73.15"/>
<text text-anchor="middle" x="691" y="-73.45" font-family="Helvetica,Arial,sans-serif" font-size="14.00" fill="#f78a05">.</text>
</g>
<!-- 8 -->
<g id="node11" class="node">
<title>8</title>
<ellipse fill="#d19928" stroke="#d19928" cx="808" cy="-69.65" rx="18" ry="18"/>
<text text-anchor="middle" x="808" y="-65.95" font-family="Helvetica,Arial,sans-serif" font-size="14.00" fill="white">8</text>
</g>
<!-- 7&#45;&gt;8 -->
<g id="edge11" class="edge">
<title>7&#45;&gt;8</title>
<path fill="none" stroke="#9c9332" d="M747.47,-69.65C756.53,-69.65 767.83,-69.65 778.14,-69.65"/>
<polygon fill="#9c9332" stroke="#9c9332" points="778.08,-73.15 788.08,-69.65 778.08,-66.15 778.08,-73.15"/>
<text text-anchor="middle" x="768.5" y="-73.45" font-family="Helvetica,Arial,sans-serif" font-size="14.00" fill="#f78a05">ε</text>
</g>
<!-- 9 -->
<g id="node12" class="node">
<title>9</title>
<ellipse fill="#d19928" stroke="#d19928" cx="915" cy="-69.65" rx="18" ry="18"/>
<text text-anchor="middle" x="915" y="-65.95" font-family="Helvetica,Arial,sans-serif" font-size="14.00" fill="white">9</text>
</g>
<!-- 8&#45;&gt;9 -->
<g id="edge12" class="edge">
<title>8&#45;&gt;9</title>
<path fill="none" stroke="#9c9332" d="M826.34,-69.65C842.3,-69.65 866.28,-69.65 885.13,-69.65"/>
<polygon fill="#9c9332" stroke="#9c9332" points="885.12,-73.15 895.12,-69.65 885.12,-66.15 885.12,-73.15"/>
<text text-anchor="middle" x="861.5" y="-73.45" font-family="Helvetica,Arial,sans-serif" font-size="14.00" fill="#f78a05">digito</text>
</g>
<!-- 10 -->
<g id="node13" class="node">
<title>10</title>
<ellipse fill="#d19928" stroke="#d19928" cx="997.45" cy="-69.65" rx="21.4" ry="21.4"/>
<text text-anchor="middle" x="997.45" y="-65.95" font-family="Helvetica,Arial,sans-serif" font-size="14.00" fill="white">10</text>
</g>
<!-- 9&#45;&gt;10 -->
<g id="edge13" class="edge">
<title>9&#45;&gt;10</title>
<path fill="none" stroke="#9c9332" d="M933.46,-69.65C942.45,-69.65 953.72,-69.65 964.23,-69.65"/>
<polygon fill="#9c9332" stroke="#9c9332" points="964.09,-73.15 974.09,-69.65 964.09,-66.15 964.09,-73.15"/>
<text text-anchor="middle" x="954.5" y="-73.45" font-family="Helvetica,Arial,sans-serif" font-size="14.00" fill="#f78a05">ε</text>
</g>
<!-- 10&#45;&gt;13 -->
<g id="edge15" class="edge">
<title>10&#45;&gt;13</title>
<path fill="none" stroke="#9c9332" d="M1018.68,-74.67C1024.52,-75.9 1030.93,-77.04 1036.9,-77.65 1039.99,-77.97 1040.79,-77.66 1043.9,-77.65 1132.69,-77.43 1155.21,-84.12 1243.69,-76.65 1246.01,-76.46 1248.4,-76.2 1250.81,-75.91"/>
<polygon fill="#9c9332" stroke="#9c9332" points="1251.07,-79.41 1260.48,-74.53 1250.08,-72.48 1251.07,-79.41"/>
<text text-anchor="middle" x="1140.29" y="-83.45" font-family="Helvetica,Arial,sans-serif" font-size="14.00" fill="#f78a05">ε</text>
</g>
<!-- 11 -->
<g id="node14" class="node">
<title>11</title>
<ellipse fill="#d19928" stroke="#d19928" cx="1083.34" cy="-44.65" rx="21.4" ry="21.4"/>
<text text-anchor="middle" x="1083.34" y="-40.95" font-family="Helvetica,Arial,sans-serif" font-size="14.00" fill="white">11</text>
</g>
<!-- 10&#45;&gt;11 -->
<g id="edge14" class="edge">
<title>10&#45;&gt;11</title>
<path fill="none" stroke="#9c9332" d="M1018.33,-63.73C1028.18,-60.79 1040.31,-57.18 1051.35,-53.89"/>
<polygon fill="#9c9332" stroke="#9c9332" points="1052.28,-57.27 1060.86,-51.05 1050.28,-50.56 1052.28,-57.27"/>
<text text-anchor="middle" x="1040.4" y="-62.45" font-family="Helvetica,Arial,sans-serif" font-size="14.00" fill="#f78a05">ε</text>
</g>
<!-- 12 -->
<g id="node15" class="node">
<title>12</title>
<ellipse fill="#d19928" stroke="#d19928" cx="1197.24" cy="-44.65" rx="21.4" ry="21.4"/>
<text text-anchor="middle" x="1197.24" y="-40.95" font-family="Helvetica,Arial,sans-serif" font-size="14.00" fill="white">12</text>
</g>
<!-- 11&#45;&gt;12 -->
<g id="edge16" class="edge">
<title>11&#45;&gt;12</title>
<path fill="none" stroke="#9c9332" d="M1105.13,-44.65C1121.69,-44.65 1145.18,-44.65 1164.15,-44.65"/>
<polygon fill="#9c9332" stroke="#9c9332" points="1164.05,-48.15 1174.05,-44.65 1164.05,-41.15 1164.05,-48.15"/>
<text text-anchor="middle" x="1140.29" y="-48.45" font-family="Helvetica,Arial,sans-serif" font-size="14.00" fill="#f78a05">digito</text>
</g>
<!-- 12&#45;&gt;13 -->
<g id="edge18" class="edge">
<title>12&#45;&gt;13</title>
<path fill="none" stroke="#9c9332" d="M1218.19,-50.33C1227.99,-53.11 1240.08,-56.56 1251.34,-59.76"/>
<polygon fill="#9c9332" stroke="#9c9332" points="1250.18,-63.06 1260.75,-62.43 1252.09,-56.33 1250.18,-63.06"/>
<text text-anchor="middle" x="1240.19" y="-61.45" font-family="Helvetica,Arial,sans-serif" font-size="14.00" fill="#f78a05">ε</text>
</g>
<!-- 12&#45;&gt;11 -->
<g id="edge17" class="edge">
<title>12&#45;&gt;11</title>
<path fill="none" stroke="#9c9332" d="M1178.5,-33.77C1172.2,-30.49 1164.9,-27.31 1157.79,-25.65 1142.64,-22.12 1137.94,-22.12 1122.79,-25.65 1119.35,-26.46 1115.86,-27.62 1112.47,-28.97"/>
<polygon fill="#9c9332" stroke="#9c9332" points="1111.07,-25.76 1103.46,-33.14 1114,-32.12 1111.07,-25.76"/>
<text text-anchor="middle" x="1140.29" y="-29.45" font-family="Helvetica,Arial,sans-serif" font-size="14.00" fill="#f78a05">ε</text>
</g>
</g>
</svg>
