<?xml version="1.0" encoding="UTF-8" standalone="no"?>
<!DOCTYPE svg PUBLIC "-//W3C//DTD SVG 1.1//EN"
 "http://www.w3.org/Graphics/SVG/1.1/DTD/svg11.dtd">
<!-- Generated by graphviz version 7.1.0 (20230121.1956)
 -->
<!-- Title: finite_state_machine Pages: 1 -->
<svg width="2539pt" height="306pt"
 viewBox="0.00 0.00 2538.82 305.90" xmlns="http://www.w3.org/2000/svg" xmlns:xlink="http://www.w3.org/1999/xlink">
<g id="graph0" class="graph" transform="scale(1 1) rotate(0) translate(4 301.9)">
<title>finite_state_machine</title>
<polygon fill="white" stroke="none" points="-4,4 -4,-301.9 2534.82,-301.9 2534.82,4 -4,4"/>
<text text-anchor="middle" x="1265.41" y="-7.8" font-family="Times New Roman,serif" font-size="14.00">frase</text>
<!-- 37 -->
<g id="node1" class="node">
<title>37</title>
<ellipse fill="#f78a05" stroke="#f78a05" cx="2505.37" cy="-60.45" rx="21.4" ry="21.4"/>
<ellipse fill="none" stroke="#f78a05" cx="2505.37" cy="-60.45" rx="25.4" ry="25.4"/>
<text text-anchor="middle" x="2505.37" y="-56.75" font-family="Helvetica,Arial,sans-serif" font-size="14.00" fill="white">37</text>
</g>
<!-- flechainicio -->
<!-- 0 -->
<g id="node3" class="node">
<title>0</title>
<ellipse fill="#d19928" stroke="#d19928" cx="123" cy="-74.45" rx="18" ry="18"/>
<text text-anchor="middle" x="123" y="-70.75" font-family="Helvetica,Arial,sans-serif" font-size="14.00" fill="white">0</text>
</g>
<!-- flechainicio&#45;&gt;0 -->
<g id="edge1" class="edge">
<title>flechainicio&#45;&gt;0</title>
<path fill="none" stroke="#9c9332" d="M36.47,-74.45C52.03,-74.45 75.08,-74.45 93.34,-74.45"/>
<polygon fill="#9c9332" stroke="#9c9332" points="93.27,-77.95 103.27,-74.45 93.27,-70.95 93.27,-77.95"/>
<text text-anchor="middle" x="70.5" y="-78.25" font-family="Helvetica,Arial,sans-serif" font-size="14.00" fill="#f78a05">inicio</text>
</g>
<!-- 1 -->
<g id="node4" class="node">
<title>1</title>
<ellipse fill="#d19928" stroke="#d19928" cx="206" cy="-74.45" rx="18" ry="18"/>
<text text-anchor="middle" x="206" y="-70.75" font-family="Helvetica,Arial,sans-serif" font-size="14.00" fill="white">1</text>
</g>
<!-- 0&#45;&gt;1 -->
<g id="edge2" class="edge">
<title>0&#45;&gt;1</title>
<path fill="none" stroke="#9c9332" d="M141.18,-74.45C151.31,-74.45 164.4,-74.45 176.08,-74.45"/>
<polygon fill="#9c9332" stroke="#9c9332" points="176.05,-77.95 186.05,-74.45 176.05,-70.95 176.05,-77.95"/>
<text text-anchor="middle" x="164.5" y="-78.25" font-family="Helvetica,Arial,sans-serif" font-size="14.00" fill="#f78a05">C</text>
</g>
<!-- 2 -->
<g id="node5" class="node">
<title>2</title>
<ellipse fill="#d19928" stroke="#d19928" cx="285" cy="-74.45" rx="18" ry="18"/>
<text text-anchor="middle" x="285" y="-70.75" font-family="Helvetica,Arial,sans-serif" font-size="14.00" fill="white">2</text>
</g>
<!-- 1&#45;&gt;2 -->
<g id="edge3" class="edge">
<title>1&#45;&gt;2</title>
<path fill="none" stroke="#9c9332" d="M224.47,-74.45C233.53,-74.45 244.83,-74.45 255.14,-74.45"/>
<polygon fill="#9c9332" stroke="#9c9332" points="255.08,-77.95 265.08,-74.45 255.08,-70.95 255.08,-77.95"/>
<text text-anchor="middle" x="245.5" y="-78.25" font-family="Helvetica,Arial,sans-serif" font-size="14.00" fill="#f78a05">ε</text>
</g>
<!-- 3 -->
<g id="node6" class="node">
<title>3</title>
<ellipse fill="#d19928" stroke="#d19928" cx="369" cy="-74.45" rx="18" ry="18"/>
<text text-anchor="middle" x="369" y="-70.75" font-family="Helvetica,Arial,sans-serif" font-size="14.00" fill="white">3</text>
</g>
<!-- 2&#45;&gt;3 -->
<g id="edge4" class="edge">
<title>2&#45;&gt;3</title>
<path fill="none" stroke="#9c9332" d="M303.39,-74.45C313.83,-74.45 327.36,-74.45 339.34,-74.45"/>
<polygon fill="#9c9332" stroke="#9c9332" points="339.12,-77.95 349.12,-74.45 339.12,-70.95 339.12,-77.95"/>
<text text-anchor="middle" x="327" y="-78.25" font-family="Helvetica,Arial,sans-serif" font-size="14.00" fill="#f78a05">O</text>
</g>
<!-- 4 -->
<g id="node7" class="node">
<title>4</title>
<ellipse fill="#d19928" stroke="#d19928" cx="448" cy="-74.45" rx="18" ry="18"/>
<text text-anchor="middle" x="448" y="-70.75" font-family="Helvetica,Arial,sans-serif" font-size="14.00" fill="white">4</text>
</g>
<!-- 3&#45;&gt;4 -->
<g id="edge5" class="edge">
<title>3&#45;&gt;4</title>
<path fill="none" stroke="#9c9332" d="M387.47,-74.45C396.53,-74.45 407.83,-74.45 418.14,-74.45"/>
<polygon fill="#9c9332" stroke="#9c9332" points="418.08,-77.95 428.08,-74.45 418.08,-70.95 418.08,-77.95"/>
<text text-anchor="middle" x="408.5" y="-78.25" font-family="Helvetica,Arial,sans-serif" font-size="14.00" fill="#f78a05">ε</text>
</g>
<!-- 5 -->
<g id="node8" class="node">
<title>5</title>
<ellipse fill="#d19928" stroke="#d19928" cx="532" cy="-74.45" rx="18" ry="18"/>
<text text-anchor="middle" x="532" y="-70.75" font-family="Helvetica,Arial,sans-serif" font-size="14.00" fill="white">5</text>
</g>
<!-- 4&#45;&gt;5 -->
<g id="edge6" class="edge">
<title>4&#45;&gt;5</title>
<path fill="none" stroke="#9c9332" d="M466.39,-74.45C476.83,-74.45 490.36,-74.45 502.34,-74.45"/>
<polygon fill="#9c9332" stroke="#9c9332" points="502.12,-77.95 512.12,-74.45 502.12,-70.95 502.12,-77.95"/>
<text text-anchor="middle" x="490" y="-78.25" font-family="Helvetica,Arial,sans-serif" font-size="14.00" fill="#f78a05">M</text>
</g>
<!-- 6 -->
<g id="node9" class="node">
<title>6</title>
<ellipse fill="#d19928" stroke="#d19928" cx="611" cy="-74.45" rx="18" ry="18"/>
<text text-anchor="middle" x="611" y="-70.75" font-family="Helvetica,Arial,sans-serif" font-size="14.00" fill="white">6</text>
</g>
<!-- 5&#45;&gt;6 -->
<g id="edge7" class="edge">
<title>5&#45;&gt;6</title>
<path fill="none" stroke="#9c9332" d="M550.47,-74.45C559.53,-74.45 570.83,-74.45 581.14,-74.45"/>
<polygon fill="#9c9332" stroke="#9c9332" points="581.08,-77.95 591.08,-74.45 581.08,-70.95 581.08,-77.95"/>
<text text-anchor="middle" x="571.5" y="-78.25" font-family="Helvetica,Arial,sans-serif" font-size="14.00" fill="#f78a05">ε</text>
</g>
<!-- 7 -->
<g id="node10" class="node">
<title>7</title>
<ellipse fill="#d19928" stroke="#d19928" cx="693" cy="-74.45" rx="18" ry="18"/>
<text text-anchor="middle" x="693" y="-70.75" font-family="Helvetica,Arial,sans-serif" font-size="14.00" fill="white">7</text>
</g>
<!-- 6&#45;&gt;7 -->
<g id="edge8" class="edge">
<title>6&#45;&gt;7</title>
<path fill="none" stroke="#9c9332" d="M629.36,-74.45C639.32,-74.45 652.07,-74.45 663.46,-74.45"/>
<polygon fill="#9c9332" stroke="#9c9332" points="663.16,-77.95 673.16,-74.45 663.16,-70.95 663.16,-77.95"/>
<text text-anchor="middle" x="652" y="-78.25" font-family="Helvetica,Arial,sans-serif" font-size="14.00" fill="#f78a05">P</text>
</g>
<!-- 8 -->
<g id="node11" class="node">
<title>8</title>
<ellipse fill="#d19928" stroke="#d19928" cx="772" cy="-74.45" rx="18" ry="18"/>
<text text-anchor="middle" x="772" y="-70.75" font-family="Helvetica,Arial,sans-serif" font-size="14.00" fill="white">8</text>
</g>
<!-- 7&#45;&gt;8 -->
<g id="edge9" class="edge">
<title>7&#45;&gt;8</title>
<path fill="none" stroke="#9c9332" d="M711.47,-74.45C720.53,-74.45 731.83,-74.45 742.14,-74.45"/>
<polygon fill="#9c9332" stroke="#9c9332" points="742.08,-77.95 752.08,-74.45 742.08,-70.95 742.08,-77.95"/>
<text text-anchor="middle" x="732.5" y="-78.25" font-family="Helvetica,Arial,sans-serif" font-size="14.00" fill="#f78a05">ε</text>
</g>
<!-- 9 -->
<g id="node12" class="node">
<title>9</title>
<ellipse fill="#d19928" stroke="#d19928" cx="849" cy="-74.45" rx="18" ry="18"/>
<text text-anchor="middle" x="849" y="-70.75" font-family="Helvetica,Arial,sans-serif" font-size="14.00" fill="white">9</text>
</g>
<!-- 8&#45;&gt;9 -->
<g id="edge10" class="edge">
<title>8&#45;&gt;9</title>
<path fill="none" stroke="#9c9332" d="M790.4,-74.45C799.01,-74.45 809.63,-74.45 819.4,-74.45"/>
<polygon fill="#9c9332" stroke="#9c9332" points="819.19,-77.95 829.19,-74.45 819.19,-70.95 819.19,-77.95"/>
<text text-anchor="middle" x="810.5" y="-78.25" font-family="Helvetica,Arial,sans-serif" font-size="14.00" fill="#f78a05">I</text>
</g>
<!-- 10 -->
<g id="node13" class="node">
<title>10</title>
<ellipse fill="#d19928" stroke="#d19928" cx="931.45" cy="-74.45" rx="21.4" ry="21.4"/>
<text text-anchor="middle" x="931.45" y="-70.75" font-family="Helvetica,Arial,sans-serif" font-size="14.00" fill="white">10</text>
</g>
<!-- 9&#45;&gt;10 -->
<g id="edge11" class="edge">
<title>9&#45;&gt;10</title>
<path fill="none" stroke="#9c9332" d="M867.46,-74.45C876.45,-74.45 887.72,-74.45 898.23,-74.45"/>
<polygon fill="#9c9332" stroke="#9c9332" points="898.09,-77.95 908.09,-74.45 898.09,-70.95 898.09,-77.95"/>
<text text-anchor="middle" x="888.5" y="-78.25" font-family="Helvetica,Arial,sans-serif" font-size="14.00" fill="#f78a05">ε</text>
</g>
<!-- 11 -->
<g id="node14" class="node">
<title>11</title>
<ellipse fill="#d19928" stroke="#d19928" cx="1019.34" cy="-74.45" rx="21.4" ry="21.4"/>
<text text-anchor="middle" x="1019.34" y="-70.75" font-family="Helvetica,Arial,sans-serif" font-size="14.00" fill="white">11</text>
</g>
<!-- 10&#45;&gt;11 -->
<g id="edge12" class="edge">
<title>10&#45;&gt;11</title>
<path fill="none" stroke="#9c9332" d="M953.24,-74.45C963.16,-74.45 975.25,-74.45 986.3,-74.45"/>
<polygon fill="#9c9332" stroke="#9c9332" points="986.23,-77.95 996.23,-74.45 986.23,-70.95 986.23,-77.95"/>
<text text-anchor="middle" x="975.4" y="-78.25" font-family="Helvetica,Arial,sans-serif" font-size="14.00" fill="#f78a05">1</text>
</g>
<!-- 12 -->
<g id="node15" class="node">
<title>12</title>
<ellipse fill="#d19928" stroke="#d19928" cx="1105.24" cy="-74.45" rx="21.4" ry="21.4"/>
<text text-anchor="middle" x="1105.24" y="-70.75" font-family="Helvetica,Arial,sans-serif" font-size="14.00" fill="white">12</text>
</g>
<!-- 11&#45;&gt;12 -->
<g id="edge13" class="edge">
<title>11&#45;&gt;12</title>
<path fill="none" stroke="#9c9332" d="M1041.08,-74.45C1050.46,-74.45 1061.76,-74.45 1072.19,-74.45"/>
<polygon fill="#9c9332" stroke="#9c9332" points="1071.94,-77.95 1081.94,-74.45 1071.94,-70.95 1071.94,-77.95"/>
<text text-anchor="middle" x="1062.29" y="-78.25" font-family="Helvetica,Arial,sans-serif" font-size="14.00" fill="#f78a05">ε</text>
</g>
<!-- 15 -->
<g id="node16" class="node">
<title>15</title>
<ellipse fill="#d19928" stroke="#d19928" cx="1191.14" cy="-105.45" rx="21.4" ry="21.4"/>
<text text-anchor="middle" x="1191.14" y="-101.75" font-family="Helvetica,Arial,sans-serif" font-size="14.00" fill="white">15</text>
</g>
<!-- 12&#45;&gt;15 -->
<g id="edge14" class="edge">
<title>12&#45;&gt;15</title>
<path fill="none" stroke="#9c9332" d="M1125.7,-81.64C1135.9,-85.41 1148.61,-90.1 1160.05,-94.33"/>
<polygon fill="#9c9332" stroke="#9c9332" points="1158.48,-97.48 1169.07,-97.67 1160.91,-90.92 1158.48,-97.48"/>
<text text-anchor="middle" x="1148.19" y="-95.25" font-family="Helvetica,Arial,sans-serif" font-size="14.00" fill="#f78a05">ε</text>
</g>
<!-- 13 -->
<g id="node17" class="node">
<title>13</title>
<ellipse fill="#d19928" stroke="#d19928" cx="1191.14" cy="-44.45" rx="21.4" ry="21.4"/>
<text text-anchor="middle" x="1191.14" y="-40.75" font-family="Helvetica,Arial,sans-serif" font-size="14.00" fill="white">13</text>
</g>
<!-- 12&#45;&gt;13 -->
<g id="edge15" class="edge">
<title>12&#45;&gt;13</title>
<path fill="none" stroke="#9c9332" d="M1125.7,-67.49C1135.79,-63.88 1148.35,-59.39 1159.69,-55.33"/>
<polygon fill="#9c9332" stroke="#9c9332" points="1160.83,-58.64 1169.07,-51.98 1158.47,-52.05 1160.83,-58.64"/>
<text text-anchor="middle" x="1148.19" y="-64.25" font-family="Helvetica,Arial,sans-serif" font-size="14.00" fill="#f78a05">ε</text>
</g>
<!-- 18 -->
<g id="node19" class="node">
<title>18</title>
<ellipse fill="#d19928" stroke="#d19928" cx="1277.03" cy="-160.45" rx="21.4" ry="21.4"/>
<text text-anchor="middle" x="1277.03" y="-156.75" font-family="Helvetica,Arial,sans-serif" font-size="14.00" fill="white">18</text>
</g>
<!-- 15&#45;&gt;18 -->
<g id="edge18" class="edge">
<title>15&#45;&gt;18</title>
<path fill="none" stroke="#9c9332" d="M1209.52,-116.84C1220.99,-124.37 1236.25,-134.37 1249.26,-142.9"/>
<polygon fill="#9c9332" stroke="#9c9332" points="1247.12,-145.68 1257.41,-148.24 1250.96,-139.83 1247.12,-145.68"/>
<text text-anchor="middle" x="1234.08" y="-139.25" font-family="Helvetica,Arial,sans-serif" font-size="14.00" fill="#f78a05">ε</text>
</g>
<!-- 16 -->
<g id="node20" class="node">
<title>16</title>
<ellipse fill="#d19928" stroke="#d19928" cx="1277.03" cy="-99.45" rx="21.4" ry="21.4"/>
<text text-anchor="middle" x="1277.03" y="-95.75" font-family="Helvetica,Arial,sans-serif" font-size="14.00" fill="white">16</text>
</g>
<!-- 15&#45;&gt;16 -->
<g id="edge19" class="edge">
<title>15&#45;&gt;16</title>
<path fill="none" stroke="#9c9332" d="M1212.88,-103.96C1222.25,-103.29 1233.55,-102.49 1243.98,-101.74"/>
<polygon fill="#9c9332" stroke="#9c9332" points="1244.01,-105.25 1253.73,-101.04 1243.51,-98.27 1244.01,-105.25"/>
<text text-anchor="middle" x="1234.08" y="-107.25" font-family="Helvetica,Arial,sans-serif" font-size="14.00" fill="#f78a05">ε</text>
</g>
<!-- 14 -->
<g id="node18" class="node">
<title>14</title>
<ellipse fill="#d19928" stroke="#d19928" cx="1337.93" cy="-44.45" rx="21.4" ry="21.4"/>
<text text-anchor="middle" x="1337.93" y="-40.75" font-family="Helvetica,Arial,sans-serif" font-size="14.00" fill="white">14</text>
</g>
<!-- 13&#45;&gt;14 -->
<g id="edge16" class="edge">
<title>13&#45;&gt;14</title>
<path fill="none" stroke="#9c9332" d="M1212.88,-44.45C1236.97,-44.45 1276.96,-44.45 1305.01,-44.45"/>
<polygon fill="#9c9332" stroke="#9c9332" points="1304.71,-47.95 1314.71,-44.45 1304.71,-40.95 1304.71,-47.95"/>
<text text-anchor="middle" x="1234.08" y="-48.25" font-family="Helvetica,Arial,sans-serif" font-size="14.00" fill="#f78a05">ε</text>
</g>
<!-- 14&#45;&gt;37 -->
<g id="edge17" class="edge">
<title>14&#45;&gt;37</title>
<path fill="none" stroke="#9c9332" d="M1359.7,-44.45C1383.59,-44.45 1423.99,-44.45 1458.72,-44.45 1458.72,-44.45 1458.72,-44.45 2416.48,-44.45 2434.2,-44.45 2453.61,-47.64 2469.68,-51.17"/>
<polygon fill="#9c9332" stroke="#9c9332" points="2468.7,-54.53 2479.23,-53.41 2470.3,-47.72 2468.7,-54.53"/>
<text text-anchor="middle" x="1907.15" y="-48.25" font-family="Helvetica,Arial,sans-serif" font-size="14.00" fill="#f78a05">ε</text>
</g>
<!-- 21 -->
<g id="node23" class="node">
<title>21</title>
<ellipse fill="#d19928" stroke="#d19928" cx="1398.83" cy="-209.45" rx="21.4" ry="21.4"/>
<text text-anchor="middle" x="1398.83" y="-205.75" font-family="Helvetica,Arial,sans-serif" font-size="14.00" fill="white">21</text>
</g>
<!-- 18&#45;&gt;21 -->
<g id="edge22" class="edge">
<title>18&#45;&gt;21</title>
<path fill="none" stroke="#9c9332" d="M1297.28,-168.32C1316.4,-176.14 1345.99,-188.25 1368.13,-197.3"/>
<polygon fill="#9c9332" stroke="#9c9332" points="1366.64,-200.48 1377.23,-201.02 1369.29,-194 1366.64,-200.48"/>
<text text-anchor="middle" x="1337.93" y="-197.25" font-family="Helvetica,Arial,sans-serif" font-size="14.00" fill="#f78a05">ε</text>
</g>
<!-- 19 -->
<g id="node24" class="node">
<title>19</title>
<ellipse fill="#d19928" stroke="#d19928" cx="1398.83" cy="-148.45" rx="21.4" ry="21.4"/>
<text text-anchor="middle" x="1398.83" y="-144.75" font-family="Helvetica,Arial,sans-serif" font-size="14.00" fill="white">19</text>
</g>
<!-- 18&#45;&gt;19 -->
<g id="edge23" class="edge">
<title>18&#45;&gt;19</title>
<path fill="none" stroke="#9c9332" d="M1298.63,-158.39C1317.05,-156.54 1344.37,-153.8 1365.67,-151.67"/>
<polygon fill="#9c9332" stroke="#9c9332" points="1365.99,-155.15 1375.59,-150.68 1365.29,-148.19 1365.99,-155.15"/>
<text text-anchor="middle" x="1337.93" y="-160.25" font-family="Helvetica,Arial,sans-serif" font-size="14.00" fill="#f78a05">ε</text>
</g>
<!-- 17 -->
<g id="node21" class="node">
<title>17</title>
<ellipse fill="#d19928" stroke="#d19928" cx="1459.72" cy="-99.45" rx="21.4" ry="21.4"/>
<text text-anchor="middle" x="1459.72" y="-95.75" font-family="Helvetica,Arial,sans-serif" font-size="14.00" fill="white">17</text>
</g>
<!-- 16&#45;&gt;17 -->
<g id="edge20" class="edge">
<title>16&#45;&gt;17</title>
<path fill="none" stroke="#9c9332" d="M1298.76,-99.45C1330.13,-99.45 1389.9,-99.45 1426.83,-99.45"/>
<polygon fill="#9c9332" stroke="#9c9332" points="1426.44,-102.95 1436.44,-99.45 1426.44,-95.95 1426.44,-102.95"/>
<text text-anchor="middle" x="1337.93" y="-103.25" font-family="Helvetica,Arial,sans-serif" font-size="14.00" fill="#f78a05"> </text>
</g>
<!-- 24 -->
<g id="node22" class="node">
<title>24</title>
<ellipse fill="#d19928" stroke="#d19928" cx="1692.41" cy="-109.45" rx="21.4" ry="21.4"/>
<text text-anchor="middle" x="1692.41" y="-105.75" font-family="Helvetica,Arial,sans-serif" font-size="14.00" fill="white">24</text>
</g>
<!-- 17&#45;&gt;24 -->
<g id="edge21" class="edge">
<title>17&#45;&gt;24</title>
<path fill="none" stroke="#9c9332" d="M1481.19,-100.34C1521.45,-102.08 1611.17,-105.97 1659.35,-108.06"/>
<polygon fill="#9c9332" stroke="#9c9332" points="1659,-111.55 1669.14,-108.48 1659.3,-104.55 1659,-111.55"/>
<text text-anchor="middle" x="1563.57" y="-108.25" font-family="Helvetica,Arial,sans-serif" font-size="14.00" fill="#f78a05">ε</text>
</g>
<!-- 25 -->
<g id="node28" class="node">
<title>25</title>
<ellipse fill="#d19928" stroke="#d19928" cx="1778.31" cy="-109.45" rx="21.4" ry="21.4"/>
<text text-anchor="middle" x="1778.31" y="-105.75" font-family="Helvetica,Arial,sans-serif" font-size="14.00" fill="white">25</text>
</g>
<!-- 24&#45;&gt;25 -->
<g id="edge29" class="edge">
<title>24&#45;&gt;25</title>
<path fill="none" stroke="#9c9332" d="M1714.15,-109.45C1723.53,-109.45 1734.82,-109.45 1745.25,-109.45"/>
<polygon fill="#9c9332" stroke="#9c9332" points="1745,-112.95 1755,-109.45 1745,-105.95 1745,-112.95"/>
<text text-anchor="middle" x="1735.36" y="-113.25" font-family="Helvetica,Arial,sans-serif" font-size="14.00" fill="#f78a05">ε</text>
</g>
<!-- 22 -->
<g id="node27" class="node">
<title>22</title>
<ellipse fill="#d19928" stroke="#d19928" cx="1520.62" cy="-209.45" rx="21.4" ry="21.4"/>
<text text-anchor="middle" x="1520.62" y="-205.75" font-family="Helvetica,Arial,sans-serif" font-size="14.00" fill="white">22</text>
</g>
<!-- 21&#45;&gt;22 -->
<g id="edge26" class="edge">
<title>21&#45;&gt;22</title>
<path fill="none" stroke="#9c9332" d="M1420.69,-209.45C1439.16,-209.45 1466.39,-209.45 1487.61,-209.45"/>
<polygon fill="#9c9332" stroke="#9c9332" points="1487.48,-212.95 1497.48,-209.45 1487.48,-205.95 1487.48,-212.95"/>
<text text-anchor="middle" x="1459.72" y="-213.25" font-family="Helvetica,Arial,sans-serif" font-size="14.00" fill="#f78a05">letra</text>
</g>
<!-- 20 -->
<g id="node25" class="node">
<title>20</title>
<ellipse fill="#d19928" stroke="#d19928" cx="1520.62" cy="-148.45" rx="21.4" ry="21.4"/>
<text text-anchor="middle" x="1520.62" y="-144.75" font-family="Helvetica,Arial,sans-serif" font-size="14.00" fill="white">20</text>
</g>
<!-- 19&#45;&gt;20 -->
<g id="edge24" class="edge">
<title>19&#45;&gt;20</title>
<path fill="none" stroke="#9c9332" d="M1420.69,-148.45C1439.16,-148.45 1466.39,-148.45 1487.61,-148.45"/>
<polygon fill="#9c9332" stroke="#9c9332" points="1487.48,-151.95 1497.48,-148.45 1487.48,-144.95 1487.48,-151.95"/>
<text text-anchor="middle" x="1459.72" y="-152.25" font-family="Helvetica,Arial,sans-serif" font-size="14.00" fill="#f78a05">digito</text>
</g>
<!-- 23 -->
<g id="node26" class="node">
<title>23</title>
<ellipse fill="#d19928" stroke="#d19928" cx="1606.51" cy="-148.45" rx="21.4" ry="21.4"/>
<text text-anchor="middle" x="1606.51" y="-144.75" font-family="Helvetica,Arial,sans-serif" font-size="14.00" fill="white">23</text>
</g>
<!-- 20&#45;&gt;23 -->
<g id="edge25" class="edge">
<title>20&#45;&gt;23</title>
<path fill="none" stroke="#9c9332" d="M1542.36,-148.45C1551.73,-148.45 1563.03,-148.45 1573.46,-148.45"/>
<polygon fill="#9c9332" stroke="#9c9332" points="1573.21,-151.95 1583.21,-148.45 1573.21,-144.95 1573.21,-151.95"/>
<text text-anchor="middle" x="1563.57" y="-152.25" font-family="Helvetica,Arial,sans-serif" font-size="14.00" fill="#f78a05">ε</text>
</g>
<!-- 23&#45;&gt;24 -->
<g id="edge28" class="edge">
<title>23&#45;&gt;24</title>
<path fill="none" stroke="#9c9332" d="M1626.13,-139.79C1636.7,-134.88 1650.17,-128.62 1662.13,-123.06"/>
<polygon fill="#9c9332" stroke="#9c9332" points="1663.59,-126.24 1671.18,-118.85 1660.64,-119.89 1663.59,-126.24"/>
<text text-anchor="middle" x="1649.46" y="-134.25" font-family="Helvetica,Arial,sans-serif" font-size="14.00" fill="#f78a05">ε</text>
</g>
<!-- 22&#45;&gt;23 -->
<g id="edge27" class="edge">
<title>22&#45;&gt;23</title>
<path fill="none" stroke="#9c9332" d="M1538.6,-197.1C1550.31,-188.59 1566.1,-177.1 1579.41,-167.43"/>
<polygon fill="#9c9332" stroke="#9c9332" points="1581.31,-170.38 1587.34,-161.66 1577.19,-164.71 1581.31,-170.38"/>
<text text-anchor="middle" x="1563.57" y="-184.25" font-family="Helvetica,Arial,sans-serif" font-size="14.00" fill="#f78a05">ε</text>
</g>
<!-- 26 -->
<g id="node29" class="node">
<title>26</title>
<ellipse fill="#d19928" stroke="#d19928" cx="1864.2" cy="-151.45" rx="21.4" ry="21.4"/>
<text text-anchor="middle" x="1864.2" y="-147.75" font-family="Helvetica,Arial,sans-serif" font-size="14.00" fill="white">26</text>
</g>
<!-- 25&#45;&gt;26 -->
<g id="edge30" class="edge">
<title>25&#45;&gt;26</title>
<path fill="none" stroke="#9c9332" d="M1797.93,-118.77C1808.68,-124.15 1822.43,-131.04 1834.54,-137.1"/>
<polygon fill="#9c9332" stroke="#9c9332" points="1832.77,-140.13 1843.28,-141.48 1835.91,-133.87 1832.77,-140.13"/>
<text text-anchor="middle" x="1821.25" y="-136.25" font-family="Helvetica,Arial,sans-serif" font-size="14.00" fill="#f78a05">ε</text>
</g>
<!-- 36 -->
<g id="node30" class="node">
<title>36</title>
<ellipse fill="#d19928" stroke="#d19928" cx="2415.48" cy="-93.45" rx="21.4" ry="21.4"/>
<text text-anchor="middle" x="2415.48" y="-89.75" font-family="Helvetica,Arial,sans-serif" font-size="14.00" fill="white">36</text>
</g>
<!-- 25&#45;&gt;36 -->
<g id="edge31" class="edge">
<title>25&#45;&gt;36</title>
<path fill="none" stroke="#9c9332" d="M1798.59,-101.38C1815.36,-95.1 1840.47,-87.45 1863.2,-87.45 1863.2,-87.45 1863.2,-87.45 2330.58,-87.45 2347.8,-87.45 2366.96,-88.72 2382.62,-90.1"/>
<polygon fill="#9c9332" stroke="#9c9332" points="2382.03,-93.56 2392.31,-91 2382.68,-86.59 2382.03,-93.56"/>
<text text-anchor="middle" x="2096.89" y="-91.25" font-family="Helvetica,Arial,sans-serif" font-size="14.00" fill="#f78a05">ε</text>
</g>
<!-- 29 -->
<g id="node31" class="node">
<title>29</title>
<ellipse fill="#d19928" stroke="#d19928" cx="1950.1" cy="-235.45" rx="21.4" ry="21.4"/>
<text text-anchor="middle" x="1950.1" y="-231.75" font-family="Helvetica,Arial,sans-serif" font-size="14.00" fill="white">29</text>
</g>
<!-- 26&#45;&gt;29 -->
<g id="edge32" class="edge">
<title>26&#45;&gt;29</title>
<path fill="none" stroke="#9c9332" d="M1879.82,-166.08C1892.73,-179.01 1911.76,-198.07 1926.62,-212.94"/>
<polygon fill="#9c9332" stroke="#9c9332" points="1923.76,-215.03 1933.3,-219.63 1928.71,-210.08 1923.76,-215.03"/>
<text text-anchor="middle" x="1907.15" y="-199.25" font-family="Helvetica,Arial,sans-serif" font-size="14.00" fill="#f78a05">ε</text>
</g>
<!-- 27 -->
<g id="node32" class="node">
<title>27</title>
<ellipse fill="#d19928" stroke="#d19928" cx="1950.1" cy="-174.45" rx="21.4" ry="21.4"/>
<text text-anchor="middle" x="1950.1" y="-170.75" font-family="Helvetica,Arial,sans-serif" font-size="14.00" fill="white">27</text>
</g>
<!-- 26&#45;&gt;27 -->
<g id="edge33" class="edge">
<title>26&#45;&gt;27</title>
<path fill="none" stroke="#9c9332" d="M1885.08,-156.9C1894.94,-159.6 1907.06,-162.92 1918.1,-165.95"/>
<polygon fill="#9c9332" stroke="#9c9332" points="1917.04,-169.29 1927.61,-168.56 1918.89,-162.54 1917.04,-169.29"/>
<text text-anchor="middle" x="1907.15" y="-167.25" font-family="Helvetica,Arial,sans-serif" font-size="14.00" fill="#f78a05">ε</text>
</g>
<!-- 36&#45;&gt;37 -->
<g id="edge45" class="edge">
<title>36&#45;&gt;37</title>
<path fill="none" stroke="#9c9332" d="M2435.98,-86.12C2446.1,-82.33 2458.75,-77.58 2470.42,-73.2"/>
<polygon fill="#9c9332" stroke="#9c9332" points="2471.63,-76.48 2479.76,-69.69 2469.17,-69.93 2471.63,-76.48"/>
<text text-anchor="middle" x="2458.42" y="-83.25" font-family="Helvetica,Arial,sans-serif" font-size="14.00" fill="#f78a05">ε</text>
</g>
<!-- 32 -->
<g id="node35" class="node">
<title>32</title>
<ellipse fill="#d19928" stroke="#d19928" cx="2035.99" cy="-276.45" rx="21.4" ry="21.4"/>
<text text-anchor="middle" x="2035.99" y="-272.75" font-family="Helvetica,Arial,sans-serif" font-size="14.00" fill="white">32</text>
</g>
<!-- 29&#45;&gt;32 -->
<g id="edge36" class="edge">
<title>29&#45;&gt;32</title>
<path fill="none" stroke="#9c9332" d="M1969.72,-244.55C1980.4,-249.77 1994.03,-256.43 2006.08,-262.32"/>
<polygon fill="#9c9332" stroke="#9c9332" points="2004.26,-265.32 2014.78,-266.57 2007.33,-259.03 2004.26,-265.32"/>
<text text-anchor="middle" x="1993.05" y="-260.25" font-family="Helvetica,Arial,sans-serif" font-size="14.00" fill="#f78a05">ε</text>
</g>
<!-- 30 -->
<g id="node36" class="node">
<title>30</title>
<ellipse fill="#d19928" stroke="#d19928" cx="2035.99" cy="-215.45" rx="21.4" ry="21.4"/>
<text text-anchor="middle" x="2035.99" y="-211.75" font-family="Helvetica,Arial,sans-serif" font-size="14.00" fill="white">30</text>
</g>
<!-- 29&#45;&gt;30 -->
<g id="edge37" class="edge">
<title>29&#45;&gt;30</title>
<path fill="none" stroke="#9c9332" d="M1971.41,-230.61C1981.09,-228.3 1992.9,-225.48 2003.7,-222.91"/>
<polygon fill="#9c9332" stroke="#9c9332" points="2004.48,-226.32 2013.4,-220.6 2002.86,-219.51 2004.48,-226.32"/>
<text text-anchor="middle" x="1993.05" y="-229.25" font-family="Helvetica,Arial,sans-serif" font-size="14.00" fill="#f78a05">ε</text>
</g>
<!-- 28 -->
<g id="node33" class="node">
<title>28</title>
<ellipse fill="#d19928" stroke="#d19928" cx="2096.89" cy="-166.45" rx="21.4" ry="21.4"/>
<text text-anchor="middle" x="2096.89" y="-162.75" font-family="Helvetica,Arial,sans-serif" font-size="14.00" fill="white">28</text>
</g>
<!-- 27&#45;&gt;28 -->
<g id="edge34" class="edge">
<title>27&#45;&gt;28</title>
<path fill="none" stroke="#9c9332" d="M1971.84,-173.3C1995.93,-171.97 2035.93,-169.76 2063.98,-168.21"/>
<polygon fill="#9c9332" stroke="#9c9332" points="2063.88,-171.72 2073.67,-167.68 2063.5,-164.73 2063.88,-171.72"/>
<text text-anchor="middle" x="1993.05" y="-175.25" font-family="Helvetica,Arial,sans-serif" font-size="14.00" fill="#f78a05"> </text>
</g>
<!-- 35 -->
<g id="node34" class="node">
<title>35</title>
<ellipse fill="#d19928" stroke="#d19928" cx="2329.58" cy="-154.45" rx="21.4" ry="21.4"/>
<text text-anchor="middle" x="2329.58" y="-150.75" font-family="Helvetica,Arial,sans-serif" font-size="14.00" fill="white">35</text>
</g>
<!-- 28&#45;&gt;35 -->
<g id="edge35" class="edge">
<title>28&#45;&gt;35</title>
<path fill="none" stroke="#9c9332" d="M2118.36,-165.38C2158.62,-163.29 2248.34,-158.62 2296.52,-156.12"/>
<polygon fill="#9c9332" stroke="#9c9332" points="2296.51,-159.62 2306.31,-155.61 2296.14,-152.63 2296.51,-159.62"/>
<text text-anchor="middle" x="2200.74" y="-164.25" font-family="Helvetica,Arial,sans-serif" font-size="14.00" fill="#f78a05">ε</text>
</g>
<!-- 35&#45;&gt;26 -->
<g id="edge43" class="edge">
<title>35&#45;&gt;26</title>
<path fill="none" stroke="#9c9332" d="M2310.54,-144.31C2293.96,-135.94 2268.42,-125.45 2244.68,-125.45 1949.1,-125.45 1949.1,-125.45 1949.1,-125.45 1930.14,-125.45 1909.81,-131.58 1893.91,-137.89"/>
<polygon fill="#9c9332" stroke="#9c9332" points="1892.93,-134.5 1885.08,-141.62 1895.65,-140.95 1892.93,-134.5"/>
<text text-anchor="middle" x="2096.89" y="-129.25" font-family="Helvetica,Arial,sans-serif" font-size="14.00" fill="#f78a05">ε</text>
</g>
<!-- 35&#45;&gt;36 -->
<g id="edge44" class="edge">
<title>35&#45;&gt;36</title>
<path fill="none" stroke="#9c9332" d="M2347.56,-142.1C2359.27,-133.59 2375.07,-122.1 2388.37,-112.43"/>
<polygon fill="#9c9332" stroke="#9c9332" points="2390.27,-115.38 2396.3,-106.66 2386.15,-109.71 2390.27,-115.38"/>
<text text-anchor="middle" x="2372.53" y="-130.25" font-family="Helvetica,Arial,sans-serif" font-size="14.00" fill="#f78a05">ε</text>
</g>
<!-- 33 -->
<g id="node39" class="node">
<title>33</title>
<ellipse fill="#d19928" stroke="#d19928" cx="2157.79" cy="-276.45" rx="21.4" ry="21.4"/>
<text text-anchor="middle" x="2157.79" y="-272.75" font-family="Helvetica,Arial,sans-serif" font-size="14.00" fill="white">33</text>
</g>
<!-- 32&#45;&gt;33 -->
<g id="edge40" class="edge">
<title>32&#45;&gt;33</title>
<path fill="none" stroke="#9c9332" d="M2057.86,-276.45C2076.33,-276.45 2103.56,-276.45 2124.78,-276.45"/>
<polygon fill="#9c9332" stroke="#9c9332" points="2124.65,-279.95 2134.65,-276.45 2124.65,-272.95 2124.65,-279.95"/>
<text text-anchor="middle" x="2096.89" y="-280.25" font-family="Helvetica,Arial,sans-serif" font-size="14.00" fill="#f78a05">letra</text>
</g>
<!-- 31 -->
<g id="node37" class="node">
<title>31</title>
<ellipse fill="#d19928" stroke="#d19928" cx="2157.79" cy="-215.45" rx="21.4" ry="21.4"/>
<text text-anchor="middle" x="2157.79" y="-211.75" font-family="Helvetica,Arial,sans-serif" font-size="14.00" fill="white">31</text>
</g>
<!-- 30&#45;&gt;31 -->
<g id="edge38" class="edge">
<title>30&#45;&gt;31</title>
<path fill="none" stroke="#9c9332" d="M2057.86,-215.45C2076.33,-215.45 2103.56,-215.45 2124.78,-215.45"/>
<polygon fill="#9c9332" stroke="#9c9332" points="2124.65,-218.95 2134.65,-215.45 2124.65,-211.95 2124.65,-218.95"/>
<text text-anchor="middle" x="2096.89" y="-219.25" font-family="Helvetica,Arial,sans-serif" font-size="14.00" fill="#f78a05">digito</text>
</g>
<!-- 34 -->
<g id="node38" class="node">
<title>34</title>
<ellipse fill="#d19928" stroke="#d19928" cx="2243.68" cy="-215.45" rx="21.4" ry="21.4"/>
<text text-anchor="middle" x="2243.68" y="-211.75" font-family="Helvetica,Arial,sans-serif" font-size="14.00" fill="white">34</text>
</g>
<!-- 31&#45;&gt;34 -->
<g id="edge39" class="edge">
<title>31&#45;&gt;34</title>
<path fill="none" stroke="#9c9332" d="M2179.53,-215.45C2188.9,-215.45 2200.2,-215.45 2210.63,-215.45"/>
<polygon fill="#9c9332" stroke="#9c9332" points="2210.38,-218.95 2220.38,-215.45 2210.38,-211.95 2210.38,-218.95"/>
<text text-anchor="middle" x="2200.74" y="-219.25" font-family="Helvetica,Arial,sans-serif" font-size="14.00" fill="#f78a05">ε</text>
</g>
<!-- 34&#45;&gt;35 -->
<g id="edge42" class="edge">
<title>34&#45;&gt;35</title>
<path fill="none" stroke="#9c9332" d="M2261.66,-203.1C2273.37,-194.59 2289.17,-183.1 2302.47,-173.43"/>
<polygon fill="#9c9332" stroke="#9c9332" points="2304.37,-176.38 2310.4,-167.66 2300.26,-170.71 2304.37,-176.38"/>
<text text-anchor="middle" x="2286.63" y="-190.25" font-family="Helvetica,Arial,sans-serif" font-size="14.00" fill="#f78a05">ε</text>
</g>
<!-- 33&#45;&gt;34 -->
<g id="edge41" class="edge">
<title>33&#45;&gt;34</title>
<path fill="none" stroke="#9c9332" d="M2175.76,-264.1C2187.48,-255.59 2203.27,-244.1 2216.58,-234.43"/>
<polygon fill="#9c9332" stroke="#9c9332" points="2218.48,-237.38 2224.51,-228.66 2214.36,-231.71 2218.48,-237.38"/>
<text text-anchor="middle" x="2200.74" y="-251.25" font-family="Helvetica,Arial,sans-serif" font-size="14.00" fill="#f78a05">ε</text>
</g>
</g>
</svg>
