<?xml version="1.0" encoding="UTF-8" standalone="no"?>
<!DOCTYPE svg PUBLIC "-//W3C//DTD SVG 1.1//EN"
 "http://www.w3.org/Graphics/SVG/1.1/DTD/svg11.dtd">
<!-- Generated by graphviz version 7.1.0 (20230121.1956)
 -->
<!-- Title: finite_state_machine Pages: 1 -->
<svg width="1095pt" height="236pt"
 viewBox="0.00 0.00 1094.69 236.00" xmlns="http://www.w3.org/2000/svg" xmlns:xlink="http://www.w3.org/1999/xlink">
<g id="graph0" class="graph" transform="scale(1 1) rotate(0) translate(4 232)">
<title>finite_state_machine</title>
<polygon fill="white" stroke="none" points="-4,4 -4,-232 1090.69,-232 1090.69,4 -4,4"/>
<text text-anchor="middle" x="543.34" y="-7.8" font-family="Times New Roman,serif" font-size="14.00">identificador</text>
<!-- 13 -->
<g id="node1" class="node">
<title>13</title>
<ellipse fill="#f78a05" stroke="#f78a05" cx="1061.24" cy="-189" rx="21.4" ry="21.4"/>
<ellipse fill="none" stroke="#f78a05" cx="1061.24" cy="-189" rx="25.4" ry="25.4"/>
<text text-anchor="middle" x="1061.24" y="-185.3" font-family="Helvetica,Arial,sans-serif" font-size="14.00" fill="white">13</text>
</g>
<!-- flechainicio -->
<!-- 0 -->
<g id="node3" class="node">
<title>0</title>
<ellipse fill="#d19928" stroke="#d19928" cx="123" cy="-174" rx="18" ry="18"/>
<text text-anchor="middle" x="123" y="-170.3" font-family="Helvetica,Arial,sans-serif" font-size="14.00" fill="white">0</text>
</g>
<!-- flechainicio&#45;&gt;0 -->
<g id="edge1" class="edge">
<title>flechainicio&#45;&gt;0</title>
<path fill="none" stroke="#9c9332" d="M36.47,-174C52.03,-174 75.08,-174 93.34,-174"/>
<polygon fill="#9c9332" stroke="#9c9332" points="93.27,-177.5 103.27,-174 93.27,-170.5 93.27,-177.5"/>
<text text-anchor="middle" x="70.5" y="-177.8" font-family="Helvetica,Arial,sans-serif" font-size="14.00" fill="#f78a05">inicio</text>
</g>
<!-- 1 -->
<g id="node4" class="node">
<title>1</title>
<ellipse fill="#d19928" stroke="#d19928" cx="304" cy="-174" rx="18" ry="18"/>
<text text-anchor="middle" x="304" y="-170.3" font-family="Helvetica,Arial,sans-serif" font-size="14.00" fill="white">1</text>
</g>
<!-- 0&#45;&gt;1 -->
<g id="edge2" class="edge">
<title>0&#45;&gt;1</title>
<path fill="none" stroke="#9c9332" d="M141.49,-174C172.45,-174 237.15,-174 274.58,-174"/>
<polygon fill="#9c9332" stroke="#9c9332" points="274.19,-177.5 284.19,-174 274.19,-170.5 274.19,-177.5"/>
<text text-anchor="middle" x="213.5" y="-177.8" font-family="Helvetica,Arial,sans-serif" font-size="14.00" fill="#f78a05">abecedarioMinus</text>
</g>
<!-- 2 -->
<g id="node5" class="node">
<title>2</title>
<ellipse fill="#d19928" stroke="#d19928" cx="383" cy="-174" rx="18" ry="18"/>
<text text-anchor="middle" x="383" y="-170.3" font-family="Helvetica,Arial,sans-serif" font-size="14.00" fill="white">2</text>
</g>
<!-- 1&#45;&gt;2 -->
<g id="edge3" class="edge">
<title>1&#45;&gt;2</title>
<path fill="none" stroke="#9c9332" d="M322.47,-174C331.53,-174 342.83,-174 353.14,-174"/>
<polygon fill="#9c9332" stroke="#9c9332" points="353.08,-177.5 363.08,-174 353.08,-170.5 353.08,-177.5"/>
<text text-anchor="middle" x="343.5" y="-177.8" font-family="Helvetica,Arial,sans-serif" font-size="14.00" fill="#f78a05">ε</text>
</g>
<!-- 2&#45;&gt;13 -->
<g id="edge5" class="edge">
<title>2&#45;&gt;13</title>
<path fill="none" stroke="#9c9332" d="M397.16,-185.49C411.74,-196.99 436.42,-213 461,-213 461,-213 461,-213 972.34,-213 990.85,-213 1010.8,-207.99 1027.01,-202.54"/>
<polygon fill="#9c9332" stroke="#9c9332" points="1027.91,-205.94 1036.14,-199.27 1025.55,-199.35 1027.91,-205.94"/>
<text text-anchor="middle" x="719.4" y="-216.8" font-family="Helvetica,Arial,sans-serif" font-size="14.00" fill="#f78a05">ε</text>
</g>
<!-- 3 -->
<g id="node6" class="node">
<title>3</title>
<ellipse fill="#d19928" stroke="#d19928" cx="462" cy="-134" rx="18" ry="18"/>
<text text-anchor="middle" x="462" y="-130.3" font-family="Helvetica,Arial,sans-serif" font-size="14.00" fill="white">3</text>
</g>
<!-- 2&#45;&gt;3 -->
<g id="edge4" class="edge">
<title>2&#45;&gt;3</title>
<path fill="none" stroke="#9c9332" d="M399.58,-165.91C409.81,-160.59 423.43,-153.52 435.25,-147.38"/>
<polygon fill="#9c9332" stroke="#9c9332" points="436.84,-150.5 444.1,-142.78 433.61,-144.28 436.84,-150.5"/>
<text text-anchor="middle" x="422.5" y="-159.8" font-family="Helvetica,Arial,sans-serif" font-size="14.00" fill="#f78a05">ε</text>
</g>
<!-- 10 -->
<g id="node7" class="node">
<title>10</title>
<ellipse fill="#d19928" stroke="#d19928" cx="544.45" cy="-164" rx="21.4" ry="21.4"/>
<text text-anchor="middle" x="544.45" y="-160.3" font-family="Helvetica,Arial,sans-serif" font-size="14.00" fill="white">10</text>
</g>
<!-- 3&#45;&gt;10 -->
<g id="edge6" class="edge">
<title>3&#45;&gt;10</title>
<path fill="none" stroke="#9c9332" d="M479.28,-140.07C489.09,-143.73 501.89,-148.5 513.48,-152.82"/>
<polygon fill="#9c9332" stroke="#9c9332" points="512.06,-156.03 522.66,-156.25 514.51,-149.47 512.06,-156.03"/>
<text text-anchor="middle" x="501.5" y="-152.8" font-family="Helvetica,Arial,sans-serif" font-size="14.00" fill="#f78a05">ε</text>
</g>
<!-- 4 -->
<g id="node8" class="node">
<title>4</title>
<ellipse fill="#d19928" stroke="#d19928" cx="544.45" cy="-107" rx="18" ry="18"/>
<text text-anchor="middle" x="544.45" y="-103.3" font-family="Helvetica,Arial,sans-serif" font-size="14.00" fill="white">4</text>
</g>
<!-- 3&#45;&gt;4 -->
<g id="edge7" class="edge">
<title>3&#45;&gt;4</title>
<path fill="none" stroke="#9c9332" d="M478.42,-126.18C484.43,-123.34 491.43,-120.27 498,-118 503.61,-116.06 509.72,-114.33 515.59,-112.85"/>
<polygon fill="#9c9332" stroke="#9c9332" points="515.98,-116.35 524.92,-110.66 514.38,-109.54 515.98,-116.35"/>
<text text-anchor="middle" x="501.5" y="-121.8" font-family="Helvetica,Arial,sans-serif" font-size="14.00" fill="#f78a05">ε</text>
</g>
<!-- 11 -->
<g id="node15" class="node">
<title>11</title>
<ellipse fill="#d19928" stroke="#d19928" cx="719.4" cy="-169" rx="21.4" ry="21.4"/>
<text text-anchor="middle" x="719.4" y="-165.3" font-family="Helvetica,Arial,sans-serif" font-size="14.00" fill="white">11</text>
</g>
<!-- 10&#45;&gt;11 -->
<g id="edge15" class="edge">
<title>10&#45;&gt;11</title>
<path fill="none" stroke="#9c9332" d="M566.31,-164.6C596.13,-165.47 651.19,-167.06 686.24,-168.07"/>
<polygon fill="#9c9332" stroke="#9c9332" points="686.12,-171.57 696.22,-168.36 686.32,-164.57 686.12,-171.57"/>
<text text-anchor="middle" x="588.4" y="-169.8" font-family="Helvetica,Arial,sans-serif" font-size="14.00" fill="#f78a05">_</text>
</g>
<!-- 7 -->
<g id="node9" class="node">
<title>7</title>
<ellipse fill="#d19928" stroke="#d19928" cx="628.9" cy="-123" rx="18" ry="18"/>
<text text-anchor="middle" x="628.9" y="-119.3" font-family="Helvetica,Arial,sans-serif" font-size="14.00" fill="white">7</text>
</g>
<!-- 4&#45;&gt;7 -->
<g id="edge8" class="edge">
<title>4&#45;&gt;7</title>
<path fill="none" stroke="#9c9332" d="M562.53,-110.32C573.25,-112.4 587.34,-115.13 599.69,-117.53"/>
<polygon fill="#9c9332" stroke="#9c9332" points="598.87,-120.93 609.35,-119.4 600.2,-114.06 598.87,-120.93"/>
<text text-anchor="middle" x="588.4" y="-119.8" font-family="Helvetica,Arial,sans-serif" font-size="14.00" fill="#f78a05">ε</text>
</g>
<!-- 5 -->
<g id="node10" class="node">
<title>5</title>
<ellipse fill="#d19928" stroke="#d19928" cx="628.9" cy="-69" rx="18" ry="18"/>
<text text-anchor="middle" x="628.9" y="-65.3" font-family="Helvetica,Arial,sans-serif" font-size="14.00" fill="white">5</text>
</g>
<!-- 4&#45;&gt;5 -->
<g id="edge9" class="edge">
<title>4&#45;&gt;5</title>
<path fill="none" stroke="#9c9332" d="M561.34,-99.67C572.75,-94.42 588.38,-87.21 601.63,-81.11"/>
<polygon fill="#9c9332" stroke="#9c9332" points="603.06,-84.3 610.67,-76.94 600.13,-77.95 603.06,-84.3"/>
<text text-anchor="middle" x="588.4" y="-93.8" font-family="Helvetica,Arial,sans-serif" font-size="14.00" fill="#f78a05">ε</text>
</g>
<!-- 8 -->
<g id="node13" class="node">
<title>8</title>
<ellipse fill="#d19928" stroke="#d19928" cx="809.9" cy="-123" rx="18" ry="18"/>
<text text-anchor="middle" x="809.9" y="-119.3" font-family="Helvetica,Arial,sans-serif" font-size="14.00" fill="white">8</text>
</g>
<!-- 7&#45;&gt;8 -->
<g id="edge12" class="edge">
<title>7&#45;&gt;8</title>
<path fill="none" stroke="#9c9332" d="M647.39,-123C678.34,-123 743.05,-123 780.48,-123"/>
<polygon fill="#9c9332" stroke="#9c9332" points="780.09,-126.5 790.09,-123 780.09,-119.5 780.09,-126.5"/>
<text text-anchor="middle" x="719.4" y="-126.8" font-family="Helvetica,Arial,sans-serif" font-size="14.00" fill="#f78a05">abecedarioMinus</text>
</g>
<!-- 6 -->
<g id="node11" class="node">
<title>6</title>
<ellipse fill="#d19928" stroke="#d19928" cx="809.9" cy="-69" rx="18" ry="18"/>
<text text-anchor="middle" x="809.9" y="-65.3" font-family="Helvetica,Arial,sans-serif" font-size="14.00" fill="white">6</text>
</g>
<!-- 5&#45;&gt;6 -->
<g id="edge10" class="edge">
<title>5&#45;&gt;6</title>
<path fill="none" stroke="#9c9332" d="M647.39,-69C678.34,-69 743.05,-69 780.48,-69"/>
<polygon fill="#9c9332" stroke="#9c9332" points="780.09,-72.5 790.09,-69 780.09,-65.5 780.09,-72.5"/>
<text text-anchor="middle" x="719.4" y="-72.8" font-family="Helvetica,Arial,sans-serif" font-size="14.00" fill="#f78a05">digito</text>
</g>
<!-- 9 -->
<g id="node12" class="node">
<title>9</title>
<ellipse fill="#d19928" stroke="#d19928" cx="888.9" cy="-123" rx="18" ry="18"/>
<text text-anchor="middle" x="888.9" y="-119.3" font-family="Helvetica,Arial,sans-serif" font-size="14.00" fill="white">9</text>
</g>
<!-- 6&#45;&gt;9 -->
<g id="edge11" class="edge">
<title>6&#45;&gt;9</title>
<path fill="none" stroke="#9c9332" d="M825.02,-78.9C836.02,-86.62 851.54,-97.5 864.4,-106.52"/>
<polygon fill="#9c9332" stroke="#9c9332" points="862.17,-109.23 872.36,-112.11 866.19,-103.5 862.17,-109.23"/>
<text text-anchor="middle" x="849.4" y="-101.8" font-family="Helvetica,Arial,sans-serif" font-size="14.00" fill="#f78a05">ε</text>
</g>
<!-- 12 -->
<g id="node14" class="node">
<title>12</title>
<ellipse fill="#d19928" stroke="#d19928" cx="971.34" cy="-144" rx="21.4" ry="21.4"/>
<text text-anchor="middle" x="971.34" y="-140.3" font-family="Helvetica,Arial,sans-serif" font-size="14.00" fill="white">12</text>
</g>
<!-- 9&#45;&gt;12 -->
<g id="edge14" class="edge">
<title>9&#45;&gt;12</title>
<path fill="none" stroke="#9c9332" d="M906.57,-127.35C915.99,-129.81 928.09,-132.97 939.2,-135.87"/>
<polygon fill="#9c9332" stroke="#9c9332" points="938.26,-139.24 948.82,-138.38 940.02,-132.47 938.26,-139.24"/>
<text text-anchor="middle" x="928.4" y="-137.8" font-family="Helvetica,Arial,sans-serif" font-size="14.00" fill="#f78a05">ε</text>
</g>
<!-- 8&#45;&gt;9 -->
<g id="edge13" class="edge">
<title>8&#45;&gt;9</title>
<path fill="none" stroke="#9c9332" d="M828.37,-123C837.43,-123 848.72,-123 859.03,-123"/>
<polygon fill="#9c9332" stroke="#9c9332" points="858.98,-126.5 868.98,-123 858.98,-119.5 858.98,-126.5"/>
<text text-anchor="middle" x="849.4" y="-126.8" font-family="Helvetica,Arial,sans-serif" font-size="14.00" fill="#f78a05">ε</text>
</g>
<!-- 12&#45;&gt;13 -->
<g id="edge18" class="edge">
<title>12&#45;&gt;13</title>
<path fill="none" stroke="#9c9332" d="M990.98,-153.54C1001.77,-159.07 1015.65,-166.17 1028.14,-172.56"/>
<polygon fill="#9c9332" stroke="#9c9332" points="1026.37,-175.59 1036.86,-177.03 1029.56,-169.36 1026.37,-175.59"/>
<text text-anchor="middle" x="1014.29" y="-170.8" font-family="Helvetica,Arial,sans-serif" font-size="14.00" fill="#f78a05">ε</text>
</g>
<!-- 12&#45;&gt;3 -->
<g id="edge17" class="edge">
<title>12&#45;&gt;3</title>
<path fill="none" stroke="#9c9332" d="M966.37,-122.92C958.48,-88.26 937.32,-23 889.9,-23 543.45,-23 543.45,-23 543.45,-23 502.57,-23 480.33,-72.96 470.12,-105.85"/>
<polygon fill="#9c9332" stroke="#9c9332" points="466.83,-104.62 467.42,-115.2 473.56,-106.57 466.83,-104.62"/>
<text text-anchor="middle" x="719.4" y="-26.8" font-family="Helvetica,Arial,sans-serif" font-size="14.00" fill="#f78a05">ε</text>
</g>
<!-- 11&#45;&gt;12 -->
<g id="edge16" class="edge">
<title>11&#45;&gt;12</title>
<path fill="none" stroke="#9c9332" d="M741.23,-168.49C779.3,-167.32 862.56,-163.67 931.9,-153 934.37,-152.62 936.93,-152.16 939.49,-151.66"/>
<polygon fill="#9c9332" stroke="#9c9332" points="940,-155.13 949.02,-149.58 938.51,-148.29 940,-155.13"/>
<text text-anchor="middle" x="849.4" y="-166.8" font-family="Helvetica,Arial,sans-serif" font-size="14.00" fill="#f78a05">ε</text>
</g>
</g>
</svg>
