<?xml version="1.0" encoding="UTF-8" standalone="no"?>
<!DOCTYPE svg PUBLIC "-//W3C//DTD SVG 1.1//EN"
 "http://www.w3.org/Graphics/SVG/1.1/DTD/svg11.dtd">
<!-- Generated by graphviz version 7.1.0 (20230121.1956)
 -->
<!-- Title: finite_state_machine Pages: 1 -->
<svg width="2979pt" height="142pt"
 viewBox="0.00 0.00 2978.61 142.45" xmlns="http://www.w3.org/2000/svg" xmlns:xlink="http://www.w3.org/1999/xlink">
<g id="graph0" class="graph" transform="scale(1 1) rotate(0) translate(4 138.45)">
<title>finite_state_machine</title>
<polygon fill="white" stroke="none" points="-4,4 -4,-138.45 2974.61,-138.45 2974.61,4 -4,4"/>
<text text-anchor="middle" x="1485.31" y="-7.8" font-family="Times New Roman,serif" font-size="14.00">url</text>
<!-- 33 -->
<g id="node1" class="node">
<title>33</title>
<ellipse fill="#f78a05" stroke="#f78a05" cx="2945.16" cy="-74.45" rx="21.4" ry="21.4"/>
<ellipse fill="none" stroke="#f78a05" cx="2945.16" cy="-74.45" rx="25.4" ry="25.4"/>
<text text-anchor="middle" x="2945.16" y="-70.75" font-family="Helvetica,Arial,sans-serif" font-size="14.00" fill="white">33</text>
</g>
<!-- flechainicio -->
<!-- 0 -->
<g id="node3" class="node">
<title>0</title>
<ellipse fill="#d19928" stroke="#d19928" cx="123" cy="-75.45" rx="18" ry="18"/>
<text text-anchor="middle" x="123" y="-71.75" font-family="Helvetica,Arial,sans-serif" font-size="14.00" fill="white">0</text>
</g>
<!-- flechainicio&#45;&gt;0 -->
<g id="edge1" class="edge">
<title>flechainicio&#45;&gt;0</title>
<path fill="none" stroke="#9c9332" d="M36.47,-75.45C52.03,-75.45 75.08,-75.45 93.34,-75.45"/>
<polygon fill="#9c9332" stroke="#9c9332" points="93.27,-78.95 103.27,-75.45 93.27,-71.95 93.27,-78.95"/>
<text text-anchor="middle" x="70.5" y="-79.25" font-family="Helvetica,Arial,sans-serif" font-size="14.00" fill="#f78a05">inicio</text>
</g>
<!-- 1 -->
<g id="node4" class="node">
<title>1</title>
<ellipse fill="#d19928" stroke="#d19928" cx="203" cy="-75.45" rx="18" ry="18"/>
<text text-anchor="middle" x="203" y="-71.75" font-family="Helvetica,Arial,sans-serif" font-size="14.00" fill="white">1</text>
</g>
<!-- 0&#45;&gt;1 -->
<g id="edge2" class="edge">
<title>0&#45;&gt;1</title>
<path fill="none" stroke="#9c9332" d="M141.31,-75.45C150.7,-75.45 162.55,-75.45 173.29,-75.45"/>
<polygon fill="#9c9332" stroke="#9c9332" points="173.22,-78.95 183.22,-75.45 173.22,-71.95 173.22,-78.95"/>
<text text-anchor="middle" x="163" y="-79.25" font-family="Helvetica,Arial,sans-serif" font-size="14.00" fill="#f78a05">h</text>
</g>
<!-- 2 -->
<g id="node5" class="node">
<title>2</title>
<ellipse fill="#d19928" stroke="#d19928" cx="282" cy="-75.45" rx="18" ry="18"/>
<text text-anchor="middle" x="282" y="-71.75" font-family="Helvetica,Arial,sans-serif" font-size="14.00" fill="white">2</text>
</g>
<!-- 1&#45;&gt;2 -->
<g id="edge3" class="edge">
<title>1&#45;&gt;2</title>
<path fill="none" stroke="#9c9332" d="M221.47,-75.45C230.53,-75.45 241.83,-75.45 252.14,-75.45"/>
<polygon fill="#9c9332" stroke="#9c9332" points="252.08,-78.95 262.08,-75.45 252.08,-71.95 252.08,-78.95"/>
<text text-anchor="middle" x="242.5" y="-79.25" font-family="Helvetica,Arial,sans-serif" font-size="14.00" fill="#f78a05">ε</text>
</g>
<!-- 3 -->
<g id="node6" class="node">
<title>3</title>
<ellipse fill="#d19928" stroke="#d19928" cx="358" cy="-75.45" rx="18" ry="18"/>
<text text-anchor="middle" x="358" y="-71.75" font-family="Helvetica,Arial,sans-serif" font-size="14.00" fill="white">3</text>
</g>
<!-- 2&#45;&gt;3 -->
<g id="edge4" class="edge">
<title>2&#45;&gt;3</title>
<path fill="none" stroke="#9c9332" d="M300.16,-75.45C308.51,-75.45 318.77,-75.45 328.26,-75.45"/>
<polygon fill="#9c9332" stroke="#9c9332" points="328.16,-78.95 338.16,-75.45 328.16,-71.95 328.16,-78.95"/>
<text text-anchor="middle" x="320" y="-79.25" font-family="Helvetica,Arial,sans-serif" font-size="14.00" fill="#f78a05">t</text>
</g>
<!-- 4 -->
<g id="node7" class="node">
<title>4</title>
<ellipse fill="#d19928" stroke="#d19928" cx="437" cy="-75.45" rx="18" ry="18"/>
<text text-anchor="middle" x="437" y="-71.75" font-family="Helvetica,Arial,sans-serif" font-size="14.00" fill="white">4</text>
</g>
<!-- 3&#45;&gt;4 -->
<g id="edge5" class="edge">
<title>3&#45;&gt;4</title>
<path fill="none" stroke="#9c9332" d="M376.47,-75.45C385.53,-75.45 396.83,-75.45 407.14,-75.45"/>
<polygon fill="#9c9332" stroke="#9c9332" points="407.08,-78.95 417.08,-75.45 407.08,-71.95 407.08,-78.95"/>
<text text-anchor="middle" x="397.5" y="-79.25" font-family="Helvetica,Arial,sans-serif" font-size="14.00" fill="#f78a05">ε</text>
</g>
<!-- 5 -->
<g id="node8" class="node">
<title>5</title>
<ellipse fill="#d19928" stroke="#d19928" cx="513" cy="-75.45" rx="18" ry="18"/>
<text text-anchor="middle" x="513" y="-71.75" font-family="Helvetica,Arial,sans-serif" font-size="14.00" fill="white">5</text>
</g>
<!-- 4&#45;&gt;5 -->
<g id="edge6" class="edge">
<title>4&#45;&gt;5</title>
<path fill="none" stroke="#9c9332" d="M455.16,-75.45C463.51,-75.45 473.77,-75.45 483.26,-75.45"/>
<polygon fill="#9c9332" stroke="#9c9332" points="483.16,-78.95 493.16,-75.45 483.16,-71.95 483.16,-78.95"/>
<text text-anchor="middle" x="475" y="-79.25" font-family="Helvetica,Arial,sans-serif" font-size="14.00" fill="#f78a05">t</text>
</g>
<!-- 6 -->
<g id="node9" class="node">
<title>6</title>
<ellipse fill="#d19928" stroke="#d19928" cx="592" cy="-75.45" rx="18" ry="18"/>
<text text-anchor="middle" x="592" y="-71.75" font-family="Helvetica,Arial,sans-serif" font-size="14.00" fill="white">6</text>
</g>
<!-- 5&#45;&gt;6 -->
<g id="edge7" class="edge">
<title>5&#45;&gt;6</title>
<path fill="none" stroke="#9c9332" d="M531.47,-75.45C540.53,-75.45 551.83,-75.45 562.14,-75.45"/>
<polygon fill="#9c9332" stroke="#9c9332" points="562.08,-78.95 572.08,-75.45 562.08,-71.95 562.08,-78.95"/>
<text text-anchor="middle" x="552.5" y="-79.25" font-family="Helvetica,Arial,sans-serif" font-size="14.00" fill="#f78a05">ε</text>
</g>
<!-- 7 -->
<g id="node10" class="node">
<title>7</title>
<ellipse fill="#d19928" stroke="#d19928" cx="673" cy="-75.45" rx="18" ry="18"/>
<text text-anchor="middle" x="673" y="-71.75" font-family="Helvetica,Arial,sans-serif" font-size="14.00" fill="white">7</text>
</g>
<!-- 6&#45;&gt;7 -->
<g id="edge8" class="edge">
<title>6&#45;&gt;7</title>
<path fill="none" stroke="#9c9332" d="M610.14,-75.45C619.81,-75.45 632.13,-75.45 643.24,-75.45"/>
<polygon fill="#9c9332" stroke="#9c9332" points="643.11,-78.95 653.11,-75.45 643.11,-71.95 643.11,-78.95"/>
<text text-anchor="middle" x="632.5" y="-79.25" font-family="Helvetica,Arial,sans-serif" font-size="14.00" fill="#f78a05">p</text>
</g>
<!-- 8 -->
<g id="node11" class="node">
<title>8</title>
<ellipse fill="#d19928" stroke="#d19928" cx="752" cy="-75.45" rx="18" ry="18"/>
<text text-anchor="middle" x="752" y="-71.75" font-family="Helvetica,Arial,sans-serif" font-size="14.00" fill="white">8</text>
</g>
<!-- 7&#45;&gt;8 -->
<g id="edge9" class="edge">
<title>7&#45;&gt;8</title>
<path fill="none" stroke="#9c9332" d="M691.47,-75.45C700.53,-75.45 711.83,-75.45 722.14,-75.45"/>
<polygon fill="#9c9332" stroke="#9c9332" points="722.08,-78.95 732.08,-75.45 722.08,-71.95 722.08,-78.95"/>
<text text-anchor="middle" x="712.5" y="-79.25" font-family="Helvetica,Arial,sans-serif" font-size="14.00" fill="#f78a05">ε</text>
</g>
<!-- 11 -->
<g id="node12" class="node">
<title>11</title>
<ellipse fill="#d19928" stroke="#d19928" cx="834.45" cy="-104.45" rx="21.4" ry="21.4"/>
<text text-anchor="middle" x="834.45" y="-100.75" font-family="Helvetica,Arial,sans-serif" font-size="14.00" fill="white">11</text>
</g>
<!-- 8&#45;&gt;11 -->
<g id="edge10" class="edge">
<title>8&#45;&gt;11</title>
<path fill="none" stroke="#9c9332" d="M769.28,-81.32C779.02,-84.83 791.71,-89.4 803.23,-93.55"/>
<polygon fill="#9c9332" stroke="#9c9332" points="801.76,-96.75 812.36,-96.85 804.14,-90.16 801.76,-96.75"/>
<text text-anchor="middle" x="791.5" y="-94.25" font-family="Helvetica,Arial,sans-serif" font-size="14.00" fill="#f78a05">ε</text>
</g>
<!-- 9 -->
<g id="node13" class="node">
<title>9</title>
<ellipse fill="#d19928" stroke="#d19928" cx="834.45" cy="-47.45" rx="18" ry="18"/>
<text text-anchor="middle" x="834.45" y="-43.75" font-family="Helvetica,Arial,sans-serif" font-size="14.00" fill="white">9</text>
</g>
<!-- 8&#45;&gt;9 -->
<g id="edge11" class="edge">
<title>8&#45;&gt;9</title>
<path fill="none" stroke="#9c9332" d="M769.34,-69.24C775.2,-67.05 781.88,-64.59 788,-62.45 793.83,-60.4 800.11,-58.28 806.08,-56.3"/>
<polygon fill="#9c9332" stroke="#9c9332" points="807.14,-59.63 815.55,-53.19 804.96,-52.98 807.14,-59.63"/>
<text text-anchor="middle" x="791.5" y="-66.25" font-family="Helvetica,Arial,sans-serif" font-size="14.00" fill="#f78a05">ε</text>
</g>
<!-- 12 -->
<g id="node16" class="node">
<title>12</title>
<ellipse fill="#d19928" stroke="#d19928" cx="921.34" cy="-105.45" rx="21.4" ry="21.4"/>
<text text-anchor="middle" x="921.34" y="-101.75" font-family="Helvetica,Arial,sans-serif" font-size="14.00" fill="white">12</text>
</g>
<!-- 11&#45;&gt;12 -->
<g id="edge14" class="edge">
<title>11&#45;&gt;12</title>
<path fill="none" stroke="#9c9332" d="M856,-104.69C865.73,-104.8 877.57,-104.94 888.43,-105.07"/>
<polygon fill="#9c9332" stroke="#9c9332" points="888.13,-108.57 898.17,-105.19 888.22,-101.57 888.13,-108.57"/>
<text text-anchor="middle" x="877.9" y="-109.25" font-family="Helvetica,Arial,sans-serif" font-size="14.00" fill="#f78a05">s</text>
</g>
<!-- 10 -->
<g id="node14" class="node">
<title>10</title>
<ellipse fill="#d19928" stroke="#d19928" cx="921.34" cy="-44.45" rx="21.4" ry="21.4"/>
<text text-anchor="middle" x="921.34" y="-40.75" font-family="Helvetica,Arial,sans-serif" font-size="14.00" fill="white">10</text>
</g>
<!-- 9&#45;&gt;10 -->
<g id="edge12" class="edge">
<title>9&#45;&gt;10</title>
<path fill="none" stroke="#9c9332" d="M852.63,-46.84C862.91,-46.48 876.3,-46 888.45,-45.57"/>
<polygon fill="#9c9332" stroke="#9c9332" points="888.21,-49.09 898.08,-45.23 887.96,-42.09 888.21,-49.09"/>
<text text-anchor="middle" x="877.9" y="-50.25" font-family="Helvetica,Arial,sans-serif" font-size="14.00" fill="#f78a05">ε</text>
</g>
<!-- 13 -->
<g id="node15" class="node">
<title>13</title>
<ellipse fill="#d19928" stroke="#d19928" cx="1007.24" cy="-74.45" rx="21.4" ry="21.4"/>
<text text-anchor="middle" x="1007.24" y="-70.75" font-family="Helvetica,Arial,sans-serif" font-size="14.00" fill="white">13</text>
</g>
<!-- 10&#45;&gt;13 -->
<g id="edge13" class="edge">
<title>10&#45;&gt;13</title>
<path fill="none" stroke="#9c9332" d="M941.8,-51.41C951.9,-55.02 964.45,-59.51 975.8,-63.56"/>
<polygon fill="#9c9332" stroke="#9c9332" points="974.58,-66.84 985.17,-66.91 976.93,-60.25 974.58,-66.84"/>
<text text-anchor="middle" x="964.29" y="-64.25" font-family="Helvetica,Arial,sans-serif" font-size="14.00" fill="#f78a05">ε</text>
</g>
<!-- 14 -->
<g id="node17" class="node">
<title>14</title>
<ellipse fill="#d19928" stroke="#d19928" cx="1093.14" cy="-74.45" rx="21.4" ry="21.4"/>
<text text-anchor="middle" x="1093.14" y="-70.75" font-family="Helvetica,Arial,sans-serif" font-size="14.00" fill="white">14</text>
</g>
<!-- 13&#45;&gt;14 -->
<g id="edge16" class="edge">
<title>13&#45;&gt;14</title>
<path fill="none" stroke="#9c9332" d="M1028.98,-74.45C1038.36,-74.45 1049.65,-74.45 1060.09,-74.45"/>
<polygon fill="#9c9332" stroke="#9c9332" points="1059.83,-77.95 1069.83,-74.45 1059.83,-70.95 1059.83,-77.95"/>
<text text-anchor="middle" x="1050.19" y="-78.25" font-family="Helvetica,Arial,sans-serif" font-size="14.00" fill="#f78a05">ε</text>
</g>
<!-- 12&#45;&gt;13 -->
<g id="edge15" class="edge">
<title>12&#45;&gt;13</title>
<path fill="none" stroke="#9c9332" d="M941.8,-98.26C952,-94.49 964.72,-89.79 976.15,-85.57"/>
<polygon fill="#9c9332" stroke="#9c9332" points="977.01,-88.98 985.18,-82.23 974.58,-82.41 977.01,-88.98"/>
<text text-anchor="middle" x="964.29" y="-95.25" font-family="Helvetica,Arial,sans-serif" font-size="14.00" fill="#f78a05">ε</text>
</g>
<!-- 15 -->
<g id="node18" class="node">
<title>15</title>
<ellipse fill="#d19928" stroke="#d19928" cx="1176.03" cy="-74.45" rx="21.4" ry="21.4"/>
<text text-anchor="middle" x="1176.03" y="-70.75" font-family="Helvetica,Arial,sans-serif" font-size="14.00" fill="white">15</text>
</g>
<!-- 14&#45;&gt;15 -->
<g id="edge17" class="edge">
<title>14&#45;&gt;15</title>
<path fill="none" stroke="#9c9332" d="M1114.97,-74.45C1123.46,-74.45 1133.48,-74.45 1142.87,-74.45"/>
<polygon fill="#9c9332" stroke="#9c9332" points="1142.76,-77.95 1152.76,-74.45 1142.76,-70.95 1142.76,-77.95"/>
<text text-anchor="middle" x="1134.58" y="-78.25" font-family="Helvetica,Arial,sans-serif" font-size="14.00" fill="#f78a05">:</text>
</g>
<!-- 16 -->
<g id="node19" class="node">
<title>16</title>
<ellipse fill="#d19928" stroke="#d19928" cx="1261.93" cy="-74.45" rx="21.4" ry="21.4"/>
<text text-anchor="middle" x="1261.93" y="-70.75" font-family="Helvetica,Arial,sans-serif" font-size="14.00" fill="white">16</text>
</g>
<!-- 15&#45;&gt;16 -->
<g id="edge18" class="edge">
<title>15&#45;&gt;16</title>
<path fill="none" stroke="#9c9332" d="M1197.77,-74.45C1207.15,-74.45 1218.45,-74.45 1228.88,-74.45"/>
<polygon fill="#9c9332" stroke="#9c9332" points="1228.62,-77.95 1238.62,-74.45 1228.62,-70.95 1228.62,-77.95"/>
<text text-anchor="middle" x="1218.98" y="-78.25" font-family="Helvetica,Arial,sans-serif" font-size="14.00" fill="#f78a05">ε</text>
</g>
<!-- 17 -->
<g id="node20" class="node">
<title>17</title>
<ellipse fill="#d19928" stroke="#d19928" cx="1344.83" cy="-74.45" rx="21.4" ry="21.4"/>
<text text-anchor="middle" x="1344.83" y="-70.75" font-family="Helvetica,Arial,sans-serif" font-size="14.00" fill="white">17</text>
</g>
<!-- 16&#45;&gt;17 -->
<g id="edge19" class="edge">
<title>16&#45;&gt;17</title>
<path fill="none" stroke="#9c9332" d="M1283.76,-74.45C1292.25,-74.45 1302.27,-74.45 1311.66,-74.45"/>
<polygon fill="#9c9332" stroke="#9c9332" points="1311.55,-77.95 1321.55,-74.45 1311.55,-70.95 1311.55,-77.95"/>
<text text-anchor="middle" x="1303.38" y="-78.25" font-family="Helvetica,Arial,sans-serif" font-size="14.00" fill="#f78a05">/</text>
</g>
<!-- 18 -->
<g id="node21" class="node">
<title>18</title>
<ellipse fill="#d19928" stroke="#d19928" cx="1430.72" cy="-74.45" rx="21.4" ry="21.4"/>
<text text-anchor="middle" x="1430.72" y="-70.75" font-family="Helvetica,Arial,sans-serif" font-size="14.00" fill="white">18</text>
</g>
<!-- 17&#45;&gt;18 -->
<g id="edge20" class="edge">
<title>17&#45;&gt;18</title>
<path fill="none" stroke="#9c9332" d="M1366.56,-74.45C1375.94,-74.45 1387.24,-74.45 1397.67,-74.45"/>
<polygon fill="#9c9332" stroke="#9c9332" points="1397.42,-77.95 1407.42,-74.45 1397.42,-70.95 1397.42,-77.95"/>
<text text-anchor="middle" x="1387.77" y="-78.25" font-family="Helvetica,Arial,sans-serif" font-size="14.00" fill="#f78a05">ε</text>
</g>
<!-- 19 -->
<g id="node22" class="node">
<title>19</title>
<ellipse fill="#d19928" stroke="#d19928" cx="1513.62" cy="-74.45" rx="21.4" ry="21.4"/>
<text text-anchor="middle" x="1513.62" y="-70.75" font-family="Helvetica,Arial,sans-serif" font-size="14.00" fill="white">19</text>
</g>
<!-- 18&#45;&gt;19 -->
<g id="edge21" class="edge">
<title>18&#45;&gt;19</title>
<path fill="none" stroke="#9c9332" d="M1452.55,-74.45C1461.05,-74.45 1471.06,-74.45 1480.45,-74.45"/>
<polygon fill="#9c9332" stroke="#9c9332" points="1480.34,-77.95 1490.34,-74.45 1480.34,-70.95 1480.34,-77.95"/>
<text text-anchor="middle" x="1472.17" y="-78.25" font-family="Helvetica,Arial,sans-serif" font-size="14.00" fill="#f78a05">/</text>
</g>
<!-- 20 -->
<g id="node23" class="node">
<title>20</title>
<ellipse fill="#d19928" stroke="#d19928" cx="1599.51" cy="-74.45" rx="21.4" ry="21.4"/>
<text text-anchor="middle" x="1599.51" y="-70.75" font-family="Helvetica,Arial,sans-serif" font-size="14.00" fill="white">20</text>
</g>
<!-- 19&#45;&gt;20 -->
<g id="edge22" class="edge">
<title>19&#45;&gt;20</title>
<path fill="none" stroke="#9c9332" d="M1535.36,-74.45C1544.73,-74.45 1556.03,-74.45 1566.46,-74.45"/>
<polygon fill="#9c9332" stroke="#9c9332" points="1566.21,-77.95 1576.21,-74.45 1566.21,-70.95 1566.21,-77.95"/>
<text text-anchor="middle" x="1556.57" y="-78.25" font-family="Helvetica,Arial,sans-serif" font-size="14.00" fill="#f78a05">ε</text>
</g>
<!-- 21 -->
<g id="node24" class="node">
<title>21</title>
<ellipse fill="#d19928" stroke="#d19928" cx="1742.41" cy="-74.45" rx="21.4" ry="21.4"/>
<text text-anchor="middle" x="1742.41" y="-70.75" font-family="Helvetica,Arial,sans-serif" font-size="14.00" fill="white">21</text>
</g>
<!-- 20&#45;&gt;21 -->
<g id="edge23" class="edge">
<title>20&#45;&gt;21</title>
<path fill="none" stroke="#9c9332" d="M1621.3,-74.45C1644.51,-74.45 1682.34,-74.45 1709.34,-74.45"/>
<polygon fill="#9c9332" stroke="#9c9332" points="1709.02,-77.95 1719.02,-74.45 1709.02,-70.95 1709.02,-77.95"/>
<text text-anchor="middle" x="1670.96" y="-78.25" font-family="Helvetica,Arial,sans-serif" font-size="14.00" fill="#f78a05">minuscula</text>
</g>
<!-- 22 -->
<g id="node25" class="node">
<title>22</title>
<ellipse fill="#d19928" stroke="#d19928" cx="1828.31" cy="-74.45" rx="21.4" ry="21.4"/>
<text text-anchor="middle" x="1828.31" y="-70.75" font-family="Helvetica,Arial,sans-serif" font-size="14.00" fill="white">22</text>
</g>
<!-- 21&#45;&gt;22 -->
<g id="edge24" class="edge">
<title>21&#45;&gt;22</title>
<path fill="none" stroke="#9c9332" d="M1764.15,-74.45C1773.53,-74.45 1784.82,-74.45 1795.25,-74.45"/>
<polygon fill="#9c9332" stroke="#9c9332" points="1795,-77.95 1805,-74.45 1795,-70.95 1795,-77.95"/>
<text text-anchor="middle" x="1785.36" y="-78.25" font-family="Helvetica,Arial,sans-serif" font-size="14.00" fill="#f78a05">ε</text>
</g>
<!-- 23 -->
<g id="node26" class="node">
<title>23</title>
<ellipse fill="#d19928" stroke="#d19928" cx="1914.2" cy="-107.45" rx="21.4" ry="21.4"/>
<text text-anchor="middle" x="1914.2" y="-103.75" font-family="Helvetica,Arial,sans-serif" font-size="14.00" fill="white">23</text>
</g>
<!-- 22&#45;&gt;23 -->
<g id="edge25" class="edge">
<title>22&#45;&gt;23</title>
<path fill="none" stroke="#9c9332" d="M1848.76,-82.1C1859.04,-86.14 1871.86,-91.19 1883.36,-95.71"/>
<polygon fill="#9c9332" stroke="#9c9332" points="1881.85,-98.88 1892.44,-99.28 1884.42,-92.36 1881.85,-98.88"/>
<text text-anchor="middle" x="1871.25" y="-96.25" font-family="Helvetica,Arial,sans-serif" font-size="14.00" fill="#f78a05">ε</text>
</g>
<!-- 25 -->
<g id="node27" class="node">
<title>25</title>
<ellipse fill="#d19928" stroke="#d19928" cx="2142.99" cy="-74.45" rx="21.4" ry="21.4"/>
<text text-anchor="middle" x="2142.99" y="-70.75" font-family="Helvetica,Arial,sans-serif" font-size="14.00" fill="white">25</text>
</g>
<!-- 22&#45;&gt;25 -->
<g id="edge26" class="edge">
<title>22&#45;&gt;25</title>
<path fill="none" stroke="#9c9332" d="M1849.82,-74.45C1903.05,-74.45 2045.87,-74.45 2110.02,-74.45"/>
<polygon fill="#9c9332" stroke="#9c9332" points="2109.89,-77.95 2119.89,-74.45 2109.89,-70.95 2109.89,-77.95"/>
<text text-anchor="middle" x="1985.65" y="-78.25" font-family="Helvetica,Arial,sans-serif" font-size="14.00" fill="#f78a05">ε</text>
</g>
<!-- 24 -->
<g id="node28" class="node">
<title>24</title>
<ellipse fill="#d19928" stroke="#d19928" cx="2057.1" cy="-107.45" rx="21.4" ry="21.4"/>
<text text-anchor="middle" x="2057.1" y="-103.75" font-family="Helvetica,Arial,sans-serif" font-size="14.00" fill="white">24</text>
</g>
<!-- 23&#45;&gt;24 -->
<g id="edge27" class="edge">
<title>23&#45;&gt;24</title>
<path fill="none" stroke="#9c9332" d="M1934.97,-113.62C1940.91,-115.19 1947.49,-116.66 1953.65,-117.45 1981.87,-121.06 1989.44,-121.06 2017.65,-117.45 2020.15,-117.13 2022.72,-116.7 2025.29,-116.19"/>
<polygon fill="#9c9332" stroke="#9c9332" points="2025.91,-119.64 2034.86,-113.96 2024.32,-112.82 2025.91,-119.64"/>
<text text-anchor="middle" x="1985.65" y="-123.25" font-family="Helvetica,Arial,sans-serif" font-size="14.00" fill="#f78a05">minuscula</text>
</g>
<!-- 26 -->
<g id="node29" class="node">
<title>26</title>
<ellipse fill="#d19928" stroke="#d19928" cx="2228.89" cy="-74.45" rx="21.4" ry="21.4"/>
<text text-anchor="middle" x="2228.89" y="-70.75" font-family="Helvetica,Arial,sans-serif" font-size="14.00" fill="white">26</text>
</g>
<!-- 25&#45;&gt;26 -->
<g id="edge30" class="edge">
<title>25&#45;&gt;26</title>
<path fill="none" stroke="#9c9332" d="M2164.73,-74.45C2174.11,-74.45 2185.41,-74.45 2195.84,-74.45"/>
<polygon fill="#9c9332" stroke="#9c9332" points="2195.59,-77.95 2205.59,-74.45 2195.59,-70.95 2195.59,-77.95"/>
<text text-anchor="middle" x="2185.94" y="-78.25" font-family="Helvetica,Arial,sans-serif" font-size="14.00" fill="#f78a05">ε</text>
</g>
<!-- 24&#45;&gt;23 -->
<g id="edge28" class="edge">
<title>24&#45;&gt;23</title>
<path fill="none" stroke="#9c9332" d="M2036.3,-101.9C2030.35,-100.48 2023.78,-99.16 2017.65,-98.45 1989.39,-95.19 1981.91,-95.19 1953.65,-98.45 1951.16,-98.74 1948.6,-99.12 1946.03,-99.58"/>
<polygon fill="#9c9332" stroke="#9c9332" points="1945.55,-96.1 1936.49,-101.58 1946.99,-102.96 1945.55,-96.1"/>
<text text-anchor="middle" x="1985.65" y="-102.25" font-family="Helvetica,Arial,sans-serif" font-size="14.00" fill="#f78a05">ε</text>
</g>
<!-- 24&#45;&gt;25 -->
<g id="edge29" class="edge">
<title>24&#45;&gt;25</title>
<path fill="none" stroke="#9c9332" d="M2077.56,-99.79C2087.83,-95.75 2100.65,-90.71 2112.15,-86.19"/>
<polygon fill="#9c9332" stroke="#9c9332" points="2113.21,-89.53 2121.23,-82.61 2110.65,-83.02 2113.21,-89.53"/>
<text text-anchor="middle" x="2100.05" y="-96.25" font-family="Helvetica,Arial,sans-serif" font-size="14.00" fill="#f78a05">ε</text>
</g>
<!-- 27 -->
<g id="node30" class="node">
<title>27</title>
<ellipse fill="#d19928" stroke="#d19928" cx="2311.79" cy="-74.45" rx="21.4" ry="21.4"/>
<text text-anchor="middle" x="2311.79" y="-70.75" font-family="Helvetica,Arial,sans-serif" font-size="14.00" fill="white">27</text>
</g>
<!-- 26&#45;&gt;27 -->
<g id="edge31" class="edge">
<title>26&#45;&gt;27</title>
<path fill="none" stroke="#9c9332" d="M2250.72,-74.45C2259.22,-74.45 2269.23,-74.45 2278.62,-74.45"/>
<polygon fill="#9c9332" stroke="#9c9332" points="2278.51,-77.95 2288.51,-74.45 2278.51,-70.95 2278.51,-77.95"/>
<text text-anchor="middle" x="2270.34" y="-78.25" font-family="Helvetica,Arial,sans-serif" font-size="14.00" fill="#f78a05">.</text>
</g>
<!-- 28 -->
<g id="node31" class="node">
<title>28</title>
<ellipse fill="#d19928" stroke="#d19928" cx="2397.68" cy="-74.45" rx="21.4" ry="21.4"/>
<text text-anchor="middle" x="2397.68" y="-70.75" font-family="Helvetica,Arial,sans-serif" font-size="14.00" fill="white">28</text>
</g>
<!-- 27&#45;&gt;28 -->
<g id="edge32" class="edge">
<title>27&#45;&gt;28</title>
<path fill="none" stroke="#9c9332" d="M2333.53,-74.45C2342.9,-74.45 2354.2,-74.45 2364.63,-74.45"/>
<polygon fill="#9c9332" stroke="#9c9332" points="2364.38,-77.95 2374.38,-74.45 2364.38,-70.95 2364.38,-77.95"/>
<text text-anchor="middle" x="2354.74" y="-78.25" font-family="Helvetica,Arial,sans-serif" font-size="14.00" fill="#f78a05">ε</text>
</g>
<!-- 29 -->
<g id="node32" class="node">
<title>29</title>
<ellipse fill="#d19928" stroke="#d19928" cx="2540.58" cy="-74.45" rx="21.4" ry="21.4"/>
<text text-anchor="middle" x="2540.58" y="-70.75" font-family="Helvetica,Arial,sans-serif" font-size="14.00" fill="white">29</text>
</g>
<!-- 28&#45;&gt;29 -->
<g id="edge33" class="edge">
<title>28&#45;&gt;29</title>
<path fill="none" stroke="#9c9332" d="M2419.47,-74.45C2442.68,-74.45 2480.51,-74.45 2507.51,-74.45"/>
<polygon fill="#9c9332" stroke="#9c9332" points="2507.19,-77.95 2517.19,-74.45 2507.19,-70.95 2507.19,-77.95"/>
<text text-anchor="middle" x="2469.13" y="-78.25" font-family="Helvetica,Arial,sans-serif" font-size="14.00" fill="#f78a05">minuscula</text>
</g>
<!-- 30 -->
<g id="node33" class="node">
<title>30</title>
<ellipse fill="#d19928" stroke="#d19928" cx="2626.48" cy="-74.45" rx="21.4" ry="21.4"/>
<text text-anchor="middle" x="2626.48" y="-70.75" font-family="Helvetica,Arial,sans-serif" font-size="14.00" fill="white">30</text>
</g>
<!-- 29&#45;&gt;30 -->
<g id="edge34" class="edge">
<title>29&#45;&gt;30</title>
<path fill="none" stroke="#9c9332" d="M2562.32,-74.45C2571.7,-74.45 2582.99,-74.45 2593.42,-74.45"/>
<polygon fill="#9c9332" stroke="#9c9332" points="2593.17,-77.95 2603.17,-74.45 2593.17,-70.95 2593.17,-77.95"/>
<text text-anchor="middle" x="2583.53" y="-78.25" font-family="Helvetica,Arial,sans-serif" font-size="14.00" fill="#f78a05">ε</text>
</g>
<!-- 30&#45;&gt;33 -->
<g id="edge36" class="edge">
<title>30&#45;&gt;33</title>
<path fill="none" stroke="#9c9332" d="M2647.71,-79.47C2653.55,-80.7 2659.96,-81.83 2665.92,-82.45 2669.02,-82.77 2669.81,-82.45 2672.92,-82.45 2774.61,-82.23 2800.39,-89.97 2901.72,-81.45 2904.04,-81.25 2906.43,-81 2908.84,-80.71"/>
<polygon fill="#9c9332" stroke="#9c9332" points="2909.1,-84.21 2918.51,-79.33 2908.11,-77.28 2909.1,-84.21"/>
<text text-anchor="middle" x="2783.82" y="-90.25" font-family="Helvetica,Arial,sans-serif" font-size="14.00" fill="#f78a05">ε</text>
</g>
<!-- 31 -->
<g id="node34" class="node">
<title>31</title>
<ellipse fill="#d19928" stroke="#d19928" cx="2712.37" cy="-49.45" rx="21.4" ry="21.4"/>
<text text-anchor="middle" x="2712.37" y="-45.75" font-family="Helvetica,Arial,sans-serif" font-size="14.00" fill="white">31</text>
</g>
<!-- 30&#45;&gt;31 -->
<g id="edge35" class="edge">
<title>30&#45;&gt;31</title>
<path fill="none" stroke="#9c9332" d="M2647.36,-68.52C2657.21,-65.59 2669.34,-61.97 2680.37,-58.69"/>
<polygon fill="#9c9332" stroke="#9c9332" points="2681.31,-62.06 2689.89,-55.85 2679.31,-55.35 2681.31,-62.06"/>
<text text-anchor="middle" x="2669.42" y="-67.25" font-family="Helvetica,Arial,sans-serif" font-size="14.00" fill="#f78a05">ε</text>
</g>
<!-- 32 -->
<g id="node35" class="node">
<title>32</title>
<ellipse fill="#d19928" stroke="#d19928" cx="2855.27" cy="-49.45" rx="21.4" ry="21.4"/>
<text text-anchor="middle" x="2855.27" y="-45.75" font-family="Helvetica,Arial,sans-serif" font-size="14.00" fill="white">32</text>
</g>
<!-- 31&#45;&gt;32 -->
<g id="edge37" class="edge">
<title>31&#45;&gt;32</title>
<path fill="none" stroke="#9c9332" d="M2734.16,-49.45C2757.37,-49.45 2795.2,-49.45 2822.2,-49.45"/>
<polygon fill="#9c9332" stroke="#9c9332" points="2821.88,-52.95 2831.88,-49.45 2821.88,-45.95 2821.88,-52.95"/>
<text text-anchor="middle" x="2783.82" y="-53.25" font-family="Helvetica,Arial,sans-serif" font-size="14.00" fill="#f78a05">minuscula</text>
</g>
<!-- 32&#45;&gt;33 -->
<g id="edge39" class="edge">
<title>32&#45;&gt;33</title>
<path fill="none" stroke="#9c9332" d="M2876.21,-55.12C2886.01,-57.91 2898.11,-61.35 2909.37,-64.55"/>
<polygon fill="#9c9332" stroke="#9c9332" points="2908.2,-67.86 2918.78,-67.23 2910.12,-61.13 2908.2,-67.86"/>
<text text-anchor="middle" x="2898.22" y="-66.25" font-family="Helvetica,Arial,sans-serif" font-size="14.00" fill="#f78a05">ε</text>
</g>
<!-- 32&#45;&gt;31 -->
<g id="edge38" class="edge">
<title>32&#45;&gt;31</title>
<path fill="none" stroke="#9c9332" d="M2836.53,-38.57C2830.23,-35.28 2822.93,-32.11 2815.82,-30.45 2788.12,-23.98 2779.52,-23.98 2751.82,-30.45 2748.38,-31.25 2744.89,-32.41 2741.49,-33.77"/>
<polygon fill="#9c9332" stroke="#9c9332" points="2740.09,-30.56 2732.48,-37.93 2743.03,-36.91 2740.09,-30.56"/>
<text text-anchor="middle" x="2783.82" y="-34.25" font-family="Helvetica,Arial,sans-serif" font-size="14.00" fill="#f78a05">ε</text>
</g>
</g>
</svg>
