<?xml version="1.0" encoding="UTF-8" standalone="no"?>
<!DOCTYPE svg PUBLIC "-//W3C//DTD SVG 1.1//EN"
 "http://www.w3.org/Graphics/SVG/1.1/DTD/svg11.dtd">
<!-- Generated by graphviz version 7.1.0 (20230121.1956)
 -->
<!-- Title: finite_state_machine Pages: 1 -->
<svg width="535pt" height="104pt"
 viewBox="0.00 0.00 535.00 104.00" xmlns="http://www.w3.org/2000/svg" xmlns:xlink="http://www.w3.org/1999/xlink">
<g id="graph0" class="graph" transform="scale(1 1) rotate(0) translate(4 100)">
<title>finite_state_machine</title>
<polygon fill="white" stroke="none" points="-4,4 -4,-100 531,-100 531,4 -4,4"/>
<text text-anchor="middle" x="263.5" y="-7.8" font-family="Times New Roman,serif" font-size="14.00">cadena</text>
<!-- 3 -->
<g id="node1" class="node">
<title>3</title>
<ellipse fill="#f78a05" stroke="#f78a05" cx="505" cy="-45" rx="18" ry="18"/>
<ellipse fill="none" stroke="#f78a05" cx="505" cy="-45" rx="22" ry="22"/>
<text text-anchor="middle" x="505" y="-41.3" font-family="Helvetica,Arial,sans-serif" font-size="14.00" fill="white">3</text>
</g>
<!-- flechainicio -->
<!-- 0 -->
<g id="node3" class="node">
<title>0</title>
<ellipse fill="#d19928" stroke="#d19928" cx="123" cy="-45" rx="18" ry="18"/>
<text text-anchor="middle" x="123" y="-41.3" font-family="Helvetica,Arial,sans-serif" font-size="14.00" fill="white">0</text>
</g>
<!-- flechainicio&#45;&gt;0 -->
<g id="edge1" class="edge">
<title>flechainicio&#45;&gt;0</title>
<path fill="none" stroke="#9c9332" d="M36.47,-45C52.03,-45 75.08,-45 93.34,-45"/>
<polygon fill="#9c9332" stroke="#9c9332" points="93.27,-48.5 103.27,-45 93.27,-41.5 93.27,-48.5"/>
<text text-anchor="middle" x="70.5" y="-48.8" font-family="Helvetica,Arial,sans-serif" font-size="14.00" fill="#f78a05">inicio</text>
</g>
<!-- 1 -->
<g id="node4" class="node">
<title>1</title>
<ellipse fill="#d19928" stroke="#d19928" cx="199" cy="-45" rx="18" ry="18"/>
<text text-anchor="middle" x="199" y="-41.3" font-family="Helvetica,Arial,sans-serif" font-size="14.00" fill="white">1</text>
</g>
<!-- 0&#45;&gt;1 -->
<g id="edge2" class="edge">
<title>0&#45;&gt;1</title>
<path fill="none" stroke="#9c9332" d="M141.16,-45C149.51,-45 159.77,-45 169.26,-45"/>
<polygon fill="#9c9332" stroke="#9c9332" points="169.16,-48.5 179.16,-45 169.16,-41.5 169.16,-48.5"/>
<text text-anchor="middle" x="161" y="-48.8" font-family="Helvetica,Arial,sans-serif" font-size="14.00" fill="#f78a05">&#39;</text>
</g>
<!-- 2 -->
<g id="node5" class="node">
<title>2</title>
<ellipse fill="#d19928" stroke="#d19928" cx="425" cy="-45" rx="18" ry="18"/>
<text text-anchor="middle" x="425" y="-41.3" font-family="Helvetica,Arial,sans-serif" font-size="14.00" fill="white">2</text>
</g>
<!-- 1&#45;&gt;2 -->
<g id="edge3" class="edge">
<title>1&#45;&gt;2</title>
<path fill="none" stroke="#9c9332" d="M217.2,-45C255.48,-45 348.01,-45 395.23,-45"/>
<polygon fill="#9c9332" stroke="#9c9332" points="395.22,-48.5 405.22,-45 395.22,-41.5 395.22,-48.5"/>
<text text-anchor="middle" x="312" y="-48.8" font-family="Helvetica,Arial,sans-serif" font-size="14.00" fill="#f78a05">\n,&quot; &quot;,digito,mayus,minus</text>
</g>
<!-- 2&#45;&gt;3 -->
<g id="edge5" class="edge">
<title>2&#45;&gt;3</title>
<path fill="none" stroke="#9c9332" d="M443.31,-45C451.54,-45 461.67,-45 471.27,-45"/>
<polygon fill="#9c9332" stroke="#9c9332" points="471.05,-48.5 481.05,-45 471.05,-41.5 471.05,-48.5"/>
<text text-anchor="middle" x="463" y="-48.8" font-family="Helvetica,Arial,sans-serif" font-size="14.00" fill="#f78a05">&#39;</text>
</g>
<!-- 2&#45;&gt;2 -->
<g id="edge4" class="edge">
<title>2&#45;&gt;2</title>
<path fill="none" stroke="#9c9332" d="M418.27,-62.04C416.89,-71.86 419.14,-81 425,-81 428.39,-81 430.57,-77.94 431.54,-73.47"/>
<polygon fill="#9c9332" stroke="#9c9332" points="435.04,-73.61 431.71,-63.55 428.04,-73.49 435.04,-73.61"/>
<text text-anchor="middle" x="425" y="-84.8" font-family="Helvetica,Arial,sans-serif" font-size="14.00" fill="#f78a05">\n,&quot; &quot;,digito,mayus,minus</text>
</g>
</g>
</svg>
