<?xml version="1.0" encoding="UTF-8" standalone="no"?>
<!DOCTYPE svg PUBLIC "-//W3C//DTD SVG 1.1//EN"
 "http://www.w3.org/Graphics/SVG/1.1/DTD/svg11.dtd">
<!-- Generated by graphviz version 7.1.0 (20230121.1956)
 -->
<!-- Title: finite_state_machine Pages: 1 -->
<svg width="1349pt" height="104pt"
 viewBox="0.00 0.00 1349.00 104.00" xmlns="http://www.w3.org/2000/svg" xmlns:xlink="http://www.w3.org/1999/xlink">
<g id="graph0" class="graph" transform="scale(1 1) rotate(0) translate(4 100)">
<title>finite_state_machine</title>
<polygon fill="white" stroke="none" points="-4,4 -4,-100 1345,-100 1345,4 -4,4"/>
<text text-anchor="middle" x="670.5" y="-7.8" font-family="Times New Roman,serif" font-size="14.00">correoElectronico</text>
<!-- 8 -->
<g id="node1" class="node">
<title>8</title>
<ellipse fill="#f78a05" stroke="#f78a05" cx="1319" cy="-45" rx="18" ry="18"/>
<ellipse fill="none" stroke="#f78a05" cx="1319" cy="-45" rx="22" ry="22"/>
<text text-anchor="middle" x="1319" y="-41.3" font-family="Helvetica,Arial,sans-serif" font-size="14.00" fill="white">8</text>
</g>
<!-- flechainicio -->
<!-- 0 -->
<g id="node3" class="node">
<title>0</title>
<ellipse fill="#d19928" stroke="#d19928" cx="123" cy="-45" rx="18" ry="18"/>
<text text-anchor="middle" x="123" y="-41.3" font-family="Helvetica,Arial,sans-serif" font-size="14.00" fill="white">0</text>
</g>
<!-- flechainicio&#45;&gt;0 -->
<g id="edge1" class="edge">
<title>flechainicio&#45;&gt;0</title>
<path fill="none" stroke="#9c9332" d="M36.47,-45C52.03,-45 75.08,-45 93.34,-45"/>
<polygon fill="#9c9332" stroke="#9c9332" points="93.27,-48.5 103.27,-45 93.27,-41.5 93.27,-48.5"/>
<text text-anchor="middle" x="70.5" y="-48.8" font-family="Helvetica,Arial,sans-serif" font-size="14.00" fill="#f78a05">inicio</text>
</g>
<!-- 1 -->
<g id="node4" class="node">
<title>1</title>
<ellipse fill="#d19928" stroke="#d19928" cx="329" cy="-45" rx="18" ry="18"/>
<text text-anchor="middle" x="329" y="-41.3" font-family="Helvetica,Arial,sans-serif" font-size="14.00" fill="white">1</text>
</g>
<!-- 0&#45;&gt;1 -->
<g id="edge2" class="edge">
<title>0&#45;&gt;1</title>
<path fill="none" stroke="#9c9332" d="M141.39,-45C176.55,-45 256.36,-45 299.33,-45"/>
<polygon fill="#9c9332" stroke="#9c9332" points="299.14,-48.5 309.14,-45 299.14,-41.5 299.14,-48.5"/>
<text text-anchor="middle" x="226" y="-48.8" font-family="Helvetica,Arial,sans-serif" font-size="14.00" fill="#f78a05">minuscula,mayuscula</text>
</g>
<!-- 2 -->
<g id="node5" class="node">
<title>2</title>
<ellipse fill="#d19928" stroke="#d19928" cx="648" cy="-45" rx="18" ry="18"/>
<text text-anchor="middle" x="648" y="-41.3" font-family="Helvetica,Arial,sans-serif" font-size="14.00" fill="white">2</text>
</g>
<!-- 1&#45;&gt;2 -->
<g id="edge3" class="edge">
<title>1&#45;&gt;2</title>
<path fill="none" stroke="#9c9332" d="M347.49,-45C399.56,-45 553.89,-45 618.28,-45"/>
<polygon fill="#9c9332" stroke="#9c9332" points="618.05,-48.5 628.05,-45 618.05,-41.5 618.05,-48.5"/>
<text text-anchor="middle" x="488.5" y="-48.8" font-family="Helvetica,Arial,sans-serif" font-size="14.00" fill="#f78a05">simbolos,numero,mayuscula,minuscula</text>
</g>
<!-- 2&#45;&gt;2 -->
<g id="edge4" class="edge">
<title>2&#45;&gt;2</title>
<path fill="none" stroke="#9c9332" d="M639.55,-61.29C637.51,-71.39 640.33,-81 648,-81 652.56,-81 655.4,-77.61 656.53,-72.74"/>
<polygon fill="#9c9332" stroke="#9c9332" points="660.03,-72.78 656.46,-62.8 653.03,-72.83 660.03,-72.78"/>
<text text-anchor="middle" x="648" y="-84.8" font-family="Helvetica,Arial,sans-serif" font-size="14.00" fill="#f78a05">simbolos,numero,mayuscula,minuscula</text>
</g>
<!-- 3 -->
<g id="node6" class="node">
<title>3</title>
<ellipse fill="#d19928" stroke="#d19928" cx="745" cy="-45" rx="18" ry="18"/>
<text text-anchor="middle" x="745" y="-41.3" font-family="Helvetica,Arial,sans-serif" font-size="14.00" fill="white">3</text>
</g>
<!-- 2&#45;&gt;3 -->
<g id="edge5" class="edge">
<title>2&#45;&gt;3</title>
<path fill="none" stroke="#9c9332" d="M666.42,-45C680.08,-45 699.38,-45 715.31,-45"/>
<polygon fill="#9c9332" stroke="#9c9332" points="715.17,-48.5 725.17,-45 715.17,-41.5 715.17,-48.5"/>
<text text-anchor="middle" x="696.5" y="-48.8" font-family="Helvetica,Arial,sans-serif" font-size="14.00" fill="#f78a05">&quot;@&quot;</text>
</g>
<!-- 4 -->
<g id="node7" class="node">
<title>4</title>
<ellipse fill="#d19928" stroke="#d19928" cx="951" cy="-45" rx="18" ry="18"/>
<text text-anchor="middle" x="951" y="-41.3" font-family="Helvetica,Arial,sans-serif" font-size="14.00" fill="white">4</text>
</g>
<!-- 3&#45;&gt;4 -->
<g id="edge6" class="edge">
<title>3&#45;&gt;4</title>
<path fill="none" stroke="#9c9332" d="M763.39,-45C798.55,-45 878.36,-45 921.33,-45"/>
<polygon fill="#9c9332" stroke="#9c9332" points="921.14,-48.5 931.14,-45 921.14,-41.5 921.14,-48.5"/>
<text text-anchor="middle" x="848" y="-48.8" font-family="Helvetica,Arial,sans-serif" font-size="14.00" fill="#f78a05">minuscula,mayuscula</text>
</g>
<!-- 4&#45;&gt;4 -->
<g id="edge7" class="edge">
<title>4&#45;&gt;4</title>
<path fill="none" stroke="#9c9332" d="M943.35,-61.66C941.65,-71.62 944.2,-81 951,-81 955.04,-81 957.57,-77.69 958.61,-72.92"/>
<polygon fill="#9c9332" stroke="#9c9332" points="962.11,-73.19 958.64,-63.18 955.11,-73.17 962.11,-73.19"/>
<text text-anchor="middle" x="951" y="-84.8" font-family="Helvetica,Arial,sans-serif" font-size="14.00" fill="#f78a05">minuscula,mayuscula</text>
</g>
<!-- 5 -->
<g id="node8" class="node">
<title>5</title>
<ellipse fill="#d19928" stroke="#d19928" cx="1038" cy="-45" rx="18" ry="18"/>
<text text-anchor="middle" x="1038" y="-41.3" font-family="Helvetica,Arial,sans-serif" font-size="14.00" fill="white">5</text>
</g>
<!-- 4&#45;&gt;5 -->
<g id="edge8" class="edge">
<title>4&#45;&gt;5</title>
<path fill="none" stroke="#9c9332" d="M969.2,-45C980.42,-45 995.33,-45 1008.31,-45"/>
<polygon fill="#9c9332" stroke="#9c9332" points="1008.02,-48.5 1018.02,-45 1008.02,-41.5 1008.02,-48.5"/>
<text text-anchor="middle" x="994.5" y="-48.8" font-family="Helvetica,Arial,sans-serif" font-size="14.00" fill="#f78a05">&quot;.&quot;</text>
</g>
<!-- 6 -->
<g id="node9" class="node">
<title>6</title>
<ellipse fill="#d19928" stroke="#d19928" cx="1129" cy="-45" rx="18" ry="18"/>
<text text-anchor="middle" x="1129" y="-41.3" font-family="Helvetica,Arial,sans-serif" font-size="14.00" fill="white">6</text>
</g>
<!-- 5&#45;&gt;6 -->
<g id="edge9" class="edge">
<title>5&#45;&gt;6</title>
<path fill="none" stroke="#9c9332" d="M1056.16,-45C1068.39,-45 1085.13,-45 1099.37,-45"/>
<polygon fill="#9c9332" stroke="#9c9332" points="1099.08,-48.5 1109.08,-45 1099.08,-41.5 1099.08,-48.5"/>
<text text-anchor="middle" x="1083.5" y="-48.8" font-family="Helvetica,Arial,sans-serif" font-size="14.00" fill="#f78a05">&quot;c&quot;</text>
</g>
<!-- 7 -->
<g id="node10" class="node">
<title>7</title>
<ellipse fill="#d19928" stroke="#d19928" cx="1220" cy="-45" rx="18" ry="18"/>
<text text-anchor="middle" x="1220" y="-41.3" font-family="Helvetica,Arial,sans-serif" font-size="14.00" fill="white">7</text>
</g>
<!-- 6&#45;&gt;7 -->
<g id="edge10" class="edge">
<title>6&#45;&gt;7</title>
<path fill="none" stroke="#9c9332" d="M1147.16,-45C1159.39,-45 1176.13,-45 1190.37,-45"/>
<polygon fill="#9c9332" stroke="#9c9332" points="1190.08,-48.5 1200.08,-45 1190.08,-41.5 1190.08,-48.5"/>
<text text-anchor="middle" x="1174.5" y="-48.8" font-family="Helvetica,Arial,sans-serif" font-size="14.00" fill="#f78a05">&quot;o&quot;</text>
</g>
<!-- 7&#45;&gt;8 -->
<g id="edge11" class="edge">
<title>7&#45;&gt;8</title>
<path fill="none" stroke="#9c9332" d="M1238.34,-45C1251.37,-45 1269.6,-45 1285.33,-45"/>
<polygon fill="#9c9332" stroke="#9c9332" points="1285.23,-48.5 1295.23,-45 1285.23,-41.5 1285.23,-48.5"/>
<text text-anchor="middle" x="1267.5" y="-48.8" font-family="Helvetica,Arial,sans-serif" font-size="14.00" fill="#f78a05">&quot;m&quot;</text>
</g>
</g>
</svg>
