<?xml version="1.0" encoding="UTF-8" standalone="no"?>
<!DOCTYPE svg PUBLIC "-//W3C//DTD SVG 1.1//EN"
 "http://www.w3.org/Graphics/SVG/1.1/DTD/svg11.dtd">
<!-- Generated by graphviz version 7.1.0 (20230121.1956)
 -->
<!-- Title: finite_state_machine Pages: 1 -->
<svg width="458pt" height="108pt"
 viewBox="0.00 0.00 458.00 108.00" xmlns="http://www.w3.org/2000/svg" xmlns:xlink="http://www.w3.org/1999/xlink">
<g id="graph0" class="graph" transform="scale(1 1) rotate(0) translate(4 104)">
<title>finite_state_machine</title>
<polygon fill="white" stroke="none" points="-4,4 -4,-104 454,-104 454,4 -4,4"/>
<text text-anchor="middle" x="225" y="-7.8" font-family="Times New Roman,serif" font-size="14.00">decimales</text>
<!-- 3 -->
<g id="node1" class="node">
<title>3</title>
<ellipse fill="#f78a05" stroke="#f78a05" cx="428" cy="-45" rx="18" ry="18"/>
<ellipse fill="none" stroke="#f78a05" cx="428" cy="-45" rx="22" ry="22"/>
<text text-anchor="middle" x="428" y="-41.3" font-family="Helvetica,Arial,sans-serif" font-size="14.00" fill="white">3</text>
</g>
<!-- 3&#45;&gt;3 -->
<g id="edge6" class="edge">
<title>3&#45;&gt;3</title>
<path fill="none" stroke="#9c9332" d="M417.66,-64.76C415.91,-75.35 419.35,-85 428,-85 433.27,-85 436.61,-81.42 438.01,-76.22"/>
<polygon fill="#9c9332" stroke="#9c9332" points="441.51,-76.37 438.29,-66.27 434.51,-76.17 441.51,-76.37"/>
<text text-anchor="middle" x="428" y="-88.8" font-family="Helvetica,Arial,sans-serif" font-size="14.00" fill="#f78a05">digito</text>
</g>
<!-- flechainicio -->
<!-- 0 -->
<g id="node3" class="node">
<title>0</title>
<ellipse fill="#d19928" stroke="#d19928" cx="123" cy="-45" rx="18" ry="18"/>
<text text-anchor="middle" x="123" y="-41.3" font-family="Helvetica,Arial,sans-serif" font-size="14.00" fill="white">0</text>
</g>
<!-- flechainicio&#45;&gt;0 -->
<g id="edge1" class="edge">
<title>flechainicio&#45;&gt;0</title>
<path fill="none" stroke="#9c9332" d="M36.47,-45C52.03,-45 75.08,-45 93.34,-45"/>
<polygon fill="#9c9332" stroke="#9c9332" points="93.27,-48.5 103.27,-45 93.27,-41.5 93.27,-48.5"/>
<text text-anchor="middle" x="70.5" y="-48.8" font-family="Helvetica,Arial,sans-serif" font-size="14.00" fill="#f78a05">inicio</text>
</g>
<!-- 1 -->
<g id="node4" class="node">
<title>1</title>
<ellipse fill="#d19928" stroke="#d19928" cx="230" cy="-45" rx="18" ry="18"/>
<text text-anchor="middle" x="230" y="-41.3" font-family="Helvetica,Arial,sans-serif" font-size="14.00" fill="white">1</text>
</g>
<!-- 0&#45;&gt;1 -->
<g id="edge2" class="edge">
<title>0&#45;&gt;1</title>
<path fill="none" stroke="#9c9332" d="M141.34,-45C157.3,-45 181.28,-45 200.13,-45"/>
<polygon fill="#9c9332" stroke="#9c9332" points="200.12,-48.5 210.12,-45 200.12,-41.5 200.12,-48.5"/>
<text text-anchor="middle" x="176.5" y="-48.8" font-family="Helvetica,Arial,sans-serif" font-size="14.00" fill="#f78a05">digito</text>
</g>
<!-- 1&#45;&gt;1 -->
<g id="edge3" class="edge">
<title>1&#45;&gt;1</title>
<path fill="none" stroke="#9c9332" d="M222.35,-61.66C220.65,-71.62 223.2,-81 230,-81 234.04,-81 236.57,-77.69 237.61,-72.92"/>
<polygon fill="#9c9332" stroke="#9c9332" points="241.11,-73.19 237.64,-63.18 234.11,-73.17 241.11,-73.19"/>
<text text-anchor="middle" x="230" y="-84.8" font-family="Helvetica,Arial,sans-serif" font-size="14.00" fill="#f78a05">digito</text>
</g>
<!-- 2 -->
<g id="node5" class="node">
<title>2</title>
<ellipse fill="#d19928" stroke="#d19928" cx="317" cy="-45" rx="18" ry="18"/>
<text text-anchor="middle" x="317" y="-41.3" font-family="Helvetica,Arial,sans-serif" font-size="14.00" fill="white">2</text>
</g>
<!-- 1&#45;&gt;2 -->
<g id="edge4" class="edge">
<title>1&#45;&gt;2</title>
<path fill="none" stroke="#9c9332" d="M248.2,-45C259.42,-45 274.33,-45 287.31,-45"/>
<polygon fill="#9c9332" stroke="#9c9332" points="287.02,-48.5 297.02,-45 287.02,-41.5 287.02,-48.5"/>
<text text-anchor="middle" x="273.5" y="-48.8" font-family="Helvetica,Arial,sans-serif" font-size="14.00" fill="#f78a05">&quot;.&quot;</text>
</g>
<!-- 2&#45;&gt;3 -->
<g id="edge5" class="edge">
<title>2&#45;&gt;3</title>
<path fill="none" stroke="#9c9332" d="M335.03,-45C350.8,-45 374.68,-45 394.15,-45"/>
<polygon fill="#9c9332" stroke="#9c9332" points="394.08,-48.5 404.08,-45 394.08,-41.5 394.08,-48.5"/>
<text text-anchor="middle" x="370.5" y="-48.8" font-family="Helvetica,Arial,sans-serif" font-size="14.00" fill="#f78a05">digito</text>
</g>
</g>
</svg>
