<?xml version="1.0" encoding="UTF-8" standalone="no"?>
<!DOCTYPE svg PUBLIC "-//W3C//DTD SVG 1.1//EN"
 "http://www.w3.org/Graphics/SVG/1.1/DTD/svg11.dtd">
<!-- Generated by graphviz version 7.1.0 (20230121.1956)
 -->
<!-- Title: finite_state_machine Pages: 1 -->
<svg width="731pt" height="108pt"
 viewBox="0.00 0.00 731.00 108.00" xmlns="http://www.w3.org/2000/svg" xmlns:xlink="http://www.w3.org/1999/xlink">
<g id="graph0" class="graph" transform="scale(1 1) rotate(0) translate(4 104)">
<title>finite_state_machine</title>
<polygon fill="white" stroke="none" points="-4,4 -4,-104 727,-104 727,4 -4,4"/>
<text text-anchor="middle" x="361.5" y="-7.8" font-family="Times New Roman,serif" font-size="14.00">frase</text>
<!-- 6 -->
<g id="node1" class="node">
<title>6</title>
<ellipse fill="#f78a05" stroke="#f78a05" cx="681" cy="-45" rx="18" ry="18"/>
<ellipse fill="none" stroke="#f78a05" cx="681" cy="-45" rx="22" ry="22"/>
<text text-anchor="middle" x="681" y="-41.3" font-family="Helvetica,Arial,sans-serif" font-size="14.00" fill="white">6</text>
</g>
<!-- 6&#45;&gt;6 -->
<g id="edge8" class="edge">
<title>6&#45;&gt;6</title>
<path fill="none" stroke="#9c9332" d="M671.99,-65.58C670.75,-75.84 673.75,-85 681,-85 685.31,-85 688.11,-81.77 689.42,-77"/>
<polygon fill="#9c9332" stroke="#9c9332" points="692.91,-77.26 689.93,-67.09 685.92,-76.9 692.91,-77.26"/>
<text text-anchor="middle" x="681" y="-88.8" font-family="Helvetica,Arial,sans-serif" font-size="14.00" fill="#f78a05">letra,&quot; &quot;,digito</text>
</g>
<!-- flechainicio -->
<!-- 0 -->
<g id="node3" class="node">
<title>0</title>
<ellipse fill="#d19928" stroke="#d19928" cx="123" cy="-45" rx="18" ry="18"/>
<text text-anchor="middle" x="123" y="-41.3" font-family="Helvetica,Arial,sans-serif" font-size="14.00" fill="white">0</text>
</g>
<!-- flechainicio&#45;&gt;0 -->
<g id="edge1" class="edge">
<title>flechainicio&#45;&gt;0</title>
<path fill="none" stroke="#9c9332" d="M36.47,-45C52.03,-45 75.08,-45 93.34,-45"/>
<polygon fill="#9c9332" stroke="#9c9332" points="93.27,-48.5 103.27,-45 93.27,-41.5 93.27,-48.5"/>
<text text-anchor="middle" x="70.5" y="-48.8" font-family="Helvetica,Arial,sans-serif" font-size="14.00" fill="#f78a05">inicio</text>
</g>
<!-- 1 -->
<g id="node4" class="node">
<title>1</title>
<ellipse fill="#d19928" stroke="#d19928" cx="217" cy="-45" rx="18" ry="18"/>
<text text-anchor="middle" x="217" y="-41.3" font-family="Helvetica,Arial,sans-serif" font-size="14.00" fill="white">1</text>
</g>
<!-- 0&#45;&gt;1 -->
<g id="edge2" class="edge">
<title>0&#45;&gt;1</title>
<path fill="none" stroke="#9c9332" d="M141.3,-45C154.28,-45 172.34,-45 187.44,-45"/>
<polygon fill="#9c9332" stroke="#9c9332" points="187.26,-48.5 197.26,-45 187.26,-41.5 187.26,-48.5"/>
<text text-anchor="middle" x="170" y="-48.8" font-family="Helvetica,Arial,sans-serif" font-size="14.00" fill="#f78a05">&quot;C&quot;</text>
</g>
<!-- 2 -->
<g id="node5" class="node">
<title>2</title>
<ellipse fill="#d19928" stroke="#d19928" cx="311" cy="-45" rx="18" ry="18"/>
<text text-anchor="middle" x="311" y="-41.3" font-family="Helvetica,Arial,sans-serif" font-size="14.00" fill="white">2</text>
</g>
<!-- 1&#45;&gt;2 -->
<g id="edge3" class="edge">
<title>1&#45;&gt;2</title>
<path fill="none" stroke="#9c9332" d="M235.3,-45C248.28,-45 266.34,-45 281.44,-45"/>
<polygon fill="#9c9332" stroke="#9c9332" points="281.26,-48.5 291.26,-45 281.26,-41.5 281.26,-48.5"/>
<text text-anchor="middle" x="264" y="-48.8" font-family="Helvetica,Arial,sans-serif" font-size="14.00" fill="#f78a05">&quot;O&quot;</text>
</g>
<!-- 3 -->
<g id="node6" class="node">
<title>3</title>
<ellipse fill="#d19928" stroke="#d19928" cx="405" cy="-45" rx="18" ry="18"/>
<text text-anchor="middle" x="405" y="-41.3" font-family="Helvetica,Arial,sans-serif" font-size="14.00" fill="white">3</text>
</g>
<!-- 2&#45;&gt;3 -->
<g id="edge4" class="edge">
<title>2&#45;&gt;3</title>
<path fill="none" stroke="#9c9332" d="M329.3,-45C342.28,-45 360.34,-45 375.44,-45"/>
<polygon fill="#9c9332" stroke="#9c9332" points="375.26,-48.5 385.26,-45 375.26,-41.5 375.26,-48.5"/>
<text text-anchor="middle" x="358" y="-48.8" font-family="Helvetica,Arial,sans-serif" font-size="14.00" fill="#f78a05">&quot;M&quot;</text>
</g>
<!-- 4 -->
<g id="node7" class="node">
<title>4</title>
<ellipse fill="#d19928" stroke="#d19928" cx="498" cy="-45" rx="18" ry="18"/>
<text text-anchor="middle" x="498" y="-41.3" font-family="Helvetica,Arial,sans-serif" font-size="14.00" fill="white">4</text>
</g>
<!-- 3&#45;&gt;4 -->
<g id="edge5" class="edge">
<title>3&#45;&gt;4</title>
<path fill="none" stroke="#9c9332" d="M423.12,-45C435.87,-45 453.58,-45 468.47,-45"/>
<polygon fill="#9c9332" stroke="#9c9332" points="468.14,-48.5 478.14,-45 468.14,-41.5 468.14,-48.5"/>
<text text-anchor="middle" x="451.5" y="-48.8" font-family="Helvetica,Arial,sans-serif" font-size="14.00" fill="#f78a05">&quot;P&quot;</text>
</g>
<!-- 5 -->
<g id="node8" class="node">
<title>5</title>
<ellipse fill="#d19928" stroke="#d19928" cx="586" cy="-45" rx="18" ry="18"/>
<text text-anchor="middle" x="586" y="-41.3" font-family="Helvetica,Arial,sans-serif" font-size="14.00" fill="white">5</text>
</g>
<!-- 4&#45;&gt;5 -->
<g id="edge6" class="edge">
<title>4&#45;&gt;5</title>
<path fill="none" stroke="#9c9332" d="M516.4,-45C527.83,-45 543.04,-45 556.24,-45"/>
<polygon fill="#9c9332" stroke="#9c9332" points="556.11,-48.5 566.11,-45 556.11,-41.5 556.11,-48.5"/>
<text text-anchor="middle" x="542" y="-48.8" font-family="Helvetica,Arial,sans-serif" font-size="14.00" fill="#f78a05">&quot;I&quot;</text>
</g>
<!-- 5&#45;&gt;6 -->
<g id="edge7" class="edge">
<title>5&#45;&gt;6</title>
<path fill="none" stroke="#9c9332" d="M604.49,-45C616.5,-45 632.79,-45 647.17,-45"/>
<polygon fill="#9c9332" stroke="#9c9332" points="647.15,-48.5 657.15,-45 647.15,-41.5 647.15,-48.5"/>
<text text-anchor="middle" x="631.5" y="-48.8" font-family="Helvetica,Arial,sans-serif" font-size="14.00" fill="#f78a05">&quot;1&quot;</text>
</g>
</g>
</svg>
