<?xml version="1.0" encoding="UTF-8" standalone="no"?>
<!DOCTYPE svg PUBLIC "-//W3C//DTD SVG 1.1//EN"
 "http://www.w3.org/Graphics/SVG/1.1/DTD/svg11.dtd">
<!-- Generated by graphviz version 7.1.0 (20230121.1956)
 -->
<!-- Title: finite_state_machine Pages: 1 -->
<svg width="401pt" height="108pt"
 viewBox="0.00 0.00 400.50 108.00" xmlns="http://www.w3.org/2000/svg" xmlns:xlink="http://www.w3.org/1999/xlink">
<g id="graph0" class="graph" transform="scale(1 1) rotate(0) translate(4 104)">
<title>finite_state_machine</title>
<polygon fill="white" stroke="none" points="-4,4 -4,-104 396.5,-104 396.5,4 -4,4"/>
<text text-anchor="middle" x="196.25" y="-7.8" font-family="Times New Roman,serif" font-size="14.00">identificador</text>
<!-- 1 -->
<g id="node1" class="node">
<title>1</title>
<ellipse fill="#f78a05" stroke="#f78a05" cx="308" cy="-45" rx="18" ry="18"/>
<ellipse fill="none" stroke="#f78a05" cx="308" cy="-45" rx="22" ry="22"/>
<text text-anchor="middle" x="308" y="-41.3" font-family="Helvetica,Arial,sans-serif" font-size="14.00" fill="white">1</text>
</g>
<!-- 1&#45;&gt;1 -->
<g id="edge3" class="edge">
<title>1&#45;&gt;1</title>
<path fill="none" stroke="#9c9332" d="M292.37,-61.02C286.92,-72.96 292.13,-85 308,-85 318.91,-85 324.78,-79.31 325.62,-71.87"/>
<polygon fill="#9c9332" stroke="#9c9332" points="329.14,-71.71 323.9,-62.51 322.26,-72.97 329.14,-71.71"/>
<text text-anchor="middle" x="308" y="-88.8" font-family="Helvetica,Arial,sans-serif" font-size="14.00" fill="#f78a05">&quot;_&quot;,digito,abecedarioMinus</text>
</g>
<!-- flechainicio -->
<!-- 0 -->
<g id="node3" class="node">
<title>0</title>
<ellipse fill="#d19928" stroke="#d19928" cx="123" cy="-45" rx="18" ry="18"/>
<text text-anchor="middle" x="123" y="-41.3" font-family="Helvetica,Arial,sans-serif" font-size="14.00" fill="white">0</text>
</g>
<!-- flechainicio&#45;&gt;0 -->
<g id="edge1" class="edge">
<title>flechainicio&#45;&gt;0</title>
<path fill="none" stroke="#9c9332" d="M36.47,-45C52.03,-45 75.08,-45 93.34,-45"/>
<polygon fill="#9c9332" stroke="#9c9332" points="93.27,-48.5 103.27,-45 93.27,-41.5 93.27,-48.5"/>
<text text-anchor="middle" x="70.5" y="-48.8" font-family="Helvetica,Arial,sans-serif" font-size="14.00" fill="#f78a05">inicio</text>
</g>
<!-- 0&#45;&gt;1 -->
<g id="edge2" class="edge">
<title>0&#45;&gt;1</title>
<path fill="none" stroke="#9c9332" d="M141.22,-45C171.63,-45 235.33,-45 274.31,-45"/>
<polygon fill="#9c9332" stroke="#9c9332" points="274.27,-48.5 284.27,-45 274.27,-41.5 274.27,-48.5"/>
<text text-anchor="middle" x="213.5" y="-48.8" font-family="Helvetica,Arial,sans-serif" font-size="14.00" fill="#f78a05">abecedarioMinus</text>
</g>
</g>
</svg>
