<?xml version="1.0" encoding="UTF-8" standalone="no"?>
<!DOCTYPE svg PUBLIC "-//W3C//DTD SVG 1.1//EN"
 "http://www.w3.org/Graphics/SVG/1.1/DTD/svg11.dtd">
<!-- Generated by graphviz version 7.1.0 (20230121.1956)
 -->
<!-- Title: finite_state_machine Pages: 1 -->
<svg width="1244pt" height="115pt"
 viewBox="0.00 0.00 1244.34 114.90" xmlns="http://www.w3.org/2000/svg" xmlns:xlink="http://www.w3.org/1999/xlink">
<g id="graph0" class="graph" transform="scale(1 1) rotate(0) translate(4 110.9)">
<title>finite_state_machine</title>
<polygon fill="white" stroke="none" points="-4,4 -4,-110.9 1240.34,-110.9 1240.34,4 -4,4"/>
<text text-anchor="middle" x="618.17" y="-7.8" font-family="Times New Roman,serif" font-size="14.00">url</text>
<!-- 11 -->
<g id="node1" class="node">
<title>11</title>
<ellipse fill="#f78a05" stroke="#f78a05" cx="1204.34" cy="-48.45" rx="21.4" ry="21.4"/>
<ellipse fill="none" stroke="#f78a05" cx="1204.34" cy="-48.45" rx="25.4" ry="25.4"/>
<text text-anchor="middle" x="1204.34" y="-44.75" font-family="Helvetica,Arial,sans-serif" font-size="14.00" fill="white">11</text>
</g>
<!-- 11&#45;&gt;11 -->
<g id="edge14" class="edge">
<title>11&#45;&gt;11</title>
<path fill="none" stroke="#9c9332" d="M1190.7,-70.36C1188.6,-81.68 1193.14,-91.9 1204.34,-91.9 1211.52,-91.9 1215.96,-87.71 1217.68,-81.71"/>
<polygon fill="#9c9332" stroke="#9c9332" points="1221.18,-81.96 1217.95,-71.87 1214.18,-81.77 1221.18,-81.96"/>
<text text-anchor="middle" x="1204.34" y="-95.7" font-family="Helvetica,Arial,sans-serif" font-size="14.00" fill="#f78a05">minuscula</text>
</g>
<!-- flechainicio -->
<!-- 0 -->
<g id="node3" class="node">
<title>0</title>
<ellipse fill="#d19928" stroke="#d19928" cx="123" cy="-48.45" rx="18" ry="18"/>
<text text-anchor="middle" x="123" y="-44.75" font-family="Helvetica,Arial,sans-serif" font-size="14.00" fill="white">0</text>
</g>
<!-- flechainicio&#45;&gt;0 -->
<g id="edge1" class="edge">
<title>flechainicio&#45;&gt;0</title>
<path fill="none" stroke="#9c9332" d="M36.47,-48.45C52.03,-48.45 75.08,-48.45 93.34,-48.45"/>
<polygon fill="#9c9332" stroke="#9c9332" points="93.27,-51.95 103.27,-48.45 93.27,-44.95 93.27,-51.95"/>
<text text-anchor="middle" x="70.5" y="-52.25" font-family="Helvetica,Arial,sans-serif" font-size="14.00" fill="#f78a05">inicio</text>
</g>
<!-- 1 -->
<g id="node4" class="node">
<title>1</title>
<ellipse fill="#d19928" stroke="#d19928" cx="214" cy="-48.45" rx="18" ry="18"/>
<text text-anchor="middle" x="214" y="-44.75" font-family="Helvetica,Arial,sans-serif" font-size="14.00" fill="white">1</text>
</g>
<!-- 0&#45;&gt;1 -->
<g id="edge2" class="edge">
<title>0&#45;&gt;1</title>
<path fill="none" stroke="#9c9332" d="M141.16,-48.45C153.39,-48.45 170.13,-48.45 184.37,-48.45"/>
<polygon fill="#9c9332" stroke="#9c9332" points="184.08,-51.95 194.08,-48.45 184.08,-44.95 184.08,-51.95"/>
<text text-anchor="middle" x="168.5" y="-52.25" font-family="Helvetica,Arial,sans-serif" font-size="14.00" fill="#f78a05">&quot;h&quot;</text>
</g>
<!-- 2 -->
<g id="node5" class="node">
<title>2</title>
<ellipse fill="#d19928" stroke="#d19928" cx="301" cy="-48.45" rx="18" ry="18"/>
<text text-anchor="middle" x="301" y="-44.75" font-family="Helvetica,Arial,sans-serif" font-size="14.00" fill="white">2</text>
</g>
<!-- 1&#45;&gt;2 -->
<g id="edge3" class="edge">
<title>1&#45;&gt;2</title>
<path fill="none" stroke="#9c9332" d="M232.2,-48.45C243.42,-48.45 258.33,-48.45 271.31,-48.45"/>
<polygon fill="#9c9332" stroke="#9c9332" points="271.02,-51.95 281.02,-48.45 271.02,-44.95 271.02,-51.95"/>
<text text-anchor="middle" x="257.5" y="-52.25" font-family="Helvetica,Arial,sans-serif" font-size="14.00" fill="#f78a05">&quot;t&quot;</text>
</g>
<!-- 3 -->
<g id="node6" class="node">
<title>3</title>
<ellipse fill="#d19928" stroke="#d19928" cx="388" cy="-48.45" rx="18" ry="18"/>
<text text-anchor="middle" x="388" y="-44.75" font-family="Helvetica,Arial,sans-serif" font-size="14.00" fill="white">3</text>
</g>
<!-- 2&#45;&gt;3 -->
<g id="edge4" class="edge">
<title>2&#45;&gt;3</title>
<path fill="none" stroke="#9c9332" d="M319.2,-48.45C330.42,-48.45 345.33,-48.45 358.31,-48.45"/>
<polygon fill="#9c9332" stroke="#9c9332" points="358.02,-51.95 368.02,-48.45 358.02,-44.95 358.02,-51.95"/>
<text text-anchor="middle" x="344.5" y="-52.25" font-family="Helvetica,Arial,sans-serif" font-size="14.00" fill="#f78a05">&quot;t&quot;</text>
</g>
<!-- 4 -->
<g id="node7" class="node">
<title>4</title>
<ellipse fill="#d19928" stroke="#d19928" cx="479" cy="-48.45" rx="18" ry="18"/>
<text text-anchor="middle" x="479" y="-44.75" font-family="Helvetica,Arial,sans-serif" font-size="14.00" fill="white">4</text>
</g>
<!-- 3&#45;&gt;4 -->
<g id="edge5" class="edge">
<title>3&#45;&gt;4</title>
<path fill="none" stroke="#9c9332" d="M406.16,-48.45C418.39,-48.45 435.13,-48.45 449.37,-48.45"/>
<polygon fill="#9c9332" stroke="#9c9332" points="449.08,-51.95 459.08,-48.45 449.08,-44.95 449.08,-51.95"/>
<text text-anchor="middle" x="433.5" y="-52.25" font-family="Helvetica,Arial,sans-serif" font-size="14.00" fill="#f78a05">&quot;p&quot;</text>
</g>
<!-- 5 -->
<g id="node8" class="node">
<title>5</title>
<ellipse fill="#d19928" stroke="#d19928" cx="570" cy="-83.45" rx="18" ry="18"/>
<text text-anchor="middle" x="570" y="-79.75" font-family="Helvetica,Arial,sans-serif" font-size="14.00" fill="white">5</text>
</g>
<!-- 4&#45;&gt;5 -->
<g id="edge6" class="edge">
<title>4&#45;&gt;5</title>
<path fill="none" stroke="#9c9332" d="M496.32,-54.87C509.12,-59.9 527.2,-67.01 542.12,-72.88"/>
<polygon fill="#9c9332" stroke="#9c9332" points="540.78,-76.11 551.37,-76.52 543.35,-69.6 540.78,-76.11"/>
<text text-anchor="middle" x="524.5" y="-72.25" font-family="Helvetica,Arial,sans-serif" font-size="14.00" fill="#f78a05">&quot;s&quot;</text>
</g>
<!-- 6 -->
<g id="node9" class="node">
<title>6</title>
<ellipse fill="#d19928" stroke="#d19928" cx="657" cy="-48.45" rx="18" ry="18"/>
<text text-anchor="middle" x="657" y="-44.75" font-family="Helvetica,Arial,sans-serif" font-size="14.00" fill="white">6</text>
</g>
<!-- 4&#45;&gt;6 -->
<g id="edge15" class="edge">
<title>4&#45;&gt;6</title>
<path fill="none" stroke="#9c9332" d="M497.13,-46.31C511.7,-44.61 533.18,-42.36 552,-41.45 567.98,-40.67 572.02,-40.63 588,-41.45 600.98,-42.11 615.3,-43.49 627.43,-44.85"/>
<polygon fill="#9c9332" stroke="#9c9332" points="626.87,-48.31 637.21,-46 627.68,-41.35 626.87,-48.31"/>
<text text-anchor="middle" x="570" y="-45.25" font-family="Helvetica,Arial,sans-serif" font-size="14.00" fill="#f78a05">&quot;:&quot;</text>
</g>
<!-- 5&#45;&gt;6 -->
<g id="edge7" class="edge">
<title>5&#45;&gt;6</title>
<path fill="none" stroke="#9c9332" d="M586.99,-76.86C598.9,-71.96 615.45,-65.15 629.35,-59.42"/>
<polygon fill="#9c9332" stroke="#9c9332" points="630.48,-62.74 638.4,-55.7 627.82,-56.27 630.48,-62.74"/>
<text text-anchor="middle" x="613.5" y="-71.25" font-family="Helvetica,Arial,sans-serif" font-size="14.00" fill="#f78a05">&quot;:&quot;</text>
</g>
<!-- 7 -->
<g id="node10" class="node">
<title>7</title>
<ellipse fill="#d19928" stroke="#d19928" cx="744" cy="-48.45" rx="18" ry="18"/>
<text text-anchor="middle" x="744" y="-44.75" font-family="Helvetica,Arial,sans-serif" font-size="14.00" fill="white">7</text>
</g>
<!-- 6&#45;&gt;7 -->
<g id="edge8" class="edge">
<title>6&#45;&gt;7</title>
<path fill="none" stroke="#9c9332" d="M675.2,-48.45C686.42,-48.45 701.33,-48.45 714.31,-48.45"/>
<polygon fill="#9c9332" stroke="#9c9332" points="714.02,-51.95 724.02,-48.45 714.02,-44.95 714.02,-51.95"/>
<text text-anchor="middle" x="700.5" y="-52.25" font-family="Helvetica,Arial,sans-serif" font-size="14.00" fill="#f78a05">&quot;/&quot;</text>
</g>
<!-- 8 -->
<g id="node11" class="node">
<title>8</title>
<ellipse fill="#d19928" stroke="#d19928" cx="831" cy="-48.45" rx="18" ry="18"/>
<text text-anchor="middle" x="831" y="-44.75" font-family="Helvetica,Arial,sans-serif" font-size="14.00" fill="white">8</text>
</g>
<!-- 7&#45;&gt;8 -->
<g id="edge9" class="edge">
<title>7&#45;&gt;8</title>
<path fill="none" stroke="#9c9332" d="M762.2,-48.45C773.42,-48.45 788.33,-48.45 801.31,-48.45"/>
<polygon fill="#9c9332" stroke="#9c9332" points="801.02,-51.95 811.02,-48.45 801.02,-44.95 801.02,-51.95"/>
<text text-anchor="middle" x="787.5" y="-52.25" font-family="Helvetica,Arial,sans-serif" font-size="14.00" fill="#f78a05">&quot;/&quot;</text>
</g>
<!-- 9 -->
<g id="node12" class="node">
<title>9</title>
<ellipse fill="#d19928" stroke="#d19928" cx="967" cy="-48.45" rx="18" ry="18"/>
<text text-anchor="middle" x="967" y="-44.75" font-family="Helvetica,Arial,sans-serif" font-size="14.00" fill="white">9</text>
</g>
<!-- 8&#45;&gt;9 -->
<g id="edge10" class="edge">
<title>8&#45;&gt;9</title>
<path fill="none" stroke="#9c9332" d="M849.24,-48.45C871.56,-48.45 910.73,-48.45 937.5,-48.45"/>
<polygon fill="#9c9332" stroke="#9c9332" points="937.31,-51.95 947.31,-48.45 937.31,-44.95 937.31,-51.95"/>
<text text-anchor="middle" x="899" y="-52.25" font-family="Helvetica,Arial,sans-serif" font-size="14.00" fill="#f78a05">minuscula</text>
</g>
<!-- 9&#45;&gt;9 -->
<g id="edge11" class="edge">
<title>9&#45;&gt;9</title>
<path fill="none" stroke="#9c9332" d="M959.35,-65.11C957.65,-75.07 960.2,-84.45 967,-84.45 971.04,-84.45 973.57,-81.14 974.61,-76.37"/>
<polygon fill="#9c9332" stroke="#9c9332" points="978.11,-76.64 974.64,-66.63 971.11,-76.62 978.11,-76.64"/>
<text text-anchor="middle" x="967" y="-88.25" font-family="Helvetica,Arial,sans-serif" font-size="14.00" fill="#f78a05">minuscula</text>
</g>
<!-- 10 -->
<g id="node13" class="node">
<title>10</title>
<ellipse fill="#d19928" stroke="#d19928" cx="1057.45" cy="-48.45" rx="21.4" ry="21.4"/>
<text text-anchor="middle" x="1057.45" y="-44.75" font-family="Helvetica,Arial,sans-serif" font-size="14.00" fill="white">10</text>
</g>
<!-- 9&#45;&gt;10 -->
<g id="edge12" class="edge">
<title>9&#45;&gt;10</title>
<path fill="none" stroke="#9c9332" d="M985.47,-48.45C996.5,-48.45 1011.07,-48.45 1024.15,-48.45"/>
<polygon fill="#9c9332" stroke="#9c9332" points="1024.07,-51.95 1034.07,-48.45 1024.07,-44.95 1024.07,-51.95"/>
<text text-anchor="middle" x="1010.5" y="-52.25" font-family="Helvetica,Arial,sans-serif" font-size="14.00" fill="#f78a05">&quot;.&quot;</text>
</g>
<!-- 10&#45;&gt;11 -->
<g id="edge13" class="edge">
<title>10&#45;&gt;11</title>
<path fill="none" stroke="#9c9332" d="M1079.21,-48.45C1102.15,-48.45 1139.51,-48.45 1167.26,-48.45"/>
<polygon fill="#9c9332" stroke="#9c9332" points="1166.98,-51.95 1176.98,-48.45 1166.98,-44.95 1166.98,-51.95"/>
<text text-anchor="middle" x="1128.9" y="-52.25" font-family="Helvetica,Arial,sans-serif" font-size="14.00" fill="#f78a05">minuscula</text>
</g>
</g>
</svg>
